%TF.GenerationSoftware,KiCad,Pcbnew,6.0.0*%
%TF.CreationDate,2022-01-12T20:58:29-05:00*%
%TF.ProjectId,output-board,6f757470-7574-42d6-926f-6172642e6b69,rev?*%
%TF.SameCoordinates,Original*%
%TF.FileFunction,Copper,L2,Inr*%
%TF.FilePolarity,Positive*%
%FSLAX46Y46*%
G04 Gerber Fmt 4.6, Leading zero omitted, Abs format (unit mm)*
G04 Created by KiCad (PCBNEW 6.0.0) date 2022-01-12 20:58:29*
%MOMM*%
%LPD*%
G01*
G04 APERTURE LIST*
G04 Aperture macros list*
%AMRoundRect*
0 Rectangle with rounded corners*
0 $1 Rounding radius*
0 $2 $3 $4 $5 $6 $7 $8 $9 X,Y pos of 4 corners*
0 Add a 4 corners polygon primitive as box body*
4,1,4,$2,$3,$4,$5,$6,$7,$8,$9,$2,$3,0*
0 Add four circle primitives for the rounded corners*
1,1,$1+$1,$2,$3*
1,1,$1+$1,$4,$5*
1,1,$1+$1,$6,$7*
1,1,$1+$1,$8,$9*
0 Add four rect primitives between the rounded corners*
20,1,$1+$1,$2,$3,$4,$5,0*
20,1,$1+$1,$4,$5,$6,$7,0*
20,1,$1+$1,$6,$7,$8,$9,0*
20,1,$1+$1,$8,$9,$2,$3,0*%
G04 Aperture macros list end*
%TA.AperFunction,ComponentPad*%
%ADD10R,1.700000X1.700000*%
%TD*%
%TA.AperFunction,ComponentPad*%
%ADD11O,1.700000X1.700000*%
%TD*%
%TA.AperFunction,ComponentPad*%
%ADD12RoundRect,0.625000X0.625000X-1.875000X0.625000X1.875000X-0.625000X1.875000X-0.625000X-1.875000X0*%
%TD*%
%TA.AperFunction,ViaPad*%
%ADD13C,0.400000*%
%TD*%
%TA.AperFunction,ViaPad*%
%ADD14C,1.000000*%
%TD*%
%TA.AperFunction,Conductor*%
%ADD15C,0.300000*%
%TD*%
G04 APERTURE END LIST*
D10*
%TO.N,Net-(D5-Pad1)*%
%TO.C,J8*%
X85979000Y-42724000D03*
D11*
%TO.N,+12V*%
X88519000Y-42724000D03*
%TD*%
D10*
%TO.N,Net-(J6-Pad1)*%
%TO.C,J6*%
X40259000Y-57404000D03*
D11*
%TO.N,Net-(J6-Pad2)*%
X40259000Y-54864000D03*
%TD*%
D10*
%TO.N,GND*%
%TO.C,J20*%
X88519000Y-93524000D03*
D11*
%TO.N,Net-(U3-PadH2)*%
X85979000Y-93524000D03*
%TD*%
D10*
%TO.N,Net-(D10-Pad1)*%
%TO.C,J13*%
X63119000Y-93524000D03*
D11*
%TO.N,+12V*%
X60579000Y-93524000D03*
%TD*%
D10*
%TO.N,Net-(D8-Pad1)*%
%TO.C,J11*%
X124079000Y-42724000D03*
D11*
%TO.N,+12V*%
X126619000Y-42724000D03*
%TD*%
D10*
%TO.N,GND*%
%TO.C,J19*%
X39624000Y-37592000D03*
D11*
%TO.N,Net-(J19-Pad2)*%
X37084000Y-37592000D03*
%TO.N,Net-(J19-Pad3)*%
X39624000Y-35052000D03*
%TO.N,Net-(J19-Pad4)*%
X37084000Y-35052000D03*
%TO.N,Net-(J19-Pad5)*%
X39624000Y-32512000D03*
%TO.N,Net-(J19-Pad6)*%
X37084000Y-32512000D03*
%TD*%
D10*
%TO.N,GND*%
%TO.C,J4*%
X40259000Y-103124000D03*
D11*
%TO.N,+5V*%
X40259000Y-100584000D03*
%TD*%
D10*
%TO.N,Net-(D3-Pad1)*%
%TO.C,J2*%
X60579000Y-42724000D03*
D11*
%TO.N,+12V*%
X63119000Y-42724000D03*
%TD*%
D10*
%TO.N,Net-(D4-Pad1)*%
%TO.C,J7*%
X73279000Y-42724000D03*
D11*
%TO.N,+12V*%
X75819000Y-42724000D03*
%TD*%
D10*
%TO.N,Net-(D6-Pad1)*%
%TO.C,J9*%
X98679000Y-42724000D03*
D11*
%TO.N,+12V*%
X101219000Y-42724000D03*
%TD*%
D10*
%TO.N,Net-(D7-Pad1)*%
%TO.C,J10*%
X111379000Y-42724000D03*
D11*
%TO.N,+12V*%
X113919000Y-42724000D03*
%TD*%
D10*
%TO.N,Net-(D12-Pad1)*%
%TO.C,J16*%
X113919000Y-93524000D03*
D11*
%TO.N,+12V*%
X111379000Y-93524000D03*
%TD*%
D10*
%TO.N,Net-(J14-Pad1)*%
%TO.C,J14*%
X40259000Y-91064000D03*
D11*
%TO.N,+5V*%
X40259000Y-88524000D03*
%TD*%
D10*
%TO.N,Net-(D11-Pad1)*%
%TO.C,J15*%
X126619000Y-93524000D03*
D11*
%TO.N,+12V*%
X124079000Y-93524000D03*
%TD*%
D10*
%TO.N,Net-(D13-Pad1)*%
%TO.C,J17*%
X101219000Y-93524000D03*
D11*
%TO.N,+12V*%
X98679000Y-93524000D03*
%TD*%
D10*
%TO.N,Net-(D9-Pad1)*%
%TO.C,J12*%
X75819000Y-93524000D03*
D11*
%TO.N,+12V*%
X73279000Y-93524000D03*
%TD*%
D10*
%TO.N,Net-(D1-Pad1)*%
%TO.C,J1*%
X47879000Y-42724000D03*
D11*
%TO.N,+12V*%
X50419000Y-42724000D03*
%TD*%
D12*
%TO.N,GND*%
%TO.C,J3*%
X55619000Y-68059000D03*
%TO.N,+12V*%
X55619000Y-75959000D03*
%TD*%
D10*
%TO.N,Net-(D2-Pad1)*%
%TO.C,J18*%
X50419000Y-93524000D03*
D11*
%TO.N,+12V*%
X47879000Y-93524000D03*
%TD*%
D10*
%TO.N,GND*%
%TO.C,J5*%
X39624000Y-49784000D03*
D11*
%TO.N,+5V*%
X39624000Y-47244000D03*
%TO.N,/SWCLK*%
X39624000Y-44704000D03*
%TO.N,/SWDIO*%
X39624000Y-42164000D03*
%TD*%
D13*
%TO.N,+12V*%
X30988000Y-39878000D03*
%TO.N,/MOSFET-sheet/INPUT*%
X89907801Y-68894435D03*
X43815000Y-84201000D03*
%TO.N,GND*%
X102997000Y-67310000D03*
X101422200Y-63347600D03*
X69204000Y-73279000D03*
D14*
X120396000Y-49022000D03*
D13*
X68707000Y-61468000D03*
D14*
X64793724Y-71053131D03*
D13*
X69977000Y-65405000D03*
D14*
X94996000Y-49022000D03*
X88392000Y-86868000D03*
X107696000Y-49022000D03*
D13*
X74599800Y-65328800D03*
D14*
X106817197Y-77089000D03*
X49022000Y-54610000D03*
D13*
X87503000Y-64066271D03*
D14*
X106894935Y-75819000D03*
X54102000Y-87249000D03*
D13*
X102997000Y-69342000D03*
D14*
X69596000Y-49022000D03*
X56896000Y-49022000D03*
X54229000Y-58674000D03*
X82296000Y-49022000D03*
D13*
X102997000Y-73406000D03*
D14*
X66802000Y-87249000D03*
D13*
X126365000Y-71882000D03*
X77089000Y-72390000D03*
X102997000Y-71374000D03*
D14*
X79502000Y-87249000D03*
D13*
X92303036Y-65664767D03*
X77089000Y-68072000D03*
D14*
X46203882Y-49548652D03*
X106866720Y-78359000D03*
D13*
X70474000Y-71374000D03*
X77089000Y-70104000D03*
D14*
X63096725Y-57384859D03*
D13*
X86639400Y-67310000D03*
%TO.N,/MOSFET-sheet1/INPUT*%
X54483000Y-49784000D03*
X90170000Y-70358000D03*
%TO.N,/MOSFET-sheet2/INPUT*%
X89964348Y-66565398D03*
X67188000Y-49256306D03*
%TO.N,/MOSFET-sheet6/INPUT*%
X117983000Y-49530000D03*
X90710808Y-63275121D03*
%TO.N,Net-(MOSFET6-Pad1)*%
X110114000Y-45969000D03*
X113416000Y-45969000D03*
%TO.N,/MOSFET-sheet5/INPUT*%
X90713428Y-64074170D03*
X105283000Y-49276000D03*
%TO.N,Net-(MOSFET5-Pad1)*%
X100716000Y-45969000D03*
X97414000Y-45969000D03*
%TO.N,Net-(MOSFET2-Pad1)*%
X62616000Y-45969000D03*
X59314000Y-45969000D03*
%TO.N,Net-(MOSFET18-Pad1)*%
X48382000Y-90279000D03*
X51684000Y-90279000D03*
%TO.N,/MOSFET-sheet4/INPUT*%
X91440000Y-47371000D03*
X92137149Y-60877541D03*
%TO.N,Net-(MOSFET4-Pad1)*%
X88016000Y-45969000D03*
X84714000Y-45969000D03*
%TO.N,Net-(MOSFET1-Pad1)*%
X46614000Y-45969000D03*
X49916000Y-45969000D03*
%TO.N,/MOSFET-sheet3/INPUT*%
X92430600Y-61468000D03*
X79883000Y-49911000D03*
%TO.N,Net-(MOSFET3-Pad1)*%
X72014000Y-45969000D03*
X75316000Y-45969000D03*
%TO.N,/Ignition MOSFET/INPUT*%
X94615000Y-85725000D03*
X93091000Y-69723000D03*
%TO.N,Net-(MOSFET13-Pad1)*%
X99182000Y-90279000D03*
X102484000Y-90279000D03*
%TO.N,/MOSFET-sheet11/INPUT*%
X92202000Y-70231000D03*
X107696000Y-87122000D03*
%TO.N,Net-(MOSFET12-Pad1)*%
X115184000Y-90279000D03*
X111882000Y-90279000D03*
%TO.N,/MOSFET-sheet10/INPUT*%
X92306943Y-68872424D03*
X120015000Y-85852000D03*
%TO.N,Net-(MOSFET11-Pad1)*%
X124582000Y-90279000D03*
X127884000Y-90279000D03*
%TO.N,/MOSFET-sheet9/INPUT*%
X89916000Y-62484000D03*
X56515000Y-84582000D03*
%TO.N,Net-(MOSFET9-Pad1)*%
X61082000Y-90279000D03*
X64384000Y-90279000D03*
%TO.N,/MOSFET-sheet8/INPUT*%
X89910724Y-63251047D03*
X69215000Y-84455000D03*
%TO.N,Net-(MOSFET8-Pad1)*%
X77084000Y-90279000D03*
X73782000Y-90279000D03*
%TO.N,/MOSFET-sheet7/INPUT*%
X130683000Y-49149000D03*
X90693199Y-62460042D03*
%TO.N,Net-(MOSFET7-Pad1)*%
X126116000Y-45969000D03*
X122814000Y-45969000D03*
%TO.N,Net-(R1-Pad1)*%
X97256600Y-62941200D03*
X90706818Y-64862143D03*
%TO.N,Net-(J14-Pad1)*%
X93113555Y-67276965D03*
X96037400Y-71932800D03*
%TO.N,+3V3*%
X90715667Y-66465676D03*
X91505748Y-66469598D03*
X98425000Y-70612000D03*
X80899000Y-68326000D03*
X89098511Y-65666387D03*
X92303036Y-66470365D03*
X80899000Y-70358000D03*
X88311746Y-63272462D03*
X88303886Y-64857459D03*
X98425000Y-72644000D03*
X98425000Y-66548000D03*
X98425000Y-68580000D03*
%TO.N,/SWCLK*%
X92989400Y-61061600D03*
%TO.N,/SWDIO*%
X93446600Y-60655200D03*
%TO.N,/CAN_TX*%
X95123000Y-61976000D03*
X63373000Y-58674000D03*
%TO.N,/CAN_RX*%
X95885000Y-62010542D03*
X62865000Y-55626000D03*
%TO.N,Net-(J19-Pad2)*%
X87557300Y-68847997D03*
%TO.N,Net-(C7-Pad1)*%
X87497410Y-65668358D03*
X97358200Y-64465200D03*
%TO.N,Net-(J19-Pad3)*%
X87532325Y-69620101D03*
%TO.N,Net-(J19-Pad4)*%
X88284566Y-68071201D03*
%TO.N,Net-(J19-Pad5)*%
X88307800Y-68894434D03*
%TO.N,Net-(J19-Pad6)*%
X88313752Y-69641546D03*
%TO.N,Net-(U3-PadH2)*%
X87503000Y-68072000D03*
X85598000Y-85852000D03*
%TD*%
D15*
%TO.N,/MOSFET-sheet/INPUT*%
X58715238Y-76599520D02*
X83166480Y-76599520D01*
X51113758Y-84201000D02*
X58715238Y-76599520D01*
X89916000Y-68902634D02*
X89907801Y-68894435D01*
X43815000Y-84201000D02*
X51113758Y-84201000D01*
X89916000Y-69850000D02*
X89916000Y-68902634D01*
X83166480Y-76599520D02*
X89916000Y-69850000D01*
%TO.N,/MOSFET-sheet1/INPUT*%
X90170000Y-70358000D02*
X90357312Y-70170688D01*
X90357312Y-68708240D02*
X89226125Y-67577053D01*
X90357312Y-70170688D02*
X90357312Y-68708240D01*
X83355817Y-67759511D02*
X82017306Y-66421000D01*
X87008053Y-67577053D02*
X86825595Y-67759511D01*
X89226125Y-67577053D02*
X87008053Y-67577053D01*
X70231000Y-66421000D02*
X54483000Y-50673000D01*
X54483000Y-50673000D02*
X54483000Y-49784000D01*
X86825595Y-67759511D02*
X83355817Y-67759511D01*
X82017306Y-66421000D02*
X70231000Y-66421000D01*
%TO.N,/MOSFET-sheet2/INPUT*%
X84497092Y-66565398D02*
X67188000Y-49256306D01*
X89964348Y-66565398D02*
X84497092Y-66565398D01*
%TO.N,/MOSFET-sheet6/INPUT*%
X90457654Y-65311654D02*
X90257307Y-65111307D01*
X102464662Y-65048338D02*
X91161662Y-65048338D01*
X90898346Y-65311654D02*
X90457654Y-65311654D01*
X117983000Y-49530000D02*
X102464662Y-65048338D01*
X90257307Y-65111307D02*
X90257307Y-63728622D01*
X90257307Y-63728622D02*
X90710808Y-63275121D01*
X91161662Y-65048338D02*
X90898346Y-65311654D01*
%TO.N,/MOSFET-sheet5/INPUT*%
X105283000Y-49276000D02*
X105283000Y-49504598D01*
X105283000Y-49504598D02*
X90713428Y-64074170D01*
%TO.N,/MOSFET-sheet4/INPUT*%
X91440000Y-60180392D02*
X91440000Y-47371000D01*
X92137149Y-60877541D02*
X91440000Y-60180392D01*
%TO.N,/MOSFET-sheet3/INPUT*%
X79883000Y-49911000D02*
X79883000Y-51029306D01*
X90321694Y-61468000D02*
X92430600Y-61468000D01*
X79883000Y-51029306D02*
X90321694Y-61468000D01*
%TO.N,/Ignition MOSFET/INPUT*%
X93454289Y-84564289D02*
X93454289Y-70086289D01*
X94615000Y-85725000D02*
X93454289Y-84564289D01*
X93454289Y-70086289D02*
X93091000Y-69723000D01*
%TO.N,Net-(J14-Pad1)*%
X93113555Y-69008955D02*
X96037400Y-71932800D01*
X93113555Y-67276965D02*
X93113555Y-69008955D01*
%TO.N,Net-(J19-Pad2)*%
X41802266Y-62476300D02*
X36811480Y-57485514D01*
X87557300Y-68847997D02*
X82237297Y-74168000D01*
X64381300Y-62476300D02*
X41802266Y-62476300D01*
X36811480Y-57485514D02*
X36811480Y-37864520D01*
X82237297Y-74168000D02*
X76073000Y-74168000D01*
X64381300Y-62476300D02*
X76073000Y-74168000D01*
X36811480Y-37864520D02*
X37084000Y-37592000D01*
%TO.N,Net-(J19-Pad3)*%
X38524489Y-36151511D02*
X39624000Y-35052000D01*
X75946000Y-74676000D02*
X64262000Y-62992000D01*
X41752960Y-62992000D02*
X35984489Y-57223529D01*
X35984489Y-57223529D02*
X35984489Y-37136567D01*
X35984489Y-37136567D02*
X36969545Y-36151511D01*
X87532325Y-69620101D02*
X82476426Y-74676000D01*
X36969545Y-36151511D02*
X38524489Y-36151511D01*
X64262000Y-62992000D02*
X41752960Y-62992000D01*
X82476426Y-74676000D02*
X75946000Y-74676000D01*
%TO.N,Net-(J19-Pad4)*%
X88284566Y-68071201D02*
X89164830Y-68951465D01*
X36297031Y-31012969D02*
X39679913Y-31012969D01*
X39834511Y-33952489D02*
X38183511Y-33952489D01*
X34785931Y-57719989D02*
X34785931Y-32524069D01*
X34785931Y-32524069D02*
X36297031Y-31012969D01*
X89164830Y-68951465D02*
X89164830Y-70023176D01*
X40723511Y-32056567D02*
X40723511Y-33063489D01*
X74664294Y-76200000D02*
X62967089Y-64502795D01*
X41568737Y-64502795D02*
X34785931Y-57719989D01*
X38183511Y-33952489D02*
X37084000Y-35052000D01*
X89164830Y-70023176D02*
X82988006Y-76200000D01*
X40723511Y-33063489D02*
X39834511Y-33952489D01*
X39679913Y-31012969D02*
X40723511Y-32056567D01*
X82988006Y-76200000D02*
X74664294Y-76200000D01*
X62967089Y-64502795D02*
X41568737Y-64502795D01*
%TO.N,Net-(J19-Pad5)*%
X63754000Y-64008000D02*
X41638948Y-64008000D01*
X88765311Y-69857689D02*
X82931000Y-75692000D01*
X82931000Y-75692000D02*
X75438000Y-75692000D01*
X88765311Y-69351945D02*
X88765311Y-69857689D01*
X36532511Y-31412489D02*
X38524489Y-31412489D01*
X38524489Y-31412489D02*
X39624000Y-32512000D01*
X41638948Y-64008000D02*
X35185450Y-57554502D01*
X75438000Y-75692000D02*
X63754000Y-64008000D01*
X35185450Y-32759550D02*
X36532511Y-31412489D01*
X35185450Y-57554502D02*
X35185450Y-32759550D01*
X88307800Y-68894434D02*
X88765311Y-69351945D01*
%TO.N,Net-(J19-Pad6)*%
X35584970Y-57389016D02*
X35584970Y-34011030D01*
X88313752Y-69641546D02*
X82771298Y-75184000D01*
X64008000Y-63500000D02*
X75692000Y-75184000D01*
X82771298Y-75184000D02*
X75692000Y-75184000D01*
X35584970Y-34011030D02*
X37084000Y-32512000D01*
X64008000Y-63500000D02*
X41695954Y-63500000D01*
X41695954Y-63500000D02*
X35584970Y-57389016D01*
%TD*%
M02*
