%TF.GenerationSoftware,KiCad,Pcbnew,6.0.0*%
%TF.CreationDate,2022-01-12T20:58:30-05:00*%
%TF.ProjectId,output-board,6f757470-7574-42d6-926f-6172642e6b69,rev?*%
%TF.SameCoordinates,Original*%
%TF.FileFunction,Soldermask,Top*%
%TF.FilePolarity,Negative*%
%FSLAX46Y46*%
G04 Gerber Fmt 4.6, Leading zero omitted, Abs format (unit mm)*
G04 Created by KiCad (PCBNEW 6.0.0) date 2022-01-12 20:58:30*
%MOMM*%
%LPD*%
G01*
G04 APERTURE LIST*
G04 Aperture macros list*
%AMRoundRect*
0 Rectangle with rounded corners*
0 $1 Rounding radius*
0 $2 $3 $4 $5 $6 $7 $8 $9 X,Y pos of 4 corners*
0 Add a 4 corners polygon primitive as box body*
4,1,4,$2,$3,$4,$5,$6,$7,$8,$9,$2,$3,0*
0 Add four circle primitives for the rounded corners*
1,1,$1+$1,$2,$3*
1,1,$1+$1,$4,$5*
1,1,$1+$1,$6,$7*
1,1,$1+$1,$8,$9*
0 Add four rect primitives between the rounded corners*
20,1,$1+$1,$2,$3,$4,$5,0*
20,1,$1+$1,$4,$5,$6,$7,0*
20,1,$1+$1,$6,$7,$8,$9,0*
20,1,$1+$1,$8,$9,$2,$3,0*%
G04 Aperture macros list end*
%ADD10RoundRect,0.250000X-0.375000X-0.625000X0.375000X-0.625000X0.375000X0.625000X-0.375000X0.625000X0*%
%ADD11R,0.863600X0.558800*%
%ADD12RoundRect,0.200000X-0.200000X-0.275000X0.200000X-0.275000X0.200000X0.275000X-0.200000X0.275000X0*%
%ADD13R,1.700000X1.700000*%
%ADD14O,1.700000X1.700000*%
%ADD15RoundRect,0.225000X-0.250000X0.225000X-0.250000X-0.225000X0.250000X-0.225000X0.250000X0.225000X0*%
%ADD16RoundRect,0.225000X0.225000X0.250000X-0.225000X0.250000X-0.225000X-0.250000X0.225000X-0.250000X0*%
%ADD17RoundRect,0.225000X-0.225000X-0.250000X0.225000X-0.250000X0.225000X0.250000X-0.225000X0.250000X0*%
%ADD18RoundRect,0.250000X0.375000X0.625000X-0.375000X0.625000X-0.375000X-0.625000X0.375000X-0.625000X0*%
%ADD19RoundRect,0.150000X-0.512500X-0.150000X0.512500X-0.150000X0.512500X0.150000X-0.512500X0.150000X0*%
%ADD20RoundRect,0.200000X0.200000X0.275000X-0.200000X0.275000X-0.200000X-0.275000X0.200000X-0.275000X0*%
%ADD21R,1.400000X1.200000*%
%ADD22RoundRect,0.200000X0.275000X-0.200000X0.275000X0.200000X-0.275000X0.200000X-0.275000X-0.200000X0*%
%ADD23RoundRect,0.218750X0.218750X0.256250X-0.218750X0.256250X-0.218750X-0.256250X0.218750X-0.256250X0*%
%ADD24RoundRect,0.375000X0.375000X-0.375000X0.375000X0.375000X-0.375000X0.375000X-0.375000X-0.375000X0*%
%ADD25C,0.500000*%
%ADD26RoundRect,0.625000X0.625000X-1.875000X0.625000X1.875000X-0.625000X1.875000X-0.625000X-1.875000X0*%
%ADD27R,1.549400X0.558800*%
%ADD28R,4.902200X4.470400*%
%ADD29R,1.981200X0.540800*%
G04 APERTURE END LIST*
D10*
%TO.C,D1*%
X47500000Y-51303000D03*
X50300000Y-51303000D03*
%TD*%
D11*
%TO.C,MOSFET5*%
X96220200Y-46034999D03*
X96220200Y-47935001D03*
X98607800Y-46985000D03*
%TD*%
%TO.C,MOSFET13*%
X103677800Y-90213001D03*
X103677800Y-88312999D03*
X101290200Y-89263000D03*
%TD*%
D12*
%TO.C,R5*%
X76269000Y-48255000D03*
X77919000Y-48255000D03*
%TD*%
D13*
%TO.C,J8*%
X85979000Y-42724000D03*
D14*
X88519000Y-42724000D03*
%TD*%
D12*
%TO.C,R7*%
X101669000Y-48255000D03*
X103319000Y-48255000D03*
%TD*%
D15*
%TO.C,C3*%
X71744000Y-70104000D03*
X71744000Y-71654000D03*
%TD*%
D12*
%TO.C,R3*%
X80023200Y-64465200D03*
X81673200Y-64465200D03*
%TD*%
D16*
%TO.C,C5*%
X79834000Y-70944000D03*
X78284000Y-70944000D03*
%TD*%
D17*
%TO.C,C9*%
X100284000Y-72944000D03*
X101834000Y-72944000D03*
%TD*%
D18*
%TO.C,D12*%
X114298000Y-84945000D03*
X111498000Y-84945000D03*
%TD*%
D19*
%TO.C,U2*%
X66294000Y-70104000D03*
X66294000Y-71054000D03*
X66294000Y-72004000D03*
X68569000Y-72004000D03*
X68569000Y-70104000D03*
%TD*%
D20*
%TO.C,R10*%
X72829000Y-87993000D03*
X71179000Y-87993000D03*
%TD*%
D13*
%TO.C,J6*%
X40259000Y-57404000D03*
D14*
X40259000Y-54864000D03*
%TD*%
D12*
%TO.C,R9*%
X127069000Y-48255000D03*
X128719000Y-48255000D03*
%TD*%
D13*
%TO.C,J20*%
X88519000Y-93524000D03*
D14*
X85979000Y-93524000D03*
%TD*%
D18*
%TO.C,D11*%
X126998000Y-84945000D03*
X124198000Y-84945000D03*
%TD*%
D17*
%TO.C,C11*%
X75653600Y-64465200D03*
X77203600Y-64465200D03*
%TD*%
D11*
%TO.C,MOSFET18*%
X52877800Y-90213001D03*
X52877800Y-88312999D03*
X50490200Y-89263000D03*
%TD*%
D21*
%TO.C,Y1*%
X70442000Y-62650000D03*
X68242000Y-62650000D03*
X68242000Y-64350000D03*
X70442000Y-64350000D03*
%TD*%
D20*
%TO.C,R19*%
X103319000Y-45969000D03*
X101669000Y-45969000D03*
%TD*%
D12*
%TO.C,R4*%
X63569000Y-48255000D03*
X65219000Y-48255000D03*
%TD*%
D16*
%TO.C,C4*%
X79834000Y-68944000D03*
X78284000Y-68944000D03*
%TD*%
D13*
%TO.C,J13*%
X63119000Y-93524000D03*
D14*
X60579000Y-93524000D03*
%TD*%
D16*
%TO.C,C6*%
X79834000Y-72944000D03*
X78284000Y-72944000D03*
%TD*%
D11*
%TO.C,MOSFET8*%
X78277800Y-90213001D03*
X78277800Y-88312999D03*
X75890200Y-89263000D03*
%TD*%
D10*
%TO.C,D6*%
X98300000Y-51303000D03*
X101100000Y-51303000D03*
%TD*%
D12*
%TO.C,R6*%
X88969000Y-48255000D03*
X90619000Y-48255000D03*
%TD*%
D22*
%TO.C,R12*%
X101727000Y-79565000D03*
X101727000Y-77915000D03*
%TD*%
D10*
%TO.C,D7*%
X111000000Y-51303000D03*
X113800000Y-51303000D03*
%TD*%
%TO.C,D8*%
X123700000Y-51303000D03*
X126500000Y-51303000D03*
%TD*%
D11*
%TO.C,MOSFET1*%
X45420200Y-46034999D03*
X45420200Y-47935001D03*
X47807800Y-46985000D03*
%TD*%
D20*
%TO.C,R21*%
X116019000Y-45969000D03*
X114369000Y-45969000D03*
%TD*%
%TO.C,R26*%
X123629000Y-87993000D03*
X121979000Y-87993000D03*
%TD*%
D13*
%TO.C,J11*%
X124079000Y-42724000D03*
D14*
X126619000Y-42724000D03*
%TD*%
D12*
%TO.C,R8*%
X114369000Y-48255000D03*
X116019000Y-48255000D03*
%TD*%
D13*
%TO.C,J19*%
X39624000Y-37592000D03*
D14*
X37084000Y-37592000D03*
X39624000Y-35052000D03*
X37084000Y-35052000D03*
X39624000Y-32512000D03*
X37084000Y-32512000D03*
%TD*%
D10*
%TO.C,D3*%
X60200000Y-51303000D03*
X63000000Y-51303000D03*
%TD*%
D11*
%TO.C,MOSFET11*%
X129077800Y-90213001D03*
X129077800Y-88312999D03*
X126690200Y-89263000D03*
%TD*%
D13*
%TO.C,J4*%
X40259000Y-103124000D03*
D14*
X40259000Y-100584000D03*
%TD*%
D12*
%TO.C,R23*%
X71179000Y-90279000D03*
X72829000Y-90279000D03*
%TD*%
D13*
%TO.C,J2*%
X60579000Y-42724000D03*
D14*
X63119000Y-42724000D03*
%TD*%
D12*
%TO.C,R27*%
X109279000Y-90279000D03*
X110929000Y-90279000D03*
%TD*%
D16*
%TO.C,C1*%
X67439000Y-74549000D03*
X65889000Y-74549000D03*
%TD*%
D18*
%TO.C,D2*%
X50798000Y-84945000D03*
X47998000Y-84945000D03*
%TD*%
D20*
%TO.C,R20*%
X47429000Y-87993000D03*
X45779000Y-87993000D03*
%TD*%
D11*
%TO.C,MOSFET2*%
X58120200Y-46034999D03*
X58120200Y-47935001D03*
X60507800Y-46985000D03*
%TD*%
D23*
%TO.C,L1*%
X79846500Y-75944000D03*
X78271500Y-75944000D03*
%TD*%
D11*
%TO.C,MOSFET12*%
X116377800Y-90213001D03*
X116377800Y-88312999D03*
X113990200Y-89263000D03*
%TD*%
%TO.C,MOSFET4*%
X83520200Y-46034999D03*
X83520200Y-47935001D03*
X85907800Y-46985000D03*
%TD*%
%TO.C,MOSFET7*%
X121620200Y-46034999D03*
X121620200Y-47935001D03*
X124007800Y-46985000D03*
%TD*%
D13*
%TO.C,J7*%
X73279000Y-42724000D03*
D14*
X75819000Y-42724000D03*
%TD*%
D13*
%TO.C,J9*%
X98679000Y-42724000D03*
D14*
X101219000Y-42724000D03*
%TD*%
D11*
%TO.C,MOSFET9*%
X65577800Y-90213001D03*
X65577800Y-88312999D03*
X63190200Y-89263000D03*
%TD*%
D13*
%TO.C,J10*%
X111379000Y-42724000D03*
D14*
X113919000Y-42724000D03*
%TD*%
D20*
%TO.C,R18*%
X90619000Y-45969000D03*
X88969000Y-45969000D03*
%TD*%
D17*
%TO.C,C8*%
X100284000Y-66944000D03*
X101834000Y-66944000D03*
%TD*%
D12*
%TO.C,R2*%
X50869000Y-48255000D03*
X52519000Y-48255000D03*
%TD*%
D24*
%TO.C,SW1*%
X120559000Y-70244000D03*
X125059000Y-70244000D03*
X120559000Y-62344000D03*
X125059000Y-62344000D03*
%TD*%
D16*
%TO.C,C2*%
X71249000Y-74549000D03*
X69699000Y-74549000D03*
%TD*%
D10*
%TO.C,D5*%
X85600000Y-51303000D03*
X88400000Y-51303000D03*
%TD*%
D25*
%TO.C,U3*%
X87107800Y-62071200D03*
X87907800Y-62071200D03*
X88707800Y-62071200D03*
X89507800Y-62071200D03*
X90307800Y-62071200D03*
X91107800Y-62071200D03*
X91907800Y-62071200D03*
X92707800Y-62071200D03*
X93507800Y-62071200D03*
X94307800Y-62071200D03*
X87107800Y-62871200D03*
X87907800Y-62871200D03*
X88707800Y-62871200D03*
X89507800Y-62871200D03*
X90307800Y-62871200D03*
X91107800Y-62871200D03*
X91907800Y-62871200D03*
X92707800Y-62871200D03*
X93507800Y-62871200D03*
X94307800Y-62871200D03*
X87107800Y-63671200D03*
X87907800Y-63671200D03*
X88707800Y-63671200D03*
X89507800Y-63671200D03*
X90307800Y-63671200D03*
X91107800Y-63671200D03*
X91907800Y-63671200D03*
X92707800Y-63671200D03*
X93507800Y-63671200D03*
X94307800Y-63671200D03*
X87107800Y-64471200D03*
X87907800Y-64471200D03*
X88707800Y-64471200D03*
X89507800Y-64471200D03*
X90307800Y-64471200D03*
X91107800Y-64471200D03*
X91907800Y-64471200D03*
X92707800Y-64471200D03*
X93507800Y-64471200D03*
X94307800Y-64471200D03*
X87107800Y-65271200D03*
X87907800Y-65271200D03*
X88707800Y-65271200D03*
X89507800Y-65271200D03*
X90307800Y-65271200D03*
X91107800Y-65271200D03*
X91907800Y-65271200D03*
X92707800Y-65271200D03*
X93507800Y-65271200D03*
X94307800Y-65271200D03*
X87107800Y-66071200D03*
X87907800Y-66071200D03*
X88707800Y-66071200D03*
X89507800Y-66071200D03*
X90307800Y-66071200D03*
X91107800Y-66071200D03*
X91907800Y-66071200D03*
X92707800Y-66071200D03*
X93507800Y-66071200D03*
X94307800Y-66071200D03*
X87107800Y-66871200D03*
X87907800Y-66871200D03*
X88707800Y-66871200D03*
X89507800Y-66871200D03*
X90307800Y-66871200D03*
X91107800Y-66871200D03*
X91907800Y-66871200D03*
X92707800Y-66871200D03*
X93507800Y-66871200D03*
X94307800Y-66871200D03*
X87107800Y-67671200D03*
X87907800Y-67671200D03*
X88707800Y-67671200D03*
X89507800Y-67671200D03*
X90307800Y-67671200D03*
X91107800Y-67671200D03*
X91907800Y-67671200D03*
X92707800Y-67671200D03*
X93507800Y-67671200D03*
X94307800Y-67671200D03*
X87107800Y-68471200D03*
X87907800Y-68471200D03*
X88707800Y-68471200D03*
X89507800Y-68471200D03*
X90307800Y-68471200D03*
X91107800Y-68471200D03*
X91907800Y-68471200D03*
X92707800Y-68471200D03*
X93507800Y-68471200D03*
X94307800Y-68471200D03*
X87107800Y-69271200D03*
X87907800Y-69271200D03*
X88707800Y-69271200D03*
X89507800Y-69271200D03*
X90307800Y-69271200D03*
X91107800Y-69271200D03*
X91907800Y-69271200D03*
X92707800Y-69271200D03*
X93507800Y-69271200D03*
X94307800Y-69271200D03*
%TD*%
D18*
%TO.C,D15*%
X32134000Y-43180000D03*
X29334000Y-43180000D03*
%TD*%
D13*
%TO.C,J16*%
X113919000Y-93524000D03*
D14*
X111379000Y-93524000D03*
%TD*%
D11*
%TO.C,MOSFET6*%
X108920200Y-46034999D03*
X108920200Y-47935001D03*
X111307800Y-46985000D03*
%TD*%
D22*
%TO.C,R13*%
X104775000Y-79565000D03*
X104775000Y-77915000D03*
%TD*%
D13*
%TO.C,J14*%
X40259000Y-91064000D03*
D14*
X40259000Y-88524000D03*
%TD*%
D20*
%TO.C,R30*%
X98229000Y-87993000D03*
X96579000Y-87993000D03*
%TD*%
D12*
%TO.C,R29*%
X96579000Y-90279000D03*
X98229000Y-90279000D03*
%TD*%
D20*
%TO.C,R31*%
X30797000Y-38608000D03*
X29147000Y-38608000D03*
%TD*%
D12*
%TO.C,R14*%
X45779000Y-90279000D03*
X47429000Y-90279000D03*
%TD*%
D20*
%TO.C,R28*%
X110929000Y-87993000D03*
X109279000Y-87993000D03*
%TD*%
D13*
%TO.C,J15*%
X126619000Y-93524000D03*
D14*
X124079000Y-93524000D03*
%TD*%
D12*
%TO.C,R25*%
X121979000Y-90279000D03*
X123629000Y-90279000D03*
%TD*%
D13*
%TO.C,J17*%
X101219000Y-93524000D03*
D14*
X98679000Y-93524000D03*
%TD*%
D18*
%TO.C,D13*%
X101598000Y-84945000D03*
X98798000Y-84945000D03*
%TD*%
D17*
%TO.C,C13*%
X100284000Y-70944000D03*
X101834000Y-70944000D03*
%TD*%
D10*
%TO.C,D4*%
X72900000Y-51303000D03*
X75700000Y-51303000D03*
%TD*%
D18*
%TO.C,D9*%
X76198000Y-84945000D03*
X73398000Y-84945000D03*
%TD*%
%TO.C,D10*%
X63498000Y-84945000D03*
X60698000Y-84945000D03*
%TD*%
D20*
%TO.C,R22*%
X128719000Y-45969000D03*
X127069000Y-45969000D03*
%TD*%
%TO.C,R16*%
X65219000Y-45969000D03*
X63569000Y-45969000D03*
%TD*%
D13*
%TO.C,J12*%
X75819000Y-93524000D03*
D14*
X73279000Y-93524000D03*
%TD*%
D17*
%TO.C,C10*%
X75653600Y-62585600D03*
X77203600Y-62585600D03*
%TD*%
D12*
%TO.C,R24*%
X58479000Y-90279000D03*
X60129000Y-90279000D03*
%TD*%
D17*
%TO.C,C7*%
X122034000Y-58039000D03*
X123584000Y-58039000D03*
%TD*%
D13*
%TO.C,J1*%
X47879000Y-42724000D03*
D14*
X50419000Y-42724000D03*
%TD*%
D26*
%TO.C,J3*%
X55619000Y-68059000D03*
X55619000Y-75959000D03*
%TD*%
D20*
%TO.C,R17*%
X77919000Y-45969000D03*
X76269000Y-45969000D03*
%TD*%
%TO.C,R32*%
X30797000Y-45720000D03*
X29147000Y-45720000D03*
%TD*%
%TO.C,R11*%
X60129000Y-87993000D03*
X58479000Y-87993000D03*
%TD*%
D11*
%TO.C,MOSFET3*%
X70820200Y-46034999D03*
X70820200Y-47935001D03*
X73207800Y-46985000D03*
%TD*%
D17*
%TO.C,C12*%
X100284000Y-68944000D03*
X101834000Y-68944000D03*
%TD*%
D27*
%TO.C,MOSFET10*%
X108432600Y-75819000D03*
X108432600Y-77089000D03*
X108432600Y-78359000D03*
X108432600Y-79629000D03*
D28*
X112801400Y-77724000D03*
%TD*%
D18*
%TO.C,D14*%
X32134000Y-36068000D03*
X29334000Y-36068000D03*
%TD*%
D29*
%TO.C,U1*%
X61146610Y-58684353D03*
X61146610Y-57414353D03*
X61146610Y-56144353D03*
X61146610Y-54874353D03*
X56216612Y-54874353D03*
X56216612Y-56144353D03*
X56216612Y-57414353D03*
X56216612Y-58684353D03*
%TD*%
D12*
%TO.C,R1*%
X98412800Y-62911200D03*
X100062800Y-62911200D03*
%TD*%
D13*
%TO.C,J18*%
X50419000Y-93524000D03*
D14*
X47879000Y-93524000D03*
%TD*%
D13*
%TO.C,J5*%
X39624000Y-49784000D03*
D14*
X39624000Y-47244000D03*
X39624000Y-44704000D03*
X39624000Y-42164000D03*
%TD*%
D20*
%TO.C,R15*%
X52519000Y-45969000D03*
X50869000Y-45969000D03*
%TD*%
M02*
