M48
; DRILL file {KiCad 6.0.0} date Wed 12 Jan 2022 08:58:37 PM EST
; FORMAT={-:-/ absolute / metric / decimal}
; #@! TF.CreationDate,2022-01-12T20:58:37-05:00
; #@! TF.GenerationSoftware,Kicad,Pcbnew,6.0.0
; #@! TF.FileFunction,Plated,1,4,PTH
FMAT,2
METRIC
; #@! TA.AperFunction,Plated,PTH,ViaDrill
T1C0.200
; #@! TA.AperFunction,Plated,PTH,ViaDrill
T2C0.400
; #@! TA.AperFunction,Plated,PTH,ComponentDrill
T3C1.000
; #@! TA.AperFunction,Plated,PTH,ComponentDrill
T4C1.500
%
G90
G05
T1
X30.988Y-39.878
X43.815Y-84.201
X46.614Y-45.969
X48.382Y-90.279
X49.916Y-45.969
X51.684Y-90.279
X54.483Y-49.784
X56.515Y-84.582
X59.314Y-45.969
X61.082Y-90.279
X62.616Y-45.969
X62.865Y-55.626
X63.373Y-58.674
X64.384Y-90.279
X67.188Y-49.256
X68.707Y-61.468
X69.204Y-73.279
X69.215Y-84.455
X69.977Y-65.405
X70.474Y-71.374
X72.014Y-45.969
X73.782Y-90.279
X74.6Y-65.329
X75.316Y-45.969
X77.084Y-90.279
X77.089Y-68.072
X77.089Y-70.104
X77.089Y-72.39
X79.883Y-49.911
X80.899Y-68.326
X80.899Y-70.358
X84.714Y-45.969
X85.598Y-85.852
X86.639Y-67.31
X87.497Y-65.668
X87.503Y-64.066
X87.503Y-68.072
X87.532Y-69.62
X87.557Y-68.848
X88.016Y-45.969
X88.285Y-68.071
X88.304Y-64.857
X88.308Y-68.894
X88.312Y-63.272
X88.314Y-69.642
X89.099Y-65.666
X89.908Y-68.894
X89.911Y-63.251
X89.916Y-62.484
X89.964Y-66.565
X90.17Y-70.358
X90.693Y-62.46
X90.707Y-64.862
X90.711Y-63.275
X90.713Y-64.074
X90.716Y-66.466
X91.44Y-47.371
X91.506Y-66.47
X92.137Y-60.878
X92.202Y-70.231
X92.303Y-65.665
X92.303Y-66.47
X92.307Y-68.872
X92.431Y-61.468
X92.989Y-61.062
X93.091Y-69.723
X93.114Y-67.277
X93.447Y-60.655
X94.615Y-85.725
X95.123Y-61.976
X95.885Y-62.011
X96.037Y-71.933
X97.257Y-62.941
X97.358Y-64.465
X97.414Y-45.969
X98.425Y-66.548
X98.425Y-68.58
X98.425Y-70.612
X98.425Y-72.644
X99.182Y-90.279
X100.716Y-45.969
X101.422Y-63.348
X102.484Y-90.279
X102.997Y-67.31
X102.997Y-69.342
X102.997Y-71.374
X102.997Y-73.406
X105.283Y-49.276
X107.696Y-87.122
X110.114Y-45.969
X111.882Y-90.279
X113.416Y-45.969
X115.184Y-90.279
X117.983Y-49.53
X120.015Y-85.852
X122.814Y-45.969
X124.582Y-90.279
X126.116Y-45.969
X126.365Y-71.882
X127.884Y-90.279
X130.683Y-49.149
T2
X46.204Y-49.549
X49.022Y-54.61
X54.102Y-87.249
X54.229Y-58.674
X56.896Y-49.022
X63.097Y-57.385
X64.794Y-71.053
X66.802Y-87.249
X69.596Y-49.022
X79.502Y-87.249
X82.296Y-49.022
X88.392Y-86.868
X94.996Y-49.022
X106.817Y-77.089
X106.867Y-78.359
X106.895Y-75.819
X107.696Y-49.022
X120.396Y-49.022
T3
X37.084Y-32.512
X37.084Y-35.052
X37.084Y-37.592
X39.624Y-32.512
X39.624Y-35.052
X39.624Y-37.592
X39.624Y-42.164
X39.624Y-44.704
X39.624Y-47.244
X39.624Y-49.784
X40.259Y-54.864
X40.259Y-57.404
X40.259Y-88.524
X40.259Y-91.064
X40.259Y-100.584
X40.259Y-103.124
X47.879Y-42.724
X47.879Y-93.524
X50.419Y-42.724
X50.419Y-93.524
X60.579Y-42.724
X60.579Y-93.524
X63.119Y-42.724
X63.119Y-93.524
X73.279Y-42.724
X73.279Y-93.524
X75.819Y-42.724
X75.819Y-93.524
X85.979Y-42.724
X85.979Y-93.524
X88.519Y-42.724
X88.519Y-93.524
X98.679Y-42.724
X98.679Y-93.524
X101.219Y-42.724
X101.219Y-93.524
X111.379Y-42.724
X111.379Y-93.524
X113.919Y-42.724
X113.919Y-93.524
X124.079Y-42.724
X124.079Y-93.524
X126.619Y-42.724
X126.619Y-93.524
T4
X55.619Y-69.309G85X55.619Y-66.809
G05
X55.619Y-77.209G85X55.619Y-74.709
G05
T0
M30
