M48
; DRILL file {KiCad 6.0.0} date Wed 12 Jan 2022 07:51:40 PM EST
; FORMAT={-:-/ absolute / metric / decimal}
; #@! TF.CreationDate,2022-01-12T19:51:40-05:00
; #@! TF.GenerationSoftware,Kicad,Pcbnew,6.0.0
; #@! TF.FileFunction,Plated,1,4,PTH
FMAT,2
METRIC
; #@! TA.AperFunction,Plated,PTH,ViaDrill
T1C0.200
; #@! TA.AperFunction,Plated,PTH,ComponentDrill
T2C0.300
; #@! TA.AperFunction,Plated,PTH,ComponentDrill
T3C1.000
; #@! TA.AperFunction,Plated,PTH,ComponentDrill
T4C1.092
; #@! TA.AperFunction,Plated,PTH,ComponentDrill
T5C1.100
; #@! TA.AperFunction,Plated,PTH,ComponentDrill
T6C1.500
%
G90
G05
T1
X62.5Y-47.5
X62.5Y-52.5
X62.5Y-57.5
X62.5Y-62.5
X62.5Y-67.5
X62.5Y-72.5
X62.5Y-77.5
X62.5Y-82.5
X62.5Y-87.5
X62.5Y-92.5
X62.5Y-97.5
X62.5Y-102.5
X62.5Y-107.5
X62.5Y-112.5
X62.5Y-117.5
X62.5Y-122.5
X62.5Y-127.5
X62.5Y-132.5
X62.5Y-137.5
X62.5Y-142.5
X62.5Y-147.5
X62.5Y-152.5
X67.5Y-152.5
X69.0Y-43.6
X72.5Y-42.5
X72.5Y-152.5
X74.0Y-97.5
X75.5Y-79.5
X76.0Y-116.0
X77.5Y-42.5
X77.5Y-152.5
X77.5Y-157.5
X79.466Y-126.789
X79.466Y-132.529
X80.0Y-67.5
X80.0Y-72.5
X80.5Y-60.5
X80.5Y-80.0
X81.0Y-143.0
X81.436Y-148.35
X82.5Y-42.5
X82.5Y-157.5
X82.514Y-69.639
X83.0Y-49.5
X83.0Y-54.5
X83.276Y-125.265
X83.276Y-134.663
X83.53Y-98.849
X84.0Y-138.0
X85.308Y-70.401
X86.5Y-98.5
X87.0Y-90.5
X87.5Y-42.5
X87.5Y-115.0
X87.5Y-120.0
X87.5Y-157.5
X87.836Y-92.919
X87.836Y-102.227
X88.864Y-103.929
X90.0Y-146.0
X90.5Y-135.0
X91.658Y-102.913
X92.436Y-148.35
X92.5Y-42.5
X92.5Y-115.0
X92.5Y-120.0
X92.5Y-157.5
X93.309Y-136.951
X94.0Y-90.0
X94.0Y-95.0
X94.236Y-60.142
X95.0Y-80.0
X95.0Y-85.0
X95.0Y-100.0
X95.536Y-64.442
X95.536Y-65.042
X96.438Y-140.767
X96.439Y-133.141
X96.897Y-68.242
X97.5Y-157.5
X99.0Y-56.0
X99.0Y-129.5
X100.0Y-80.0
X100.0Y-85.0
X100.0Y-100.0
X100.0Y-105.0
X100.0Y-112.5
X100.0Y-115.0
X100.0Y-120.0
X100.0Y-122.5
X102.178Y-140.767
X102.179Y-133.141
X102.5Y-157.5
X102.886Y-64.242
X103.236Y-148.35
X103.725Y-136.951
X104.536Y-69.392
X105.0Y-42.5
X105.136Y-89.742
X105.336Y-78.117
X107.5Y-157.5
X108.5Y-56.0
X108.5Y-71.5
X108.986Y-88.892
X110.0Y-42.5
X111.6Y-147.1
X112.232Y-101.382
X112.275Y-113.425
X112.386Y-82.142
X112.4Y-140.0
X112.486Y-94.892
X112.5Y-120.0
X112.5Y-125.0
X112.5Y-130.0
X112.5Y-135.0
X112.5Y-157.5
X113.036Y-60.142
X113.686Y-89.742
X114.236Y-148.35
X114.336Y-64.442
X114.336Y-65.042
X115.336Y-94.892
X115.693Y-68.242
X115.788Y-96.81
X116.336Y-94.892
X116.69Y-97.941
X116.736Y-86.142
X116.736Y-86.942
X116.736Y-87.742
X116.736Y-88.542
X116.736Y-90.142
X116.736Y-91.742
X117.5Y-120.0
X117.5Y-125.0
X117.5Y-130.0
X117.5Y-135.0
X117.5Y-157.5
X117.536Y-85.342
X117.536Y-86.142
X117.536Y-86.942
X117.536Y-87.742
X117.536Y-88.542
X117.536Y-90.142
X117.536Y-90.942
X117.536Y-91.742
X117.566Y-96.81
X118.0Y-56.0
X118.336Y-88.542
X118.336Y-89.342
X118.336Y-90.942
X118.336Y-91.742
X118.336Y-92.542
X118.468Y-97.941
X118.963Y-77.481
X119.136Y-89.342
X119.136Y-90.142
X119.136Y-90.942
X119.136Y-91.742
X119.3Y-140.0
X119.344Y-96.81
X119.344Y-101.242
X119.936Y-85.342
X119.936Y-86.142
X119.936Y-87.742
X119.936Y-88.542
X119.936Y-89.342
X119.936Y-91.742
X119.936Y-92.542
X120.246Y-97.941
X120.736Y-88.542
X120.736Y-89.342
X121.122Y-96.81
X121.536Y-88.542
X121.536Y-89.342
X121.536Y-91.742
X121.536Y-92.542
X121.63Y-75.449
X121.63Y-79.513
X121.686Y-64.242
X122.024Y-97.941
X122.2Y-146.5
X122.5Y-42.5
X122.5Y-120.0
X122.5Y-125.0
X122.5Y-130.0
X122.5Y-135.0
X122.5Y-157.5
X122.9Y-96.81
X123.136Y-85.342
X123.336Y-69.392
X123.802Y-97.941
X123.936Y-85.342
X123.936Y-86.142
X123.936Y-86.942
X124.286Y-79.502
X124.297Y-75.449
X124.678Y-96.81
X125.236Y-148.35
X126.456Y-96.81
X127.091Y-65.797
X127.091Y-67.321
X127.091Y-88.53
X127.5Y-42.5
X127.5Y-105.0
X127.5Y-110.0
X127.5Y-115.0
X127.5Y-120.0
X127.5Y-125.0
X127.5Y-130.0
X127.5Y-135.0
X127.5Y-157.5
X128.0Y-56.0
X128.6Y-140.0
X129.5Y-74.0
X131.4Y-144.8
X131.836Y-60.142
X132.5Y-42.5
X132.5Y-157.5
X133.0Y-148.7
X133.136Y-64.442
X133.136Y-65.042
X134.489Y-68.242
X134.711Y-136.951
X135.0Y-77.5
X136.236Y-148.35
X136.5Y-56.0
X137.5Y-157.5
X137.809Y-140.767
X137.81Y-133.141
X138.036Y-90.542
X140.0Y-77.5
X140.0Y-95.0
X140.0Y-100.0
X140.0Y-105.0
X140.0Y-115.0
X140.0Y-120.0
X140.0Y-125.0
X140.486Y-64.242
X142.136Y-69.392
X142.5Y-42.5
X142.5Y-75.0
X142.5Y-80.0
X142.5Y-120.0
X142.5Y-125.0
X142.5Y-157.5
X142.6Y-109.6
X143.549Y-140.767
X143.55Y-133.141
X144.2Y-148.1
X145.127Y-136.951
X146.0Y-70.5
X146.5Y-56.0
X146.664Y-109.6
X147.236Y-148.35
X147.5Y-42.5
X147.5Y-75.0
X147.5Y-80.0
X147.5Y-120.0
X147.5Y-125.0
X147.5Y-130.0
X147.5Y-157.5
X150.636Y-60.142
X151.936Y-64.442
X151.936Y-65.042
X152.5Y-80.0
X152.5Y-90.0
X152.5Y-105.0
X152.5Y-110.0
X152.5Y-115.0
X152.5Y-120.0
X152.5Y-125.0
X152.5Y-130.0
X152.5Y-135.0
X152.5Y-137.5
X152.5Y-157.5
X153.285Y-68.242
X155.2Y-147.1
X155.5Y-56.0
X157.5Y-80.0
X157.5Y-90.0
X157.5Y-105.0
X157.5Y-110.0
X157.5Y-115.0
X157.5Y-120.0
X157.5Y-125.0
X157.5Y-130.0
X157.5Y-135.0
X157.5Y-137.5
X157.5Y-157.5
X158.036Y-148.35
X159.286Y-64.242
X160.0Y-42.5
X160.0Y-120.0
X160.0Y-125.0
X160.0Y-130.0
X160.0Y-135.0
X160.8Y-144.1
X160.936Y-69.392
X162.5Y-75.0
X162.5Y-80.0
X162.5Y-157.5
X163.9Y-144.4
X165.0Y-42.5
X165.0Y-56.0
X165.7Y-148.6
X167.5Y-80.0
X167.5Y-110.0
X167.5Y-157.5
X167.7Y-139.7
X169.107Y-148.279
X169.436Y-60.142
X170.0Y-42.5
X170.736Y-64.442
X170.736Y-65.042
X171.1Y-142.9
X172.049Y-115.107
X172.049Y-117.647
X172.049Y-118.917
X172.081Y-68.242
X172.459Y-131.49
X172.5Y-80.0
X172.5Y-85.0
X172.5Y-90.0
X172.5Y-95.0
X172.5Y-100.0
X172.5Y-110.0
X172.5Y-157.5
X172.736Y-127.207
X172.772Y-135.8
X174.5Y-56.0
X177.5Y-80.0
X177.5Y-85.0
X177.5Y-90.0
X177.5Y-95.0
X177.5Y-100.0
X177.5Y-110.0
X177.5Y-122.5
X177.5Y-157.5
X178.086Y-64.242
X179.736Y-69.392
X180.0Y-42.5
X180.736Y-127.207
X180.772Y-136.0
X181.164Y-131.49
X181.45Y-148.279
X181.574Y-115.107
X182.5Y-75.0
X182.5Y-110.0
X182.5Y-157.5
X184.0Y-56.0
X185.0Y-42.5
X185.0Y-122.5
X185.0Y-139.7
X187.211Y-148.275
X187.5Y-157.5
X188.236Y-60.142
X188.802Y-79.554
X188.802Y-88.159
X189.536Y-64.442
X189.536Y-65.042
X190.0Y-95.0
X190.0Y-100.0
X190.0Y-105.0
X190.0Y-110.0
X190.0Y-139.7
X190.877Y-68.242
X191.6Y-135.8
X191.927Y-81.103
X192.398Y-148.279
X192.5Y-157.5
X192.877Y-88.2
X193.5Y-56.0
X195.0Y-88.215
X195.0Y-95.0
X195.0Y-100.0
X195.0Y-105.0
X195.0Y-110.0
X195.0Y-130.0
X196.886Y-64.242
X197.5Y-42.5
X197.5Y-157.5
X198.161Y-148.275
X198.536Y-69.392
X200.0Y-90.0
X200.0Y-95.0
X200.0Y-100.0
X200.0Y-105.0
X200.0Y-110.0
X200.0Y-115.0
X202.0Y-73.0
X202.5Y-42.5
X202.5Y-56.0
X202.5Y-137.5
X202.5Y-157.5
X203.346Y-148.279
X207.5Y-42.5
X207.5Y-157.5
X208.336Y-64.442
X208.336Y-65.042
X209.211Y-148.275
X209.673Y-68.242
X212.0Y-56.0
X212.5Y-157.5
X214.294Y-148.279
X215.686Y-64.242
X217.336Y-69.392
X217.5Y-42.5
X217.5Y-82.5
X217.5Y-87.5
X217.5Y-92.5
X217.5Y-97.5
X217.5Y-102.5
X217.5Y-107.5
X217.5Y-112.5
X217.5Y-117.5
X217.5Y-122.5
X217.5Y-127.5
X217.5Y-132.5
X217.5Y-137.5
X217.5Y-157.5
X220.261Y-148.275
X221.6Y-46.4
X222.5Y-77.5
X222.5Y-82.5
X222.5Y-87.5
X222.5Y-92.5
X222.5Y-97.5
X222.5Y-102.5
X222.5Y-107.5
X222.5Y-112.5
X222.5Y-117.5
X222.5Y-122.5
X222.5Y-127.5
X222.5Y-132.5
X222.5Y-137.5
X222.5Y-142.5
X222.5Y-147.5
X222.5Y-152.5
X225.0Y-47.5
X225.0Y-52.5
X225.0Y-57.5
X225.0Y-62.5
X225.0Y-67.5
X225.0Y-72.5
X225.0Y-77.5
T2
X97.486Y-62.842
X97.486Y-63.842
X97.486Y-64.842
X98.486Y-62.842
X98.486Y-63.842
X98.486Y-64.842
X99.486Y-62.842
X99.486Y-63.842
X99.486Y-64.842
X116.294Y-62.842
X116.294Y-63.842
X116.294Y-64.842
X117.294Y-62.842
X117.294Y-63.842
X117.294Y-64.842
X118.294Y-62.842
X118.294Y-63.842
X118.294Y-64.842
X135.102Y-62.842
X135.102Y-63.842
X135.102Y-64.842
X136.102Y-62.842
X136.102Y-63.842
X136.102Y-64.842
X137.102Y-62.842
X137.102Y-63.842
X137.102Y-64.842
X153.911Y-62.842
X153.911Y-63.842
X153.911Y-64.842
X154.911Y-62.842
X154.911Y-63.842
X154.911Y-64.842
X155.911Y-62.842
X155.911Y-63.842
X155.911Y-64.842
X172.686Y-62.842
X172.686Y-63.842
X172.686Y-64.842
X173.686Y-62.842
X173.686Y-63.842
X173.686Y-64.842
X174.686Y-62.842
X174.686Y-63.842
X174.686Y-64.842
X191.494Y-62.842
X191.494Y-63.842
X191.494Y-64.842
X192.494Y-62.842
X192.494Y-63.842
X192.494Y-64.842
X193.494Y-62.842
X193.494Y-63.842
X193.494Y-64.842
X210.302Y-62.842
X210.302Y-63.842
X210.302Y-64.842
X211.302Y-62.842
X211.302Y-63.842
X211.302Y-64.842
X212.302Y-62.842
X212.302Y-63.842
X212.302Y-64.842
T3
X184.6Y-96.92
X184.6Y-99.46
X184.6Y-102.0
X184.6Y-104.54
T4
X72.99Y-67.089
X72.99Y-69.629
X72.99Y-72.169
X72.99Y-74.709
X73.015Y-49.109
X73.015Y-51.649
X73.015Y-54.189
X73.015Y-56.729
X73.015Y-85.069
X73.015Y-87.609
X73.015Y-90.149
X73.015Y-92.689
X73.015Y-103.049
X73.015Y-105.589
X73.015Y-108.129
X73.015Y-110.669
X73.241Y-121.029
X73.241Y-123.569
X73.241Y-126.109
X73.241Y-128.649
X73.241Y-139.009
X73.241Y-141.549
X73.241Y-144.089
X73.241Y-146.629
X82.916Y-151.3
X85.456Y-151.3
X93.864Y-151.3
X96.404Y-151.3
X104.812Y-151.3
X107.352Y-151.3
X115.76Y-151.3
X118.3Y-151.3
X126.708Y-151.3
X129.248Y-151.3
X137.657Y-151.3
X140.197Y-151.3
X148.605Y-151.3
X151.145Y-151.3
X159.553Y-151.3
X162.093Y-151.3
X170.501Y-151.3
X173.041Y-151.3
X181.45Y-151.3
X183.99Y-151.3
X192.398Y-151.3
X194.938Y-151.3
X203.346Y-151.3
X205.886Y-151.3
X205.958Y-80.148
X205.958Y-82.688
X205.958Y-132.406
X205.958Y-134.946
X214.294Y-151.3
X216.834Y-151.3
T5
X95.286Y-49.242
X103.186Y-49.242
X114.094Y-49.242
X121.994Y-49.242
X132.902Y-49.242
X140.802Y-49.242
X151.711Y-49.242
X159.611Y-49.242
X170.519Y-49.242
X178.419Y-49.242
X189.327Y-49.242
X197.227Y-49.242
X208.136Y-49.242
X216.036Y-49.242
T6
X205.875Y-92.643G85X205.875Y-95.143
G05
X205.875Y-100.543G85X205.875Y-103.043
G05
X205.958Y-112.051G85X205.958Y-114.551
G05
X205.958Y-119.951G85X205.958Y-122.451
G05
T0
M30
