%TF.GenerationSoftware,KiCad,Pcbnew,6.0.0*%
%TF.CreationDate,2022-01-12T19:36:27-05:00*%
%TF.ProjectId,raspi-hat,72617370-692d-4686-9174-2e6b69636164,rev?*%
%TF.SameCoordinates,Original*%
%TF.FileFunction,Copper,L1,Top*%
%TF.FilePolarity,Positive*%
%FSLAX46Y46*%
G04 Gerber Fmt 4.6, Leading zero omitted, Abs format (unit mm)*
G04 Created by KiCad (PCBNEW 6.0.0) date 2022-01-12 19:36:27*
%MOMM*%
%LPD*%
G01*
G04 APERTURE LIST*
G04 Aperture macros list*
%AMRoundRect*
0 Rectangle with rounded corners*
0 $1 Rounding radius*
0 $2 $3 $4 $5 $6 $7 $8 $9 X,Y pos of 4 corners*
0 Add a 4 corners polygon primitive as box body*
4,1,4,$2,$3,$4,$5,$6,$7,$8,$9,$2,$3,0*
0 Add four circle primitives for the rounded corners*
1,1,$1+$1,$2,$3*
1,1,$1+$1,$4,$5*
1,1,$1+$1,$6,$7*
1,1,$1+$1,$8,$9*
0 Add four rect primitives between the rounded corners*
20,1,$1+$1,$2,$3,$4,$5,0*
20,1,$1+$1,$4,$5,$6,$7,0*
20,1,$1+$1,$6,$7,$8,$9,0*
20,1,$1+$1,$8,$9,$2,$3,0*%
G04 Aperture macros list end*
%TA.AperFunction,EtchedComponent*%
%ADD10C,0.100000*%
%TD*%
%TA.AperFunction,WasherPad*%
%ADD11C,3.000000*%
%TD*%
%TA.AperFunction,SMDPad,CuDef*%
%ADD12R,1.000000X0.845000*%
%TD*%
%TA.AperFunction,SMDPad,CuDef*%
%ADD13R,1.060000X0.650000*%
%TD*%
%TA.AperFunction,SMDPad,CuDef*%
%ADD14R,0.900000X0.800000*%
%TD*%
%TA.AperFunction,SMDPad,CuDef*%
%ADD15RoundRect,0.150000X0.150000X-0.875000X0.150000X0.875000X-0.150000X0.875000X-0.150000X-0.875000X0*%
%TD*%
%TA.AperFunction,SMDPad,CuDef*%
%ADD16RoundRect,0.225000X0.225000X0.250000X-0.225000X0.250000X-0.225000X-0.250000X0.225000X-0.250000X0*%
%TD*%
%TA.AperFunction,SMDPad,CuDef*%
%ADD17R,0.990600X1.092200*%
%TD*%
%TA.AperFunction,SMDPad,CuDef*%
%ADD18R,0.889000X1.092200*%
%TD*%
%TA.AperFunction,SMDPad,CuDef*%
%ADD19R,0.127000X0.127000*%
%TD*%
%TA.AperFunction,SMDPad,CuDef*%
%ADD20R,1.092200X1.295400*%
%TD*%
%TA.AperFunction,SMDPad,CuDef*%
%ADD21RoundRect,0.200000X-0.200000X-0.275000X0.200000X-0.275000X0.200000X0.275000X-0.200000X0.275000X0*%
%TD*%
%TA.AperFunction,SMDPad,CuDef*%
%ADD22R,1.400000X1.200000*%
%TD*%
%TA.AperFunction,SMDPad,CuDef*%
%ADD23RoundRect,0.225000X-0.250000X0.225000X-0.250000X-0.225000X0.250000X-0.225000X0.250000X0.225000X0*%
%TD*%
%TA.AperFunction,SMDPad,CuDef*%
%ADD24RoundRect,0.225000X0.250000X-0.225000X0.250000X0.225000X-0.250000X0.225000X-0.250000X-0.225000X0*%
%TD*%
%TA.AperFunction,SMDPad,CuDef*%
%ADD25RoundRect,0.200000X0.200000X0.275000X-0.200000X0.275000X-0.200000X-0.275000X0.200000X-0.275000X0*%
%TD*%
%TA.AperFunction,ComponentPad*%
%ADD26R,1.700000X1.700000*%
%TD*%
%TA.AperFunction,ComponentPad*%
%ADD27O,1.700000X1.700000*%
%TD*%
%TA.AperFunction,SMDPad,CuDef*%
%ADD28R,1.981200X0.540800*%
%TD*%
%TA.AperFunction,ComponentPad*%
%ADD29RoundRect,0.625000X1.875000X0.625000X-1.875000X0.625000X-1.875000X-0.625000X1.875000X-0.625000X0*%
%TD*%
%TA.AperFunction,ViaPad*%
%ADD30C,0.800000*%
%TD*%
%TA.AperFunction,Conductor*%
%ADD31C,0.250000*%
%TD*%
%TA.AperFunction,Conductor*%
%ADD32C,0.500000*%
%TD*%
%TA.AperFunction,Conductor*%
%ADD33C,0.600000*%
%TD*%
G04 APERTURE END LIST*
D10*
X107841199Y-99147699D02*
X106748999Y-99147699D01*
X106748999Y-99147699D02*
X106748999Y-97852299D01*
X106748999Y-97852299D02*
X107358599Y-97852299D01*
X107358599Y-97852299D02*
X107841199Y-98334899D01*
X107841199Y-98334899D02*
X107841199Y-99147699D01*
G36*
X107841199Y-98334899D02*
G01*
X107841199Y-99147699D01*
X106748999Y-99147699D01*
X106748999Y-97852299D01*
X107358599Y-97852299D01*
X107841199Y-98334899D01*
G37*
X107841199Y-98334899D02*
X107841199Y-99147699D01*
X106748999Y-99147699D01*
X106748999Y-97852299D01*
X107358599Y-97852299D01*
X107841199Y-98334899D01*
D11*
X82040000Y-64310000D03*
X140040000Y-64330000D03*
X82040000Y-113320000D03*
X140030000Y-113310000D03*
D12*
X86900000Y-75637500D03*
X86900000Y-77562500D03*
X89200000Y-75637500D03*
X89200000Y-77562500D03*
D13*
X86950000Y-72150000D03*
X86950000Y-73100000D03*
X86950000Y-74050000D03*
X89150000Y-74050000D03*
X89150000Y-73100000D03*
X89150000Y-72150000D03*
D14*
X88600000Y-70550000D03*
X88600000Y-68650000D03*
X86600000Y-69600000D03*
D15*
X102920000Y-80650000D03*
X104190000Y-80650000D03*
X105460000Y-80650000D03*
X106730000Y-80650000D03*
X108000000Y-80650000D03*
X109270000Y-80650000D03*
X110540000Y-80650000D03*
X111810000Y-80650000D03*
X113080000Y-80650000D03*
X113080000Y-71350000D03*
X111810000Y-71350000D03*
X110540000Y-71350000D03*
X109270000Y-71350000D03*
X108000000Y-71350000D03*
X106730000Y-71350000D03*
X105460000Y-71350000D03*
X104190000Y-71350000D03*
X102920000Y-71350000D03*
D16*
X105775000Y-105750000D03*
X104225000Y-105750000D03*
D17*
X110345099Y-96449999D03*
X110345099Y-97749999D03*
X110345099Y-99049999D03*
X109145102Y-96449999D03*
X109145102Y-97749999D03*
X109145102Y-99049999D03*
D18*
X107595102Y-96449999D03*
X105995102Y-96449999D03*
X104395102Y-96449999D03*
D17*
X102845102Y-96449999D03*
X102845102Y-97749999D03*
X102845102Y-99049999D03*
X101645102Y-96449999D03*
X101645102Y-97749999D03*
X101645102Y-99049999D03*
X102845102Y-100950000D03*
X102845102Y-102250000D03*
X102845102Y-103550000D03*
X101645102Y-100950000D03*
X101645102Y-102250000D03*
X101645102Y-103550000D03*
D18*
X104395102Y-103550000D03*
X105995102Y-103550000D03*
X107595102Y-103550000D03*
D17*
X109145102Y-103550000D03*
X109145102Y-102250000D03*
X109145102Y-100950000D03*
X110345102Y-103550000D03*
X110345102Y-102250000D03*
X110345102Y-100950000D03*
D19*
X107295099Y-98499999D03*
D20*
X105995099Y-98499999D03*
X104695099Y-98499999D03*
X107295099Y-100000000D03*
X105995099Y-100000000D03*
X104695099Y-100000000D03*
X107295099Y-101500000D03*
X105995099Y-101500000D03*
X104695099Y-101500000D03*
D21*
X105425000Y-91750000D03*
X107075000Y-91750000D03*
D22*
X112250000Y-84150000D03*
X110050000Y-84150000D03*
X110050000Y-85850000D03*
X112250000Y-85850000D03*
D23*
X108150000Y-84225000D03*
X108150000Y-85775000D03*
D24*
X111000000Y-92525000D03*
X111000000Y-90975000D03*
D25*
X105825000Y-69000000D03*
X104175000Y-69000000D03*
D26*
X92500000Y-100275000D03*
D27*
X92500000Y-97735000D03*
D28*
X103464999Y-87905000D03*
X103464999Y-86635000D03*
X103464999Y-85365000D03*
X103464999Y-84095000D03*
X98535001Y-84095000D03*
X98535001Y-85365000D03*
X98535001Y-86635000D03*
X98535001Y-87905000D03*
D25*
X107075000Y-94000000D03*
X105425000Y-94000000D03*
D24*
X114150000Y-85775000D03*
X114150000Y-84225000D03*
D25*
X109325000Y-105750000D03*
X107675000Y-105750000D03*
D26*
X92500000Y-87000000D03*
D27*
X92500000Y-84460000D03*
D29*
X122050000Y-98545000D03*
X129950000Y-98545000D03*
D26*
X86920000Y-65590000D03*
D27*
X86920000Y-63050000D03*
X89460000Y-65590000D03*
X89460000Y-63050000D03*
X92000000Y-65590000D03*
X92000000Y-63050000D03*
X94540000Y-65590000D03*
X94540000Y-63050000D03*
X97080000Y-65590000D03*
X97080000Y-63050000D03*
X99620000Y-65590000D03*
X99620000Y-63050000D03*
X102160000Y-65590000D03*
X102160000Y-63050000D03*
X104700000Y-65590000D03*
X104700000Y-63050000D03*
X107240000Y-65590000D03*
X107240000Y-63050000D03*
X109780000Y-65590000D03*
X109780000Y-63050000D03*
X112320000Y-65590000D03*
X112320000Y-63050000D03*
X114860000Y-65590000D03*
X114860000Y-63050000D03*
X117400000Y-65590000D03*
X117400000Y-63050000D03*
X119940000Y-65590000D03*
X119940000Y-63050000D03*
X122480000Y-65590000D03*
X122480000Y-63050000D03*
X125020000Y-65590000D03*
X125020000Y-63050000D03*
X127560000Y-65590000D03*
X127560000Y-63050000D03*
X130100000Y-65590000D03*
X130100000Y-63050000D03*
X132640000Y-65590000D03*
X132640000Y-63050000D03*
X135180000Y-65590000D03*
X135180000Y-63050000D03*
D30*
X98250000Y-67500000D03*
X102500000Y-82500000D03*
X105250000Y-88000000D03*
X109750000Y-69250000D03*
D31*
X100794511Y-64415489D02*
X102160000Y-63050000D01*
X97080000Y-65590000D02*
X98254511Y-64415489D01*
X105995099Y-98499999D02*
X107295099Y-98499999D01*
X105995102Y-103550000D02*
X105995102Y-105529898D01*
X107295099Y-100000000D02*
X107295099Y-98499999D01*
X93365489Y-64415489D02*
X92000000Y-63050000D01*
X105995102Y-105529898D02*
X105775000Y-105750000D01*
X95905489Y-64415489D02*
X93365489Y-64415489D01*
X109325000Y-105750000D02*
X109325000Y-103729898D01*
X98254511Y-64415489D02*
X100794511Y-64415489D01*
X97080000Y-65590000D02*
X95905489Y-64415489D01*
X109325000Y-103729898D02*
X109145102Y-103550000D01*
X111074511Y-83074511D02*
X110540000Y-82540000D01*
X110050000Y-85850000D02*
X108225000Y-85850000D01*
X110150000Y-85850000D02*
X111074511Y-84925489D01*
X110540000Y-82540000D02*
X110540000Y-80650000D01*
X111074511Y-84925489D02*
X111074511Y-83074511D01*
X108225000Y-85850000D02*
X108150000Y-85775000D01*
X109975000Y-85775000D02*
X110300000Y-86100000D01*
X110050000Y-85850000D02*
X110150000Y-85850000D01*
X110300000Y-86100000D02*
X110300000Y-86000000D01*
X112250000Y-83250000D02*
X111810000Y-82810000D01*
X112250000Y-84150000D02*
X114075000Y-84150000D01*
X114075000Y-84150000D02*
X114150000Y-84225000D01*
X111810000Y-82810000D02*
X111810000Y-80650000D01*
X112250000Y-84150000D02*
X112250000Y-83250000D01*
X112000000Y-84300000D02*
X112000000Y-83900000D01*
X89150000Y-75450000D02*
X89200000Y-75500000D01*
X88600760Y-70550000D02*
X88600760Y-71199240D01*
X88100000Y-73700000D02*
X88450000Y-74050000D01*
X88600760Y-71199240D02*
X88100000Y-71700000D01*
X88450000Y-74050000D02*
X89150000Y-74050000D01*
X89150000Y-74050000D02*
X89150000Y-75450000D01*
X88100000Y-71700000D02*
X88100000Y-73700000D01*
X86950000Y-73100000D02*
X86950000Y-74050000D01*
X86950000Y-74050000D02*
X86900000Y-74100000D01*
X86900000Y-74100000D02*
X86900000Y-75500000D01*
X86950000Y-72150000D02*
X86950000Y-73100000D01*
X102920000Y-71350000D02*
X102920000Y-70255000D01*
X102920000Y-70255000D02*
X104175000Y-69000000D01*
D32*
X98250000Y-67500000D02*
X99070000Y-67500000D01*
X99070000Y-67500000D02*
X102920000Y-71350000D01*
D31*
X107075000Y-91750000D02*
X108750000Y-93425000D01*
X112025000Y-92525000D02*
X112500000Y-93000000D01*
X109145102Y-94895102D02*
X109145102Y-96449999D01*
X110345099Y-93179901D02*
X110345099Y-96449999D01*
X108750000Y-93425000D02*
X108750000Y-94500000D01*
X111000000Y-92525000D02*
X112025000Y-92525000D01*
X111000000Y-92525000D02*
X110345099Y-93179901D01*
X108750000Y-94500000D02*
X109145102Y-94895102D01*
X104395102Y-105579898D02*
X104225000Y-105750000D01*
D32*
X100750000Y-82750000D02*
X98000000Y-80000000D01*
X84500000Y-71700000D02*
X86600000Y-69600000D01*
X98000000Y-80000000D02*
X84500000Y-80000000D01*
X102744799Y-85365000D02*
X100500000Y-87609799D01*
X103464999Y-85365000D02*
X102744799Y-85365000D01*
D31*
X89800000Y-71700000D02*
X89800000Y-70050000D01*
X89150000Y-72150000D02*
X89350000Y-72150000D01*
X104395102Y-103550000D02*
X104395102Y-105579898D01*
D32*
X101974399Y-85365000D02*
X100750000Y-84140601D01*
X103464999Y-85365000D02*
X101974399Y-85365000D01*
D31*
X89800000Y-70050000D02*
X89350000Y-69600000D01*
X89350000Y-69600000D02*
X87750000Y-69600000D01*
D32*
X102845102Y-103550000D02*
X104395102Y-103550000D01*
X84500000Y-80000000D02*
X84500000Y-71700000D01*
X100500000Y-99804898D02*
X101645102Y-100950000D01*
X100500000Y-87609799D02*
X100500000Y-99804898D01*
D31*
X89350000Y-72150000D02*
X89800000Y-71700000D01*
X87750000Y-69600000D02*
X86500000Y-69600000D01*
D32*
X100750000Y-84140601D02*
X100750000Y-82750000D01*
X86450000Y-69750000D02*
X86600000Y-69600000D01*
X98535001Y-86635000D02*
X92865000Y-86635000D01*
X92865000Y-86635000D02*
X92500000Y-87000000D01*
X93405000Y-85365000D02*
X92500000Y-84460000D01*
X98535001Y-85365000D02*
X93405000Y-85365000D01*
D31*
X104190000Y-71350000D02*
X104190000Y-70635000D01*
X104190000Y-70635000D02*
X105825000Y-69000000D01*
X105425000Y-91750000D02*
X104395102Y-92779898D01*
X104395102Y-92779898D02*
X104395102Y-96449999D01*
X107595102Y-94520102D02*
X107595102Y-96449999D01*
X107075000Y-94000000D02*
X107595102Y-94520102D01*
X105995102Y-94570102D02*
X105995102Y-96449999D01*
X105425000Y-94000000D02*
X105995102Y-94570102D01*
X107675000Y-105750000D02*
X107675000Y-103629898D01*
X107675000Y-103629898D02*
X107595102Y-103550000D01*
X105155000Y-87905000D02*
X105250000Y-88000000D01*
X103464999Y-87905000D02*
X105155000Y-87905000D01*
X102920000Y-82080000D02*
X102500000Y-82500000D01*
X102920000Y-80650000D02*
X102920000Y-82080000D01*
X103464999Y-84095000D02*
X104190000Y-83369999D01*
X104190000Y-83369999D02*
X104190000Y-80650000D01*
X109270000Y-71350000D02*
X109270000Y-70923928D01*
X111193928Y-69000000D02*
X113000000Y-69000000D01*
X113000000Y-69000000D02*
X114860000Y-67140000D01*
X109270000Y-70923928D02*
X111193928Y-69000000D01*
X114860000Y-67140000D02*
X114860000Y-65590000D01*
X108000000Y-71350000D02*
X108000000Y-70923928D01*
X108000000Y-70923928D02*
X109673928Y-69250000D01*
X109673928Y-69250000D02*
X109750000Y-69250000D01*
X106730000Y-70923928D02*
X112063928Y-65590000D01*
X106730000Y-71350000D02*
X106730000Y-70923928D01*
X112063928Y-65590000D02*
X112320000Y-65590000D01*
X113560000Y-61750000D02*
X114860000Y-63050000D01*
X108500000Y-62668990D02*
X109418990Y-61750000D01*
X109418990Y-61750000D02*
X113560000Y-61750000D01*
X105460000Y-70923928D02*
X108500000Y-67883928D01*
X105460000Y-71350000D02*
X105460000Y-70923928D01*
X108500000Y-67883928D02*
X108500000Y-62668990D01*
D33*
X88700000Y-68650000D02*
X88700000Y-68600000D01*
%TA.AperFunction,Conductor*%
G36*
X139015517Y-61236518D02*
G01*
X139051481Y-61286018D01*
X139051481Y-61347204D01*
X139015517Y-61396704D01*
X138994412Y-61408402D01*
X138720352Y-61519129D01*
X138720348Y-61519131D01*
X138717791Y-61520164D01*
X138715367Y-61521475D01*
X138715362Y-61521477D01*
X138415251Y-61683746D01*
X138415242Y-61683751D01*
X138412822Y-61685060D01*
X138410560Y-61686632D01*
X138410557Y-61686634D01*
X138269244Y-61784849D01*
X138128134Y-61882923D01*
X137867276Y-62111287D01*
X137865415Y-62113325D01*
X137865414Y-62113326D01*
X137828319Y-62153950D01*
X137633499Y-62367306D01*
X137429717Y-62647787D01*
X137428350Y-62650194D01*
X137428349Y-62650195D01*
X137423478Y-62658770D01*
X137258470Y-62949237D01*
X137257381Y-62951779D01*
X137257377Y-62951786D01*
X137189678Y-63109741D01*
X137121893Y-63267896D01*
X137121097Y-63270531D01*
X137121096Y-63270535D01*
X137109561Y-63308742D01*
X137021687Y-63599793D01*
X137021190Y-63602501D01*
X137021189Y-63602505D01*
X136962773Y-63920792D01*
X136959102Y-63940792D01*
X136957761Y-63959973D01*
X136935402Y-64279726D01*
X136934918Y-64286642D01*
X136949436Y-64633032D01*
X136949859Y-64635763D01*
X137000419Y-64962362D01*
X137002475Y-64975646D01*
X137003199Y-64978310D01*
X137068783Y-65219697D01*
X137093375Y-65310212D01*
X137094393Y-65312784D01*
X137094395Y-65312789D01*
X137219985Y-65629994D01*
X137221001Y-65632560D01*
X137222290Y-65634985D01*
X137222295Y-65634995D01*
X137377155Y-65926241D01*
X137383765Y-65938673D01*
X137398575Y-65960303D01*
X137578075Y-66222457D01*
X137578080Y-66222463D01*
X137579636Y-66224736D01*
X137581433Y-66226818D01*
X137581437Y-66226823D01*
X137668876Y-66328122D01*
X137806173Y-66487182D01*
X138060553Y-66722740D01*
X138339605Y-66928475D01*
X138639852Y-67101823D01*
X138802878Y-67173047D01*
X138911772Y-67220621D01*
X138957550Y-67240621D01*
X138960191Y-67241439D01*
X138960195Y-67241440D01*
X139286086Y-67342321D01*
X139286090Y-67342322D01*
X139288739Y-67343142D01*
X139291465Y-67343662D01*
X139617058Y-67405772D01*
X139629293Y-67408106D01*
X139974966Y-67434704D01*
X139977718Y-67434608D01*
X139977723Y-67434608D01*
X140187288Y-67427289D01*
X140321449Y-67422604D01*
X140664424Y-67371958D01*
X140667093Y-67371253D01*
X140667097Y-67371252D01*
X140996957Y-67284100D01*
X140996960Y-67284099D01*
X140999617Y-67283397D01*
X141107788Y-67241440D01*
X141320261Y-67159027D01*
X141320270Y-67159023D01*
X141322848Y-67158023D01*
X141605826Y-67010086D01*
X141627636Y-66998684D01*
X141627637Y-66998683D01*
X141630090Y-66997401D01*
X141917513Y-66803532D01*
X141919626Y-66801734D01*
X142179430Y-66580623D01*
X142179433Y-66580620D01*
X142181534Y-66578832D01*
X142418863Y-66326103D01*
X142420525Y-66323882D01*
X142624881Y-66050714D01*
X142624887Y-66050705D01*
X142626541Y-66048494D01*
X142627937Y-66046114D01*
X142627942Y-66046107D01*
X142767651Y-65807977D01*
X142801980Y-65749465D01*
X142942994Y-65432744D01*
X142952990Y-65401233D01*
X142988608Y-65351483D01*
X143046665Y-65332170D01*
X143104986Y-65350671D01*
X143141295Y-65399919D01*
X143146356Y-65431168D01*
X143146356Y-112234455D01*
X143127449Y-112292646D01*
X143077949Y-112328610D01*
X143016763Y-112328610D01*
X142967263Y-112292646D01*
X142955826Y-112272181D01*
X142944770Y-112245356D01*
X142830537Y-111968207D01*
X142663516Y-111664397D01*
X142661922Y-111662137D01*
X142465259Y-111383349D01*
X142465255Y-111383345D01*
X142463670Y-111381097D01*
X142233490Y-111121839D01*
X142231441Y-111119994D01*
X142231437Y-111119990D01*
X142104136Y-111005369D01*
X141975846Y-110889856D01*
X141905698Y-110839635D01*
X141696203Y-110689651D01*
X141696198Y-110689648D01*
X141693948Y-110688037D01*
X141625418Y-110649737D01*
X141393733Y-110520251D01*
X141393724Y-110520247D01*
X141391311Y-110518898D01*
X141071706Y-110384549D01*
X140739117Y-110286663D01*
X140525665Y-110249025D01*
X140400408Y-110226939D01*
X140400403Y-110226938D01*
X140397690Y-110226460D01*
X140051680Y-110204691D01*
X140048919Y-110204826D01*
X140048915Y-110204826D01*
X139753713Y-110219264D01*
X139705399Y-110221627D01*
X139363164Y-110277057D01*
X139029241Y-110370290D01*
X138969198Y-110394549D01*
X138710352Y-110499129D01*
X138710348Y-110499131D01*
X138707791Y-110500164D01*
X138705367Y-110501475D01*
X138705362Y-110501477D01*
X138405251Y-110663746D01*
X138405242Y-110663751D01*
X138402822Y-110665060D01*
X138400560Y-110666632D01*
X138400557Y-110666634D01*
X138369762Y-110688037D01*
X138118134Y-110862923D01*
X137857276Y-111091287D01*
X137855415Y-111093325D01*
X137855414Y-111093326D01*
X137821935Y-111129990D01*
X137623499Y-111347306D01*
X137419717Y-111627787D01*
X137248470Y-111929237D01*
X137247381Y-111931779D01*
X137247377Y-111931786D01*
X137232806Y-111965784D01*
X137111893Y-112247896D01*
X137111097Y-112250531D01*
X137111096Y-112250535D01*
X137087524Y-112328610D01*
X137011687Y-112579793D01*
X137011190Y-112582501D01*
X137011189Y-112582505D01*
X137009852Y-112589793D01*
X136949102Y-112920792D01*
X136924918Y-113266642D01*
X136939436Y-113613032D01*
X136992475Y-113955646D01*
X136993199Y-113958310D01*
X137035202Y-114112905D01*
X137083375Y-114290212D01*
X137084393Y-114292784D01*
X137084395Y-114292789D01*
X137134807Y-114420115D01*
X137211001Y-114612560D01*
X137212290Y-114614985D01*
X137212295Y-114614995D01*
X137372469Y-114916236D01*
X137373765Y-114918673D01*
X137375327Y-114920954D01*
X137568075Y-115202457D01*
X137568080Y-115202463D01*
X137569636Y-115204736D01*
X137571433Y-115206818D01*
X137571437Y-115206823D01*
X137658876Y-115308122D01*
X137796173Y-115467182D01*
X138050553Y-115702740D01*
X138329605Y-115908475D01*
X138629852Y-116081823D01*
X138947550Y-116220621D01*
X138958595Y-116224040D01*
X139008589Y-116259307D01*
X139028307Y-116317228D01*
X139010215Y-116375677D01*
X138961222Y-116412329D01*
X138929317Y-116417611D01*
X83156812Y-116417611D01*
X83098621Y-116398704D01*
X83062657Y-116349204D01*
X83062657Y-116288018D01*
X83098621Y-116238518D01*
X83121011Y-116226311D01*
X83320261Y-116149027D01*
X83320270Y-116149023D01*
X83322848Y-116148023D01*
X83578622Y-116014308D01*
X83627636Y-115988684D01*
X83627637Y-115988683D01*
X83630090Y-115987401D01*
X83917513Y-115793532D01*
X84024193Y-115702740D01*
X84179430Y-115570623D01*
X84179433Y-115570620D01*
X84181534Y-115568832D01*
X84418863Y-115316103D01*
X84426344Y-115306103D01*
X84624881Y-115040714D01*
X84624887Y-115040705D01*
X84626541Y-115038494D01*
X84627937Y-115036114D01*
X84627942Y-115036107D01*
X84800581Y-114741849D01*
X84801980Y-114739465D01*
X84942994Y-114422744D01*
X84946166Y-114412744D01*
X85046991Y-114094905D01*
X85046992Y-114094899D01*
X85047824Y-114092278D01*
X85072898Y-113965646D01*
X85114628Y-113754895D01*
X85114629Y-113754888D01*
X85115164Y-113752186D01*
X85144174Y-113406707D01*
X85145385Y-113320000D01*
X85126032Y-112973846D01*
X85068214Y-112632007D01*
X85019788Y-112463125D01*
X84973415Y-112301402D01*
X84973414Y-112301398D01*
X84972652Y-112298742D01*
X84840537Y-111978207D01*
X84835040Y-111968207D01*
X84674848Y-111676820D01*
X84673516Y-111674397D01*
X84642335Y-111630195D01*
X84475259Y-111393349D01*
X84475255Y-111393345D01*
X84473670Y-111391097D01*
X84243490Y-111131839D01*
X84241441Y-111129994D01*
X84241437Y-111129990D01*
X84114136Y-111015369D01*
X83985846Y-110899856D01*
X83915698Y-110849635D01*
X83706203Y-110699651D01*
X83706198Y-110699648D01*
X83703948Y-110698037D01*
X83635418Y-110659737D01*
X83403733Y-110530251D01*
X83403724Y-110530247D01*
X83401311Y-110528898D01*
X83081706Y-110394549D01*
X82749117Y-110296663D01*
X82535665Y-110259025D01*
X82410408Y-110236939D01*
X82410403Y-110236938D01*
X82407690Y-110236460D01*
X82061680Y-110214691D01*
X82058919Y-110214826D01*
X82058915Y-110214826D01*
X81763713Y-110229264D01*
X81715399Y-110231627D01*
X81373164Y-110287057D01*
X81039241Y-110380290D01*
X81003949Y-110394549D01*
X80720352Y-110509129D01*
X80720348Y-110509131D01*
X80717791Y-110510164D01*
X80715367Y-110511475D01*
X80715362Y-110511477D01*
X80415251Y-110673746D01*
X80415242Y-110673751D01*
X80412822Y-110675060D01*
X80410560Y-110676632D01*
X80410557Y-110676634D01*
X80379762Y-110698037D01*
X80128134Y-110872923D01*
X79867276Y-111101287D01*
X79865415Y-111103325D01*
X79865414Y-111103326D01*
X79794259Y-111181251D01*
X79633499Y-111357306D01*
X79429717Y-111637787D01*
X79258470Y-111939237D01*
X79257381Y-111941779D01*
X79257377Y-111941786D01*
X79136350Y-112224165D01*
X79096048Y-112270202D01*
X79036383Y-112283758D01*
X78980146Y-112259654D01*
X78948816Y-112207098D01*
X78946356Y-112185165D01*
X78946356Y-101144766D01*
X91400000Y-101144766D01*
X91400948Y-101154388D01*
X91412603Y-101212983D01*
X91419922Y-101230651D01*
X91464341Y-101297130D01*
X91477870Y-101310659D01*
X91544349Y-101355078D01*
X91562017Y-101362397D01*
X91620612Y-101374052D01*
X91630234Y-101375000D01*
X92230320Y-101375000D01*
X92243005Y-101370878D01*
X92246000Y-101366757D01*
X92246000Y-101359320D01*
X92754000Y-101359320D01*
X92758122Y-101372005D01*
X92762243Y-101375000D01*
X93369766Y-101375000D01*
X93379388Y-101374052D01*
X93437983Y-101362397D01*
X93455651Y-101355078D01*
X93522130Y-101310659D01*
X93535659Y-101297130D01*
X93580078Y-101230651D01*
X93587397Y-101212983D01*
X93599052Y-101154388D01*
X93600000Y-101144766D01*
X93600000Y-100544680D01*
X93595878Y-100531995D01*
X93591757Y-100529000D01*
X92769680Y-100529000D01*
X92756995Y-100533122D01*
X92754000Y-100537243D01*
X92754000Y-101359320D01*
X92246000Y-101359320D01*
X92246000Y-100544680D01*
X92241878Y-100531995D01*
X92237757Y-100529000D01*
X91415680Y-100529000D01*
X91402995Y-100533122D01*
X91400000Y-100537243D01*
X91400000Y-101144766D01*
X78946356Y-101144766D01*
X78946356Y-65437861D01*
X78965263Y-65379670D01*
X79014763Y-65343706D01*
X79075949Y-65343706D01*
X79125449Y-65379670D01*
X79137404Y-65401417D01*
X79221001Y-65612560D01*
X79222290Y-65614985D01*
X79222295Y-65614995D01*
X79348443Y-65852243D01*
X79383765Y-65918673D01*
X79385327Y-65920954D01*
X79578075Y-66202457D01*
X79578080Y-66202463D01*
X79579636Y-66204736D01*
X79581433Y-66206818D01*
X79581437Y-66206823D01*
X79671034Y-66310622D01*
X79806173Y-66467182D01*
X80060553Y-66702740D01*
X80339605Y-66908475D01*
X80639852Y-67081823D01*
X80777174Y-67141817D01*
X80922903Y-67205484D01*
X80957550Y-67220621D01*
X80960191Y-67221439D01*
X80960195Y-67221440D01*
X81286086Y-67322321D01*
X81286090Y-67322322D01*
X81288739Y-67323142D01*
X81291465Y-67323662D01*
X81459677Y-67355750D01*
X81629293Y-67388106D01*
X81974966Y-67414704D01*
X81977718Y-67414608D01*
X81977723Y-67414608D01*
X82187288Y-67407289D01*
X82321449Y-67402604D01*
X82664424Y-67351958D01*
X82667102Y-67351251D01*
X82667114Y-67351248D01*
X82825711Y-67309345D01*
X82886801Y-67312760D01*
X82934216Y-67351431D01*
X82950000Y-67405060D01*
X82950000Y-70580000D01*
X84461046Y-70580000D01*
X84519237Y-70598907D01*
X84555201Y-70648407D01*
X84555201Y-70709593D01*
X84531050Y-70749004D01*
X84097998Y-71182056D01*
X84091101Y-71188331D01*
X84087315Y-71191463D01*
X84082060Y-71194798D01*
X84077800Y-71199335D01*
X84077797Y-71199337D01*
X84033889Y-71246095D01*
X84031725Y-71248329D01*
X84011089Y-71268965D01*
X84007661Y-71273384D01*
X84001618Y-71280460D01*
X83969552Y-71314607D01*
X83966552Y-71320064D01*
X83958382Y-71334925D01*
X83949851Y-71347912D01*
X83939457Y-71361312D01*
X83939455Y-71361315D01*
X83935638Y-71366236D01*
X83920161Y-71402003D01*
X83917041Y-71409212D01*
X83912938Y-71417586D01*
X83890373Y-71458632D01*
X83888825Y-71464663D01*
X83888823Y-71464667D01*
X83884606Y-71481094D01*
X83879573Y-71495795D01*
X83872837Y-71511359D01*
X83872835Y-71511367D01*
X83870365Y-71517074D01*
X83869391Y-71523220D01*
X83869391Y-71523222D01*
X83863040Y-71563322D01*
X83861148Y-71572456D01*
X83851048Y-71611790D01*
X83851047Y-71611798D01*
X83849500Y-71617823D01*
X83849500Y-71641012D01*
X83848281Y-71656500D01*
X83844653Y-71679405D01*
X83845239Y-71685603D01*
X83849061Y-71726034D01*
X83849500Y-71735351D01*
X83849500Y-79929156D01*
X83847746Y-79947705D01*
X83845624Y-79958830D01*
X83846015Y-79965042D01*
X83849305Y-80017338D01*
X83849500Y-80023554D01*
X83849500Y-80040925D01*
X83851679Y-80058169D01*
X83852262Y-80064338D01*
X83855944Y-80122860D01*
X83857866Y-80128777D01*
X83857868Y-80128785D01*
X83859445Y-80133638D01*
X83863509Y-80151816D01*
X83864929Y-80163058D01*
X83867220Y-80168845D01*
X83867222Y-80168852D01*
X83886510Y-80217566D01*
X83888615Y-80223412D01*
X83906732Y-80279171D01*
X83910068Y-80284429D01*
X83910070Y-80284432D01*
X83912804Y-80288740D01*
X83921263Y-80305342D01*
X83925432Y-80315871D01*
X83959905Y-80363319D01*
X83963383Y-80368439D01*
X83994798Y-80417940D01*
X83999337Y-80422202D01*
X84003056Y-80425695D01*
X84015376Y-80439669D01*
X84022037Y-80448837D01*
X84026836Y-80452807D01*
X84067212Y-80486209D01*
X84071877Y-80490322D01*
X84114607Y-80530448D01*
X84124537Y-80535907D01*
X84139944Y-80546378D01*
X84148674Y-80553600D01*
X84154307Y-80556251D01*
X84154309Y-80556252D01*
X84180262Y-80568464D01*
X84201723Y-80578563D01*
X84207250Y-80581379D01*
X84258632Y-80609627D01*
X84269606Y-80612444D01*
X84287140Y-80618757D01*
X84297387Y-80623579D01*
X84303508Y-80624747D01*
X84303509Y-80624747D01*
X84354960Y-80634562D01*
X84361020Y-80635916D01*
X84417823Y-80650500D01*
X84429156Y-80650500D01*
X84447705Y-80652254D01*
X84458830Y-80654376D01*
X84517337Y-80650695D01*
X84523554Y-80650500D01*
X97689546Y-80650500D01*
X97747737Y-80669407D01*
X97759550Y-80679496D01*
X100070504Y-82990450D01*
X100098281Y-83044967D01*
X100099500Y-83060454D01*
X100099500Y-83657561D01*
X100080593Y-83715752D01*
X100031093Y-83751716D01*
X99969907Y-83751716D01*
X99920407Y-83715752D01*
X99911862Y-83698982D01*
X99911247Y-83699296D01*
X99857187Y-83593197D01*
X99857186Y-83593195D01*
X99853651Y-83586258D01*
X99763943Y-83496550D01*
X99757006Y-83493015D01*
X99757004Y-83493014D01*
X99657845Y-83442490D01*
X99657844Y-83442490D01*
X99650905Y-83438954D01*
X99643211Y-83437735D01*
X99643210Y-83437735D01*
X99560966Y-83424709D01*
X99560964Y-83424709D01*
X99557120Y-83424100D01*
X98535133Y-83424100D01*
X97512883Y-83424101D01*
X97509040Y-83424710D01*
X97509035Y-83424710D01*
X97472184Y-83430547D01*
X97419097Y-83438954D01*
X97378075Y-83459856D01*
X97312998Y-83493014D01*
X97312996Y-83493015D01*
X97306059Y-83496550D01*
X97216351Y-83586258D01*
X97212816Y-83593195D01*
X97212815Y-83593197D01*
X97182281Y-83653123D01*
X97158755Y-83699296D01*
X97157536Y-83706990D01*
X97157536Y-83706991D01*
X97144510Y-83789234D01*
X97143901Y-83793081D01*
X97143902Y-84396918D01*
X97144511Y-84400761D01*
X97144511Y-84400766D01*
X97150348Y-84437617D01*
X97158755Y-84490704D01*
X97171188Y-84515105D01*
X97199441Y-84570555D01*
X97209012Y-84630987D01*
X97181234Y-84685504D01*
X97126718Y-84713281D01*
X97111231Y-84714500D01*
X93841051Y-84714500D01*
X93782860Y-84695593D01*
X93746896Y-84646093D01*
X93742428Y-84606872D01*
X93754900Y-84464309D01*
X93755277Y-84460000D01*
X93736207Y-84242023D01*
X93679575Y-84030670D01*
X93587102Y-83832362D01*
X93461598Y-83653123D01*
X93306877Y-83498402D01*
X93127639Y-83372898D01*
X92929330Y-83280425D01*
X92800649Y-83245945D01*
X92722154Y-83224912D01*
X92722152Y-83224912D01*
X92717977Y-83223793D01*
X92500000Y-83204723D01*
X92282023Y-83223793D01*
X92277848Y-83224912D01*
X92277846Y-83224912D01*
X92199351Y-83245945D01*
X92070670Y-83280425D01*
X91872362Y-83372898D01*
X91868819Y-83375379D01*
X91868817Y-83375380D01*
X91829306Y-83403046D01*
X91693123Y-83498402D01*
X91538402Y-83653123D01*
X91412898Y-83832362D01*
X91320425Y-84030670D01*
X91263793Y-84242023D01*
X91244723Y-84460000D01*
X91263793Y-84677977D01*
X91264912Y-84682152D01*
X91264912Y-84682154D01*
X91281882Y-84745487D01*
X91320425Y-84889330D01*
X91412898Y-85087638D01*
X91538402Y-85266877D01*
X91693123Y-85421598D01*
X91735646Y-85451373D01*
X91835084Y-85521000D01*
X91872361Y-85547102D01*
X91896731Y-85558466D01*
X91901687Y-85560777D01*
X91946435Y-85602505D01*
X91958110Y-85662566D01*
X91932252Y-85718019D01*
X91878738Y-85747682D01*
X91859850Y-85749501D01*
X91618482Y-85749501D01*
X91614639Y-85750110D01*
X91614634Y-85750110D01*
X91577783Y-85755947D01*
X91524696Y-85764354D01*
X91468177Y-85793152D01*
X91418597Y-85818414D01*
X91418595Y-85818415D01*
X91411658Y-85821950D01*
X91321950Y-85911658D01*
X91318415Y-85918595D01*
X91318414Y-85918597D01*
X91293757Y-85966989D01*
X91264354Y-86024696D01*
X91263135Y-86032390D01*
X91263135Y-86032391D01*
X91251319Y-86106995D01*
X91249500Y-86118481D01*
X91249501Y-87881518D01*
X91250110Y-87885361D01*
X91250110Y-87885366D01*
X91255947Y-87922217D01*
X91264354Y-87975304D01*
X91321950Y-88088342D01*
X91411658Y-88178050D01*
X91418595Y-88181585D01*
X91418597Y-88181586D01*
X91468314Y-88206918D01*
X91524696Y-88235646D01*
X91532390Y-88236865D01*
X91532391Y-88236865D01*
X91614635Y-88249891D01*
X91614637Y-88249891D01*
X91618481Y-88250500D01*
X92499886Y-88250500D01*
X93381518Y-88250499D01*
X93385361Y-88249890D01*
X93385366Y-88249890D01*
X93422217Y-88244053D01*
X93475304Y-88235646D01*
X93539328Y-88203024D01*
X93581403Y-88181586D01*
X93581405Y-88181585D01*
X93588342Y-88178050D01*
X93678050Y-88088342D01*
X93735646Y-87975304D01*
X93750500Y-87881519D01*
X93750500Y-87384500D01*
X93769407Y-87326309D01*
X93818907Y-87290345D01*
X93849500Y-87285500D01*
X97111231Y-87285500D01*
X97169422Y-87304407D01*
X97205386Y-87353907D01*
X97205386Y-87415093D01*
X97199441Y-87429445D01*
X97163683Y-87499625D01*
X97158755Y-87509296D01*
X97143901Y-87603081D01*
X97143902Y-88206918D01*
X97144511Y-88210761D01*
X97144511Y-88210766D01*
X97148645Y-88236865D01*
X97158755Y-88300704D01*
X97216351Y-88413742D01*
X97306059Y-88503450D01*
X97312996Y-88506985D01*
X97312998Y-88506986D01*
X97407429Y-88555101D01*
X97419097Y-88561046D01*
X97426791Y-88562265D01*
X97426792Y-88562265D01*
X97509036Y-88575291D01*
X97509038Y-88575291D01*
X97512882Y-88575900D01*
X98534869Y-88575900D01*
X99557119Y-88575899D01*
X99560962Y-88575290D01*
X99560967Y-88575290D01*
X99597818Y-88569453D01*
X99650905Y-88561046D01*
X99657843Y-88557511D01*
X99657846Y-88557510D01*
X99705554Y-88533201D01*
X99765986Y-88523629D01*
X99820503Y-88551406D01*
X99848281Y-88605922D01*
X99849500Y-88621410D01*
X99849500Y-98402436D01*
X99830593Y-98460627D01*
X99781093Y-98496591D01*
X99719907Y-98496591D01*
X99674446Y-98465814D01*
X99347775Y-98073808D01*
X97967123Y-96417026D01*
X97435097Y-95778595D01*
X97179257Y-95471587D01*
X97179255Y-95471585D01*
X97178036Y-95470122D01*
X97124133Y-95414639D01*
X97095459Y-95389305D01*
X97093949Y-95388163D01*
X97038075Y-95345914D01*
X97038072Y-95345912D01*
X97033751Y-95342645D01*
X97028820Y-95340393D01*
X96905436Y-95284045D01*
X96905431Y-95284043D01*
X96902225Y-95282579D01*
X96834104Y-95262577D01*
X96690985Y-95242000D01*
X90876000Y-95242000D01*
X90768020Y-95253609D01*
X90715678Y-95264995D01*
X90612628Y-95299293D01*
X90607423Y-95302638D01*
X90607421Y-95302639D01*
X90561121Y-95332395D01*
X90490990Y-95377465D01*
X90488314Y-95379784D01*
X90440006Y-95421642D01*
X90440001Y-95421647D01*
X90437334Y-95423958D01*
X90435023Y-95426625D01*
X90435021Y-95426627D01*
X90347281Y-95527883D01*
X90347279Y-95527886D01*
X90342645Y-95533234D01*
X90339704Y-95539674D01*
X90284730Y-95660051D01*
X90282579Y-95664760D01*
X90262577Y-95732881D01*
X90242000Y-95876000D01*
X90242000Y-98874000D01*
X90253609Y-98981980D01*
X90264995Y-99034322D01*
X90265829Y-99036827D01*
X90265829Y-99036828D01*
X90274826Y-99063861D01*
X90299293Y-99137372D01*
X90302638Y-99142577D01*
X90302639Y-99142579D01*
X90321526Y-99171967D01*
X90377465Y-99259010D01*
X90379784Y-99261686D01*
X90421642Y-99309994D01*
X90421647Y-99309999D01*
X90423958Y-99312666D01*
X90426625Y-99314977D01*
X90426627Y-99314979D01*
X90527883Y-99402719D01*
X90527886Y-99402721D01*
X90533234Y-99407355D01*
X90539674Y-99410296D01*
X90661549Y-99465955D01*
X90661554Y-99465957D01*
X90664760Y-99467421D01*
X90732881Y-99487423D01*
X90876000Y-99508000D01*
X91301000Y-99508000D01*
X91359191Y-99526907D01*
X91395155Y-99576407D01*
X91400000Y-99607000D01*
X91400000Y-100005320D01*
X91404122Y-100018005D01*
X91408243Y-100021000D01*
X93584320Y-100021000D01*
X93597005Y-100016878D01*
X93600000Y-100012757D01*
X93600000Y-99607000D01*
X93618907Y-99548809D01*
X93668407Y-99512845D01*
X93699000Y-99508000D01*
X96210418Y-99508000D01*
X96268609Y-99526907D01*
X96287364Y-99544708D01*
X98515829Y-102297518D01*
X99568210Y-103597518D01*
X100030498Y-104168580D01*
X100032891Y-104170841D01*
X100032896Y-104170846D01*
X100121764Y-104254797D01*
X100128669Y-104261320D01*
X100182568Y-104300096D01*
X100185481Y-104301651D01*
X100295663Y-104360468D01*
X100295667Y-104360470D01*
X100301702Y-104363691D01*
X100308391Y-104365146D01*
X100308393Y-104365147D01*
X100367615Y-104378030D01*
X100442989Y-104394428D01*
X100446502Y-104394679D01*
X100446507Y-104394680D01*
X100510282Y-104399242D01*
X100513805Y-104399494D01*
X100517329Y-104399242D01*
X100650973Y-104389685D01*
X100650974Y-104389685D01*
X100658033Y-104389180D01*
X100757533Y-104352069D01*
X100818662Y-104349449D01*
X100862133Y-104374823D01*
X100911460Y-104424150D01*
X100918397Y-104427685D01*
X100918399Y-104427686D01*
X101014750Y-104476779D01*
X101024498Y-104481746D01*
X101032192Y-104482965D01*
X101032193Y-104482965D01*
X101114437Y-104495991D01*
X101114439Y-104495991D01*
X101118283Y-104496600D01*
X101645034Y-104496600D01*
X102171920Y-104496599D01*
X102175763Y-104495990D01*
X102175768Y-104495990D01*
X102229614Y-104487462D01*
X102260587Y-104487462D01*
X102314437Y-104495991D01*
X102314439Y-104495991D01*
X102318283Y-104496600D01*
X102845034Y-104496600D01*
X103371920Y-104496599D01*
X103375763Y-104495990D01*
X103375768Y-104495990D01*
X103412619Y-104490153D01*
X103465706Y-104481746D01*
X103555356Y-104436067D01*
X103571801Y-104427688D01*
X103571804Y-104427686D01*
X103578744Y-104424150D01*
X103584254Y-104418640D01*
X103587311Y-104416419D01*
X103645502Y-104397512D01*
X103703693Y-104416419D01*
X103706750Y-104418640D01*
X103712260Y-104424150D01*
X103719202Y-104427687D01*
X103719208Y-104427691D01*
X103815547Y-104476779D01*
X103858812Y-104520043D01*
X103869602Y-104564988D01*
X103869602Y-104812190D01*
X103850695Y-104870381D01*
X103798222Y-104907259D01*
X103757706Y-104919030D01*
X103749610Y-104921382D01*
X103706042Y-104947148D01*
X103655192Y-104977221D01*
X103613580Y-105001830D01*
X103501830Y-105113580D01*
X103421382Y-105249610D01*
X103419644Y-105255591D01*
X103419644Y-105255592D01*
X103380264Y-105391141D01*
X103377291Y-105401373D01*
X103376894Y-105406413D01*
X103376894Y-105406415D01*
X103375910Y-105418918D01*
X103374500Y-105436837D01*
X103374501Y-106063162D01*
X103374654Y-106065106D01*
X103374654Y-106065108D01*
X103375911Y-106081082D01*
X103377291Y-106098627D01*
X103421382Y-106250390D01*
X103501830Y-106386420D01*
X103613580Y-106498170D01*
X103749610Y-106578618D01*
X103755591Y-106580356D01*
X103755592Y-106580356D01*
X103896515Y-106621298D01*
X103896518Y-106621299D01*
X103901373Y-106622709D01*
X103906413Y-106623106D01*
X103906415Y-106623106D01*
X103921891Y-106624324D01*
X103936837Y-106625500D01*
X104224926Y-106625500D01*
X104513162Y-106625499D01*
X104515106Y-106625346D01*
X104515108Y-106625346D01*
X104543586Y-106623106D01*
X104543590Y-106623105D01*
X104548627Y-106622709D01*
X104700390Y-106578618D01*
X104836420Y-106498170D01*
X104948170Y-106386420D01*
X104979359Y-106333682D01*
X105004022Y-106291980D01*
X105049918Y-106251517D01*
X105110831Y-106245759D01*
X105163496Y-106276905D01*
X105168456Y-106283003D01*
X105206438Y-106333683D01*
X105216318Y-106343563D01*
X105313907Y-106416701D01*
X105326150Y-106423404D01*
X105441141Y-106466511D01*
X105453120Y-106469360D01*
X105502375Y-106474711D01*
X105505661Y-106474889D01*
X105518005Y-106470878D01*
X105521000Y-106466757D01*
X105521000Y-106459320D01*
X106029000Y-106459320D01*
X106033122Y-106472005D01*
X106037243Y-106475000D01*
X106042291Y-106475000D01*
X106047625Y-106474711D01*
X106096880Y-106469360D01*
X106108859Y-106466511D01*
X106223850Y-106423404D01*
X106236093Y-106416701D01*
X106333682Y-106343563D01*
X106343563Y-106333682D01*
X106416701Y-106236093D01*
X106423404Y-106223850D01*
X106466511Y-106108859D01*
X106469360Y-106096880D01*
X106474711Y-106047625D01*
X106475000Y-106042291D01*
X106475000Y-106019680D01*
X106470878Y-106006995D01*
X106466757Y-106004000D01*
X106044680Y-106004000D01*
X106031995Y-106008122D01*
X106029000Y-106012243D01*
X106029000Y-106459320D01*
X105521000Y-106459320D01*
X105521000Y-105480320D01*
X106029000Y-105480320D01*
X106033122Y-105493005D01*
X106037243Y-105496000D01*
X106459320Y-105496000D01*
X106472005Y-105491878D01*
X106475000Y-105487757D01*
X106475000Y-105457709D01*
X106474711Y-105452375D01*
X106469360Y-105403120D01*
X106466511Y-105391141D01*
X106423404Y-105276150D01*
X106416701Y-105263907D01*
X106343563Y-105166318D01*
X106333682Y-105156437D01*
X106236093Y-105083299D01*
X106223850Y-105076596D01*
X106108859Y-105033489D01*
X106096880Y-105030640D01*
X106047625Y-105025289D01*
X106044339Y-105025111D01*
X106031995Y-105029122D01*
X106029000Y-105033243D01*
X106029000Y-105480320D01*
X105521000Y-105480320D01*
X105521000Y-105040680D01*
X105516878Y-105027995D01*
X105512757Y-105025000D01*
X105507709Y-105025000D01*
X105502375Y-105025289D01*
X105453120Y-105030640D01*
X105441141Y-105033489D01*
X105326150Y-105076596D01*
X105313907Y-105083299D01*
X105216318Y-105156437D01*
X105206438Y-105166317D01*
X105168456Y-105216997D01*
X105118428Y-105252223D01*
X105057250Y-105251316D01*
X105008288Y-105214622D01*
X105004022Y-105208020D01*
X104975129Y-105159165D01*
X104948170Y-105113580D01*
X104943769Y-105109179D01*
X104941374Y-105106091D01*
X104920602Y-105045417D01*
X104920602Y-104564988D01*
X104939509Y-104506797D01*
X104974657Y-104476779D01*
X105071000Y-104427689D01*
X105071004Y-104427686D01*
X105077944Y-104424150D01*
X105167652Y-104334442D01*
X105171187Y-104327504D01*
X105171190Y-104327500D01*
X105195467Y-104279854D01*
X105238732Y-104236590D01*
X105299164Y-104227019D01*
X105353680Y-104254797D01*
X105363611Y-104266898D01*
X105378472Y-104281759D01*
X105444951Y-104326178D01*
X105462619Y-104333497D01*
X105521214Y-104345152D01*
X105530836Y-104346100D01*
X105725422Y-104346100D01*
X105738107Y-104341978D01*
X105741102Y-104337857D01*
X105741102Y-104330420D01*
X106249102Y-104330420D01*
X106253224Y-104343105D01*
X106257345Y-104346100D01*
X106459368Y-104346100D01*
X106468990Y-104345152D01*
X106527585Y-104333497D01*
X106545253Y-104326178D01*
X106611732Y-104281759D01*
X106632154Y-104261337D01*
X106633385Y-104262568D01*
X106672257Y-104231921D01*
X106733395Y-104229515D01*
X106784271Y-104263505D01*
X106794737Y-104279854D01*
X106819014Y-104327500D01*
X106819017Y-104327504D01*
X106822552Y-104334442D01*
X106912260Y-104424150D01*
X106919197Y-104427685D01*
X106919199Y-104427686D01*
X107015550Y-104476779D01*
X107025298Y-104481746D01*
X107032992Y-104482965D01*
X107032993Y-104482965D01*
X107045900Y-104485009D01*
X107065987Y-104488190D01*
X107120503Y-104515967D01*
X107148281Y-104570483D01*
X107149500Y-104585971D01*
X107149500Y-104919030D01*
X107130593Y-104977221D01*
X107110768Y-104997571D01*
X107046718Y-105046718D01*
X106950464Y-105172159D01*
X106889956Y-105318238D01*
X106874500Y-105435639D01*
X106874501Y-106064360D01*
X106874924Y-106067571D01*
X106874924Y-106067576D01*
X106880359Y-106108859D01*
X106889956Y-106181762D01*
X106892438Y-106187754D01*
X106892439Y-106187758D01*
X106920604Y-106255753D01*
X106950464Y-106327841D01*
X107046718Y-106453282D01*
X107172159Y-106549536D01*
X107318238Y-106610044D01*
X107435639Y-106625500D01*
X107674963Y-106625500D01*
X107914360Y-106625499D01*
X107917571Y-106625076D01*
X107917576Y-106625076D01*
X107999329Y-106614314D01*
X108031762Y-106610044D01*
X108037754Y-106607562D01*
X108037758Y-106607561D01*
X108137753Y-106566141D01*
X108177841Y-106549536D01*
X108303282Y-106453282D01*
X108399536Y-106327841D01*
X108460044Y-106181762D01*
X108473909Y-106076443D01*
X108675001Y-106076443D01*
X108675220Y-106081086D01*
X108677411Y-106104269D01*
X108679976Y-106115965D01*
X108720362Y-106230966D01*
X108727209Y-106243899D01*
X108798808Y-106340835D01*
X108809165Y-106351192D01*
X108906101Y-106422791D01*
X108919034Y-106429638D01*
X109034033Y-106470023D01*
X109045733Y-106472590D01*
X109055392Y-106473503D01*
X109068406Y-106470594D01*
X109070238Y-106468515D01*
X109071000Y-106464835D01*
X109071000Y-106459297D01*
X109579000Y-106459297D01*
X109583122Y-106471982D01*
X109585363Y-106473611D01*
X109589097Y-106474023D01*
X109604270Y-106472589D01*
X109615964Y-106470024D01*
X109730966Y-106429638D01*
X109743899Y-106422791D01*
X109840835Y-106351192D01*
X109851192Y-106340835D01*
X109922791Y-106243899D01*
X109929638Y-106230966D01*
X109970022Y-106115969D01*
X109972590Y-106104266D01*
X109974782Y-106081082D01*
X109975000Y-106076446D01*
X109975000Y-106019680D01*
X109970878Y-106006995D01*
X109966757Y-106004000D01*
X109594680Y-106004000D01*
X109581995Y-106008122D01*
X109579000Y-106012243D01*
X109579000Y-106459297D01*
X109071000Y-106459297D01*
X109071000Y-106019680D01*
X109066878Y-106006995D01*
X109062757Y-106004000D01*
X108690681Y-106004000D01*
X108677996Y-106008122D01*
X108675001Y-106012243D01*
X108675001Y-106076443D01*
X108473909Y-106076443D01*
X108475500Y-106064361D01*
X108475499Y-105480320D01*
X108675000Y-105480320D01*
X108679122Y-105493005D01*
X108683243Y-105496000D01*
X109055320Y-105496000D01*
X109068005Y-105491878D01*
X109071000Y-105487757D01*
X109071000Y-105480320D01*
X109579000Y-105480320D01*
X109583122Y-105493005D01*
X109587243Y-105496000D01*
X109959319Y-105496000D01*
X109972004Y-105491878D01*
X109974999Y-105487757D01*
X109974999Y-105423557D01*
X109974780Y-105418914D01*
X109972589Y-105395731D01*
X109970024Y-105384035D01*
X109929638Y-105269034D01*
X109922791Y-105256101D01*
X109851192Y-105159165D01*
X109840835Y-105148808D01*
X109743899Y-105077209D01*
X109730966Y-105070362D01*
X109615967Y-105029977D01*
X109604267Y-105027410D01*
X109594608Y-105026497D01*
X109581594Y-105029406D01*
X109579762Y-105031485D01*
X109579000Y-105035165D01*
X109579000Y-105480320D01*
X109071000Y-105480320D01*
X109071000Y-105040703D01*
X109066878Y-105028018D01*
X109064637Y-105026389D01*
X109060903Y-105025977D01*
X109045730Y-105027411D01*
X109034036Y-105029976D01*
X108919034Y-105070362D01*
X108906101Y-105077209D01*
X108809165Y-105148808D01*
X108798808Y-105159165D01*
X108727209Y-105256101D01*
X108720362Y-105269034D01*
X108679978Y-105384031D01*
X108677410Y-105395734D01*
X108675218Y-105418918D01*
X108675000Y-105423554D01*
X108675000Y-105480320D01*
X108475499Y-105480320D01*
X108475499Y-105435640D01*
X108473909Y-105423557D01*
X108460891Y-105324673D01*
X108460044Y-105318238D01*
X108457562Y-105312246D01*
X108457561Y-105312242D01*
X108402019Y-105178154D01*
X108399536Y-105172159D01*
X108303282Y-105046718D01*
X108239233Y-104997571D01*
X108204577Y-104947148D01*
X108200500Y-104919030D01*
X108200500Y-104524277D01*
X108219407Y-104466086D01*
X108254556Y-104436067D01*
X108271003Y-104427687D01*
X108271005Y-104427686D01*
X108277944Y-104424150D01*
X108367652Y-104334442D01*
X108371188Y-104327503D01*
X108372411Y-104325819D01*
X108421910Y-104289855D01*
X108483096Y-104289854D01*
X108507505Y-104301693D01*
X108544150Y-104326178D01*
X108561819Y-104333497D01*
X108620414Y-104345152D01*
X108630036Y-104346100D01*
X108875422Y-104346100D01*
X108888107Y-104341978D01*
X108891102Y-104337857D01*
X108891102Y-104330420D01*
X109399102Y-104330420D01*
X109403224Y-104343105D01*
X109407345Y-104346100D01*
X109660168Y-104346100D01*
X109669792Y-104345152D01*
X109725789Y-104334014D01*
X109764415Y-104334014D01*
X109820412Y-104345152D01*
X109830036Y-104346100D01*
X110075422Y-104346100D01*
X110088107Y-104341978D01*
X110091102Y-104337857D01*
X110091102Y-104330420D01*
X110599102Y-104330420D01*
X110603224Y-104343105D01*
X110607345Y-104346100D01*
X110860168Y-104346100D01*
X110869790Y-104345152D01*
X110928385Y-104333497D01*
X110946053Y-104326178D01*
X111012532Y-104281759D01*
X111026061Y-104268230D01*
X111070480Y-104201751D01*
X111077799Y-104184083D01*
X111089454Y-104125488D01*
X111090402Y-104115866D01*
X111090402Y-103819680D01*
X111086280Y-103806995D01*
X111082159Y-103804000D01*
X110614782Y-103804000D01*
X110602097Y-103808122D01*
X110599102Y-103812243D01*
X110599102Y-104330420D01*
X110091102Y-104330420D01*
X110091102Y-103819680D01*
X110086980Y-103806995D01*
X110082859Y-103804000D01*
X109414782Y-103804000D01*
X109402097Y-103808122D01*
X109399102Y-103812243D01*
X109399102Y-104330420D01*
X108891102Y-104330420D01*
X108891102Y-103280320D01*
X109399102Y-103280320D01*
X109403224Y-103293005D01*
X109407345Y-103296000D01*
X110075422Y-103296000D01*
X110088107Y-103291878D01*
X110091102Y-103287757D01*
X110091102Y-103280320D01*
X110599102Y-103280320D01*
X110603224Y-103293005D01*
X110607345Y-103296000D01*
X111074722Y-103296000D01*
X111087407Y-103291878D01*
X111090402Y-103287757D01*
X111090402Y-102984134D01*
X111089454Y-102974512D01*
X111078475Y-102919314D01*
X111078475Y-102880686D01*
X111089454Y-102825488D01*
X111090402Y-102815866D01*
X111090402Y-102519680D01*
X111086280Y-102506995D01*
X111082159Y-102504000D01*
X110614782Y-102504000D01*
X110602097Y-102508122D01*
X110599102Y-102512243D01*
X110599102Y-103280320D01*
X110091102Y-103280320D01*
X110091102Y-102519680D01*
X110086980Y-102506995D01*
X110082859Y-102504000D01*
X109414782Y-102504000D01*
X109402097Y-102508122D01*
X109399102Y-102512243D01*
X109399102Y-103280320D01*
X108891102Y-103280320D01*
X108891102Y-102519680D01*
X108886980Y-102506995D01*
X108882859Y-102504000D01*
X108415482Y-102504000D01*
X108402797Y-102508122D01*
X108399802Y-102512243D01*
X108399802Y-102576386D01*
X108380895Y-102634577D01*
X108331395Y-102670541D01*
X108270209Y-102670541D01*
X108255857Y-102664596D01*
X108171846Y-102621790D01*
X108171845Y-102621790D01*
X108164906Y-102618254D01*
X108157212Y-102617035D01*
X108157211Y-102617035D01*
X108074967Y-102604009D01*
X108074965Y-102604009D01*
X108071121Y-102603400D01*
X107595164Y-102603400D01*
X107119084Y-102603401D01*
X107115241Y-102604010D01*
X107115236Y-102604010D01*
X107078385Y-102609847D01*
X107025298Y-102618254D01*
X106968779Y-102647052D01*
X106919199Y-102672314D01*
X106919197Y-102672315D01*
X106912260Y-102675850D01*
X106822552Y-102765558D01*
X106819017Y-102772496D01*
X106819014Y-102772500D01*
X106794737Y-102820146D01*
X106751472Y-102863410D01*
X106691040Y-102872981D01*
X106636524Y-102845203D01*
X106626593Y-102833102D01*
X106611732Y-102818241D01*
X106545253Y-102773822D01*
X106527585Y-102766503D01*
X106468990Y-102754848D01*
X106459368Y-102753900D01*
X106264782Y-102753900D01*
X106252097Y-102758022D01*
X106249102Y-102762143D01*
X106249102Y-104330420D01*
X105741102Y-104330420D01*
X105741102Y-102769580D01*
X105736980Y-102756895D01*
X105732859Y-102753900D01*
X105530836Y-102753900D01*
X105521214Y-102754848D01*
X105462619Y-102766503D01*
X105444951Y-102773822D01*
X105378472Y-102818241D01*
X105358050Y-102838663D01*
X105356819Y-102837432D01*
X105317947Y-102868079D01*
X105256809Y-102870485D01*
X105205933Y-102836495D01*
X105195467Y-102820146D01*
X105171190Y-102772500D01*
X105171187Y-102772496D01*
X105167652Y-102765558D01*
X105077944Y-102675850D01*
X105071007Y-102672315D01*
X105071005Y-102672314D01*
X104971846Y-102621790D01*
X104971845Y-102621790D01*
X104964906Y-102618254D01*
X104957212Y-102617035D01*
X104957211Y-102617035D01*
X104874967Y-102604009D01*
X104874965Y-102604009D01*
X104871121Y-102603400D01*
X104395164Y-102603400D01*
X103919084Y-102603401D01*
X103915241Y-102604010D01*
X103915236Y-102604010D01*
X103884440Y-102608888D01*
X103855387Y-102613489D01*
X103794956Y-102603917D01*
X103751692Y-102560652D01*
X103740902Y-102515708D01*
X103740902Y-102313287D01*
X103759809Y-102255096D01*
X103809309Y-102219132D01*
X103870495Y-102219132D01*
X103922218Y-102258286D01*
X103963340Y-102319830D01*
X103976869Y-102333359D01*
X104043348Y-102377778D01*
X104061016Y-102385097D01*
X104119611Y-102396752D01*
X104129233Y-102397700D01*
X104425419Y-102397700D01*
X104438104Y-102393578D01*
X104441099Y-102389457D01*
X104441099Y-102382020D01*
X104949099Y-102382020D01*
X104953221Y-102394705D01*
X104957342Y-102397700D01*
X105260965Y-102397700D01*
X105270587Y-102396752D01*
X105325785Y-102385773D01*
X105364413Y-102385773D01*
X105419611Y-102396752D01*
X105429233Y-102397700D01*
X105725419Y-102397700D01*
X105738104Y-102393578D01*
X105741099Y-102389457D01*
X105741099Y-102382020D01*
X106249099Y-102382020D01*
X106253221Y-102394705D01*
X106257342Y-102397700D01*
X106560965Y-102397700D01*
X106570587Y-102396752D01*
X106625785Y-102385773D01*
X106664413Y-102385773D01*
X106719611Y-102396752D01*
X106729233Y-102397700D01*
X107025419Y-102397700D01*
X107038104Y-102393578D01*
X107041099Y-102389457D01*
X107041099Y-102382020D01*
X107549099Y-102382020D01*
X107553221Y-102394705D01*
X107557342Y-102397700D01*
X107860965Y-102397700D01*
X107870587Y-102396752D01*
X107929182Y-102385097D01*
X107946850Y-102377778D01*
X108013329Y-102333359D01*
X108026858Y-102319830D01*
X108071277Y-102253351D01*
X108078596Y-102235683D01*
X108090251Y-102177088D01*
X108091199Y-102167466D01*
X108091199Y-101980320D01*
X108399802Y-101980320D01*
X108403924Y-101993005D01*
X108408045Y-101996000D01*
X108875422Y-101996000D01*
X108888107Y-101991878D01*
X108891102Y-101987757D01*
X108891102Y-101980320D01*
X109399102Y-101980320D01*
X109403224Y-101993005D01*
X109407345Y-101996000D01*
X110075422Y-101996000D01*
X110088107Y-101991878D01*
X110091102Y-101987757D01*
X110091102Y-101980320D01*
X110599102Y-101980320D01*
X110603224Y-101993005D01*
X110607345Y-101996000D01*
X111074722Y-101996000D01*
X111087407Y-101991878D01*
X111090402Y-101987757D01*
X111090402Y-101684134D01*
X111089454Y-101674512D01*
X111078475Y-101619314D01*
X111078475Y-101580686D01*
X111089454Y-101525488D01*
X111090402Y-101515866D01*
X111090402Y-101219680D01*
X111086280Y-101206995D01*
X111082159Y-101204000D01*
X110614782Y-101204000D01*
X110602097Y-101208122D01*
X110599102Y-101212243D01*
X110599102Y-101980320D01*
X110091102Y-101980320D01*
X110091102Y-101219680D01*
X110086980Y-101206995D01*
X110082859Y-101204000D01*
X109414782Y-101204000D01*
X109402097Y-101208122D01*
X109399102Y-101212243D01*
X109399102Y-101980320D01*
X108891102Y-101980320D01*
X108891102Y-101219680D01*
X108886980Y-101206995D01*
X108882859Y-101204000D01*
X108415482Y-101204000D01*
X108402797Y-101208122D01*
X108399802Y-101212243D01*
X108399802Y-101515866D01*
X108400750Y-101525488D01*
X108411729Y-101580686D01*
X108411729Y-101619314D01*
X108400750Y-101674512D01*
X108399802Y-101684134D01*
X108399802Y-101980320D01*
X108091199Y-101980320D01*
X108091199Y-101769680D01*
X108087077Y-101756995D01*
X108082956Y-101754000D01*
X107564779Y-101754000D01*
X107552094Y-101758122D01*
X107549099Y-101762243D01*
X107549099Y-102382020D01*
X107041099Y-102382020D01*
X107041099Y-101769680D01*
X107036977Y-101756995D01*
X107032856Y-101754000D01*
X106264779Y-101754000D01*
X106252094Y-101758122D01*
X106249099Y-101762243D01*
X106249099Y-102382020D01*
X105741099Y-102382020D01*
X105741099Y-101769680D01*
X105736977Y-101756995D01*
X105732856Y-101754000D01*
X104964779Y-101754000D01*
X104952094Y-101758122D01*
X104949099Y-101762243D01*
X104949099Y-102382020D01*
X104441099Y-102382020D01*
X104441099Y-101230320D01*
X104949099Y-101230320D01*
X104953221Y-101243005D01*
X104957342Y-101246000D01*
X105725419Y-101246000D01*
X105738104Y-101241878D01*
X105741099Y-101237757D01*
X105741099Y-101230320D01*
X106249099Y-101230320D01*
X106253221Y-101243005D01*
X106257342Y-101246000D01*
X107025419Y-101246000D01*
X107038104Y-101241878D01*
X107041099Y-101237757D01*
X107041099Y-101230320D01*
X107549099Y-101230320D01*
X107553221Y-101243005D01*
X107557342Y-101246000D01*
X108075519Y-101246000D01*
X108088204Y-101241878D01*
X108091199Y-101237757D01*
X108091199Y-100832534D01*
X108090251Y-100822912D01*
X108079590Y-100769314D01*
X108079590Y-100730686D01*
X108090251Y-100677088D01*
X108091199Y-100667466D01*
X108091199Y-100269680D01*
X108087077Y-100256995D01*
X108082956Y-100254000D01*
X107564779Y-100254000D01*
X107552094Y-100258122D01*
X107549099Y-100262243D01*
X107549099Y-101230320D01*
X107041099Y-101230320D01*
X107041099Y-100269680D01*
X107036977Y-100256995D01*
X107032856Y-100254000D01*
X106264779Y-100254000D01*
X106252094Y-100258122D01*
X106249099Y-100262243D01*
X106249099Y-101230320D01*
X105741099Y-101230320D01*
X105741099Y-100269680D01*
X105736977Y-100256995D01*
X105732856Y-100254000D01*
X104964779Y-100254000D01*
X104952094Y-100258122D01*
X104949099Y-100262243D01*
X104949099Y-101230320D01*
X104441099Y-101230320D01*
X104441099Y-100269680D01*
X104436977Y-100256995D01*
X104432856Y-100254000D01*
X103914679Y-100254000D01*
X103901992Y-100258122D01*
X103887401Y-100278205D01*
X103837901Y-100314169D01*
X103776716Y-100314168D01*
X103727216Y-100278204D01*
X103719102Y-100264965D01*
X103672663Y-100173822D01*
X103671988Y-100172497D01*
X103671987Y-100172495D01*
X103668452Y-100165558D01*
X103578744Y-100075850D01*
X103571807Y-100072315D01*
X103571805Y-100072314D01*
X103472646Y-100021790D01*
X103472645Y-100021790D01*
X103465706Y-100018254D01*
X103458012Y-100017035D01*
X103450602Y-100014628D01*
X103451446Y-100012030D01*
X103408220Y-99989996D01*
X103380451Y-99935475D01*
X103390033Y-99875044D01*
X103433304Y-99831787D01*
X103440351Y-99828539D01*
X103446055Y-99826177D01*
X103512532Y-99781758D01*
X103526061Y-99768229D01*
X103551391Y-99730320D01*
X103898999Y-99730320D01*
X103903121Y-99743005D01*
X103907242Y-99746000D01*
X104425419Y-99746000D01*
X104438104Y-99741878D01*
X104441099Y-99737757D01*
X104441099Y-99730320D01*
X104949099Y-99730320D01*
X104953221Y-99743005D01*
X104957342Y-99746000D01*
X105725419Y-99746000D01*
X105738104Y-99741878D01*
X105741099Y-99737757D01*
X105741099Y-98769679D01*
X105736977Y-98756994D01*
X105732856Y-98753999D01*
X104964779Y-98753999D01*
X104952094Y-98758121D01*
X104949099Y-98762242D01*
X104949099Y-99730320D01*
X104441099Y-99730320D01*
X104441099Y-98769679D01*
X104436977Y-98756994D01*
X104432856Y-98753999D01*
X103914679Y-98753999D01*
X103901994Y-98758121D01*
X103898999Y-98762242D01*
X103898999Y-99167465D01*
X103899947Y-99177087D01*
X103910608Y-99230685D01*
X103910608Y-99269313D01*
X103899947Y-99322912D01*
X103898999Y-99332534D01*
X103898999Y-99730320D01*
X103551391Y-99730320D01*
X103570480Y-99701750D01*
X103577799Y-99684082D01*
X103589454Y-99625487D01*
X103590402Y-99615865D01*
X103590402Y-99319679D01*
X103586280Y-99306994D01*
X103582159Y-99303999D01*
X101490102Y-99303999D01*
X101431911Y-99285092D01*
X101395947Y-99235592D01*
X101391102Y-99204999D01*
X101391102Y-98780319D01*
X101899102Y-98780319D01*
X101903224Y-98793004D01*
X101907345Y-98795999D01*
X102575422Y-98795999D01*
X102588107Y-98791877D01*
X102591102Y-98787756D01*
X102591102Y-98780319D01*
X103099102Y-98780319D01*
X103103224Y-98793004D01*
X103107345Y-98795999D01*
X103574722Y-98795999D01*
X103587407Y-98791877D01*
X103590402Y-98787756D01*
X103590402Y-98484133D01*
X103589454Y-98474511D01*
X103578475Y-98419313D01*
X103578475Y-98380685D01*
X103589454Y-98325487D01*
X103590402Y-98315865D01*
X103590402Y-98230319D01*
X103898999Y-98230319D01*
X103903121Y-98243004D01*
X103907242Y-98245999D01*
X104425419Y-98245999D01*
X104438104Y-98241877D01*
X104441099Y-98237756D01*
X104441099Y-98230319D01*
X104949099Y-98230319D01*
X104953221Y-98243004D01*
X104957342Y-98245999D01*
X105725419Y-98245999D01*
X105738104Y-98241877D01*
X105741099Y-98237756D01*
X105741099Y-97617979D01*
X105736977Y-97605294D01*
X105732856Y-97602299D01*
X105429233Y-97602299D01*
X105419611Y-97603247D01*
X105364413Y-97614226D01*
X105325785Y-97614226D01*
X105270587Y-97603247D01*
X105260965Y-97602299D01*
X104964779Y-97602299D01*
X104952094Y-97606421D01*
X104949099Y-97610542D01*
X104949099Y-98230319D01*
X104441099Y-98230319D01*
X104441099Y-97617979D01*
X104436977Y-97605294D01*
X104432856Y-97602299D01*
X104129233Y-97602299D01*
X104119611Y-97603247D01*
X104061016Y-97614902D01*
X104043348Y-97622221D01*
X103976869Y-97666640D01*
X103963340Y-97680169D01*
X103918921Y-97746648D01*
X103911602Y-97764316D01*
X103899947Y-97822911D01*
X103898999Y-97832533D01*
X103898999Y-98230319D01*
X103590402Y-98230319D01*
X103590402Y-98019679D01*
X103586280Y-98006994D01*
X103582159Y-98003999D01*
X103114782Y-98003999D01*
X103102097Y-98008121D01*
X103099102Y-98012242D01*
X103099102Y-98780319D01*
X102591102Y-98780319D01*
X102591102Y-98019679D01*
X102586980Y-98006994D01*
X102582859Y-98003999D01*
X101914782Y-98003999D01*
X101902097Y-98008121D01*
X101899102Y-98012242D01*
X101899102Y-98780319D01*
X101391102Y-98780319D01*
X101391102Y-97480319D01*
X101899102Y-97480319D01*
X101903224Y-97493004D01*
X101907345Y-97495999D01*
X102575422Y-97495999D01*
X102588107Y-97491877D01*
X102591102Y-97487756D01*
X102591102Y-97480319D01*
X103099102Y-97480319D01*
X103103224Y-97493004D01*
X103107345Y-97495999D01*
X103574722Y-97495999D01*
X103587407Y-97491877D01*
X103590402Y-97487756D01*
X103590402Y-97423613D01*
X103609309Y-97365422D01*
X103658809Y-97329458D01*
X103719995Y-97329458D01*
X103734348Y-97335403D01*
X103825298Y-97381745D01*
X103832992Y-97382964D01*
X103832993Y-97382964D01*
X103915237Y-97395990D01*
X103915239Y-97395990D01*
X103919083Y-97396599D01*
X104395040Y-97396599D01*
X104871120Y-97396598D01*
X104874963Y-97395989D01*
X104874968Y-97395989D01*
X104911819Y-97390152D01*
X104964906Y-97381745D01*
X105067525Y-97329458D01*
X105071005Y-97327685D01*
X105071007Y-97327684D01*
X105077944Y-97324149D01*
X105125098Y-97276995D01*
X105179615Y-97249218D01*
X105240047Y-97258789D01*
X105265106Y-97276995D01*
X105312260Y-97324149D01*
X105319197Y-97327684D01*
X105319199Y-97327685D01*
X105340902Y-97338743D01*
X105425298Y-97381745D01*
X105432992Y-97382964D01*
X105432993Y-97382964D01*
X105515237Y-97395990D01*
X105515239Y-97395990D01*
X105519083Y-97396599D01*
X105543990Y-97396599D01*
X106326209Y-97396598D01*
X106384400Y-97415505D01*
X106420364Y-97465005D01*
X106420364Y-97526191D01*
X106403470Y-97557499D01*
X106399271Y-97562739D01*
X106394914Y-97566767D01*
X106346160Y-97598791D01*
X106320039Y-97602299D01*
X106264779Y-97602299D01*
X106252094Y-97606421D01*
X106249099Y-97610542D01*
X106249099Y-99730320D01*
X106253221Y-99743005D01*
X106257342Y-99746000D01*
X108075519Y-99746000D01*
X108088205Y-99741878D01*
X108102799Y-99721791D01*
X108152299Y-99685827D01*
X108213484Y-99685826D01*
X108262984Y-99721790D01*
X108271101Y-99735036D01*
X108318213Y-99827497D01*
X108318216Y-99827501D01*
X108321752Y-99834441D01*
X108411460Y-99924149D01*
X108418397Y-99927684D01*
X108418399Y-99927685D01*
X108517558Y-99978209D01*
X108524498Y-99981745D01*
X108532192Y-99982964D01*
X108539602Y-99985371D01*
X108538758Y-99987969D01*
X108581984Y-100010003D01*
X108609753Y-100064524D01*
X108600171Y-100124955D01*
X108556900Y-100168212D01*
X108549853Y-100171460D01*
X108544149Y-100173822D01*
X108477672Y-100218241D01*
X108464143Y-100231770D01*
X108419724Y-100298249D01*
X108412405Y-100315917D01*
X108400750Y-100374512D01*
X108399802Y-100384134D01*
X108399802Y-100680320D01*
X108403924Y-100693005D01*
X108408045Y-100696000D01*
X111074722Y-100696000D01*
X111087407Y-100691878D01*
X111090402Y-100687757D01*
X111090402Y-100384134D01*
X111089454Y-100374512D01*
X111077799Y-100315917D01*
X111070480Y-100298249D01*
X111026061Y-100231770D01*
X111012532Y-100218241D01*
X110946052Y-100173821D01*
X110940348Y-100171458D01*
X110893822Y-100131722D01*
X110879538Y-100072227D01*
X110902952Y-100015699D01*
X110950905Y-99986313D01*
X110950599Y-99985371D01*
X110954524Y-99984096D01*
X110955121Y-99983730D01*
X110956485Y-99983459D01*
X110958011Y-99982963D01*
X110965703Y-99981745D01*
X111056513Y-99935475D01*
X111071802Y-99927685D01*
X111071804Y-99927684D01*
X111078741Y-99924149D01*
X111084247Y-99918643D01*
X111088006Y-99915912D01*
X111146197Y-99897005D01*
X111193641Y-99909114D01*
X111241919Y-99935475D01*
X111252838Y-99941437D01*
X111259757Y-99942942D01*
X111259759Y-99942943D01*
X111390662Y-99971420D01*
X111390667Y-99971421D01*
X111394125Y-99972173D01*
X111397648Y-99972425D01*
X111397655Y-99972426D01*
X111461417Y-99976986D01*
X111464940Y-99977238D01*
X111468463Y-99976986D01*
X111602115Y-99967426D01*
X111602116Y-99967426D01*
X111609172Y-99966921D01*
X111615797Y-99964450D01*
X111615801Y-99964449D01*
X111723844Y-99924149D01*
X111744646Y-99916390D01*
X111780146Y-99897005D01*
X111803860Y-99884056D01*
X111803863Y-99884054D01*
X111806958Y-99882364D01*
X111922704Y-99795716D01*
X112474419Y-99244001D01*
X119300001Y-99244001D01*
X119300116Y-99247378D01*
X119302686Y-99285099D01*
X119304039Y-99293685D01*
X119347677Y-99468709D01*
X119351363Y-99478726D01*
X119431122Y-99639399D01*
X119436868Y-99648385D01*
X119549269Y-99788183D01*
X119556817Y-99795731D01*
X119696615Y-99908132D01*
X119705601Y-99913878D01*
X119866274Y-99993637D01*
X119876291Y-99997323D01*
X120051314Y-100040961D01*
X120059901Y-100042314D01*
X120097625Y-100044885D01*
X120100996Y-100045000D01*
X121780320Y-100045000D01*
X121793005Y-100040878D01*
X121796000Y-100036757D01*
X121796000Y-100029319D01*
X122304000Y-100029319D01*
X122308122Y-100042004D01*
X122312243Y-100044999D01*
X123999001Y-100044999D01*
X124002378Y-100044884D01*
X124040099Y-100042314D01*
X124048685Y-100040961D01*
X124223709Y-99997323D01*
X124233726Y-99993637D01*
X124394399Y-99913878D01*
X124403385Y-99908132D01*
X124543183Y-99795731D01*
X124550731Y-99788183D01*
X124663132Y-99648385D01*
X124668878Y-99639399D01*
X124748637Y-99478726D01*
X124752323Y-99468709D01*
X124795961Y-99293686D01*
X124797314Y-99285099D01*
X124799885Y-99247375D01*
X124800000Y-99244004D01*
X124800000Y-98814680D01*
X124795878Y-98801995D01*
X124791757Y-98799000D01*
X122319680Y-98799000D01*
X122306995Y-98803122D01*
X122304000Y-98807243D01*
X122304000Y-100029319D01*
X121796000Y-100029319D01*
X121796000Y-98814680D01*
X121791878Y-98801995D01*
X121787757Y-98799000D01*
X119315681Y-98799000D01*
X119302996Y-98803122D01*
X119300001Y-98807243D01*
X119300001Y-99244001D01*
X112474419Y-99244001D01*
X113443100Y-98275320D01*
X119300000Y-98275320D01*
X119304122Y-98288005D01*
X119308243Y-98291000D01*
X121780320Y-98291000D01*
X121793005Y-98286878D01*
X121796000Y-98282757D01*
X121796000Y-98275320D01*
X122304000Y-98275320D01*
X122308122Y-98288005D01*
X122312243Y-98291000D01*
X124784319Y-98291000D01*
X124797004Y-98286878D01*
X124799999Y-98282757D01*
X124799999Y-97845999D01*
X124799884Y-97842622D01*
X124797314Y-97804901D01*
X124795961Y-97796315D01*
X124752323Y-97621291D01*
X124748637Y-97611274D01*
X124668878Y-97450601D01*
X124663132Y-97441615D01*
X124550731Y-97301817D01*
X124543183Y-97294269D01*
X124403385Y-97181868D01*
X124394399Y-97176122D01*
X124233726Y-97096363D01*
X124223709Y-97092677D01*
X124048686Y-97049039D01*
X124040099Y-97047686D01*
X124002375Y-97045115D01*
X123999004Y-97045000D01*
X122319680Y-97045000D01*
X122306995Y-97049122D01*
X122304000Y-97053243D01*
X122304000Y-98275320D01*
X121796000Y-98275320D01*
X121796000Y-97060681D01*
X121791878Y-97047996D01*
X121787757Y-97045001D01*
X120100999Y-97045001D01*
X120097622Y-97045116D01*
X120059901Y-97047686D01*
X120051315Y-97049039D01*
X119876291Y-97092677D01*
X119866274Y-97096363D01*
X119705601Y-97176122D01*
X119696615Y-97181868D01*
X119556817Y-97294269D01*
X119549269Y-97301817D01*
X119436868Y-97441615D01*
X119431122Y-97450601D01*
X119351363Y-97611274D01*
X119347677Y-97621291D01*
X119304039Y-97796314D01*
X119302686Y-97804901D01*
X119300115Y-97842625D01*
X119300000Y-97845996D01*
X119300000Y-98275320D01*
X113443100Y-98275320D01*
X116181424Y-95536996D01*
X116235941Y-95509219D01*
X116251428Y-95508000D01*
X125393000Y-95508000D01*
X125451191Y-95526907D01*
X125487155Y-95576407D01*
X125492000Y-95607000D01*
X125492000Y-100874000D01*
X125503609Y-100981980D01*
X125514995Y-101034322D01*
X125549293Y-101137372D01*
X125552638Y-101142577D01*
X125552639Y-101142579D01*
X125582395Y-101188879D01*
X125627465Y-101259010D01*
X125629784Y-101261686D01*
X125671642Y-101309994D01*
X125671647Y-101309999D01*
X125673958Y-101312666D01*
X125676625Y-101314977D01*
X125676627Y-101314979D01*
X125777883Y-101402719D01*
X125777886Y-101402721D01*
X125783234Y-101407355D01*
X125789674Y-101410296D01*
X125911549Y-101465955D01*
X125911554Y-101465957D01*
X125914760Y-101467421D01*
X125982881Y-101487423D01*
X126126000Y-101508000D01*
X133874000Y-101508000D01*
X133981980Y-101496391D01*
X134034322Y-101485005D01*
X134084165Y-101468416D01*
X134131501Y-101452661D01*
X134137372Y-101450707D01*
X134142577Y-101447362D01*
X134142579Y-101447361D01*
X134255174Y-101375000D01*
X134259010Y-101372535D01*
X134279157Y-101355078D01*
X134309994Y-101328358D01*
X134309999Y-101328353D01*
X134312666Y-101326042D01*
X134314979Y-101323373D01*
X134402719Y-101222117D01*
X134402721Y-101222114D01*
X134407355Y-101216766D01*
X134435842Y-101154388D01*
X134465955Y-101088451D01*
X134465957Y-101088446D01*
X134467421Y-101085240D01*
X134487423Y-101017119D01*
X134508000Y-100874000D01*
X134508000Y-95063000D01*
X134499968Y-94973025D01*
X134492063Y-94929099D01*
X134468226Y-94841977D01*
X134444451Y-94798341D01*
X134400741Y-94718120D01*
X134399046Y-94715009D01*
X134356551Y-94658135D01*
X134354060Y-94655640D01*
X134354057Y-94655636D01*
X134256894Y-94558298D01*
X134256890Y-94558295D01*
X134254400Y-94555800D01*
X130338400Y-91618800D01*
X130323521Y-91608055D01*
X130323104Y-91607765D01*
X130316440Y-91603133D01*
X130316396Y-91603103D01*
X130316042Y-91602857D01*
X130314100Y-91601558D01*
X130304080Y-91594860D01*
X130304076Y-91594858D01*
X130300766Y-91592645D01*
X130256600Y-91572475D01*
X130172451Y-91534045D01*
X130172446Y-91534043D01*
X130169240Y-91532579D01*
X130101119Y-91512577D01*
X129958000Y-91492000D01*
X112095544Y-91492000D01*
X112088227Y-91492128D01*
X112078220Y-91492303D01*
X112078185Y-91492304D01*
X112077783Y-91492311D01*
X112074037Y-91492442D01*
X112069451Y-91492602D01*
X112069398Y-91492604D01*
X112068979Y-91492619D01*
X112051243Y-91493550D01*
X112047362Y-91494388D01*
X112047357Y-91494389D01*
X111978895Y-91509177D01*
X111909910Y-91524078D01*
X111843354Y-91548791D01*
X111840260Y-91550475D01*
X111840248Y-91550480D01*
X111799826Y-91572475D01*
X111739675Y-91583680D01*
X111684427Y-91557388D01*
X111655183Y-91503644D01*
X111665671Y-91437975D01*
X111673404Y-91423850D01*
X111716511Y-91308859D01*
X111719360Y-91296880D01*
X111724711Y-91247625D01*
X111724889Y-91244339D01*
X111720878Y-91231995D01*
X111716757Y-91229000D01*
X110290680Y-91229000D01*
X110277995Y-91233122D01*
X110275000Y-91237243D01*
X110275000Y-91242291D01*
X110275289Y-91247625D01*
X110280640Y-91296880D01*
X110283489Y-91308859D01*
X110326596Y-91423850D01*
X110333299Y-91436093D01*
X110406437Y-91533682D01*
X110416317Y-91543562D01*
X110466997Y-91581544D01*
X110502223Y-91631572D01*
X110501316Y-91692750D01*
X110464622Y-91741712D01*
X110458026Y-91745975D01*
X110452550Y-91749213D01*
X110402155Y-91763000D01*
X110197810Y-91763000D01*
X110163130Y-91756727D01*
X110050753Y-91714698D01*
X110050752Y-91714698D01*
X110044119Y-91712217D01*
X110037056Y-91711705D01*
X110037054Y-91711705D01*
X109965177Y-91706499D01*
X109899905Y-91701772D01*
X109896379Y-91702021D01*
X109896375Y-91702021D01*
X109832605Y-91706524D01*
X109832599Y-91706525D01*
X109829085Y-91706773D01*
X109825646Y-91707518D01*
X109825638Y-91707519D01*
X109694693Y-91735880D01*
X109694690Y-91735881D01*
X109687774Y-91737379D01*
X109560806Y-91806560D01*
X109557968Y-91808680D01*
X109557964Y-91808683D01*
X109536779Y-91824512D01*
X109503933Y-91849054D01*
X109401596Y-91951205D01*
X109399479Y-91954028D01*
X109399477Y-91954030D01*
X108997021Y-92490638D01*
X108877704Y-92649727D01*
X108827664Y-92684935D01*
X108766485Y-92684006D01*
X108728500Y-92660331D01*
X108336889Y-92268719D01*
X107904496Y-91836326D01*
X107876719Y-91781809D01*
X107875500Y-91766322D01*
X107875499Y-91438882D01*
X107875499Y-91435640D01*
X107860044Y-91318238D01*
X107857562Y-91312246D01*
X107857561Y-91312242D01*
X107802019Y-91178154D01*
X107799536Y-91172159D01*
X107703282Y-91046718D01*
X107577841Y-90950464D01*
X107431762Y-90889956D01*
X107314361Y-90874500D01*
X107075037Y-90874500D01*
X106835640Y-90874501D01*
X106832429Y-90874924D01*
X106832424Y-90874924D01*
X106750671Y-90885686D01*
X106718238Y-90889956D01*
X106712246Y-90892438D01*
X106712242Y-90892439D01*
X106612247Y-90933859D01*
X106572159Y-90950464D01*
X106446718Y-91046718D01*
X106350464Y-91172159D01*
X106347981Y-91178154D01*
X106341464Y-91193887D01*
X106301727Y-91240412D01*
X106242233Y-91254696D01*
X106185705Y-91231281D01*
X106158536Y-91193887D01*
X106152019Y-91178154D01*
X106149536Y-91172159D01*
X106053282Y-91046718D01*
X105927841Y-90950464D01*
X105781762Y-90889956D01*
X105664361Y-90874500D01*
X105425037Y-90874500D01*
X105185640Y-90874501D01*
X105182429Y-90874924D01*
X105182424Y-90874924D01*
X105100671Y-90885686D01*
X105068238Y-90889956D01*
X105062246Y-90892438D01*
X105062242Y-90892439D01*
X104962247Y-90933859D01*
X104922159Y-90950464D01*
X104796718Y-91046718D01*
X104700464Y-91172159D01*
X104639956Y-91318238D01*
X104624500Y-91435639D01*
X104624501Y-91619050D01*
X104624501Y-91766322D01*
X104605594Y-91824512D01*
X104595505Y-91836326D01*
X104033331Y-92398500D01*
X104030337Y-92401370D01*
X103991361Y-92437210D01*
X103991358Y-92437214D01*
X103986390Y-92441782D01*
X103982833Y-92447519D01*
X103963976Y-92477932D01*
X103958694Y-92485617D01*
X103932974Y-92519502D01*
X103930491Y-92525773D01*
X103930490Y-92525775D01*
X103926990Y-92534615D01*
X103919081Y-92550340D01*
X103910520Y-92564148D01*
X103908638Y-92570626D01*
X103898652Y-92604996D01*
X103895632Y-92613816D01*
X103882458Y-92647092D01*
X103882457Y-92647095D01*
X103879973Y-92653370D01*
X103879267Y-92660083D01*
X103879266Y-92660089D01*
X103878273Y-92669533D01*
X103874885Y-92686802D01*
X103871798Y-92697427D01*
X103871797Y-92697433D01*
X103870351Y-92702410D01*
X103869602Y-92712610D01*
X103869602Y-92746852D01*
X103869060Y-92757198D01*
X103864923Y-92796560D01*
X103866048Y-92803210D01*
X103868216Y-92816029D01*
X103869602Y-92832539D01*
X103869602Y-95435011D01*
X103850695Y-95493202D01*
X103815547Y-95523220D01*
X103719204Y-95572310D01*
X103719200Y-95572313D01*
X103712260Y-95575849D01*
X103622552Y-95665557D01*
X103619016Y-95672496D01*
X103617793Y-95674180D01*
X103568294Y-95710144D01*
X103507108Y-95710145D01*
X103482699Y-95698306D01*
X103446054Y-95673821D01*
X103428385Y-95666502D01*
X103369790Y-95654847D01*
X103360168Y-95653899D01*
X103114782Y-95653899D01*
X103102097Y-95658021D01*
X103099102Y-95662142D01*
X103099102Y-97480319D01*
X102591102Y-97480319D01*
X102591102Y-96719679D01*
X102586980Y-96706994D01*
X102582859Y-96703999D01*
X101914782Y-96703999D01*
X101902097Y-96708121D01*
X101899102Y-96712242D01*
X101899102Y-97480319D01*
X101391102Y-97480319D01*
X101391102Y-96180319D01*
X101899102Y-96180319D01*
X101903224Y-96193004D01*
X101907345Y-96195999D01*
X102575422Y-96195999D01*
X102588107Y-96191877D01*
X102591102Y-96187756D01*
X102591102Y-95669579D01*
X102586980Y-95656894D01*
X102582859Y-95653899D01*
X102330036Y-95653899D01*
X102320412Y-95654847D01*
X102264415Y-95665985D01*
X102225789Y-95665985D01*
X102169792Y-95654847D01*
X102160168Y-95653899D01*
X101914782Y-95653899D01*
X101902097Y-95658021D01*
X101899102Y-95662142D01*
X101899102Y-96180319D01*
X101391102Y-96180319D01*
X101391102Y-95669579D01*
X101386980Y-95656894D01*
X101382859Y-95653899D01*
X101249500Y-95653899D01*
X101191309Y-95634992D01*
X101155345Y-95585492D01*
X101150500Y-95554899D01*
X101150500Y-90705661D01*
X110275111Y-90705661D01*
X110279122Y-90718005D01*
X110283243Y-90721000D01*
X110730320Y-90721000D01*
X110743005Y-90716878D01*
X110746000Y-90712757D01*
X110746000Y-90705320D01*
X111254000Y-90705320D01*
X111258122Y-90718005D01*
X111262243Y-90721000D01*
X111709320Y-90721000D01*
X111722005Y-90716878D01*
X111725000Y-90712757D01*
X111725000Y-90707709D01*
X111724711Y-90702375D01*
X111719360Y-90653120D01*
X111716511Y-90641141D01*
X111673404Y-90526150D01*
X111666701Y-90513907D01*
X111593563Y-90416318D01*
X111583682Y-90406437D01*
X111486093Y-90333299D01*
X111473850Y-90326596D01*
X111358859Y-90283489D01*
X111346880Y-90280640D01*
X111297625Y-90275289D01*
X111292291Y-90275000D01*
X111269680Y-90275000D01*
X111256995Y-90279122D01*
X111254000Y-90283243D01*
X111254000Y-90705320D01*
X110746000Y-90705320D01*
X110746000Y-90290680D01*
X110741878Y-90277995D01*
X110737757Y-90275000D01*
X110707709Y-90275000D01*
X110702375Y-90275289D01*
X110653120Y-90280640D01*
X110641141Y-90283489D01*
X110526150Y-90326596D01*
X110513907Y-90333299D01*
X110416318Y-90406437D01*
X110406437Y-90416318D01*
X110333299Y-90513907D01*
X110326596Y-90526150D01*
X110283489Y-90641141D01*
X110280640Y-90653120D01*
X110275289Y-90702375D01*
X110275111Y-90705661D01*
X101150500Y-90705661D01*
X101150500Y-87920253D01*
X101169407Y-87862062D01*
X101179496Y-87850249D01*
X102073468Y-86956277D01*
X102127985Y-86928500D01*
X102188417Y-86938071D01*
X102231682Y-86981336D01*
X102234936Y-86988396D01*
X102244319Y-87011050D01*
X102288740Y-87077530D01*
X102302267Y-87091057D01*
X102316153Y-87100335D01*
X102354033Y-87148385D01*
X102356437Y-87209523D01*
X102322445Y-87260397D01*
X102306098Y-87270861D01*
X102243001Y-87303011D01*
X102242997Y-87303014D01*
X102236057Y-87306550D01*
X102146349Y-87396258D01*
X102142814Y-87403195D01*
X102142813Y-87403197D01*
X102093681Y-87499625D01*
X102088753Y-87509296D01*
X102073899Y-87603081D01*
X102073900Y-88206918D01*
X102074509Y-88210761D01*
X102074509Y-88210766D01*
X102078643Y-88236865D01*
X102088753Y-88300704D01*
X102146349Y-88413742D01*
X102236057Y-88503450D01*
X102242994Y-88506985D01*
X102242996Y-88506986D01*
X102337427Y-88555101D01*
X102349095Y-88561046D01*
X102356789Y-88562265D01*
X102356790Y-88562265D01*
X102439034Y-88575291D01*
X102439036Y-88575291D01*
X102442880Y-88575900D01*
X103464867Y-88575900D01*
X104487117Y-88575899D01*
X104490960Y-88575290D01*
X104490965Y-88575290D01*
X104527816Y-88569453D01*
X104580903Y-88561046D01*
X104587843Y-88557510D01*
X104595258Y-88555101D01*
X104596353Y-88558470D01*
X104641642Y-88551247D01*
X104697476Y-88580274D01*
X104736514Y-88620699D01*
X104886789Y-88719036D01*
X105055116Y-88781636D01*
X105060602Y-88782368D01*
X105060606Y-88782369D01*
X105222408Y-88803957D01*
X105233130Y-88805388D01*
X105238636Y-88804887D01*
X105238638Y-88804887D01*
X105322556Y-88797250D01*
X105411981Y-88789112D01*
X105434990Y-88781636D01*
X105577517Y-88735326D01*
X105577519Y-88735325D01*
X105582782Y-88733615D01*
X105587538Y-88730780D01*
X105587540Y-88730779D01*
X105732293Y-88644489D01*
X105737044Y-88641657D01*
X105867099Y-88517807D01*
X105874289Y-88506986D01*
X105963420Y-88372832D01*
X105966483Y-88368222D01*
X106030257Y-88200336D01*
X106055251Y-88022493D01*
X106055565Y-88000000D01*
X106042020Y-87879245D01*
X106036163Y-87827025D01*
X106036162Y-87827021D01*
X106035546Y-87821528D01*
X105976485Y-87651927D01*
X105943559Y-87599235D01*
X105884247Y-87504315D01*
X105884245Y-87504313D01*
X105881316Y-87499625D01*
X105797372Y-87415093D01*
X105758671Y-87376121D01*
X105758669Y-87376120D01*
X105754770Y-87372193D01*
X105748842Y-87368431D01*
X105607810Y-87278929D01*
X105607809Y-87278928D01*
X105603136Y-87275963D01*
X105433951Y-87215719D01*
X105428464Y-87215065D01*
X105428461Y-87215064D01*
X105261120Y-87195110D01*
X105261117Y-87195110D01*
X105255624Y-87194455D01*
X105077017Y-87213227D01*
X105071777Y-87215011D01*
X105071776Y-87215011D01*
X104912249Y-87269318D01*
X104912245Y-87269320D01*
X104907007Y-87271103D01*
X104902297Y-87274001D01*
X104902292Y-87274003D01*
X104819742Y-87324789D01*
X104760272Y-87339176D01*
X104703703Y-87315860D01*
X104700073Y-87312511D01*
X104699447Y-87312056D01*
X104693941Y-87306550D01*
X104687001Y-87303014D01*
X104686997Y-87303011D01*
X104623900Y-87270861D01*
X104580635Y-87227597D01*
X104571064Y-87167165D01*
X104598842Y-87112648D01*
X104613845Y-87100335D01*
X104627731Y-87091057D01*
X104641258Y-87077530D01*
X104685677Y-87011051D01*
X104692996Y-86993383D01*
X104704651Y-86934788D01*
X104705599Y-86925166D01*
X104705599Y-86904680D01*
X104701477Y-86891995D01*
X104697356Y-86889000D01*
X103309999Y-86889000D01*
X103251808Y-86870093D01*
X103215844Y-86820593D01*
X103210999Y-86790000D01*
X103210999Y-86480000D01*
X103229906Y-86421809D01*
X103279406Y-86385845D01*
X103309999Y-86381000D01*
X104689919Y-86381000D01*
X104702604Y-86376878D01*
X104705599Y-86372757D01*
X104705599Y-86344834D01*
X104704651Y-86335212D01*
X104692996Y-86276617D01*
X104685677Y-86258949D01*
X104641258Y-86192470D01*
X104627731Y-86178943D01*
X104613845Y-86169665D01*
X104575965Y-86121615D01*
X104573561Y-86060477D01*
X104607553Y-86009603D01*
X104623900Y-85999139D01*
X104686997Y-85966989D01*
X104687001Y-85966986D01*
X104693941Y-85963450D01*
X104783649Y-85873742D01*
X104810039Y-85821950D01*
X104837709Y-85767644D01*
X104837709Y-85767643D01*
X104841245Y-85760704D01*
X104843020Y-85749501D01*
X104855490Y-85670765D01*
X104855490Y-85670763D01*
X104856099Y-85666919D01*
X104856098Y-85063082D01*
X104855175Y-85057250D01*
X104847082Y-85006152D01*
X104841245Y-84969296D01*
X104804188Y-84896568D01*
X104787185Y-84863197D01*
X104787184Y-84863195D01*
X104783649Y-84856258D01*
X104727395Y-84800004D01*
X104699618Y-84745487D01*
X104709189Y-84685055D01*
X104727395Y-84659996D01*
X104783649Y-84603742D01*
X104790938Y-84589438D01*
X104837709Y-84497644D01*
X104837709Y-84497643D01*
X104841245Y-84490704D01*
X104842625Y-84481995D01*
X104855490Y-84400765D01*
X104855490Y-84400763D01*
X104856099Y-84396919D01*
X104856098Y-83955661D01*
X107425111Y-83955661D01*
X107429122Y-83968005D01*
X107433243Y-83971000D01*
X107880320Y-83971000D01*
X107893005Y-83966878D01*
X107896000Y-83962757D01*
X107896000Y-83955320D01*
X108404000Y-83955320D01*
X108408122Y-83968005D01*
X108412243Y-83971000D01*
X108859320Y-83971000D01*
X108872005Y-83966878D01*
X108875000Y-83962757D01*
X108875000Y-83957709D01*
X108874711Y-83952375D01*
X108869360Y-83903120D01*
X108866511Y-83891141D01*
X108862455Y-83880320D01*
X109100000Y-83880320D01*
X109104122Y-83893005D01*
X109108243Y-83896000D01*
X109780320Y-83896000D01*
X109793005Y-83891878D01*
X109796000Y-83887757D01*
X109796000Y-83315680D01*
X109791878Y-83302995D01*
X109787757Y-83300000D01*
X109330234Y-83300000D01*
X109320612Y-83300948D01*
X109262017Y-83312603D01*
X109244349Y-83319922D01*
X109177870Y-83364341D01*
X109164341Y-83377870D01*
X109119922Y-83444349D01*
X109112603Y-83462017D01*
X109100948Y-83520612D01*
X109100000Y-83530234D01*
X109100000Y-83880320D01*
X108862455Y-83880320D01*
X108823404Y-83776150D01*
X108816701Y-83763907D01*
X108743563Y-83666318D01*
X108733682Y-83656437D01*
X108636093Y-83583299D01*
X108623850Y-83576596D01*
X108508859Y-83533489D01*
X108496880Y-83530640D01*
X108447625Y-83525289D01*
X108442291Y-83525000D01*
X108419680Y-83525000D01*
X108406995Y-83529122D01*
X108404000Y-83533243D01*
X108404000Y-83955320D01*
X107896000Y-83955320D01*
X107896000Y-83540680D01*
X107891878Y-83527995D01*
X107887757Y-83525000D01*
X107857709Y-83525000D01*
X107852375Y-83525289D01*
X107803120Y-83530640D01*
X107791141Y-83533489D01*
X107676150Y-83576596D01*
X107663907Y-83583299D01*
X107566318Y-83656437D01*
X107556437Y-83666318D01*
X107483299Y-83763907D01*
X107476596Y-83776150D01*
X107433489Y-83891141D01*
X107430640Y-83903120D01*
X107425289Y-83952375D01*
X107425111Y-83955661D01*
X104856098Y-83955661D01*
X104856098Y-83793082D01*
X104853417Y-83776150D01*
X104843851Y-83715752D01*
X104841245Y-83699296D01*
X104812447Y-83642777D01*
X104787185Y-83593197D01*
X104787184Y-83593195D01*
X104783649Y-83586258D01*
X104740226Y-83542835D01*
X104712449Y-83488318D01*
X104712794Y-83455303D01*
X104713304Y-83452467D01*
X104714751Y-83447487D01*
X104715500Y-83437287D01*
X104715500Y-83403046D01*
X104716042Y-83392697D01*
X104717601Y-83377870D01*
X104720179Y-83353338D01*
X104716886Y-83333868D01*
X104715500Y-83317359D01*
X104715500Y-81974192D01*
X104735644Y-81914336D01*
X104746144Y-81900503D01*
X104796387Y-81865584D01*
X104857559Y-81866866D01*
X104903856Y-81900503D01*
X104912341Y-81911681D01*
X104917078Y-81917922D01*
X104922457Y-81922005D01*
X105031840Y-82005032D01*
X105031842Y-82005033D01*
X105037217Y-82009113D01*
X105177453Y-82064636D01*
X105267228Y-82075500D01*
X105652772Y-82075500D01*
X105742547Y-82064636D01*
X105882783Y-82009113D01*
X105888158Y-82005033D01*
X105888160Y-82005032D01*
X105997543Y-81922005D01*
X106002922Y-81917922D01*
X106007659Y-81911681D01*
X106016144Y-81900503D01*
X106066387Y-81865584D01*
X106127559Y-81866866D01*
X106173856Y-81900503D01*
X106182341Y-81911681D01*
X106187078Y-81917922D01*
X106192457Y-81922005D01*
X106301840Y-82005032D01*
X106301842Y-82005033D01*
X106307217Y-82009113D01*
X106447453Y-82064636D01*
X106537228Y-82075500D01*
X106922772Y-82075500D01*
X107012547Y-82064636D01*
X107152783Y-82009113D01*
X107158158Y-82005033D01*
X107158160Y-82005032D01*
X107267543Y-81922005D01*
X107272922Y-81917922D01*
X107277659Y-81911681D01*
X107286144Y-81900503D01*
X107336387Y-81865584D01*
X107397559Y-81866866D01*
X107443856Y-81900503D01*
X107452341Y-81911681D01*
X107457078Y-81917922D01*
X107462457Y-81922005D01*
X107571840Y-82005032D01*
X107571842Y-82005033D01*
X107577217Y-82009113D01*
X107717453Y-82064636D01*
X107807228Y-82075500D01*
X108192772Y-82075500D01*
X108282547Y-82064636D01*
X108422783Y-82009113D01*
X108428158Y-82005033D01*
X108428160Y-82005032D01*
X108537543Y-81922005D01*
X108542922Y-81917922D01*
X108547659Y-81911681D01*
X108556144Y-81900503D01*
X108606387Y-81865584D01*
X108667559Y-81866866D01*
X108713856Y-81900503D01*
X108722341Y-81911681D01*
X108727078Y-81917922D01*
X108732457Y-81922005D01*
X108841840Y-82005032D01*
X108841842Y-82005033D01*
X108847217Y-82009113D01*
X108987453Y-82064636D01*
X109077228Y-82075500D01*
X109462772Y-82075500D01*
X109552547Y-82064636D01*
X109692783Y-82009113D01*
X109698158Y-82005033D01*
X109698160Y-82005032D01*
X109807543Y-81922005D01*
X109812922Y-81917922D01*
X109817659Y-81911681D01*
X109826144Y-81900503D01*
X109876387Y-81865584D01*
X109937559Y-81866866D01*
X109983856Y-81900503D01*
X109994356Y-81914336D01*
X110014500Y-81974192D01*
X110014500Y-82526123D01*
X110014413Y-82530269D01*
X110011913Y-82589919D01*
X110013454Y-82596491D01*
X110013455Y-82596497D01*
X110021626Y-82631333D01*
X110023326Y-82640503D01*
X110029099Y-82682646D01*
X110031780Y-82688841D01*
X110031780Y-82688842D01*
X110035553Y-82697562D01*
X110041078Y-82714268D01*
X110044790Y-82730093D01*
X110048042Y-82736008D01*
X110065287Y-82767378D01*
X110069389Y-82775752D01*
X110082252Y-82805474D01*
X110086280Y-82814783D01*
X110092667Y-82822670D01*
X110096508Y-82827414D01*
X110106320Y-82842015D01*
X110114153Y-82856263D01*
X110120836Y-82864005D01*
X110145050Y-82888219D01*
X110151977Y-82895912D01*
X110176888Y-82926675D01*
X110182393Y-82930587D01*
X110182395Y-82930589D01*
X110192982Y-82938113D01*
X110205638Y-82948807D01*
X110387827Y-83130996D01*
X110415604Y-83185513D01*
X110406033Y-83245945D01*
X110362768Y-83289210D01*
X110324936Y-83298292D01*
X110306995Y-83304122D01*
X110304000Y-83308243D01*
X110304000Y-84305000D01*
X110285093Y-84363191D01*
X110235593Y-84399155D01*
X110205000Y-84404000D01*
X109115680Y-84404000D01*
X109102995Y-84408122D01*
X109100000Y-84412243D01*
X109100000Y-84769766D01*
X109100948Y-84779388D01*
X109114505Y-84847545D01*
X109112577Y-84847929D01*
X109116406Y-84896568D01*
X109090145Y-84943463D01*
X109021950Y-85011658D01*
X109018415Y-85018596D01*
X109018412Y-85018600D01*
X108990750Y-85072889D01*
X108947485Y-85116153D01*
X108887053Y-85125724D01*
X108832537Y-85097947D01*
X108786420Y-85051830D01*
X108747171Y-85028618D01*
X108691980Y-84995978D01*
X108651517Y-84950082D01*
X108645759Y-84889169D01*
X108676905Y-84836504D01*
X108683003Y-84831544D01*
X108733683Y-84793562D01*
X108743563Y-84783682D01*
X108816701Y-84686093D01*
X108823404Y-84673850D01*
X108866511Y-84558859D01*
X108869360Y-84546880D01*
X108874711Y-84497625D01*
X108874889Y-84494339D01*
X108870878Y-84481995D01*
X108866757Y-84479000D01*
X107440680Y-84479000D01*
X107427995Y-84483122D01*
X107425000Y-84487243D01*
X107425000Y-84492291D01*
X107425289Y-84497625D01*
X107430640Y-84546880D01*
X107433489Y-84558859D01*
X107476596Y-84673850D01*
X107483299Y-84686093D01*
X107556437Y-84783682D01*
X107566317Y-84793562D01*
X107616997Y-84831544D01*
X107652223Y-84881572D01*
X107651316Y-84942750D01*
X107614622Y-84991712D01*
X107608020Y-84995978D01*
X107552829Y-85028618D01*
X107513580Y-85051830D01*
X107401830Y-85163580D01*
X107321382Y-85299610D01*
X107319644Y-85305591D01*
X107319644Y-85305592D01*
X107280264Y-85441141D01*
X107277291Y-85451373D01*
X107274500Y-85486837D01*
X107274501Y-86063162D01*
X107277291Y-86098627D01*
X107321382Y-86250390D01*
X107324554Y-86255753D01*
X107398625Y-86381000D01*
X107401830Y-86386420D01*
X107513580Y-86498170D01*
X107649610Y-86578618D01*
X107655591Y-86580356D01*
X107655592Y-86580356D01*
X107796515Y-86621298D01*
X107796518Y-86621299D01*
X107801373Y-86622709D01*
X107806413Y-86623106D01*
X107806415Y-86623106D01*
X107821891Y-86624324D01*
X107836837Y-86625500D01*
X108149919Y-86625500D01*
X108463162Y-86625499D01*
X108465106Y-86625346D01*
X108465108Y-86625346D01*
X108493586Y-86623106D01*
X108493590Y-86623105D01*
X108498627Y-86622709D01*
X108650390Y-86578618D01*
X108786420Y-86498170D01*
X108792089Y-86492501D01*
X108793155Y-86491958D01*
X108795749Y-86489946D01*
X108796133Y-86490441D01*
X108846606Y-86464724D01*
X108907038Y-86474295D01*
X108950303Y-86517560D01*
X108959874Y-86547018D01*
X108960168Y-86548874D01*
X108964354Y-86575304D01*
X109021950Y-86688342D01*
X109111658Y-86778050D01*
X109118595Y-86781585D01*
X109118597Y-86781586D01*
X109195153Y-86820593D01*
X109224696Y-86835646D01*
X109232390Y-86836865D01*
X109232391Y-86836865D01*
X109314635Y-86849891D01*
X109314637Y-86849891D01*
X109318481Y-86850500D01*
X110049906Y-86850500D01*
X110781518Y-86850499D01*
X110785361Y-86849890D01*
X110785366Y-86849890D01*
X110822217Y-86844053D01*
X110875304Y-86835646D01*
X110964889Y-86790000D01*
X110981403Y-86781586D01*
X110981405Y-86781585D01*
X110988342Y-86778050D01*
X111078050Y-86688342D01*
X111135646Y-86575304D01*
X111136769Y-86568213D01*
X111172549Y-86518963D01*
X111230739Y-86500054D01*
X111288930Y-86518960D01*
X111312517Y-86548874D01*
X111314505Y-86547545D01*
X111364341Y-86622130D01*
X111377870Y-86635659D01*
X111444349Y-86680078D01*
X111462017Y-86687397D01*
X111520612Y-86699052D01*
X111530234Y-86700000D01*
X111980320Y-86700000D01*
X111993005Y-86695878D01*
X111996000Y-86691757D01*
X111996000Y-86684320D01*
X112504000Y-86684320D01*
X112508122Y-86697005D01*
X112512243Y-86700000D01*
X112969766Y-86700000D01*
X112979388Y-86699052D01*
X113037983Y-86687397D01*
X113055651Y-86680078D01*
X113122130Y-86635659D01*
X113135659Y-86622130D01*
X113180078Y-86555651D01*
X113187397Y-86537983D01*
X113199052Y-86479388D01*
X113200000Y-86469766D01*
X113200000Y-86119680D01*
X113195878Y-86106995D01*
X113191757Y-86104000D01*
X112519680Y-86104000D01*
X112506995Y-86108122D01*
X112504000Y-86112243D01*
X112504000Y-86684320D01*
X111996000Y-86684320D01*
X111996000Y-86042291D01*
X113425000Y-86042291D01*
X113425289Y-86047625D01*
X113430640Y-86096880D01*
X113433489Y-86108859D01*
X113476596Y-86223850D01*
X113483299Y-86236093D01*
X113556437Y-86333682D01*
X113566318Y-86343563D01*
X113663907Y-86416701D01*
X113676150Y-86423404D01*
X113791141Y-86466511D01*
X113803120Y-86469360D01*
X113852375Y-86474711D01*
X113857709Y-86475000D01*
X113880320Y-86475000D01*
X113893005Y-86470878D01*
X113896000Y-86466757D01*
X113896000Y-86459320D01*
X114404000Y-86459320D01*
X114408122Y-86472005D01*
X114412243Y-86475000D01*
X114442291Y-86475000D01*
X114447625Y-86474711D01*
X114496880Y-86469360D01*
X114508859Y-86466511D01*
X114623850Y-86423404D01*
X114636093Y-86416701D01*
X114733682Y-86343563D01*
X114743563Y-86333682D01*
X114816701Y-86236093D01*
X114823404Y-86223850D01*
X114866511Y-86108859D01*
X114869360Y-86096880D01*
X114874711Y-86047625D01*
X114874889Y-86044339D01*
X114870878Y-86031995D01*
X114866757Y-86029000D01*
X114419680Y-86029000D01*
X114406995Y-86033122D01*
X114404000Y-86037243D01*
X114404000Y-86459320D01*
X113896000Y-86459320D01*
X113896000Y-86044680D01*
X113891878Y-86031995D01*
X113887757Y-86029000D01*
X113440680Y-86029000D01*
X113427995Y-86033122D01*
X113425000Y-86037243D01*
X113425000Y-86042291D01*
X111996000Y-86042291D01*
X111996000Y-85695000D01*
X112014907Y-85636809D01*
X112064407Y-85600845D01*
X112095000Y-85596000D01*
X113184320Y-85596000D01*
X113197005Y-85591878D01*
X113200000Y-85587757D01*
X113200000Y-85230234D01*
X113199052Y-85220612D01*
X113185495Y-85152455D01*
X113187423Y-85152071D01*
X113183594Y-85103432D01*
X113209855Y-85056537D01*
X113278050Y-84988342D01*
X113281585Y-84981404D01*
X113281588Y-84981400D01*
X113309250Y-84927111D01*
X113352515Y-84883847D01*
X113412947Y-84874276D01*
X113467463Y-84902053D01*
X113513580Y-84948170D01*
X113518944Y-84951342D01*
X113518945Y-84951343D01*
X113608020Y-85004022D01*
X113648483Y-85049918D01*
X113654241Y-85110831D01*
X113623095Y-85163496D01*
X113616997Y-85168456D01*
X113566317Y-85206438D01*
X113556437Y-85216318D01*
X113483299Y-85313907D01*
X113476596Y-85326150D01*
X113433489Y-85441141D01*
X113430640Y-85453120D01*
X113425289Y-85502375D01*
X113425111Y-85505661D01*
X113429122Y-85518005D01*
X113433243Y-85521000D01*
X114859320Y-85521000D01*
X114872005Y-85516878D01*
X114875000Y-85512757D01*
X114875000Y-85507709D01*
X114874711Y-85502375D01*
X114869360Y-85453120D01*
X114866511Y-85441141D01*
X114823404Y-85326150D01*
X114816701Y-85313907D01*
X114743563Y-85216318D01*
X114733683Y-85206438D01*
X114683003Y-85168456D01*
X114647777Y-85118428D01*
X114648684Y-85057250D01*
X114685378Y-85008288D01*
X114691980Y-85004022D01*
X114781055Y-84951343D01*
X114781056Y-84951342D01*
X114786420Y-84948170D01*
X114898170Y-84836420D01*
X114978618Y-84700390D01*
X114986382Y-84673666D01*
X115021298Y-84553485D01*
X115021299Y-84553482D01*
X115022709Y-84548627D01*
X115025500Y-84513163D01*
X115025499Y-83936838D01*
X115022709Y-83901373D01*
X114978618Y-83749610D01*
X114898170Y-83613580D01*
X114786420Y-83501830D01*
X114763573Y-83488318D01*
X114707747Y-83455303D01*
X114650390Y-83421382D01*
X114637913Y-83417757D01*
X114503485Y-83378702D01*
X114503482Y-83378701D01*
X114498627Y-83377291D01*
X114493587Y-83376894D01*
X114493585Y-83376894D01*
X114478109Y-83375676D01*
X114463163Y-83374500D01*
X114150081Y-83374500D01*
X113836838Y-83374501D01*
X113834894Y-83374654D01*
X113834892Y-83374654D01*
X113806414Y-83376894D01*
X113806410Y-83376895D01*
X113801373Y-83377291D01*
X113649610Y-83421382D01*
X113592253Y-83455303D01*
X113536428Y-83488318D01*
X113513580Y-83501830D01*
X113507911Y-83507499D01*
X113506845Y-83508042D01*
X113504251Y-83510054D01*
X113503867Y-83509559D01*
X113453394Y-83535276D01*
X113392962Y-83525705D01*
X113349697Y-83482440D01*
X113340126Y-83452982D01*
X113336983Y-83433140D01*
X113335646Y-83424696D01*
X113278050Y-83311658D01*
X113188342Y-83221950D01*
X113181405Y-83218415D01*
X113181403Y-83218414D01*
X113082244Y-83167890D01*
X113082243Y-83167890D01*
X113075304Y-83164354D01*
X113067610Y-83163135D01*
X113067609Y-83163135D01*
X112985365Y-83150109D01*
X112985363Y-83150109D01*
X112981519Y-83149500D01*
X112844690Y-83149500D01*
X112786499Y-83130593D01*
X112750535Y-83081093D01*
X112748306Y-83073108D01*
X112746751Y-83066479D01*
X112745210Y-83059907D01*
X112724713Y-83022622D01*
X112720611Y-83014248D01*
X112706402Y-82981414D01*
X112706401Y-82981413D01*
X112703720Y-82975217D01*
X112693492Y-82962585D01*
X112683680Y-82947985D01*
X112675847Y-82933737D01*
X112669164Y-82925995D01*
X112644950Y-82901781D01*
X112638023Y-82894088D01*
X112613112Y-82863325D01*
X112607607Y-82859413D01*
X112607605Y-82859411D01*
X112597018Y-82851887D01*
X112584362Y-82841193D01*
X112364496Y-82621327D01*
X112336719Y-82566810D01*
X112335500Y-82551323D01*
X112335500Y-81974192D01*
X112355644Y-81914336D01*
X112440032Y-81803160D01*
X112440033Y-81803158D01*
X112444113Y-81797783D01*
X112446597Y-81791508D01*
X112448964Y-81787308D01*
X112494003Y-81745893D01*
X112554783Y-81738861D01*
X112605218Y-81765904D01*
X112686449Y-81847135D01*
X112698894Y-81856177D01*
X112797910Y-81906628D01*
X112811214Y-81910951D01*
X112823687Y-81908975D01*
X112824464Y-81908198D01*
X112826000Y-81901798D01*
X112826000Y-81897834D01*
X113334000Y-81897834D01*
X113338122Y-81910519D01*
X113339010Y-81911165D01*
X113345572Y-81911681D01*
X113347454Y-81911383D01*
X113362090Y-81906628D01*
X113461106Y-81856177D01*
X113473551Y-81847135D01*
X113552135Y-81768551D01*
X113561177Y-81756106D01*
X113611629Y-81657088D01*
X113616384Y-81642453D01*
X113629391Y-81560327D01*
X113630000Y-81552588D01*
X113630000Y-80919680D01*
X113625878Y-80906995D01*
X113621757Y-80904000D01*
X113349680Y-80904000D01*
X113336995Y-80908122D01*
X113334000Y-80912243D01*
X113334000Y-81897834D01*
X112826000Y-81897834D01*
X112826000Y-80380320D01*
X113334000Y-80380320D01*
X113338122Y-80393005D01*
X113342243Y-80396000D01*
X113614319Y-80396000D01*
X113627004Y-80391878D01*
X113629999Y-80387757D01*
X113629999Y-79747415D01*
X113629389Y-79739671D01*
X113616384Y-79657551D01*
X113611627Y-79642909D01*
X113561177Y-79543894D01*
X113552135Y-79531449D01*
X113473551Y-79452865D01*
X113461106Y-79443823D01*
X113362090Y-79393372D01*
X113348786Y-79389049D01*
X113336313Y-79391025D01*
X113335536Y-79391802D01*
X113334000Y-79398202D01*
X113334000Y-80380320D01*
X112826000Y-80380320D01*
X112826000Y-79402166D01*
X112821878Y-79389481D01*
X112820990Y-79388835D01*
X112814428Y-79388319D01*
X112812546Y-79388617D01*
X112797910Y-79393372D01*
X112698894Y-79443823D01*
X112686449Y-79452865D01*
X112605218Y-79534096D01*
X112550701Y-79561873D01*
X112490269Y-79552302D01*
X112448964Y-79512692D01*
X112446597Y-79508492D01*
X112444113Y-79502217D01*
X112410841Y-79458382D01*
X112357005Y-79387457D01*
X112352922Y-79382078D01*
X112327841Y-79363040D01*
X112238160Y-79294968D01*
X112238158Y-79294967D01*
X112232783Y-79290887D01*
X112092547Y-79235364D01*
X112002772Y-79224500D01*
X111617228Y-79224500D01*
X111527453Y-79235364D01*
X111387217Y-79290887D01*
X111381842Y-79294967D01*
X111381840Y-79294968D01*
X111292159Y-79363040D01*
X111267078Y-79382078D01*
X111262995Y-79387457D01*
X111253856Y-79399497D01*
X111203613Y-79434416D01*
X111142441Y-79433134D01*
X111096144Y-79399497D01*
X111087005Y-79387457D01*
X111082922Y-79382078D01*
X111057841Y-79363040D01*
X110968160Y-79294968D01*
X110968158Y-79294967D01*
X110962783Y-79290887D01*
X110822547Y-79235364D01*
X110732772Y-79224500D01*
X110347228Y-79224500D01*
X110257453Y-79235364D01*
X110117217Y-79290887D01*
X110111842Y-79294967D01*
X110111840Y-79294968D01*
X110022159Y-79363040D01*
X109997078Y-79382078D01*
X109992995Y-79387457D01*
X109983856Y-79399497D01*
X109933613Y-79434416D01*
X109872441Y-79433134D01*
X109826144Y-79399497D01*
X109817005Y-79387457D01*
X109812922Y-79382078D01*
X109787841Y-79363040D01*
X109698160Y-79294968D01*
X109698158Y-79294967D01*
X109692783Y-79290887D01*
X109552547Y-79235364D01*
X109462772Y-79224500D01*
X109077228Y-79224500D01*
X108987453Y-79235364D01*
X108847217Y-79290887D01*
X108841842Y-79294967D01*
X108841840Y-79294968D01*
X108752159Y-79363040D01*
X108727078Y-79382078D01*
X108722995Y-79387457D01*
X108713856Y-79399497D01*
X108663613Y-79434416D01*
X108602441Y-79433134D01*
X108556144Y-79399497D01*
X108547005Y-79387457D01*
X108542922Y-79382078D01*
X108517841Y-79363040D01*
X108428160Y-79294968D01*
X108428158Y-79294967D01*
X108422783Y-79290887D01*
X108282547Y-79235364D01*
X108192772Y-79224500D01*
X107807228Y-79224500D01*
X107717453Y-79235364D01*
X107577217Y-79290887D01*
X107571842Y-79294967D01*
X107571840Y-79294968D01*
X107482159Y-79363040D01*
X107457078Y-79382078D01*
X107452995Y-79387457D01*
X107443856Y-79399497D01*
X107393613Y-79434416D01*
X107332441Y-79433134D01*
X107286144Y-79399497D01*
X107277005Y-79387457D01*
X107272922Y-79382078D01*
X107247841Y-79363040D01*
X107158160Y-79294968D01*
X107158158Y-79294967D01*
X107152783Y-79290887D01*
X107012547Y-79235364D01*
X106922772Y-79224500D01*
X106537228Y-79224500D01*
X106447453Y-79235364D01*
X106307217Y-79290887D01*
X106301842Y-79294967D01*
X106301840Y-79294968D01*
X106212159Y-79363040D01*
X106187078Y-79382078D01*
X106182995Y-79387457D01*
X106173856Y-79399497D01*
X106123613Y-79434416D01*
X106062441Y-79433134D01*
X106016144Y-79399497D01*
X106007005Y-79387457D01*
X106002922Y-79382078D01*
X105977841Y-79363040D01*
X105888160Y-79294968D01*
X105888158Y-79294967D01*
X105882783Y-79290887D01*
X105742547Y-79235364D01*
X105652772Y-79224500D01*
X105267228Y-79224500D01*
X105177453Y-79235364D01*
X105037217Y-79290887D01*
X105031842Y-79294967D01*
X105031840Y-79294968D01*
X104942159Y-79363040D01*
X104917078Y-79382078D01*
X104912995Y-79387457D01*
X104903856Y-79399497D01*
X104853613Y-79434416D01*
X104792441Y-79433134D01*
X104746144Y-79399497D01*
X104737005Y-79387457D01*
X104732922Y-79382078D01*
X104707841Y-79363040D01*
X104618160Y-79294968D01*
X104618158Y-79294967D01*
X104612783Y-79290887D01*
X104472547Y-79235364D01*
X104382772Y-79224500D01*
X103997228Y-79224500D01*
X103907453Y-79235364D01*
X103767217Y-79290887D01*
X103761842Y-79294967D01*
X103761840Y-79294968D01*
X103672159Y-79363040D01*
X103647078Y-79382078D01*
X103642995Y-79387457D01*
X103633856Y-79399497D01*
X103583613Y-79434416D01*
X103522441Y-79433134D01*
X103476144Y-79399497D01*
X103467005Y-79387457D01*
X103462922Y-79382078D01*
X103437841Y-79363040D01*
X103348160Y-79294968D01*
X103348158Y-79294967D01*
X103342783Y-79290887D01*
X103202547Y-79235364D01*
X103112772Y-79224500D01*
X102727228Y-79224500D01*
X102637453Y-79235364D01*
X102497217Y-79290887D01*
X102491842Y-79294967D01*
X102491840Y-79294968D01*
X102402159Y-79363040D01*
X102377078Y-79382078D01*
X102372995Y-79387457D01*
X102319160Y-79458382D01*
X102285887Y-79502217D01*
X102230364Y-79642453D01*
X102219500Y-79732228D01*
X102219500Y-81567772D01*
X102219859Y-81570738D01*
X102230364Y-81657547D01*
X102228841Y-81657731D01*
X102225338Y-81711244D01*
X102186217Y-81758289D01*
X102165290Y-81768283D01*
X102163499Y-81768893D01*
X102157007Y-81771103D01*
X102152297Y-81774001D01*
X102152292Y-81774003D01*
X102033419Y-81847135D01*
X102004045Y-81865206D01*
X101875732Y-81990859D01*
X101778446Y-82141817D01*
X101717022Y-82310578D01*
X101716328Y-82316070D01*
X101716328Y-82316071D01*
X101715045Y-82326227D01*
X101694514Y-82488753D01*
X101699669Y-82541330D01*
X101711499Y-82661984D01*
X101711500Y-82661989D01*
X101712039Y-82667486D01*
X101768726Y-82837896D01*
X101771591Y-82842627D01*
X101771593Y-82842631D01*
X101835395Y-82947980D01*
X101861759Y-82991512D01*
X101986514Y-83120699D01*
X101991139Y-83123725D01*
X101991142Y-83123728D01*
X102132163Y-83216009D01*
X102136789Y-83219036D01*
X102186290Y-83237445D01*
X102297637Y-83278855D01*
X102345587Y-83316860D01*
X102362041Y-83375792D01*
X102340714Y-83433140D01*
X102308073Y-83459856D01*
X102242996Y-83493014D01*
X102242994Y-83493015D01*
X102236057Y-83496550D01*
X102146349Y-83586258D01*
X102142814Y-83593195D01*
X102142813Y-83593197D01*
X102112279Y-83653123D01*
X102088753Y-83699296D01*
X102087534Y-83706990D01*
X102087534Y-83706991D01*
X102074508Y-83789234D01*
X102073899Y-83793081D01*
X102073900Y-84078897D01*
X102073900Y-84305547D01*
X102054993Y-84363738D01*
X102005493Y-84399702D01*
X101944308Y-84399702D01*
X101904896Y-84375551D01*
X101429496Y-83900151D01*
X101401719Y-83845634D01*
X101400500Y-83830147D01*
X101400500Y-82831986D01*
X101400939Y-82822670D01*
X101401401Y-82817784D01*
X101402760Y-82811703D01*
X101400549Y-82741355D01*
X101400500Y-82738245D01*
X101400500Y-82709075D01*
X101399800Y-82703532D01*
X101399068Y-82694232D01*
X101397793Y-82653656D01*
X101397793Y-82653654D01*
X101397597Y-82647430D01*
X101395585Y-82640503D01*
X101391127Y-82625162D01*
X101387979Y-82609962D01*
X101385071Y-82586942D01*
X101367829Y-82543392D01*
X101364812Y-82534580D01*
X101353483Y-82495586D01*
X101353483Y-82495585D01*
X101351744Y-82489601D01*
X101339936Y-82469634D01*
X101333106Y-82455693D01*
X101326859Y-82439914D01*
X101326857Y-82439910D01*
X101324568Y-82434129D01*
X101297041Y-82396241D01*
X101291921Y-82388446D01*
X101271254Y-82353500D01*
X101271253Y-82353499D01*
X101268081Y-82348135D01*
X101251682Y-82331736D01*
X101241593Y-82319923D01*
X101231622Y-82306199D01*
X101231621Y-82306198D01*
X101227963Y-82301163D01*
X101223169Y-82297197D01*
X101223166Y-82297194D01*
X101191884Y-82271316D01*
X101184985Y-82265039D01*
X98517944Y-79597998D01*
X98511669Y-79591101D01*
X98508537Y-79587315D01*
X98505202Y-79582060D01*
X98500665Y-79577800D01*
X98500663Y-79577797D01*
X98453905Y-79533889D01*
X98451671Y-79531725D01*
X98431035Y-79511089D01*
X98426616Y-79507661D01*
X98419540Y-79501618D01*
X98385393Y-79469552D01*
X98379936Y-79466552D01*
X98365075Y-79458382D01*
X98352088Y-79449851D01*
X98338688Y-79439457D01*
X98338685Y-79439455D01*
X98333764Y-79435638D01*
X98290785Y-79417040D01*
X98282411Y-79412937D01*
X98246827Y-79393374D01*
X98246826Y-79393374D01*
X98241368Y-79390373D01*
X98235337Y-79388825D01*
X98235333Y-79388823D01*
X98218906Y-79384606D01*
X98204205Y-79379573D01*
X98188641Y-79372837D01*
X98188633Y-79372835D01*
X98182926Y-79370365D01*
X98176780Y-79369391D01*
X98176778Y-79369391D01*
X98161660Y-79366997D01*
X98136671Y-79363039D01*
X98127544Y-79361148D01*
X98088210Y-79351048D01*
X98088202Y-79351047D01*
X98082177Y-79349500D01*
X98058988Y-79349500D01*
X98043500Y-79348281D01*
X98026746Y-79345627D01*
X98026744Y-79345627D01*
X98020595Y-79344653D01*
X97982217Y-79348281D01*
X97973966Y-79349061D01*
X97964649Y-79349500D01*
X85249500Y-79349500D01*
X85191309Y-79330593D01*
X85155345Y-79281093D01*
X85150500Y-79250500D01*
X85150500Y-78004766D01*
X86150000Y-78004766D01*
X86150948Y-78014388D01*
X86162603Y-78072983D01*
X86169922Y-78090651D01*
X86214341Y-78157130D01*
X86227870Y-78170659D01*
X86294349Y-78215078D01*
X86312017Y-78222397D01*
X86370612Y-78234052D01*
X86380234Y-78235000D01*
X86630320Y-78235000D01*
X86643005Y-78230878D01*
X86646000Y-78226757D01*
X86646000Y-78219320D01*
X87154000Y-78219320D01*
X87158122Y-78232005D01*
X87162243Y-78235000D01*
X87419766Y-78235000D01*
X87429388Y-78234052D01*
X87487983Y-78222397D01*
X87505651Y-78215078D01*
X87572130Y-78170659D01*
X87585659Y-78157130D01*
X87630078Y-78090651D01*
X87637397Y-78072983D01*
X87649052Y-78014388D01*
X87650000Y-78004766D01*
X88450000Y-78004766D01*
X88450948Y-78014388D01*
X88462603Y-78072983D01*
X88469922Y-78090651D01*
X88514341Y-78157130D01*
X88527870Y-78170659D01*
X88594349Y-78215078D01*
X88612017Y-78222397D01*
X88670612Y-78234052D01*
X88680234Y-78235000D01*
X88930320Y-78235000D01*
X88943005Y-78230878D01*
X88946000Y-78226757D01*
X88946000Y-78219320D01*
X89454000Y-78219320D01*
X89458122Y-78232005D01*
X89462243Y-78235000D01*
X89719766Y-78235000D01*
X89729388Y-78234052D01*
X89787983Y-78222397D01*
X89805651Y-78215078D01*
X89872130Y-78170659D01*
X89885659Y-78157130D01*
X89930078Y-78090651D01*
X89937397Y-78072983D01*
X89949052Y-78014388D01*
X89950000Y-78004766D01*
X89950000Y-77832180D01*
X89945878Y-77819495D01*
X89941757Y-77816500D01*
X89469680Y-77816500D01*
X89456995Y-77820622D01*
X89454000Y-77824743D01*
X89454000Y-78219320D01*
X88946000Y-78219320D01*
X88946000Y-77832180D01*
X88941878Y-77819495D01*
X88937757Y-77816500D01*
X88465680Y-77816500D01*
X88452995Y-77820622D01*
X88450000Y-77824743D01*
X88450000Y-78004766D01*
X87650000Y-78004766D01*
X87650000Y-77832180D01*
X87645878Y-77819495D01*
X87641757Y-77816500D01*
X87169680Y-77816500D01*
X87156995Y-77820622D01*
X87154000Y-77824743D01*
X87154000Y-78219320D01*
X86646000Y-78219320D01*
X86646000Y-77832180D01*
X86641878Y-77819495D01*
X86637757Y-77816500D01*
X86165680Y-77816500D01*
X86152995Y-77820622D01*
X86150000Y-77824743D01*
X86150000Y-78004766D01*
X85150500Y-78004766D01*
X85150500Y-77292820D01*
X86150000Y-77292820D01*
X86154122Y-77305505D01*
X86158243Y-77308500D01*
X86630320Y-77308500D01*
X86643005Y-77304378D01*
X86646000Y-77300257D01*
X86646000Y-77292820D01*
X87154000Y-77292820D01*
X87158122Y-77305505D01*
X87162243Y-77308500D01*
X87634320Y-77308500D01*
X87647005Y-77304378D01*
X87650000Y-77300257D01*
X87650000Y-77292820D01*
X88450000Y-77292820D01*
X88454122Y-77305505D01*
X88458243Y-77308500D01*
X88930320Y-77308500D01*
X88943005Y-77304378D01*
X88946000Y-77300257D01*
X88946000Y-77292820D01*
X89454000Y-77292820D01*
X89458122Y-77305505D01*
X89462243Y-77308500D01*
X89934320Y-77308500D01*
X89947005Y-77304378D01*
X89950000Y-77300257D01*
X89950000Y-77120234D01*
X89949052Y-77110612D01*
X89937397Y-77052017D01*
X89930078Y-77034349D01*
X89885659Y-76967870D01*
X89872130Y-76954341D01*
X89805651Y-76909922D01*
X89787983Y-76902603D01*
X89729388Y-76890948D01*
X89719766Y-76890000D01*
X89469680Y-76890000D01*
X89456995Y-76894122D01*
X89454000Y-76898243D01*
X89454000Y-77292820D01*
X88946000Y-77292820D01*
X88946000Y-76905680D01*
X88941878Y-76892995D01*
X88937757Y-76890000D01*
X88680234Y-76890000D01*
X88670612Y-76890948D01*
X88612017Y-76902603D01*
X88594349Y-76909922D01*
X88527870Y-76954341D01*
X88514341Y-76967870D01*
X88469922Y-77034349D01*
X88462603Y-77052017D01*
X88450948Y-77110612D01*
X88450000Y-77120234D01*
X88450000Y-77292820D01*
X87650000Y-77292820D01*
X87650000Y-77120234D01*
X87649052Y-77110612D01*
X87637397Y-77052017D01*
X87630078Y-77034349D01*
X87585659Y-76967870D01*
X87572130Y-76954341D01*
X87505651Y-76909922D01*
X87487983Y-76902603D01*
X87429388Y-76890948D01*
X87419766Y-76890000D01*
X87169680Y-76890000D01*
X87156995Y-76894122D01*
X87154000Y-76898243D01*
X87154000Y-77292820D01*
X86646000Y-77292820D01*
X86646000Y-76905680D01*
X86641878Y-76892995D01*
X86637757Y-76890000D01*
X86380234Y-76890000D01*
X86370612Y-76890948D01*
X86312017Y-76902603D01*
X86294349Y-76909922D01*
X86227870Y-76954341D01*
X86214341Y-76967870D01*
X86169922Y-77034349D01*
X86162603Y-77052017D01*
X86150948Y-77110612D01*
X86150000Y-77120234D01*
X86150000Y-77292820D01*
X85150500Y-77292820D01*
X85150500Y-72010454D01*
X85169407Y-71952263D01*
X85179496Y-71940450D01*
X86510950Y-70608996D01*
X86565467Y-70581219D01*
X86580954Y-70580000D01*
X86651000Y-70580000D01*
X86709191Y-70598907D01*
X86745155Y-70648407D01*
X86750000Y-70679000D01*
X86750000Y-71325501D01*
X86731093Y-71383692D01*
X86681593Y-71419656D01*
X86651001Y-71424501D01*
X86388482Y-71424501D01*
X86384639Y-71425110D01*
X86384634Y-71425110D01*
X86347783Y-71430947D01*
X86294696Y-71439354D01*
X86267575Y-71453173D01*
X86188597Y-71493414D01*
X86188595Y-71493415D01*
X86181658Y-71496950D01*
X86091950Y-71586658D01*
X86088415Y-71593595D01*
X86088414Y-71593597D01*
X86047827Y-71673254D01*
X86034354Y-71699696D01*
X86033135Y-71707390D01*
X86033135Y-71707391D01*
X86022033Y-71777488D01*
X86019500Y-71793481D01*
X86019501Y-72506518D01*
X86033721Y-72596307D01*
X86034354Y-72600304D01*
X86033721Y-72600404D01*
X86033720Y-72649596D01*
X86034354Y-72649696D01*
X86019500Y-72743481D01*
X86019501Y-73456518D01*
X86033721Y-73546307D01*
X86034354Y-73550304D01*
X86033721Y-73550404D01*
X86033720Y-73599596D01*
X86034354Y-73599696D01*
X86019500Y-73693481D01*
X86019501Y-74406518D01*
X86020110Y-74410361D01*
X86020110Y-74410366D01*
X86025947Y-74447217D01*
X86034354Y-74500304D01*
X86091950Y-74613342D01*
X86181658Y-74703050D01*
X86188596Y-74706585D01*
X86192710Y-74709574D01*
X86228674Y-74759074D01*
X86228675Y-74820259D01*
X86192711Y-74869759D01*
X86179465Y-74877877D01*
X86168597Y-74883414D01*
X86168595Y-74883415D01*
X86161658Y-74886950D01*
X86071950Y-74976658D01*
X86014354Y-75089696D01*
X85999500Y-75183481D01*
X85999501Y-76091518D01*
X86014354Y-76185304D01*
X86071950Y-76298342D01*
X86161658Y-76388050D01*
X86168595Y-76391585D01*
X86168597Y-76391586D01*
X86267756Y-76442110D01*
X86274696Y-76445646D01*
X86282390Y-76446865D01*
X86282391Y-76446865D01*
X86364635Y-76459891D01*
X86364637Y-76459891D01*
X86368481Y-76460500D01*
X86699236Y-76460500D01*
X86750000Y-76476994D01*
X86750000Y-76480000D01*
X94650000Y-76480000D01*
X94650000Y-66926370D01*
X94668907Y-66868179D01*
X94718407Y-66832215D01*
X94740372Y-66827747D01*
X94757977Y-66826207D01*
X94969330Y-66769575D01*
X95167639Y-66677102D01*
X95346877Y-66551598D01*
X95501598Y-66396877D01*
X95627102Y-66217638D01*
X95719575Y-66019330D01*
X95765919Y-65846372D01*
X95775088Y-65812154D01*
X95775088Y-65812152D01*
X95776207Y-65807977D01*
X95786145Y-65694382D01*
X95786710Y-65687927D01*
X95810617Y-65631605D01*
X95863063Y-65600092D01*
X95924015Y-65605425D01*
X95970193Y-65645566D01*
X95984121Y-65690081D01*
X95988591Y-65758289D01*
X95990004Y-65767210D01*
X96037534Y-65954359D01*
X96040554Y-65962887D01*
X96121386Y-66138225D01*
X96125917Y-66146072D01*
X96237348Y-66303744D01*
X96243222Y-66310622D01*
X96381532Y-66445357D01*
X96388555Y-66451044D01*
X96549099Y-66558317D01*
X96557054Y-66562635D01*
X96734446Y-66638849D01*
X96743057Y-66641647D01*
X96810706Y-66656954D01*
X96823603Y-66655769D01*
X96826000Y-66647051D01*
X96826000Y-65435000D01*
X96844907Y-65376809D01*
X96894407Y-65340845D01*
X96925000Y-65336000D01*
X97235000Y-65336000D01*
X97293191Y-65354907D01*
X97329155Y-65404407D01*
X97334000Y-65435000D01*
X97334000Y-66649074D01*
X97338122Y-66661759D01*
X97339293Y-66662610D01*
X97341800Y-66662824D01*
X97342189Y-66662731D01*
X97525026Y-66600666D01*
X97533288Y-66596988D01*
X97701755Y-66502641D01*
X97709209Y-66497518D01*
X97857650Y-66374061D01*
X97864061Y-66367650D01*
X97987518Y-66219209D01*
X97992641Y-66211755D01*
X98086988Y-66043288D01*
X98090666Y-66035026D01*
X98152730Y-65852191D01*
X98154841Y-65843399D01*
X98177256Y-65688804D01*
X98204318Y-65633929D01*
X98258466Y-65605440D01*
X98319018Y-65614219D01*
X98362846Y-65656914D01*
X98373855Y-65694382D01*
X98383793Y-65807977D01*
X98384912Y-65812152D01*
X98384912Y-65812154D01*
X98394081Y-65846372D01*
X98440425Y-66019330D01*
X98532898Y-66217638D01*
X98658402Y-66396877D01*
X98813123Y-66551598D01*
X98885500Y-66602277D01*
X98981367Y-66669404D01*
X99018189Y-66718269D01*
X99019257Y-66779445D01*
X98984163Y-66829565D01*
X98924583Y-66849500D01*
X98747775Y-66849500D01*
X98694728Y-66834088D01*
X98607812Y-66778930D01*
X98607809Y-66778928D01*
X98603136Y-66775963D01*
X98433951Y-66715719D01*
X98428464Y-66715065D01*
X98428461Y-66715064D01*
X98261120Y-66695110D01*
X98261117Y-66695110D01*
X98255624Y-66694455D01*
X98077017Y-66713227D01*
X98071777Y-66715011D01*
X98071776Y-66715011D01*
X97912249Y-66769318D01*
X97912245Y-66769320D01*
X97907007Y-66771103D01*
X97902297Y-66774001D01*
X97902292Y-66774003D01*
X97794204Y-66840500D01*
X97754045Y-66865206D01*
X97750096Y-66869074D01*
X97750095Y-66869074D01*
X97703006Y-66915187D01*
X97625732Y-66990859D01*
X97528446Y-67141817D01*
X97467022Y-67310578D01*
X97466328Y-67316070D01*
X97466328Y-67316071D01*
X97465435Y-67323142D01*
X97444514Y-67488753D01*
X97447715Y-67521399D01*
X97461499Y-67661984D01*
X97461500Y-67661989D01*
X97462039Y-67667486D01*
X97518726Y-67837896D01*
X97521591Y-67842627D01*
X97521593Y-67842631D01*
X97608890Y-67986775D01*
X97611759Y-67991512D01*
X97736514Y-68120699D01*
X97741139Y-68123725D01*
X97741142Y-68123728D01*
X97882163Y-68216009D01*
X97886789Y-68219036D01*
X98055116Y-68281636D01*
X98060602Y-68282368D01*
X98060606Y-68282369D01*
X98206771Y-68301871D01*
X98233130Y-68305388D01*
X98238636Y-68304887D01*
X98238638Y-68304887D01*
X98328401Y-68296718D01*
X98411981Y-68289112D01*
X98434990Y-68281636D01*
X98577517Y-68235326D01*
X98577519Y-68235325D01*
X98582782Y-68233615D01*
X98587538Y-68230780D01*
X98587540Y-68230779D01*
X98698787Y-68164463D01*
X98749479Y-68150500D01*
X98759546Y-68150500D01*
X98817737Y-68169407D01*
X98829550Y-68179496D01*
X102190504Y-71540450D01*
X102218281Y-71594967D01*
X102219500Y-71610454D01*
X102219500Y-72267772D01*
X102230364Y-72357547D01*
X102285887Y-72497783D01*
X102377078Y-72617922D01*
X102382457Y-72622005D01*
X102491840Y-72705032D01*
X102491842Y-72705033D01*
X102497217Y-72709113D01*
X102637453Y-72764636D01*
X102727228Y-72775500D01*
X103112772Y-72775500D01*
X103202547Y-72764636D01*
X103342783Y-72709113D01*
X103348158Y-72705033D01*
X103348160Y-72705032D01*
X103457543Y-72622005D01*
X103462922Y-72617922D01*
X103476144Y-72600503D01*
X103526387Y-72565584D01*
X103587559Y-72566866D01*
X103633856Y-72600503D01*
X103647078Y-72617922D01*
X103652457Y-72622005D01*
X103761840Y-72705032D01*
X103761842Y-72705033D01*
X103767217Y-72709113D01*
X103907453Y-72764636D01*
X103997228Y-72775500D01*
X104382772Y-72775500D01*
X104472547Y-72764636D01*
X104612783Y-72709113D01*
X104618158Y-72705033D01*
X104618160Y-72705032D01*
X104727543Y-72622005D01*
X104732922Y-72617922D01*
X104746144Y-72600503D01*
X104796387Y-72565584D01*
X104857559Y-72566866D01*
X104903856Y-72600503D01*
X104917078Y-72617922D01*
X104922457Y-72622005D01*
X105031840Y-72705032D01*
X105031842Y-72705033D01*
X105037217Y-72709113D01*
X105177453Y-72764636D01*
X105267228Y-72775500D01*
X105652772Y-72775500D01*
X105742547Y-72764636D01*
X105882783Y-72709113D01*
X105888158Y-72705033D01*
X105888160Y-72705032D01*
X105997543Y-72622005D01*
X106002922Y-72617922D01*
X106016144Y-72600503D01*
X106066387Y-72565584D01*
X106127559Y-72566866D01*
X106173856Y-72600503D01*
X106187078Y-72617922D01*
X106192457Y-72622005D01*
X106301840Y-72705032D01*
X106301842Y-72705033D01*
X106307217Y-72709113D01*
X106447453Y-72764636D01*
X106537228Y-72775500D01*
X106922772Y-72775500D01*
X107012547Y-72764636D01*
X107152783Y-72709113D01*
X107158158Y-72705033D01*
X107158160Y-72705032D01*
X107267543Y-72622005D01*
X107272922Y-72617922D01*
X107286144Y-72600503D01*
X107336387Y-72565584D01*
X107397559Y-72566866D01*
X107443856Y-72600503D01*
X107457078Y-72617922D01*
X107462457Y-72622005D01*
X107571840Y-72705032D01*
X107571842Y-72705033D01*
X107577217Y-72709113D01*
X107717453Y-72764636D01*
X107807228Y-72775500D01*
X108192772Y-72775500D01*
X108282547Y-72764636D01*
X108422783Y-72709113D01*
X108428158Y-72705033D01*
X108428160Y-72705032D01*
X108537543Y-72622005D01*
X108542922Y-72617922D01*
X108556144Y-72600503D01*
X108606387Y-72565584D01*
X108667559Y-72566866D01*
X108713856Y-72600503D01*
X108727078Y-72617922D01*
X108732457Y-72622005D01*
X108841840Y-72705032D01*
X108841842Y-72705033D01*
X108847217Y-72709113D01*
X108987453Y-72764636D01*
X109077228Y-72775500D01*
X109462772Y-72775500D01*
X109552547Y-72764636D01*
X109692783Y-72709113D01*
X109698158Y-72705033D01*
X109698160Y-72705032D01*
X109807543Y-72622005D01*
X109812922Y-72617922D01*
X109826144Y-72600503D01*
X109876387Y-72565584D01*
X109937559Y-72566866D01*
X109983856Y-72600503D01*
X109997078Y-72617922D01*
X110002457Y-72622005D01*
X110111840Y-72705032D01*
X110111842Y-72705033D01*
X110117217Y-72709113D01*
X110257453Y-72764636D01*
X110347228Y-72775500D01*
X110732772Y-72775500D01*
X110822547Y-72764636D01*
X110962783Y-72709113D01*
X110968158Y-72705033D01*
X110968160Y-72705032D01*
X111077543Y-72622005D01*
X111082922Y-72617922D01*
X111096144Y-72600503D01*
X111146387Y-72565584D01*
X111207559Y-72566866D01*
X111253856Y-72600503D01*
X111267078Y-72617922D01*
X111272457Y-72622005D01*
X111381840Y-72705032D01*
X111381842Y-72705033D01*
X111387217Y-72709113D01*
X111527453Y-72764636D01*
X111617228Y-72775500D01*
X112002772Y-72775500D01*
X112092547Y-72764636D01*
X112232783Y-72709113D01*
X112238158Y-72705033D01*
X112238160Y-72705032D01*
X112347543Y-72622005D01*
X112352922Y-72617922D01*
X112366144Y-72600503D01*
X112416387Y-72565584D01*
X112477559Y-72566866D01*
X112523856Y-72600503D01*
X112537078Y-72617922D01*
X112542457Y-72622005D01*
X112651840Y-72705032D01*
X112651842Y-72705033D01*
X112657217Y-72709113D01*
X112797453Y-72764636D01*
X112887228Y-72775500D01*
X113272772Y-72775500D01*
X113362547Y-72764636D01*
X113502783Y-72709113D01*
X113508158Y-72705033D01*
X113508160Y-72705032D01*
X113617543Y-72622005D01*
X113622922Y-72617922D01*
X113714113Y-72497783D01*
X113769636Y-72357547D01*
X113780500Y-72267772D01*
X113780500Y-70432228D01*
X113769636Y-70342453D01*
X113714113Y-70202217D01*
X113622922Y-70082078D01*
X113514896Y-70000081D01*
X113508160Y-69994968D01*
X113508158Y-69994967D01*
X113502783Y-69990887D01*
X113362547Y-69935364D01*
X113272772Y-69924500D01*
X112887228Y-69924500D01*
X112797453Y-69935364D01*
X112657217Y-69990887D01*
X112651842Y-69994967D01*
X112651840Y-69994968D01*
X112645104Y-70000081D01*
X112537078Y-70082078D01*
X112532995Y-70087457D01*
X112523856Y-70099497D01*
X112473613Y-70134416D01*
X112412441Y-70133134D01*
X112366144Y-70099497D01*
X112357005Y-70087457D01*
X112352922Y-70082078D01*
X112244896Y-70000081D01*
X112238160Y-69994968D01*
X112238158Y-69994967D01*
X112232783Y-69990887D01*
X112092547Y-69935364D01*
X112002772Y-69924500D01*
X111617228Y-69924500D01*
X111527453Y-69935364D01*
X111387217Y-69990887D01*
X111381842Y-69994967D01*
X111381840Y-69994968D01*
X111375104Y-70000081D01*
X111267078Y-70082078D01*
X111262995Y-70087457D01*
X111253856Y-70099497D01*
X111203613Y-70134416D01*
X111142441Y-70133134D01*
X111096144Y-70099497D01*
X111087005Y-70087457D01*
X111082922Y-70082078D01*
X111043756Y-70052349D01*
X111008837Y-70002107D01*
X111010119Y-69940935D01*
X111033608Y-69903489D01*
X111382601Y-69554496D01*
X111437118Y-69526719D01*
X111452605Y-69525500D01*
X112986123Y-69525500D01*
X112990269Y-69525587D01*
X113049919Y-69528087D01*
X113056491Y-69526546D01*
X113056497Y-69526545D01*
X113091333Y-69518374D01*
X113100503Y-69516674D01*
X113135960Y-69511817D01*
X113135961Y-69511817D01*
X113142646Y-69510901D01*
X113148841Y-69508220D01*
X113148842Y-69508220D01*
X113157562Y-69504447D01*
X113174268Y-69498922D01*
X113190093Y-69495210D01*
X113227378Y-69474713D01*
X113235752Y-69470611D01*
X113268586Y-69456402D01*
X113268587Y-69456401D01*
X113274783Y-69453720D01*
X113287415Y-69443492D01*
X113302015Y-69433680D01*
X113316263Y-69425847D01*
X113324005Y-69419164D01*
X113348219Y-69394950D01*
X113355912Y-69388023D01*
X113386675Y-69363112D01*
X113390589Y-69357605D01*
X113398113Y-69347018D01*
X113408807Y-69334362D01*
X115221770Y-67521399D01*
X115224763Y-67518529D01*
X115257144Y-67488753D01*
X115268712Y-67478116D01*
X115272268Y-67472380D01*
X115272271Y-67472377D01*
X115291129Y-67441961D01*
X115296413Y-67434272D01*
X115311267Y-67414704D01*
X115322127Y-67400396D01*
X115326993Y-67388106D01*
X115328110Y-67385286D01*
X115336016Y-67369565D01*
X115341027Y-67361483D01*
X115344582Y-67355750D01*
X115356455Y-67314886D01*
X115359470Y-67306080D01*
X115375129Y-67266528D01*
X115375835Y-67259815D01*
X115375836Y-67259809D01*
X115376829Y-67250365D01*
X115380217Y-67233096D01*
X115383304Y-67222471D01*
X115383305Y-67222465D01*
X115384751Y-67217488D01*
X115385500Y-67207288D01*
X115385500Y-67173047D01*
X115386042Y-67162698D01*
X115386534Y-67158023D01*
X115390179Y-67123339D01*
X115386886Y-67103869D01*
X115385500Y-67087360D01*
X115385500Y-66787800D01*
X115404407Y-66729609D01*
X115442662Y-66698075D01*
X115483724Y-66678928D01*
X115483728Y-66678926D01*
X115487639Y-66677102D01*
X115666877Y-66551598D01*
X115821598Y-66396877D01*
X115947102Y-66217638D01*
X116039575Y-66019330D01*
X116085919Y-65846372D01*
X116095088Y-65812154D01*
X116095088Y-65812152D01*
X116096207Y-65807977D01*
X116106145Y-65694382D01*
X116106710Y-65687927D01*
X116130617Y-65631605D01*
X116183063Y-65600092D01*
X116244015Y-65605425D01*
X116290193Y-65645566D01*
X116304121Y-65690081D01*
X116308591Y-65758289D01*
X116310004Y-65767210D01*
X116357534Y-65954359D01*
X116360554Y-65962887D01*
X116441386Y-66138225D01*
X116445917Y-66146072D01*
X116557348Y-66303744D01*
X116563222Y-66310622D01*
X116701532Y-66445357D01*
X116708555Y-66451044D01*
X116869099Y-66558317D01*
X116877054Y-66562635D01*
X117054446Y-66638849D01*
X117063057Y-66641647D01*
X117130706Y-66656954D01*
X117143603Y-66655769D01*
X117146000Y-66647051D01*
X117146000Y-65435000D01*
X117164907Y-65376809D01*
X117214407Y-65340845D01*
X117245000Y-65336000D01*
X117555000Y-65336000D01*
X117613191Y-65354907D01*
X117649155Y-65404407D01*
X117654000Y-65435000D01*
X117654000Y-66649074D01*
X117658122Y-66661759D01*
X117659293Y-66662610D01*
X117661800Y-66662824D01*
X117662189Y-66662731D01*
X117845026Y-66600666D01*
X117853288Y-66596988D01*
X118021755Y-66502641D01*
X118029209Y-66497518D01*
X118177650Y-66374061D01*
X118184061Y-66367650D01*
X118307518Y-66219209D01*
X118312641Y-66211755D01*
X118406988Y-66043288D01*
X118410666Y-66035026D01*
X118472730Y-65852191D01*
X118474841Y-65843399D01*
X118497256Y-65688804D01*
X118524318Y-65633929D01*
X118578466Y-65605440D01*
X118639018Y-65614219D01*
X118682846Y-65656914D01*
X118693855Y-65694382D01*
X118703793Y-65807977D01*
X118704912Y-65812152D01*
X118704912Y-65812154D01*
X118714081Y-65846372D01*
X118760425Y-66019330D01*
X118852898Y-66217638D01*
X118978402Y-66396877D01*
X119133123Y-66551598D01*
X119312361Y-66677102D01*
X119510670Y-66769575D01*
X119597220Y-66792766D01*
X119717846Y-66825088D01*
X119717848Y-66825088D01*
X119722023Y-66826207D01*
X119940000Y-66845277D01*
X120157977Y-66826207D01*
X120162152Y-66825088D01*
X120162154Y-66825088D01*
X120282780Y-66792766D01*
X120369330Y-66769575D01*
X120567639Y-66677102D01*
X120746877Y-66551598D01*
X120901598Y-66396877D01*
X121027102Y-66217638D01*
X121119575Y-66019330D01*
X121121132Y-66020056D01*
X121154640Y-65977168D01*
X121213455Y-65960303D01*
X121270950Y-65981230D01*
X121299086Y-66019954D01*
X121300425Y-66019330D01*
X121392898Y-66217638D01*
X121518402Y-66396877D01*
X121673123Y-66551598D01*
X121852361Y-66677102D01*
X122050670Y-66769575D01*
X122137220Y-66792766D01*
X122257846Y-66825088D01*
X122257848Y-66825088D01*
X122262023Y-66826207D01*
X122480000Y-66845277D01*
X122697977Y-66826207D01*
X122702152Y-66825088D01*
X122702154Y-66825088D01*
X122822780Y-66792766D01*
X122909330Y-66769575D01*
X123107639Y-66677102D01*
X123286877Y-66551598D01*
X123441598Y-66396877D01*
X123567102Y-66217638D01*
X123659575Y-66019330D01*
X123661132Y-66020056D01*
X123694640Y-65977168D01*
X123753455Y-65960303D01*
X123810950Y-65981230D01*
X123839086Y-66019954D01*
X123840425Y-66019330D01*
X123932898Y-66217638D01*
X124058402Y-66396877D01*
X124213123Y-66551598D01*
X124392361Y-66677102D01*
X124590670Y-66769575D01*
X124677220Y-66792766D01*
X124797846Y-66825088D01*
X124797848Y-66825088D01*
X124802023Y-66826207D01*
X125020000Y-66845277D01*
X125237977Y-66826207D01*
X125242152Y-66825088D01*
X125242154Y-66825088D01*
X125362780Y-66792766D01*
X125449330Y-66769575D01*
X125647639Y-66677102D01*
X125826877Y-66551598D01*
X125981598Y-66396877D01*
X126107102Y-66217638D01*
X126199575Y-66019330D01*
X126201132Y-66020056D01*
X126234640Y-65977168D01*
X126293455Y-65960303D01*
X126350950Y-65981230D01*
X126379086Y-66019954D01*
X126380425Y-66019330D01*
X126472898Y-66217638D01*
X126598402Y-66396877D01*
X126753123Y-66551598D01*
X126932361Y-66677102D01*
X127130670Y-66769575D01*
X127217220Y-66792766D01*
X127337846Y-66825088D01*
X127337848Y-66825088D01*
X127342023Y-66826207D01*
X127560000Y-66845277D01*
X127777977Y-66826207D01*
X127782152Y-66825088D01*
X127782154Y-66825088D01*
X127902780Y-66792766D01*
X127989330Y-66769575D01*
X128187639Y-66677102D01*
X128366877Y-66551598D01*
X128521598Y-66396877D01*
X128647102Y-66217638D01*
X128739575Y-66019330D01*
X128741132Y-66020056D01*
X128774640Y-65977168D01*
X128833455Y-65960303D01*
X128890950Y-65981230D01*
X128919086Y-66019954D01*
X128920425Y-66019330D01*
X129012898Y-66217638D01*
X129138402Y-66396877D01*
X129293123Y-66551598D01*
X129472361Y-66677102D01*
X129670670Y-66769575D01*
X129757220Y-66792766D01*
X129877846Y-66825088D01*
X129877848Y-66825088D01*
X129882023Y-66826207D01*
X130100000Y-66845277D01*
X130317977Y-66826207D01*
X130322152Y-66825088D01*
X130322154Y-66825088D01*
X130442780Y-66792766D01*
X130529330Y-66769575D01*
X130727639Y-66677102D01*
X130906877Y-66551598D01*
X131061598Y-66396877D01*
X131187102Y-66217638D01*
X131279575Y-66019330D01*
X131281132Y-66020056D01*
X131314640Y-65977168D01*
X131373455Y-65960303D01*
X131430950Y-65981230D01*
X131459086Y-66019954D01*
X131460425Y-66019330D01*
X131552898Y-66217638D01*
X131678402Y-66396877D01*
X131833123Y-66551598D01*
X132012361Y-66677102D01*
X132210670Y-66769575D01*
X132297220Y-66792766D01*
X132417846Y-66825088D01*
X132417848Y-66825088D01*
X132422023Y-66826207D01*
X132640000Y-66845277D01*
X132857977Y-66826207D01*
X132862152Y-66825088D01*
X132862154Y-66825088D01*
X132982780Y-66792766D01*
X133069330Y-66769575D01*
X133267639Y-66677102D01*
X133446877Y-66551598D01*
X133601598Y-66396877D01*
X133727102Y-66217638D01*
X133819575Y-66019330D01*
X133865919Y-65846372D01*
X133875088Y-65812154D01*
X133875088Y-65812152D01*
X133876207Y-65807977D01*
X133886145Y-65694382D01*
X133886710Y-65687927D01*
X133910617Y-65631605D01*
X133963063Y-65600092D01*
X134024015Y-65605425D01*
X134070193Y-65645566D01*
X134084121Y-65690081D01*
X134088591Y-65758289D01*
X134090004Y-65767210D01*
X134137534Y-65954359D01*
X134140554Y-65962887D01*
X134221386Y-66138225D01*
X134225917Y-66146072D01*
X134337348Y-66303744D01*
X134343222Y-66310622D01*
X134481532Y-66445357D01*
X134488555Y-66451044D01*
X134649099Y-66558317D01*
X134657054Y-66562635D01*
X134834446Y-66638849D01*
X134843057Y-66641647D01*
X134910706Y-66656954D01*
X134923603Y-66655769D01*
X134925444Y-66649074D01*
X135434000Y-66649074D01*
X135438122Y-66661759D01*
X135439293Y-66662610D01*
X135441800Y-66662824D01*
X135442189Y-66662731D01*
X135625026Y-66600666D01*
X135633288Y-66596988D01*
X135801755Y-66502641D01*
X135809209Y-66497518D01*
X135957650Y-66374061D01*
X135964061Y-66367650D01*
X136087518Y-66219209D01*
X136092641Y-66211755D01*
X136186988Y-66043288D01*
X136190666Y-66035026D01*
X136251744Y-65855094D01*
X136250246Y-65846372D01*
X136249209Y-65845363D01*
X136243365Y-65844000D01*
X135449680Y-65844000D01*
X135436995Y-65848122D01*
X135434000Y-65852243D01*
X135434000Y-66649074D01*
X134925444Y-66649074D01*
X134926000Y-66647051D01*
X134926000Y-65435000D01*
X134944907Y-65376809D01*
X134994407Y-65340845D01*
X135025000Y-65336000D01*
X136235676Y-65336000D01*
X136247166Y-65332267D01*
X136247370Y-65321866D01*
X136212571Y-65198478D01*
X136209330Y-65190035D01*
X136123928Y-65016855D01*
X136119209Y-65009154D01*
X136003678Y-64854440D01*
X135997629Y-64847722D01*
X135855837Y-64716650D01*
X135848670Y-64711151D01*
X135685369Y-64608117D01*
X135677315Y-64604013D01*
X135497969Y-64532460D01*
X135489306Y-64529894D01*
X135299926Y-64492225D01*
X135297285Y-64491947D01*
X135296279Y-64491499D01*
X135295474Y-64491339D01*
X135295510Y-64491157D01*
X135241389Y-64467061D01*
X135210796Y-64414074D01*
X135217190Y-64353224D01*
X135258131Y-64307753D01*
X135299004Y-64294866D01*
X135361491Y-64289399D01*
X135397977Y-64286207D01*
X135402152Y-64285088D01*
X135402154Y-64285088D01*
X135603519Y-64231132D01*
X135609330Y-64229575D01*
X135807639Y-64137102D01*
X135825150Y-64124841D01*
X135914500Y-64062277D01*
X135986877Y-64011598D01*
X136141598Y-63856877D01*
X136267102Y-63677638D01*
X136359575Y-63479330D01*
X136416207Y-63267977D01*
X136435277Y-63050000D01*
X136416207Y-62832023D01*
X136411910Y-62815984D01*
X136364566Y-62639297D01*
X136359575Y-62620670D01*
X136267102Y-62422362D01*
X136250771Y-62399038D01*
X136193581Y-62317363D01*
X136141598Y-62243123D01*
X135986877Y-62088402D01*
X135838491Y-61984501D01*
X135811184Y-61965380D01*
X135811182Y-61965379D01*
X135807639Y-61962898D01*
X135609330Y-61870425D01*
X135522780Y-61847234D01*
X135402154Y-61814912D01*
X135402152Y-61814912D01*
X135397977Y-61813793D01*
X135180000Y-61794723D01*
X134962023Y-61813793D01*
X134957848Y-61814912D01*
X134957846Y-61814912D01*
X134837220Y-61847234D01*
X134750670Y-61870425D01*
X134552362Y-61962898D01*
X134548819Y-61965379D01*
X134548817Y-61965380D01*
X134511375Y-61991597D01*
X134373123Y-62088402D01*
X134218402Y-62243123D01*
X134166419Y-62317363D01*
X134109230Y-62399038D01*
X134092898Y-62422362D01*
X134000425Y-62620670D01*
X133998868Y-62619944D01*
X133965360Y-62662832D01*
X133906545Y-62679697D01*
X133849050Y-62658770D01*
X133820914Y-62620046D01*
X133819575Y-62620670D01*
X133760603Y-62494205D01*
X133727102Y-62422362D01*
X133710771Y-62399038D01*
X133653581Y-62317363D01*
X133601598Y-62243123D01*
X133446877Y-62088402D01*
X133298491Y-61984501D01*
X133271184Y-61965380D01*
X133271182Y-61965379D01*
X133267639Y-61962898D01*
X133069330Y-61870425D01*
X132982780Y-61847234D01*
X132862154Y-61814912D01*
X132862152Y-61814912D01*
X132857977Y-61813793D01*
X132640000Y-61794723D01*
X132422023Y-61813793D01*
X132417848Y-61814912D01*
X132417846Y-61814912D01*
X132297220Y-61847234D01*
X132210670Y-61870425D01*
X132012362Y-61962898D01*
X132008819Y-61965379D01*
X132008817Y-61965380D01*
X131971375Y-61991597D01*
X131833123Y-62088402D01*
X131678402Y-62243123D01*
X131626419Y-62317363D01*
X131569230Y-62399038D01*
X131552898Y-62422362D01*
X131460425Y-62620670D01*
X131458868Y-62619944D01*
X131425360Y-62662832D01*
X131366545Y-62679697D01*
X131309050Y-62658770D01*
X131280914Y-62620046D01*
X131279575Y-62620670D01*
X131220603Y-62494205D01*
X131187102Y-62422362D01*
X131170771Y-62399038D01*
X131113581Y-62317363D01*
X131061598Y-62243123D01*
X130906877Y-62088402D01*
X130758491Y-61984501D01*
X130731184Y-61965380D01*
X130731182Y-61965379D01*
X130727639Y-61962898D01*
X130529330Y-61870425D01*
X130442780Y-61847234D01*
X130322154Y-61814912D01*
X130322152Y-61814912D01*
X130317977Y-61813793D01*
X130100000Y-61794723D01*
X129882023Y-61813793D01*
X129877848Y-61814912D01*
X129877846Y-61814912D01*
X129757220Y-61847234D01*
X129670670Y-61870425D01*
X129472362Y-61962898D01*
X129468819Y-61965379D01*
X129468817Y-61965380D01*
X129431375Y-61991597D01*
X129293123Y-62088402D01*
X129138402Y-62243123D01*
X129086419Y-62317363D01*
X129029230Y-62399038D01*
X129012898Y-62422362D01*
X128920425Y-62620670D01*
X128915434Y-62639297D01*
X128868091Y-62815984D01*
X128863793Y-62832023D01*
X128863416Y-62836334D01*
X128853130Y-62953902D01*
X128829223Y-63010224D01*
X128776777Y-63041737D01*
X128715825Y-63036404D01*
X128669647Y-62996263D01*
X128655922Y-62954333D01*
X128646629Y-62853200D01*
X128644982Y-62844314D01*
X128592570Y-62658473D01*
X128589332Y-62650038D01*
X128503928Y-62476855D01*
X128499209Y-62469154D01*
X128383678Y-62314440D01*
X128377629Y-62307722D01*
X128235837Y-62176650D01*
X128228670Y-62171151D01*
X128065369Y-62068117D01*
X128057315Y-62064013D01*
X127877969Y-61992460D01*
X127869306Y-61989894D01*
X127829379Y-61981952D01*
X127816133Y-61983520D01*
X127816099Y-61983551D01*
X127814000Y-61991597D01*
X127814000Y-63205000D01*
X127795093Y-63263191D01*
X127745593Y-63299155D01*
X127715000Y-63304000D01*
X127405000Y-63304000D01*
X127346809Y-63285093D01*
X127310845Y-63235593D01*
X127306000Y-63205000D01*
X127306000Y-61993124D01*
X127301878Y-61980439D01*
X127301274Y-61980000D01*
X127294127Y-61979484D01*
X127278555Y-61982160D01*
X127269819Y-61984501D01*
X127088668Y-62051331D01*
X127080506Y-62055224D01*
X126914562Y-62153950D01*
X126907260Y-62159255D01*
X126762081Y-62286575D01*
X126755858Y-62293133D01*
X126636322Y-62444763D01*
X126631397Y-62452346D01*
X126541490Y-62623231D01*
X126538032Y-62631579D01*
X126480773Y-62815984D01*
X126478895Y-62824821D01*
X126463575Y-62954260D01*
X126437959Y-63009825D01*
X126384575Y-63039722D01*
X126323814Y-63032530D01*
X126278884Y-62990998D01*
X126266638Y-62951252D01*
X126256584Y-62836334D01*
X126256207Y-62832023D01*
X126251910Y-62815984D01*
X126204566Y-62639297D01*
X126199575Y-62620670D01*
X126107102Y-62422362D01*
X126090771Y-62399038D01*
X126033581Y-62317363D01*
X125981598Y-62243123D01*
X125826877Y-62088402D01*
X125678491Y-61984501D01*
X125651184Y-61965380D01*
X125651182Y-61965379D01*
X125647639Y-61962898D01*
X125449330Y-61870425D01*
X125362780Y-61847234D01*
X125242154Y-61814912D01*
X125242152Y-61814912D01*
X125237977Y-61813793D01*
X125020000Y-61794723D01*
X124802023Y-61813793D01*
X124797848Y-61814912D01*
X124797846Y-61814912D01*
X124677220Y-61847234D01*
X124590670Y-61870425D01*
X124392362Y-61962898D01*
X124388819Y-61965379D01*
X124388817Y-61965380D01*
X124351375Y-61991597D01*
X124213123Y-62088402D01*
X124058402Y-62243123D01*
X124006419Y-62317363D01*
X123949230Y-62399038D01*
X123932898Y-62422362D01*
X123840425Y-62620670D01*
X123835434Y-62639297D01*
X123788091Y-62815984D01*
X123783793Y-62832023D01*
X123783416Y-62836334D01*
X123773130Y-62953902D01*
X123749223Y-63010224D01*
X123696777Y-63041737D01*
X123635825Y-63036404D01*
X123589647Y-62996263D01*
X123575922Y-62954333D01*
X123566629Y-62853200D01*
X123564982Y-62844314D01*
X123512570Y-62658473D01*
X123509332Y-62650038D01*
X123423928Y-62476855D01*
X123419209Y-62469154D01*
X123303678Y-62314440D01*
X123297629Y-62307722D01*
X123155837Y-62176650D01*
X123148670Y-62171151D01*
X122985369Y-62068117D01*
X122977315Y-62064013D01*
X122797969Y-61992460D01*
X122789306Y-61989894D01*
X122749379Y-61981952D01*
X122736133Y-61983520D01*
X122736099Y-61983551D01*
X122734000Y-61991597D01*
X122734000Y-63205000D01*
X122715093Y-63263191D01*
X122665593Y-63299155D01*
X122635000Y-63304000D01*
X122325000Y-63304000D01*
X122266809Y-63285093D01*
X122230845Y-63235593D01*
X122226000Y-63205000D01*
X122226000Y-61993124D01*
X122221878Y-61980439D01*
X122221274Y-61980000D01*
X122214127Y-61979484D01*
X122198555Y-61982160D01*
X122189819Y-61984501D01*
X122008668Y-62051331D01*
X122000506Y-62055224D01*
X121834562Y-62153950D01*
X121827260Y-62159255D01*
X121682081Y-62286575D01*
X121675858Y-62293133D01*
X121556322Y-62444763D01*
X121551397Y-62452346D01*
X121461490Y-62623231D01*
X121458032Y-62631579D01*
X121400773Y-62815984D01*
X121398895Y-62824821D01*
X121383575Y-62954260D01*
X121357959Y-63009825D01*
X121304575Y-63039722D01*
X121243814Y-63032530D01*
X121198884Y-62990998D01*
X121186638Y-62951252D01*
X121176584Y-62836334D01*
X121176207Y-62832023D01*
X121171910Y-62815984D01*
X121124566Y-62639297D01*
X121119575Y-62620670D01*
X121027102Y-62422362D01*
X121010771Y-62399038D01*
X120953581Y-62317363D01*
X120901598Y-62243123D01*
X120746877Y-62088402D01*
X120598491Y-61984501D01*
X120571184Y-61965380D01*
X120571182Y-61965379D01*
X120567639Y-61962898D01*
X120369330Y-61870425D01*
X120282780Y-61847234D01*
X120162154Y-61814912D01*
X120162152Y-61814912D01*
X120157977Y-61813793D01*
X119940000Y-61794723D01*
X119722023Y-61813793D01*
X119717848Y-61814912D01*
X119717846Y-61814912D01*
X119597220Y-61847234D01*
X119510670Y-61870425D01*
X119312362Y-61962898D01*
X119308819Y-61965379D01*
X119308817Y-61965380D01*
X119271375Y-61991597D01*
X119133123Y-62088402D01*
X118978402Y-62243123D01*
X118926419Y-62317363D01*
X118869230Y-62399038D01*
X118852898Y-62422362D01*
X118760425Y-62620670D01*
X118758868Y-62619944D01*
X118725360Y-62662832D01*
X118666545Y-62679697D01*
X118609050Y-62658770D01*
X118580914Y-62620046D01*
X118579575Y-62620670D01*
X118520603Y-62494205D01*
X118487102Y-62422362D01*
X118470771Y-62399038D01*
X118413581Y-62317363D01*
X118361598Y-62243123D01*
X118206877Y-62088402D01*
X118058491Y-61984501D01*
X118031184Y-61965380D01*
X118031182Y-61965379D01*
X118027639Y-61962898D01*
X117829330Y-61870425D01*
X117742780Y-61847234D01*
X117622154Y-61814912D01*
X117622152Y-61814912D01*
X117617977Y-61813793D01*
X117400000Y-61794723D01*
X117182023Y-61813793D01*
X117177848Y-61814912D01*
X117177846Y-61814912D01*
X117057220Y-61847234D01*
X116970670Y-61870425D01*
X116772362Y-61962898D01*
X116768819Y-61965379D01*
X116768817Y-61965380D01*
X116731375Y-61991597D01*
X116593123Y-62088402D01*
X116438402Y-62243123D01*
X116386419Y-62317363D01*
X116329230Y-62399038D01*
X116312898Y-62422362D01*
X116220425Y-62620670D01*
X116218868Y-62619944D01*
X116185360Y-62662832D01*
X116126545Y-62679697D01*
X116069050Y-62658770D01*
X116040914Y-62620046D01*
X116039575Y-62620670D01*
X115980603Y-62494205D01*
X115947102Y-62422362D01*
X115930771Y-62399038D01*
X115873581Y-62317363D01*
X115821598Y-62243123D01*
X115666877Y-62088402D01*
X115518491Y-61984501D01*
X115491184Y-61965380D01*
X115491182Y-61965379D01*
X115487639Y-61962898D01*
X115289330Y-61870425D01*
X115202780Y-61847234D01*
X115082154Y-61814912D01*
X115082152Y-61814912D01*
X115077977Y-61813793D01*
X114860000Y-61794723D01*
X114642023Y-61813793D01*
X114637848Y-61814912D01*
X114637846Y-61814912D01*
X114632297Y-61816399D01*
X114480299Y-61857127D01*
X114419199Y-61853925D01*
X114384674Y-61831504D01*
X113941411Y-61388242D01*
X113938538Y-61385246D01*
X113937042Y-61383619D01*
X113911574Y-61327986D01*
X113923670Y-61268009D01*
X113968709Y-61226595D01*
X114009918Y-61217611D01*
X138957326Y-61217611D01*
X139015517Y-61236518D01*
G37*
%TD.AperFunction*%
%TA.AperFunction,Conductor*%
G36*
X98410950Y-63441230D02*
G01*
X98439086Y-63479954D01*
X98440425Y-63479330D01*
X98532898Y-63677638D01*
X98658402Y-63856877D01*
X98813123Y-64011598D01*
X98885500Y-64062277D01*
X98974851Y-64124841D01*
X98992361Y-64137102D01*
X99141293Y-64206550D01*
X99190670Y-64229575D01*
X99189944Y-64231132D01*
X99232832Y-64264640D01*
X99249697Y-64323455D01*
X99228770Y-64380950D01*
X99190046Y-64409086D01*
X99190670Y-64410425D01*
X98992362Y-64502898D01*
X98988819Y-64505379D01*
X98988817Y-64505380D01*
X98950143Y-64532460D01*
X98813123Y-64628402D01*
X98658402Y-64783123D01*
X98577208Y-64899081D01*
X98537601Y-64955646D01*
X98532898Y-64962362D01*
X98440425Y-65160670D01*
X98439307Y-65164843D01*
X98388091Y-65355984D01*
X98383793Y-65372023D01*
X98381238Y-65401233D01*
X98373130Y-65493902D01*
X98349223Y-65550224D01*
X98296777Y-65581737D01*
X98235825Y-65576404D01*
X98189647Y-65536263D01*
X98175922Y-65494333D01*
X98166629Y-65393200D01*
X98164982Y-65384314D01*
X98112570Y-65198473D01*
X98109332Y-65190038D01*
X98023928Y-65016855D01*
X98019209Y-65009154D01*
X97903678Y-64854440D01*
X97897629Y-64847722D01*
X97755837Y-64716650D01*
X97748670Y-64711151D01*
X97585369Y-64608117D01*
X97577315Y-64604013D01*
X97397969Y-64532460D01*
X97389306Y-64529894D01*
X97199926Y-64492225D01*
X97197285Y-64491947D01*
X97196279Y-64491499D01*
X97195474Y-64491339D01*
X97195510Y-64491157D01*
X97141389Y-64467061D01*
X97110796Y-64414074D01*
X97117190Y-64353224D01*
X97158131Y-64307753D01*
X97199004Y-64294866D01*
X97261491Y-64289399D01*
X97297977Y-64286207D01*
X97302152Y-64285088D01*
X97302154Y-64285088D01*
X97503519Y-64231132D01*
X97509330Y-64229575D01*
X97707639Y-64137102D01*
X97725150Y-64124841D01*
X97814500Y-64062277D01*
X97886877Y-64011598D01*
X98041598Y-63856877D01*
X98167102Y-63677638D01*
X98259575Y-63479330D01*
X98261132Y-63480056D01*
X98294640Y-63437168D01*
X98353455Y-63420303D01*
X98410950Y-63441230D01*
G37*
%TD.AperFunction*%
%TA.AperFunction,Conductor*%
G36*
X95870950Y-63441230D02*
G01*
X95899086Y-63479954D01*
X95900425Y-63479330D01*
X95992898Y-63677638D01*
X96118402Y-63856877D01*
X96273123Y-64011598D01*
X96345500Y-64062277D01*
X96434851Y-64124841D01*
X96452361Y-64137102D01*
X96650670Y-64229575D01*
X96656481Y-64231132D01*
X96857846Y-64285088D01*
X96857848Y-64285088D01*
X96862023Y-64286207D01*
X96898509Y-64289399D01*
X96967899Y-64295470D01*
X97024221Y-64319377D01*
X97055734Y-64371823D01*
X97050401Y-64432775D01*
X97010260Y-64478953D01*
X96976037Y-64491663D01*
X96798555Y-64522160D01*
X96789819Y-64524501D01*
X96608668Y-64591331D01*
X96600506Y-64595224D01*
X96434562Y-64693950D01*
X96427260Y-64699255D01*
X96282081Y-64826575D01*
X96275858Y-64833133D01*
X96156322Y-64984763D01*
X96151397Y-64992346D01*
X96061490Y-65163231D01*
X96058032Y-65171579D01*
X96000773Y-65355984D01*
X95998895Y-65364821D01*
X95983575Y-65494260D01*
X95957959Y-65549825D01*
X95904575Y-65579722D01*
X95843814Y-65572530D01*
X95798884Y-65530998D01*
X95786638Y-65491252D01*
X95781289Y-65430115D01*
X95776207Y-65372023D01*
X95771910Y-65355984D01*
X95720693Y-65164843D01*
X95719575Y-65160670D01*
X95627102Y-64962362D01*
X95622400Y-64955646D01*
X95582792Y-64899081D01*
X95501598Y-64783123D01*
X95346877Y-64628402D01*
X95167639Y-64502898D01*
X94969330Y-64410425D01*
X94970056Y-64408868D01*
X94927168Y-64375360D01*
X94910303Y-64316545D01*
X94931230Y-64259050D01*
X94969954Y-64230914D01*
X94969330Y-64229575D01*
X95018707Y-64206550D01*
X95167639Y-64137102D01*
X95185150Y-64124841D01*
X95274500Y-64062277D01*
X95346877Y-64011598D01*
X95501598Y-63856877D01*
X95627102Y-63677638D01*
X95719575Y-63479330D01*
X95721132Y-63480056D01*
X95754640Y-63437168D01*
X95813455Y-63420303D01*
X95870950Y-63441230D01*
G37*
%TD.AperFunction*%
%TA.AperFunction,Conductor*%
G36*
X101004015Y-63065425D02*
G01*
X101050193Y-63105566D01*
X101064121Y-63150081D01*
X101068591Y-63218289D01*
X101070004Y-63227210D01*
X101117534Y-63414359D01*
X101120554Y-63422887D01*
X101201386Y-63598225D01*
X101205917Y-63606072D01*
X101317348Y-63763744D01*
X101323222Y-63770622D01*
X101461532Y-63905357D01*
X101468555Y-63911044D01*
X101629099Y-64018317D01*
X101637054Y-64022635D01*
X101814446Y-64098849D01*
X101823058Y-64101647D01*
X102011380Y-64144261D01*
X102020339Y-64145440D01*
X102048258Y-64146537D01*
X102105662Y-64167714D01*
X102139655Y-64218588D01*
X102137253Y-64279726D01*
X102099374Y-64327776D01*
X102053000Y-64344084D01*
X101942023Y-64353793D01*
X101937848Y-64354912D01*
X101937846Y-64354912D01*
X101874734Y-64371823D01*
X101730670Y-64410425D01*
X101532362Y-64502898D01*
X101528819Y-64505379D01*
X101528817Y-64505380D01*
X101490143Y-64532460D01*
X101353123Y-64628402D01*
X101198402Y-64783123D01*
X101117208Y-64899081D01*
X101077601Y-64955646D01*
X101072898Y-64962362D01*
X100980425Y-65160670D01*
X100978868Y-65159944D01*
X100945360Y-65202832D01*
X100886545Y-65219697D01*
X100829050Y-65198770D01*
X100800914Y-65160046D01*
X100799575Y-65160670D01*
X100763020Y-65082278D01*
X100707102Y-64962362D01*
X100702400Y-64955646D01*
X100662792Y-64899081D01*
X100581598Y-64783123D01*
X100426877Y-64628402D01*
X100247639Y-64502898D01*
X100049330Y-64410425D01*
X100050056Y-64408868D01*
X100007168Y-64375360D01*
X99990303Y-64316545D01*
X100011230Y-64259050D01*
X100049954Y-64230914D01*
X100049330Y-64229575D01*
X100098707Y-64206550D01*
X100247639Y-64137102D01*
X100265150Y-64124841D01*
X100354500Y-64062277D01*
X100426877Y-64011598D01*
X100581598Y-63856877D01*
X100707102Y-63677638D01*
X100799575Y-63479330D01*
X100856207Y-63267977D01*
X100866145Y-63154382D01*
X100866710Y-63147927D01*
X100890617Y-63091605D01*
X100943063Y-63060092D01*
X101004015Y-63065425D01*
G37*
%TD.AperFunction*%
%TA.AperFunction,Conductor*%
G36*
X109021949Y-61236518D02*
G01*
X109057913Y-61286018D01*
X109057913Y-61347204D01*
X109036399Y-61383581D01*
X109032315Y-61386888D01*
X109028403Y-61392393D01*
X109028401Y-61392395D01*
X109020877Y-61402982D01*
X109010183Y-61415638D01*
X108262152Y-62163669D01*
X108207635Y-62191446D01*
X108147203Y-62181875D01*
X108122144Y-62163669D01*
X108046877Y-62088402D01*
X107898491Y-61984501D01*
X107871184Y-61965380D01*
X107871182Y-61965379D01*
X107867639Y-61962898D01*
X107669330Y-61870425D01*
X107582780Y-61847234D01*
X107462154Y-61814912D01*
X107462152Y-61814912D01*
X107457977Y-61813793D01*
X107240000Y-61794723D01*
X107022023Y-61813793D01*
X107017848Y-61814912D01*
X107017846Y-61814912D01*
X106897220Y-61847234D01*
X106810670Y-61870425D01*
X106612362Y-61962898D01*
X106608819Y-61965379D01*
X106608817Y-61965380D01*
X106571375Y-61991597D01*
X106433123Y-62088402D01*
X106278402Y-62243123D01*
X106226419Y-62317363D01*
X106169230Y-62399038D01*
X106152898Y-62422362D01*
X106060425Y-62620670D01*
X106058868Y-62619944D01*
X106025360Y-62662832D01*
X105966545Y-62679697D01*
X105909050Y-62658770D01*
X105880914Y-62620046D01*
X105879575Y-62620670D01*
X105820603Y-62494205D01*
X105787102Y-62422362D01*
X105770771Y-62399038D01*
X105713581Y-62317363D01*
X105661598Y-62243123D01*
X105506877Y-62088402D01*
X105358491Y-61984501D01*
X105331184Y-61965380D01*
X105331182Y-61965379D01*
X105327639Y-61962898D01*
X105129330Y-61870425D01*
X105042780Y-61847234D01*
X104922154Y-61814912D01*
X104922152Y-61814912D01*
X104917977Y-61813793D01*
X104700000Y-61794723D01*
X104482023Y-61813793D01*
X104477848Y-61814912D01*
X104477846Y-61814912D01*
X104357220Y-61847234D01*
X104270670Y-61870425D01*
X104072362Y-61962898D01*
X104068819Y-61965379D01*
X104068817Y-61965380D01*
X104031375Y-61991597D01*
X103893123Y-62088402D01*
X103738402Y-62243123D01*
X103686419Y-62317363D01*
X103629230Y-62399038D01*
X103612898Y-62422362D01*
X103520425Y-62620670D01*
X103515434Y-62639297D01*
X103468091Y-62815984D01*
X103463793Y-62832023D01*
X103463416Y-62836334D01*
X103453130Y-62953902D01*
X103429223Y-63010224D01*
X103376777Y-63041737D01*
X103315825Y-63036404D01*
X103269647Y-62996263D01*
X103255922Y-62954333D01*
X103246629Y-62853200D01*
X103244982Y-62844314D01*
X103192570Y-62658473D01*
X103189332Y-62650038D01*
X103103928Y-62476855D01*
X103099209Y-62469154D01*
X102983678Y-62314440D01*
X102977629Y-62307722D01*
X102835837Y-62176650D01*
X102828670Y-62171151D01*
X102665369Y-62068117D01*
X102657315Y-62064013D01*
X102477969Y-61992460D01*
X102469306Y-61989894D01*
X102429379Y-61981952D01*
X102416133Y-61983520D01*
X102416099Y-61983551D01*
X102414000Y-61991597D01*
X102414000Y-63205000D01*
X102395093Y-63263191D01*
X102345593Y-63299155D01*
X102315000Y-63304000D01*
X102005000Y-63304000D01*
X101946809Y-63285093D01*
X101910845Y-63235593D01*
X101906000Y-63205000D01*
X101906000Y-61993124D01*
X101901878Y-61980439D01*
X101901274Y-61980000D01*
X101894127Y-61979484D01*
X101878555Y-61982160D01*
X101869819Y-61984501D01*
X101688668Y-62051331D01*
X101680506Y-62055224D01*
X101514562Y-62153950D01*
X101507260Y-62159255D01*
X101362081Y-62286575D01*
X101355858Y-62293133D01*
X101236322Y-62444763D01*
X101231397Y-62452346D01*
X101141490Y-62623231D01*
X101138032Y-62631579D01*
X101080773Y-62815984D01*
X101078895Y-62824821D01*
X101063575Y-62954260D01*
X101037959Y-63009825D01*
X100984575Y-63039722D01*
X100923814Y-63032530D01*
X100878884Y-62990998D01*
X100866638Y-62951252D01*
X100856584Y-62836334D01*
X100856207Y-62832023D01*
X100851910Y-62815984D01*
X100804566Y-62639297D01*
X100799575Y-62620670D01*
X100707102Y-62422362D01*
X100690771Y-62399038D01*
X100633581Y-62317363D01*
X100581598Y-62243123D01*
X100426877Y-62088402D01*
X100278491Y-61984501D01*
X100251184Y-61965380D01*
X100251182Y-61965379D01*
X100247639Y-61962898D01*
X100049330Y-61870425D01*
X99962780Y-61847234D01*
X99842154Y-61814912D01*
X99842152Y-61814912D01*
X99837977Y-61813793D01*
X99620000Y-61794723D01*
X99402023Y-61813793D01*
X99397848Y-61814912D01*
X99397846Y-61814912D01*
X99277220Y-61847234D01*
X99190670Y-61870425D01*
X98992362Y-61962898D01*
X98988819Y-61965379D01*
X98988817Y-61965380D01*
X98951375Y-61991597D01*
X98813123Y-62088402D01*
X98658402Y-62243123D01*
X98606419Y-62317363D01*
X98549230Y-62399038D01*
X98532898Y-62422362D01*
X98440425Y-62620670D01*
X98438868Y-62619944D01*
X98405360Y-62662832D01*
X98346545Y-62679697D01*
X98289050Y-62658770D01*
X98260914Y-62620046D01*
X98259575Y-62620670D01*
X98200603Y-62494205D01*
X98167102Y-62422362D01*
X98150771Y-62399038D01*
X98093581Y-62317363D01*
X98041598Y-62243123D01*
X97886877Y-62088402D01*
X97738491Y-61984501D01*
X97711184Y-61965380D01*
X97711182Y-61965379D01*
X97707639Y-61962898D01*
X97509330Y-61870425D01*
X97422780Y-61847234D01*
X97302154Y-61814912D01*
X97302152Y-61814912D01*
X97297977Y-61813793D01*
X97080000Y-61794723D01*
X96862023Y-61813793D01*
X96857848Y-61814912D01*
X96857846Y-61814912D01*
X96737220Y-61847234D01*
X96650670Y-61870425D01*
X96452362Y-61962898D01*
X96448819Y-61965379D01*
X96448817Y-61965380D01*
X96411375Y-61991597D01*
X96273123Y-62088402D01*
X96118402Y-62243123D01*
X96066419Y-62317363D01*
X96009230Y-62399038D01*
X95992898Y-62422362D01*
X95900425Y-62620670D01*
X95898868Y-62619944D01*
X95865360Y-62662832D01*
X95806545Y-62679697D01*
X95749050Y-62658770D01*
X95720914Y-62620046D01*
X95719575Y-62620670D01*
X95660603Y-62494205D01*
X95627102Y-62422362D01*
X95610771Y-62399038D01*
X95553581Y-62317363D01*
X95501598Y-62243123D01*
X95346877Y-62088402D01*
X95198491Y-61984501D01*
X95171184Y-61965380D01*
X95171182Y-61965379D01*
X95167639Y-61962898D01*
X94969330Y-61870425D01*
X94757977Y-61813793D01*
X94740373Y-61812253D01*
X94684052Y-61788347D01*
X94652538Y-61735902D01*
X94650000Y-61713630D01*
X94650000Y-61316611D01*
X94668907Y-61258420D01*
X94718407Y-61222456D01*
X94749000Y-61217611D01*
X108963758Y-61217611D01*
X109021949Y-61236518D01*
G37*
%TD.AperFunction*%
%TA.AperFunction,Conductor*%
G36*
X130026121Y-92020002D02*
G01*
X130033600Y-92025200D01*
X133949600Y-94962200D01*
X133992095Y-95019074D01*
X134000000Y-95063000D01*
X134000000Y-100874000D01*
X133979998Y-100942121D01*
X133926342Y-100988614D01*
X133874000Y-101000000D01*
X126126000Y-101000000D01*
X126057879Y-100979998D01*
X126011386Y-100926342D01*
X126000000Y-100874000D01*
X126000000Y-99254807D01*
X126942001Y-99254807D01*
X126942121Y-99258701D01*
X126944790Y-99301893D01*
X126946126Y-99311472D01*
X126990048Y-99512073D01*
X126993695Y-99523432D01*
X127074306Y-99711059D01*
X127080041Y-99721533D01*
X127194669Y-99890522D01*
X127202282Y-99899724D01*
X127346802Y-100043992D01*
X127356015Y-100051587D01*
X127525206Y-100165922D01*
X127535690Y-100171638D01*
X127723450Y-100251918D01*
X127734821Y-100255547D01*
X127935480Y-100299115D01*
X127945100Y-100300437D01*
X127986387Y-100302890D01*
X127990102Y-100303000D01*
X129677885Y-100303000D01*
X129693124Y-100298525D01*
X129694329Y-100297135D01*
X129696000Y-100289452D01*
X129696000Y-100284884D01*
X130204000Y-100284884D01*
X130208475Y-100300123D01*
X130209865Y-100301328D01*
X130217548Y-100302999D01*
X131909807Y-100302999D01*
X131913701Y-100302879D01*
X131956893Y-100300210D01*
X131966472Y-100298874D01*
X132167073Y-100254952D01*
X132178432Y-100251305D01*
X132366059Y-100170694D01*
X132376533Y-100164959D01*
X132545522Y-100050331D01*
X132554724Y-100042718D01*
X132698992Y-99898198D01*
X132706587Y-99888985D01*
X132820922Y-99719794D01*
X132826638Y-99709310D01*
X132906918Y-99521550D01*
X132910547Y-99510179D01*
X132954115Y-99309520D01*
X132955437Y-99299900D01*
X132957890Y-99258613D01*
X132958000Y-99254898D01*
X132958000Y-98817115D01*
X132953525Y-98801876D01*
X132952135Y-98800671D01*
X132944452Y-98799000D01*
X130222115Y-98799000D01*
X130206876Y-98803475D01*
X130205671Y-98804865D01*
X130204000Y-98812548D01*
X130204000Y-100284884D01*
X129696000Y-100284884D01*
X129696000Y-98817115D01*
X129691525Y-98801876D01*
X129690135Y-98800671D01*
X129682452Y-98799000D01*
X126960116Y-98799000D01*
X126944877Y-98803475D01*
X126943672Y-98804865D01*
X126942001Y-98812548D01*
X126942001Y-99254807D01*
X126000000Y-99254807D01*
X126000000Y-98272885D01*
X126942000Y-98272885D01*
X126946475Y-98288124D01*
X126947865Y-98289329D01*
X126955548Y-98291000D01*
X129677885Y-98291000D01*
X129693124Y-98286525D01*
X129694329Y-98285135D01*
X129696000Y-98277452D01*
X129696000Y-98272885D01*
X130204000Y-98272885D01*
X130208475Y-98288124D01*
X130209865Y-98289329D01*
X130217548Y-98291000D01*
X132939884Y-98291000D01*
X132955123Y-98286525D01*
X132956328Y-98285135D01*
X132957999Y-98277452D01*
X132957999Y-97835194D01*
X132957879Y-97831299D01*
X132955210Y-97788107D01*
X132953874Y-97778528D01*
X132909952Y-97577927D01*
X132906305Y-97566568D01*
X132825694Y-97378941D01*
X132819959Y-97368467D01*
X132705331Y-97199478D01*
X132697718Y-97190276D01*
X132553198Y-97046008D01*
X132543985Y-97038413D01*
X132374794Y-96924078D01*
X132364310Y-96918362D01*
X132176550Y-96838082D01*
X132165179Y-96834453D01*
X131964520Y-96790885D01*
X131954900Y-96789563D01*
X131913613Y-96787110D01*
X131909898Y-96787000D01*
X130222115Y-96787000D01*
X130206876Y-96791475D01*
X130205671Y-96792865D01*
X130204000Y-96800548D01*
X130204000Y-98272885D01*
X129696000Y-98272885D01*
X129696000Y-96805116D01*
X129691525Y-96789877D01*
X129690135Y-96788672D01*
X129682452Y-96787001D01*
X127990194Y-96787001D01*
X127986299Y-96787121D01*
X127943107Y-96789790D01*
X127933528Y-96791126D01*
X127732927Y-96835048D01*
X127721568Y-96838695D01*
X127533941Y-96919306D01*
X127523467Y-96925041D01*
X127354478Y-97039669D01*
X127345276Y-97047282D01*
X127201008Y-97191802D01*
X127193413Y-97201015D01*
X127079078Y-97370206D01*
X127073362Y-97380690D01*
X126993082Y-97568450D01*
X126989453Y-97579821D01*
X126945885Y-97780480D01*
X126944563Y-97790100D01*
X126942110Y-97831387D01*
X126942000Y-97835102D01*
X126942000Y-98272885D01*
X126000000Y-98272885D01*
X126000000Y-95000000D01*
X116000000Y-95000000D01*
X111563494Y-99436506D01*
X111501182Y-99470532D01*
X111430367Y-99465467D01*
X111373531Y-99422920D01*
X111348720Y-99356400D01*
X111348399Y-99347411D01*
X111348399Y-99322114D01*
X111343924Y-99306875D01*
X111342534Y-99305670D01*
X111334851Y-99303999D01*
X109017102Y-99303999D01*
X108948981Y-99283997D01*
X108902488Y-99230341D01*
X108891102Y-99177999D01*
X108891102Y-98777884D01*
X109399102Y-98777884D01*
X109403577Y-98793123D01*
X109404967Y-98794328D01*
X109412650Y-98795999D01*
X110072984Y-98795999D01*
X110088223Y-98791524D01*
X110089428Y-98790134D01*
X110091099Y-98782451D01*
X110091099Y-98777884D01*
X110599099Y-98777884D01*
X110603574Y-98793123D01*
X110604964Y-98794328D01*
X110612647Y-98795999D01*
X111330283Y-98795999D01*
X111345522Y-98791524D01*
X111346727Y-98790134D01*
X111348398Y-98782451D01*
X111348398Y-98459229D01*
X111348029Y-98452408D01*
X111343814Y-98413605D01*
X111343814Y-98386392D01*
X111348030Y-98347585D01*
X111348399Y-98340771D01*
X111348399Y-98022114D01*
X111343924Y-98006875D01*
X111342534Y-98005670D01*
X111334851Y-98003999D01*
X110617214Y-98003999D01*
X110601975Y-98008474D01*
X110600770Y-98009864D01*
X110599099Y-98017547D01*
X110599099Y-98777884D01*
X110091099Y-98777884D01*
X110091099Y-98022114D01*
X110086624Y-98006875D01*
X110085234Y-98005670D01*
X110077551Y-98003999D01*
X109417217Y-98003999D01*
X109401978Y-98008474D01*
X109400773Y-98009864D01*
X109399102Y-98017547D01*
X109399102Y-98777884D01*
X108891102Y-98777884D01*
X108891102Y-97477884D01*
X109399102Y-97477884D01*
X109403577Y-97493123D01*
X109404967Y-97494328D01*
X109412650Y-97495999D01*
X110072984Y-97495999D01*
X110088223Y-97491524D01*
X110089428Y-97490134D01*
X110091099Y-97482451D01*
X110091099Y-97477884D01*
X110599099Y-97477884D01*
X110603574Y-97493123D01*
X110604964Y-97494328D01*
X110612647Y-97495999D01*
X111330283Y-97495999D01*
X111345522Y-97491524D01*
X111346727Y-97490134D01*
X111348398Y-97482451D01*
X111348398Y-97159229D01*
X111348029Y-97152408D01*
X111343814Y-97113605D01*
X111343814Y-97086392D01*
X111348030Y-97047585D01*
X111348399Y-97040771D01*
X111348399Y-96722114D01*
X111343924Y-96706875D01*
X111342534Y-96705670D01*
X111334851Y-96703999D01*
X110617214Y-96703999D01*
X110601975Y-96708474D01*
X110600770Y-96709864D01*
X110599099Y-96717547D01*
X110599099Y-97477884D01*
X110091099Y-97477884D01*
X110091099Y-96722114D01*
X110086624Y-96706875D01*
X110085234Y-96705670D01*
X110077551Y-96703999D01*
X109417217Y-96703999D01*
X109401978Y-96708474D01*
X109400773Y-96709864D01*
X109399102Y-96717547D01*
X109399102Y-97477884D01*
X108891102Y-97477884D01*
X108891102Y-96177884D01*
X109399102Y-96177884D01*
X109403577Y-96193123D01*
X109404967Y-96194328D01*
X109412650Y-96195999D01*
X110072984Y-96195999D01*
X110088223Y-96191524D01*
X110089428Y-96190134D01*
X110091099Y-96182451D01*
X110091099Y-96177884D01*
X110599099Y-96177884D01*
X110603574Y-96193123D01*
X110604964Y-96194328D01*
X110612647Y-96195999D01*
X111330283Y-96195999D01*
X111345522Y-96191524D01*
X111346727Y-96190134D01*
X111348398Y-96182451D01*
X111348398Y-95859230D01*
X111348028Y-95852409D01*
X111342504Y-95801547D01*
X111338878Y-95786295D01*
X111293723Y-95665845D01*
X111285185Y-95650250D01*
X111208684Y-95548175D01*
X111196123Y-95535614D01*
X111094048Y-95459113D01*
X111078453Y-95450575D01*
X110958005Y-95405421D01*
X110942750Y-95401794D01*
X110891885Y-95396268D01*
X110885071Y-95395899D01*
X110617214Y-95395899D01*
X110601975Y-95400374D01*
X110600770Y-95401764D01*
X110599099Y-95409447D01*
X110599099Y-96177884D01*
X110091099Y-96177884D01*
X110091099Y-95414015D01*
X110086624Y-95398776D01*
X110085234Y-95397571D01*
X110077551Y-95395900D01*
X109805129Y-95395900D01*
X109798311Y-95396269D01*
X109758709Y-95400571D01*
X109731494Y-95400571D01*
X109691885Y-95396268D01*
X109685074Y-95395899D01*
X109417217Y-95395899D01*
X109401978Y-95400374D01*
X109400773Y-95401764D01*
X109399102Y-95409447D01*
X109399102Y-96177884D01*
X108891102Y-96177884D01*
X108891102Y-95414015D01*
X108886627Y-95398776D01*
X108885237Y-95397571D01*
X108877554Y-95395900D01*
X108626000Y-95395900D01*
X108557879Y-95375898D01*
X108511386Y-95322242D01*
X108500000Y-95269900D01*
X108500000Y-94042000D01*
X108520002Y-93973879D01*
X108525200Y-93966400D01*
X108892149Y-93477135D01*
X109403421Y-92795438D01*
X110017000Y-92795438D01*
X110017337Y-92801953D01*
X110026894Y-92894057D01*
X110029788Y-92907456D01*
X110079381Y-93056107D01*
X110085555Y-93069286D01*
X110167788Y-93202173D01*
X110176824Y-93213574D01*
X110287429Y-93323986D01*
X110298840Y-93332998D01*
X110431880Y-93415004D01*
X110445061Y-93421151D01*
X110593814Y-93470491D01*
X110607190Y-93473358D01*
X110698097Y-93482672D01*
X110704513Y-93483000D01*
X110727885Y-93483000D01*
X110743124Y-93478525D01*
X110744329Y-93477135D01*
X110746000Y-93469452D01*
X110746000Y-93464885D01*
X111254000Y-93464885D01*
X111258475Y-93480124D01*
X111259865Y-93481329D01*
X111267548Y-93483000D01*
X111295438Y-93483000D01*
X111301953Y-93482663D01*
X111394057Y-93473106D01*
X111407456Y-93470212D01*
X111556107Y-93420619D01*
X111569286Y-93414445D01*
X111702173Y-93332212D01*
X111713574Y-93323176D01*
X111823986Y-93212571D01*
X111832998Y-93201160D01*
X111915004Y-93068120D01*
X111921151Y-93054939D01*
X111970491Y-92906186D01*
X111973358Y-92892810D01*
X111982672Y-92801903D01*
X111982929Y-92796874D01*
X111978525Y-92781876D01*
X111977135Y-92780671D01*
X111969452Y-92779000D01*
X111272115Y-92779000D01*
X111256876Y-92783475D01*
X111255671Y-92784865D01*
X111254000Y-92792548D01*
X111254000Y-93464885D01*
X110746000Y-93464885D01*
X110746000Y-92797115D01*
X110741525Y-92781876D01*
X110740135Y-92780671D01*
X110732452Y-92779000D01*
X110035115Y-92779000D01*
X110019876Y-92783475D01*
X110018671Y-92784865D01*
X110017000Y-92792548D01*
X110017000Y-92795438D01*
X109403421Y-92795438D01*
X109807996Y-92256005D01*
X109864869Y-92213511D01*
X109935689Y-92208510D01*
X109997971Y-92242591D01*
X110004268Y-92253214D01*
X110022865Y-92269329D01*
X110030548Y-92271000D01*
X111964885Y-92271000D01*
X111980124Y-92266525D01*
X111981329Y-92265135D01*
X111983000Y-92257452D01*
X111983000Y-92254562D01*
X111982663Y-92248047D01*
X111973106Y-92155944D01*
X111972384Y-92152602D01*
X111972539Y-92150480D01*
X111972394Y-92149084D01*
X111972643Y-92149058D01*
X111977553Y-92081794D01*
X112020184Y-92025021D01*
X112086740Y-92000308D01*
X112095544Y-92000000D01*
X129958000Y-92000000D01*
X130026121Y-92020002D01*
G37*
%TD.AperFunction*%
%TA.AperFunction,Conductor*%
G36*
X96759106Y-95770002D02*
G01*
X96787780Y-95795336D01*
X97576867Y-96742240D01*
X99443617Y-98982340D01*
X100500000Y-100250000D01*
X100515802Y-100250000D01*
X100583923Y-100270002D01*
X100630416Y-100323658D01*
X100641802Y-100376000D01*
X100641802Y-100677885D01*
X100646277Y-100693124D01*
X100647667Y-100694329D01*
X100655350Y-100696000D01*
X102973102Y-100696000D01*
X103041223Y-100716002D01*
X103087716Y-100769658D01*
X103099102Y-100822000D01*
X103099102Y-103277885D01*
X103103577Y-103293124D01*
X103104967Y-103294329D01*
X103112650Y-103296000D01*
X103500000Y-103296000D01*
X103500000Y-103804000D01*
X100659918Y-103804000D01*
X100644679Y-103808475D01*
X100631557Y-103823618D01*
X100612366Y-103858764D01*
X100550053Y-103892789D01*
X100479237Y-103887723D01*
X100425338Y-103848947D01*
X99963050Y-103277885D01*
X100641802Y-103277885D01*
X100646277Y-103293124D01*
X100647667Y-103294329D01*
X100655350Y-103296000D01*
X101372987Y-103296000D01*
X101388226Y-103291525D01*
X101389431Y-103290135D01*
X101391102Y-103282452D01*
X101391102Y-103277885D01*
X101899102Y-103277885D01*
X101903577Y-103293124D01*
X101904967Y-103294329D01*
X101912650Y-103296000D01*
X102572987Y-103296000D01*
X102588226Y-103291525D01*
X102589431Y-103290135D01*
X102591102Y-103282452D01*
X102591102Y-102522115D01*
X102586627Y-102506876D01*
X102585237Y-102505671D01*
X102577554Y-102504000D01*
X101917217Y-102504000D01*
X101901978Y-102508475D01*
X101900773Y-102509865D01*
X101899102Y-102517548D01*
X101899102Y-103277885D01*
X101391102Y-103277885D01*
X101391102Y-102522115D01*
X101386627Y-102506876D01*
X101385237Y-102505671D01*
X101377554Y-102504000D01*
X100659918Y-102504000D01*
X100644679Y-102508475D01*
X100643474Y-102509865D01*
X100641803Y-102517548D01*
X100641803Y-102840770D01*
X100642172Y-102847588D01*
X100646387Y-102886391D01*
X100646387Y-102913605D01*
X100642171Y-102952414D01*
X100641802Y-102959228D01*
X100641802Y-103277885D01*
X99963050Y-103277885D01*
X98910669Y-101977885D01*
X100641802Y-101977885D01*
X100646277Y-101993124D01*
X100647667Y-101994329D01*
X100655350Y-101996000D01*
X101372987Y-101996000D01*
X101388226Y-101991525D01*
X101389431Y-101990135D01*
X101391102Y-101982452D01*
X101391102Y-101977885D01*
X101899102Y-101977885D01*
X101903577Y-101993124D01*
X101904967Y-101994329D01*
X101912650Y-101996000D01*
X102572987Y-101996000D01*
X102588226Y-101991525D01*
X102589431Y-101990135D01*
X102591102Y-101982452D01*
X102591102Y-101222115D01*
X102586627Y-101206876D01*
X102585237Y-101205671D01*
X102577554Y-101204000D01*
X101917217Y-101204000D01*
X101901978Y-101208475D01*
X101900773Y-101209865D01*
X101899102Y-101217548D01*
X101899102Y-101977885D01*
X101391102Y-101977885D01*
X101391102Y-101222115D01*
X101386627Y-101206876D01*
X101385237Y-101205671D01*
X101377554Y-101204000D01*
X100659918Y-101204000D01*
X100644679Y-101208475D01*
X100643474Y-101209865D01*
X100641803Y-101217548D01*
X100641803Y-101540770D01*
X100642172Y-101547588D01*
X100646387Y-101586391D01*
X100646387Y-101613605D01*
X100642171Y-101652414D01*
X100641802Y-101659228D01*
X100641802Y-101977885D01*
X98910669Y-101977885D01*
X96511399Y-99014081D01*
X96500000Y-99000000D01*
X93672858Y-99000000D01*
X93612712Y-98982340D01*
X93611760Y-98984079D01*
X93603892Y-98979771D01*
X93596705Y-98974385D01*
X93477687Y-98929767D01*
X93420923Y-98887125D01*
X93396223Y-98820564D01*
X93411430Y-98751215D01*
X93432977Y-98722535D01*
X93534052Y-98621812D01*
X93540730Y-98613965D01*
X93665003Y-98441020D01*
X93670313Y-98432183D01*
X93764670Y-98241267D01*
X93768469Y-98231672D01*
X93830377Y-98027910D01*
X93832555Y-98017837D01*
X93833986Y-98006962D01*
X93831775Y-97992778D01*
X93818617Y-97989000D01*
X91183225Y-97989000D01*
X91169694Y-97992973D01*
X91168257Y-98002966D01*
X91198565Y-98137446D01*
X91201645Y-98147275D01*
X91281770Y-98344603D01*
X91286413Y-98353794D01*
X91397694Y-98535388D01*
X91403777Y-98543699D01*
X91543213Y-98704667D01*
X91550577Y-98711879D01*
X91555522Y-98715985D01*
X91595156Y-98774889D01*
X91596653Y-98845870D01*
X91559537Y-98906392D01*
X91519264Y-98930910D01*
X91411705Y-98971232D01*
X91411704Y-98971233D01*
X91403295Y-98974385D01*
X91396108Y-98979771D01*
X91388240Y-98984079D01*
X91386488Y-98980879D01*
X91336244Y-98999671D01*
X91327142Y-99000000D01*
X90876000Y-99000000D01*
X90807879Y-98979998D01*
X90761386Y-98926342D01*
X90750000Y-98874000D01*
X90750000Y-97469183D01*
X91164389Y-97469183D01*
X91165912Y-97477607D01*
X91178292Y-97481000D01*
X92227885Y-97481000D01*
X92243124Y-97476525D01*
X92244329Y-97475135D01*
X92246000Y-97467452D01*
X92246000Y-97462885D01*
X92754000Y-97462885D01*
X92758475Y-97478124D01*
X92759865Y-97479329D01*
X92767548Y-97481000D01*
X93818344Y-97481000D01*
X93831875Y-97477027D01*
X93833180Y-97467947D01*
X93791214Y-97300875D01*
X93787894Y-97291124D01*
X93702972Y-97095814D01*
X93698105Y-97086739D01*
X93582426Y-96907926D01*
X93576136Y-96899757D01*
X93432806Y-96742240D01*
X93425273Y-96735215D01*
X93258139Y-96603222D01*
X93249552Y-96597517D01*
X93063117Y-96494599D01*
X93053705Y-96490369D01*
X92852959Y-96419280D01*
X92842988Y-96416646D01*
X92771837Y-96403972D01*
X92758540Y-96405432D01*
X92754000Y-96419989D01*
X92754000Y-97462885D01*
X92246000Y-97462885D01*
X92246000Y-96418102D01*
X92242082Y-96404758D01*
X92227806Y-96402771D01*
X92189324Y-96408660D01*
X92179288Y-96411051D01*
X91976868Y-96477212D01*
X91967359Y-96481209D01*
X91778463Y-96579542D01*
X91769738Y-96585036D01*
X91599433Y-96712905D01*
X91591726Y-96719748D01*
X91444590Y-96873717D01*
X91438104Y-96881727D01*
X91318098Y-97057649D01*
X91313000Y-97066623D01*
X91223338Y-97259783D01*
X91219775Y-97269470D01*
X91164389Y-97469183D01*
X90750000Y-97469183D01*
X90750000Y-95876000D01*
X90770002Y-95807879D01*
X90823658Y-95761386D01*
X90876000Y-95750000D01*
X96690985Y-95750000D01*
X96759106Y-95770002D01*
G37*
%TD.AperFunction*%
%TA.AperFunction,Conductor*%
G36*
X90959191Y-61268907D02*
G01*
X90995155Y-61318407D01*
X91000000Y-61349000D01*
X91000000Y-62712702D01*
X90995366Y-62742636D01*
X90967484Y-62830532D01*
X90944520Y-63035262D01*
X90961759Y-63240553D01*
X90963092Y-63245201D01*
X90963092Y-63245202D01*
X90996165Y-63360541D01*
X91000000Y-63387829D01*
X91000000Y-65252702D01*
X90995366Y-65282636D01*
X90967484Y-65370532D01*
X90944520Y-65575262D01*
X90961759Y-65780553D01*
X90963092Y-65785201D01*
X90963092Y-65785202D01*
X90996165Y-65900541D01*
X91000000Y-65927829D01*
X91000000Y-67250000D01*
X91005187Y-67260335D01*
X91005187Y-67260337D01*
X91989483Y-69221702D01*
X92000000Y-69266106D01*
X92000000Y-73393820D01*
X91981093Y-73452011D01*
X91931593Y-73487975D01*
X91901162Y-73492820D01*
X90029162Y-73495874D01*
X89970940Y-73477062D01*
X89934895Y-73427620D01*
X89930000Y-73396874D01*
X89930000Y-73369680D01*
X89925878Y-73356995D01*
X89921757Y-73354000D01*
X88995000Y-73354000D01*
X88936809Y-73335093D01*
X88900845Y-73285593D01*
X88896000Y-73255000D01*
X88896000Y-72945000D01*
X88914907Y-72886809D01*
X88964407Y-72850845D01*
X88995000Y-72846000D01*
X89914320Y-72846000D01*
X89927005Y-72841878D01*
X89930000Y-72837757D01*
X89930000Y-72755234D01*
X89929052Y-72745612D01*
X89917397Y-72687017D01*
X89910078Y-72669347D01*
X89883075Y-72628935D01*
X89866466Y-72570047D01*
X89870102Y-72553477D01*
X89868867Y-72553231D01*
X89879552Y-72499512D01*
X89880500Y-72494748D01*
X89880500Y-72120834D01*
X89899407Y-72062643D01*
X89909496Y-72050830D01*
X90017057Y-71943269D01*
X90023425Y-71937434D01*
X90053194Y-71912455D01*
X90072629Y-71878792D01*
X90077268Y-71871511D01*
X90079729Y-71867996D01*
X90099554Y-71839684D01*
X90101796Y-71831319D01*
X90104258Y-71826039D01*
X90106257Y-71820548D01*
X90110588Y-71813045D01*
X90117337Y-71774771D01*
X90119206Y-71766344D01*
X90127022Y-71737173D01*
X90127022Y-71737170D01*
X90129263Y-71728807D01*
X90125877Y-71690103D01*
X90125500Y-71681475D01*
X90125500Y-70068526D01*
X90125877Y-70059898D01*
X90128508Y-70029820D01*
X90129263Y-70021193D01*
X90127022Y-70012830D01*
X90127022Y-70012827D01*
X90119206Y-69983656D01*
X90117337Y-69975228D01*
X90115764Y-69966309D01*
X90110588Y-69936955D01*
X90106257Y-69929452D01*
X90104258Y-69923961D01*
X90101796Y-69918681D01*
X90099554Y-69910316D01*
X90077268Y-69878489D01*
X90072627Y-69871205D01*
X90057523Y-69845044D01*
X90053194Y-69837545D01*
X90023429Y-69812569D01*
X90017061Y-69806735D01*
X89593269Y-69382943D01*
X89587434Y-69376575D01*
X89562455Y-69346806D01*
X89528792Y-69327371D01*
X89521511Y-69322732D01*
X89519056Y-69321013D01*
X89489684Y-69300446D01*
X89481316Y-69298204D01*
X89476029Y-69295738D01*
X89470544Y-69293742D01*
X89463045Y-69289412D01*
X89454519Y-69287909D01*
X89454517Y-69287908D01*
X89424784Y-69282666D01*
X89416349Y-69280796D01*
X89387174Y-69272978D01*
X89378807Y-69270736D01*
X89371001Y-69271419D01*
X89315107Y-69247692D01*
X89283596Y-69195245D01*
X89287526Y-69147949D01*
X89285495Y-69147545D01*
X89299052Y-69079388D01*
X89300000Y-69069766D01*
X89300000Y-68919680D01*
X89295878Y-68906995D01*
X89291757Y-68904000D01*
X87915680Y-68904000D01*
X87902995Y-68908122D01*
X87900000Y-68912243D01*
X87900000Y-69069766D01*
X87900948Y-69079388D01*
X87914505Y-69147545D01*
X87913252Y-69147794D01*
X87917250Y-69198613D01*
X87885280Y-69250782D01*
X87828751Y-69274195D01*
X87820986Y-69274500D01*
X87599000Y-69274500D01*
X87540809Y-69255593D01*
X87504845Y-69206093D01*
X87500000Y-69175500D01*
X87500000Y-68750000D01*
X85349000Y-68750000D01*
X85290809Y-68731093D01*
X85254845Y-68681593D01*
X85250000Y-68651000D01*
X85250000Y-68380320D01*
X87900000Y-68380320D01*
X87904122Y-68393005D01*
X87908243Y-68396000D01*
X88330320Y-68396000D01*
X88343005Y-68391878D01*
X88346000Y-68387757D01*
X88346000Y-68380320D01*
X88854000Y-68380320D01*
X88858122Y-68393005D01*
X88862243Y-68396000D01*
X89284320Y-68396000D01*
X89297005Y-68391878D01*
X89300000Y-68387757D01*
X89300000Y-68230234D01*
X89299052Y-68220612D01*
X89287397Y-68162017D01*
X89280078Y-68144349D01*
X89235659Y-68077870D01*
X89222130Y-68064341D01*
X89155651Y-68019922D01*
X89137983Y-68012603D01*
X89079388Y-68000948D01*
X89069766Y-68000000D01*
X88869680Y-68000000D01*
X88856995Y-68004122D01*
X88854000Y-68008243D01*
X88854000Y-68380320D01*
X88346000Y-68380320D01*
X88346000Y-68015680D01*
X88341878Y-68002995D01*
X88337757Y-68000000D01*
X88130234Y-68000000D01*
X88120612Y-68000948D01*
X88062017Y-68012603D01*
X88044349Y-68019922D01*
X87977870Y-68064341D01*
X87964341Y-68077870D01*
X87919922Y-68144349D01*
X87912603Y-68162017D01*
X87900948Y-68220612D01*
X87900000Y-68230234D01*
X87900000Y-68380320D01*
X85250000Y-68380320D01*
X85250000Y-66459748D01*
X85869500Y-66459748D01*
X85881133Y-66518231D01*
X85925448Y-66584552D01*
X85991769Y-66628867D01*
X86001332Y-66630769D01*
X86001334Y-66630770D01*
X86024005Y-66635279D01*
X86050252Y-66640500D01*
X87789748Y-66640500D01*
X87815995Y-66635279D01*
X87838666Y-66630770D01*
X87838668Y-66630769D01*
X87848231Y-66628867D01*
X87914552Y-66584552D01*
X87958867Y-66518231D01*
X87970500Y-66459748D01*
X87970500Y-65575262D01*
X88404520Y-65575262D01*
X88421759Y-65780553D01*
X88423092Y-65785201D01*
X88423092Y-65785202D01*
X88463990Y-65927829D01*
X88478544Y-65978586D01*
X88572712Y-66161818D01*
X88700677Y-66323270D01*
X88704357Y-66326402D01*
X88704359Y-66326404D01*
X88817017Y-66422283D01*
X88857564Y-66456791D01*
X88861787Y-66459151D01*
X88861791Y-66459154D01*
X88901342Y-66481258D01*
X89037398Y-66557297D01*
X89041996Y-66558791D01*
X89228724Y-66619463D01*
X89228726Y-66619464D01*
X89233329Y-66620959D01*
X89437894Y-66645351D01*
X89442716Y-66644980D01*
X89442719Y-66644980D01*
X89513259Y-66639552D01*
X89643300Y-66629546D01*
X89841725Y-66574145D01*
X89846038Y-66571966D01*
X89846044Y-66571964D01*
X90021289Y-66483441D01*
X90021291Y-66483440D01*
X90025610Y-66481258D01*
X90060943Y-66453653D01*
X90184135Y-66357406D01*
X90184139Y-66357402D01*
X90187951Y-66354424D01*
X90322564Y-66198472D01*
X90341231Y-66165613D01*
X90421934Y-66023550D01*
X90421935Y-66023547D01*
X90424323Y-66019344D01*
X90437882Y-65978586D01*
X90487824Y-65828454D01*
X90487824Y-65828452D01*
X90489351Y-65823863D01*
X90515171Y-65619474D01*
X90515583Y-65590000D01*
X90495480Y-65384970D01*
X90489727Y-65365913D01*
X90437333Y-65192380D01*
X90435935Y-65187749D01*
X90339218Y-65005849D01*
X90209011Y-64846200D01*
X90072870Y-64733574D01*
X90054002Y-64717965D01*
X90054000Y-64717964D01*
X90050275Y-64714882D01*
X89937047Y-64653660D01*
X89873309Y-64619197D01*
X89873308Y-64619197D01*
X89869055Y-64616897D01*
X89799764Y-64595448D01*
X89676875Y-64557407D01*
X89676871Y-64557406D01*
X89672254Y-64555977D01*
X89667446Y-64555472D01*
X89667443Y-64555471D01*
X89472185Y-64534949D01*
X89472183Y-64534949D01*
X89467369Y-64534443D01*
X89411800Y-64539500D01*
X89267022Y-64552675D01*
X89267017Y-64552676D01*
X89262203Y-64553114D01*
X89064572Y-64611280D01*
X89060288Y-64613519D01*
X89060287Y-64613520D01*
X88992528Y-64648944D01*
X88882002Y-64706726D01*
X88878231Y-64709758D01*
X88725220Y-64832781D01*
X88725217Y-64832783D01*
X88721447Y-64835815D01*
X88718333Y-64839526D01*
X88718332Y-64839527D01*
X88709585Y-64849952D01*
X88589024Y-64993630D01*
X88586689Y-64997878D01*
X88586688Y-64997879D01*
X88579955Y-65010126D01*
X88489776Y-65174162D01*
X88427484Y-65370532D01*
X88426944Y-65375344D01*
X88426944Y-65375345D01*
X88425865Y-65384970D01*
X88404520Y-65575262D01*
X87970500Y-65575262D01*
X87970500Y-64720252D01*
X87958867Y-64661769D01*
X87914552Y-64595448D01*
X87848231Y-64551133D01*
X87838668Y-64549231D01*
X87838666Y-64549230D01*
X87815995Y-64544721D01*
X87789748Y-64539500D01*
X86050252Y-64539500D01*
X86024005Y-64544721D01*
X86001334Y-64549230D01*
X86001332Y-64549231D01*
X85991769Y-64551133D01*
X85925448Y-64595448D01*
X85881133Y-64661769D01*
X85869500Y-64720252D01*
X85869500Y-66459748D01*
X85250000Y-66459748D01*
X85250000Y-63317591D01*
X85852958Y-63317591D01*
X85877536Y-63414368D01*
X85880551Y-63422880D01*
X85961386Y-63598225D01*
X85965917Y-63606072D01*
X86077348Y-63763744D01*
X86083222Y-63770622D01*
X86221532Y-63905357D01*
X86228555Y-63911044D01*
X86389099Y-64018317D01*
X86397054Y-64022635D01*
X86574446Y-64098849D01*
X86583057Y-64101647D01*
X86650706Y-64116954D01*
X86663603Y-64115769D01*
X86665444Y-64109074D01*
X87174000Y-64109074D01*
X87178122Y-64121759D01*
X87179293Y-64122610D01*
X87181800Y-64122824D01*
X87182189Y-64122731D01*
X87365026Y-64060666D01*
X87373288Y-64056988D01*
X87541755Y-63962641D01*
X87549209Y-63957518D01*
X87697650Y-63834061D01*
X87704061Y-63827650D01*
X87827518Y-63679209D01*
X87832641Y-63671755D01*
X87926988Y-63503288D01*
X87930666Y-63495026D01*
X87990896Y-63317591D01*
X88392958Y-63317591D01*
X88417536Y-63414368D01*
X88420551Y-63422880D01*
X88501386Y-63598225D01*
X88505917Y-63606072D01*
X88617348Y-63763744D01*
X88623222Y-63770622D01*
X88761532Y-63905357D01*
X88768555Y-63911044D01*
X88929099Y-64018317D01*
X88937054Y-64022635D01*
X89114446Y-64098849D01*
X89123057Y-64101647D01*
X89190706Y-64116954D01*
X89203603Y-64115769D01*
X89205444Y-64109074D01*
X89714000Y-64109074D01*
X89718122Y-64121759D01*
X89719293Y-64122610D01*
X89721800Y-64122824D01*
X89722189Y-64122731D01*
X89905026Y-64060666D01*
X89913288Y-64056988D01*
X90081755Y-63962641D01*
X90089209Y-63957518D01*
X90237650Y-63834061D01*
X90244061Y-63827650D01*
X90367518Y-63679209D01*
X90372641Y-63671755D01*
X90466988Y-63503288D01*
X90470666Y-63495026D01*
X90531744Y-63315094D01*
X90530246Y-63306372D01*
X90529209Y-63305363D01*
X90523365Y-63304000D01*
X89729680Y-63304000D01*
X89716995Y-63308122D01*
X89714000Y-63312243D01*
X89714000Y-64109074D01*
X89205444Y-64109074D01*
X89206000Y-64107051D01*
X89206000Y-63319680D01*
X89201878Y-63306995D01*
X89197757Y-63304000D01*
X88405186Y-63304000D01*
X88393276Y-63307870D01*
X88392958Y-63317591D01*
X87990896Y-63317591D01*
X87991744Y-63315094D01*
X87990246Y-63306372D01*
X87989209Y-63305363D01*
X87983365Y-63304000D01*
X87189680Y-63304000D01*
X87176995Y-63308122D01*
X87174000Y-63312243D01*
X87174000Y-64109074D01*
X86665444Y-64109074D01*
X86666000Y-64107051D01*
X86666000Y-63319680D01*
X86661878Y-63306995D01*
X86657757Y-63304000D01*
X85865186Y-63304000D01*
X85853276Y-63307870D01*
X85852958Y-63317591D01*
X85250000Y-63317591D01*
X85250000Y-62781024D01*
X85851629Y-62781024D01*
X85851781Y-62792650D01*
X85862327Y-62796000D01*
X86650320Y-62796000D01*
X86663005Y-62791878D01*
X86666000Y-62787757D01*
X86666000Y-62780320D01*
X87174000Y-62780320D01*
X87178122Y-62793005D01*
X87182243Y-62796000D01*
X87975676Y-62796000D01*
X87987166Y-62792267D01*
X87987370Y-62781866D01*
X87987133Y-62781024D01*
X88391629Y-62781024D01*
X88391781Y-62792650D01*
X88402327Y-62796000D01*
X89190320Y-62796000D01*
X89203005Y-62791878D01*
X89206000Y-62787757D01*
X89206000Y-62780320D01*
X89714000Y-62780320D01*
X89718122Y-62793005D01*
X89722243Y-62796000D01*
X90515676Y-62796000D01*
X90527166Y-62792267D01*
X90527370Y-62781866D01*
X90492571Y-62658478D01*
X90489330Y-62650035D01*
X90403928Y-62476855D01*
X90399209Y-62469154D01*
X90283678Y-62314440D01*
X90277629Y-62307722D01*
X90135837Y-62176650D01*
X90128670Y-62171151D01*
X89965369Y-62068117D01*
X89957315Y-62064013D01*
X89777969Y-61992460D01*
X89769306Y-61989894D01*
X89729379Y-61981952D01*
X89716133Y-61983520D01*
X89716099Y-61983551D01*
X89714000Y-61991597D01*
X89714000Y-62780320D01*
X89206000Y-62780320D01*
X89206000Y-61993124D01*
X89201878Y-61980439D01*
X89201274Y-61980000D01*
X89194127Y-61979484D01*
X89178555Y-61982160D01*
X89169819Y-61984501D01*
X88988668Y-62051331D01*
X88980506Y-62055224D01*
X88814562Y-62153950D01*
X88807260Y-62159255D01*
X88662081Y-62286575D01*
X88655858Y-62293133D01*
X88536322Y-62444763D01*
X88531397Y-62452346D01*
X88441490Y-62623231D01*
X88438032Y-62631579D01*
X88391629Y-62781024D01*
X87987133Y-62781024D01*
X87952571Y-62658478D01*
X87949330Y-62650035D01*
X87863928Y-62476855D01*
X87859209Y-62469154D01*
X87743678Y-62314440D01*
X87737629Y-62307722D01*
X87595837Y-62176650D01*
X87588670Y-62171151D01*
X87425369Y-62068117D01*
X87417315Y-62064013D01*
X87237969Y-61992460D01*
X87229306Y-61989894D01*
X87189379Y-61981952D01*
X87176133Y-61983520D01*
X87176099Y-61983551D01*
X87174000Y-61991597D01*
X87174000Y-62780320D01*
X86666000Y-62780320D01*
X86666000Y-61993124D01*
X86661878Y-61980439D01*
X86661274Y-61980000D01*
X86654127Y-61979484D01*
X86638555Y-61982160D01*
X86629819Y-61984501D01*
X86448668Y-62051331D01*
X86440506Y-62055224D01*
X86274562Y-62153950D01*
X86267260Y-62159255D01*
X86122081Y-62286575D01*
X86115858Y-62293133D01*
X85996322Y-62444763D01*
X85991397Y-62452346D01*
X85901490Y-62623231D01*
X85898032Y-62631579D01*
X85851629Y-62781024D01*
X85250000Y-62781024D01*
X85250000Y-61349000D01*
X85268907Y-61290809D01*
X85318407Y-61254845D01*
X85349000Y-61250000D01*
X90901000Y-61250000D01*
X90959191Y-61268907D01*
G37*
%TD.AperFunction*%
M02*
