%TF.GenerationSoftware,KiCad,Pcbnew,6.0.0*%
%TF.CreationDate,2022-01-12T19:36:27-05:00*%
%TF.ProjectId,raspi-hat,72617370-692d-4686-9174-2e6b69636164,rev?*%
%TF.SameCoordinates,Original*%
%TF.FileFunction,Paste,Top*%
%TF.FilePolarity,Positive*%
%FSLAX46Y46*%
G04 Gerber Fmt 4.6, Leading zero omitted, Abs format (unit mm)*
G04 Created by KiCad (PCBNEW 6.0.0) date 2022-01-12 19:36:27*
%MOMM*%
%LPD*%
G01*
G04 APERTURE LIST*
G04 Aperture macros list*
%AMRoundRect*
0 Rectangle with rounded corners*
0 $1 Rounding radius*
0 $2 $3 $4 $5 $6 $7 $8 $9 X,Y pos of 4 corners*
0 Add a 4 corners polygon primitive as box body*
4,1,4,$2,$3,$4,$5,$6,$7,$8,$9,$2,$3,0*
0 Add four circle primitives for the rounded corners*
1,1,$1+$1,$2,$3*
1,1,$1+$1,$4,$5*
1,1,$1+$1,$6,$7*
1,1,$1+$1,$8,$9*
0 Add four rect primitives between the rounded corners*
20,1,$1+$1,$2,$3,$4,$5,0*
20,1,$1+$1,$4,$5,$6,$7,0*
20,1,$1+$1,$6,$7,$8,$9,0*
20,1,$1+$1,$8,$9,$2,$3,0*%
G04 Aperture macros list end*
%ADD10C,0.100000*%
%ADD11R,1.000000X0.845000*%
%ADD12R,1.060000X0.650000*%
%ADD13R,0.900000X0.800000*%
%ADD14RoundRect,0.150000X0.150000X-0.875000X0.150000X0.875000X-0.150000X0.875000X-0.150000X-0.875000X0*%
%ADD15RoundRect,0.225000X0.225000X0.250000X-0.225000X0.250000X-0.225000X-0.250000X0.225000X-0.250000X0*%
%ADD16R,0.990600X1.092200*%
%ADD17R,0.889000X1.092200*%
%ADD18R,0.127000X0.127000*%
%ADD19R,1.092200X1.295400*%
%ADD20RoundRect,0.200000X-0.200000X-0.275000X0.200000X-0.275000X0.200000X0.275000X-0.200000X0.275000X0*%
%ADD21R,1.400000X1.200000*%
%ADD22RoundRect,0.225000X-0.250000X0.225000X-0.250000X-0.225000X0.250000X-0.225000X0.250000X0.225000X0*%
%ADD23RoundRect,0.225000X0.250000X-0.225000X0.250000X0.225000X-0.250000X0.225000X-0.250000X-0.225000X0*%
%ADD24RoundRect,0.200000X0.200000X0.275000X-0.200000X0.275000X-0.200000X-0.275000X0.200000X-0.275000X0*%
%ADD25R,1.981200X0.540800*%
G04 APERTURE END LIST*
D10*
X107841199Y-99147699D02*
X106748999Y-99147699D01*
X106748999Y-99147699D02*
X106748999Y-97852299D01*
X106748999Y-97852299D02*
X107358599Y-97852299D01*
X107358599Y-97852299D02*
X107841199Y-98334899D01*
X107841199Y-98334899D02*
X107841199Y-99147699D01*
G36*
X107841199Y-98334899D02*
G01*
X107841199Y-99147699D01*
X106748999Y-99147699D01*
X106748999Y-97852299D01*
X107358599Y-97852299D01*
X107841199Y-98334899D01*
G37*
X107841199Y-98334899D02*
X107841199Y-99147699D01*
X106748999Y-99147699D01*
X106748999Y-97852299D01*
X107358599Y-97852299D01*
X107841199Y-98334899D01*
D11*
X86900000Y-75637500D03*
X86900000Y-77562500D03*
X89200000Y-75637500D03*
X89200000Y-77562500D03*
D12*
X86950000Y-72150000D03*
X86950000Y-73100000D03*
X86950000Y-74050000D03*
X89150000Y-74050000D03*
X89150000Y-73100000D03*
X89150000Y-72150000D03*
D13*
X88600000Y-70550000D03*
X88600000Y-68650000D03*
X86600000Y-69600000D03*
D14*
X102920000Y-80650000D03*
X104190000Y-80650000D03*
X105460000Y-80650000D03*
X106730000Y-80650000D03*
X108000000Y-80650000D03*
X109270000Y-80650000D03*
X110540000Y-80650000D03*
X111810000Y-80650000D03*
X113080000Y-80650000D03*
X113080000Y-71350000D03*
X111810000Y-71350000D03*
X110540000Y-71350000D03*
X109270000Y-71350000D03*
X108000000Y-71350000D03*
X106730000Y-71350000D03*
X105460000Y-71350000D03*
X104190000Y-71350000D03*
X102920000Y-71350000D03*
D15*
X105775000Y-105750000D03*
X104225000Y-105750000D03*
D16*
X110345099Y-96449999D03*
X110345099Y-97749999D03*
X110345099Y-99049999D03*
X109145102Y-96449999D03*
X109145102Y-97749999D03*
X109145102Y-99049999D03*
D17*
X107595102Y-96449999D03*
X105995102Y-96449999D03*
X104395102Y-96449999D03*
D16*
X102845102Y-96449999D03*
X102845102Y-97749999D03*
X102845102Y-99049999D03*
X101645102Y-96449999D03*
X101645102Y-97749999D03*
X101645102Y-99049999D03*
X102845102Y-100950000D03*
X102845102Y-102250000D03*
X102845102Y-103550000D03*
X101645102Y-100950000D03*
X101645102Y-102250000D03*
X101645102Y-103550000D03*
D17*
X104395102Y-103550000D03*
X105995102Y-103550000D03*
X107595102Y-103550000D03*
D16*
X109145102Y-103550000D03*
X109145102Y-102250000D03*
X109145102Y-100950000D03*
X110345102Y-103550000D03*
X110345102Y-102250000D03*
X110345102Y-100950000D03*
D18*
X107295099Y-98499999D03*
D19*
X105995099Y-98499999D03*
X104695099Y-98499999D03*
X107295099Y-100000000D03*
X105995099Y-100000000D03*
X104695099Y-100000000D03*
X107295099Y-101500000D03*
X105995099Y-101500000D03*
X104695099Y-101500000D03*
D20*
X105425000Y-91750000D03*
X107075000Y-91750000D03*
D21*
X112250000Y-84150000D03*
X110050000Y-84150000D03*
X110050000Y-85850000D03*
X112250000Y-85850000D03*
D22*
X108150000Y-84225000D03*
X108150000Y-85775000D03*
D23*
X111000000Y-92525000D03*
X111000000Y-90975000D03*
D24*
X105825000Y-69000000D03*
X104175000Y-69000000D03*
D25*
X103464999Y-87905000D03*
X103464999Y-86635000D03*
X103464999Y-85365000D03*
X103464999Y-84095000D03*
X98535001Y-84095000D03*
X98535001Y-85365000D03*
X98535001Y-86635000D03*
X98535001Y-87905000D03*
D24*
X107075000Y-94000000D03*
X105425000Y-94000000D03*
D23*
X114150000Y-85775000D03*
X114150000Y-84225000D03*
D24*
X109325000Y-105750000D03*
X107675000Y-105750000D03*
M02*
