%TF.GenerationSoftware,KiCad,Pcbnew,6.0.0*%
%TF.CreationDate,2022-01-12T19:51:10-05:00*%
%TF.ProjectId,sensor-board,73656e73-6f72-42d6-926f-6172642e6b69,-1*%
%TF.SameCoordinates,Original*%
%TF.FileFunction,Legend,Bot*%
%TF.FilePolarity,Positive*%
%FSLAX46Y46*%
G04 Gerber Fmt 4.6, Leading zero omitted, Abs format (unit mm)*
G04 Created by KiCad (PCBNEW 6.0.0) date 2022-01-12 19:51:10*
%MOMM*%
%LPD*%
G01*
G04 APERTURE LIST*
G04 Aperture macros list*
%AMRoundRect*
0 Rectangle with rounded corners*
0 $1 Rounding radius*
0 $2 $3 $4 $5 $6 $7 $8 $9 X,Y pos of 4 corners*
0 Add a 4 corners polygon primitive as box body*
4,1,4,$2,$3,$4,$5,$6,$7,$8,$9,$2,$3,0*
0 Add four circle primitives for the rounded corners*
1,1,$1+$1,$2,$3*
1,1,$1+$1,$4,$5*
1,1,$1+$1,$6,$7*
1,1,$1+$1,$8,$9*
0 Add four rect primitives between the rounded corners*
20,1,$1+$1,$2,$3,$4,$5,0*
20,1,$1+$1,$4,$5,$6,$7,0*
20,1,$1+$1,$6,$7,$8,$9,0*
20,1,$1+$1,$8,$9,$2,$3,0*%
G04 Aperture macros list end*
%ADD10C,0.150000*%
%ADD11C,2.032000*%
%ADD12C,2.700000*%
%ADD13C,4.000000*%
%ADD14C,3.200000*%
%ADD15C,0.600000*%
%ADD16R,1.700000X1.700000*%
%ADD17O,1.700000X1.700000*%
%ADD18RoundRect,0.625000X-0.625000X1.875000X-0.625000X-1.875000X0.625000X-1.875000X0.625000X1.875000X0*%
G04 APERTURE END LIST*
D10*
X124787979Y-83017476D02*
X124787979Y-83588904D01*
X124787979Y-83303190D02*
X123787979Y-83303190D01*
X123930837Y-83398428D01*
X124026075Y-83493666D01*
X124073694Y-83588904D01*
X123787979Y-82398428D02*
X123787979Y-82303190D01*
X123835599Y-82207952D01*
X123883218Y-82160333D01*
X123978456Y-82112714D01*
X124168932Y-82065095D01*
X124407027Y-82065095D01*
X124597503Y-82112714D01*
X124692741Y-82160333D01*
X124740360Y-82207952D01*
X124787979Y-82303190D01*
X124787979Y-82398428D01*
X124740360Y-82493666D01*
X124692741Y-82541285D01*
X124597503Y-82588904D01*
X124407027Y-82636523D01*
X124168932Y-82636523D01*
X123978456Y-82588904D01*
X123883218Y-82541285D01*
X123835599Y-82493666D01*
X123787979Y-82398428D01*
X114758695Y-92594379D02*
X114758695Y-91594379D01*
X115330123Y-92594379D02*
X114901552Y-92022951D01*
X115330123Y-91594379D02*
X114758695Y-92165808D01*
X117587980Y-82541285D02*
X117587980Y-83112714D01*
X117587980Y-82827000D02*
X116587980Y-82827000D01*
X116730838Y-82922238D01*
X116826076Y-83017476D01*
X116873695Y-83112714D01*
X114782504Y-85108666D02*
X115258695Y-85108666D01*
X114687266Y-85394380D02*
X115020600Y-84394380D01*
X115353933Y-85394380D01*
%LPC*%
D11*
X126708456Y-151300000D03*
X129248456Y-151300000D03*
D12*
X118043933Y-40242000D03*
D13*
X121993933Y-49242000D03*
X114093933Y-49242000D03*
D14*
X155500000Y-99500000D03*
D11*
X214294172Y-151300000D03*
X216834172Y-151300000D03*
X192397740Y-151300000D03*
X194937740Y-151300000D03*
D14*
X64000000Y-160000000D03*
D11*
X72989600Y-67089000D03*
X72989600Y-69629000D03*
X72989600Y-72169000D03*
X72989600Y-74709000D03*
D14*
X227000000Y-39000000D03*
D11*
X73014600Y-49109000D03*
X73014600Y-51649000D03*
X73014600Y-54189000D03*
X73014600Y-56729000D03*
X205957600Y-134946000D03*
X205957600Y-132406000D03*
D12*
X212085600Y-40242000D03*
D13*
X216035600Y-49242000D03*
X208135600Y-49242000D03*
D15*
X212302268Y-62842000D03*
X212302268Y-63842000D03*
X210302268Y-62842000D03*
X212302268Y-64842000D03*
X211302268Y-62842000D03*
X211302268Y-63842000D03*
X210302268Y-63842000D03*
X210302268Y-64842000D03*
X211302268Y-64842000D03*
D11*
X205957600Y-82688000D03*
X205957600Y-80148000D03*
D15*
X97485600Y-64842000D03*
X99485600Y-63842000D03*
X97485600Y-63842000D03*
X97485600Y-62842000D03*
X99485600Y-64842000D03*
X99485600Y-62842000D03*
X98485600Y-64842000D03*
X98485600Y-62842000D03*
X98485600Y-63842000D03*
D11*
X73240790Y-139009000D03*
X73240790Y-141549000D03*
X73240790Y-144089000D03*
X73240790Y-146629000D03*
D12*
X174468932Y-40242000D03*
D13*
X178418932Y-49242000D03*
X170518932Y-49242000D03*
D12*
X155660599Y-40242000D03*
D13*
X159610599Y-49242000D03*
X151710599Y-49242000D03*
D11*
X137656670Y-151300000D03*
X140196670Y-151300000D03*
D16*
X184600000Y-96920000D03*
D17*
X184600000Y-99460000D03*
X184600000Y-102000000D03*
X184600000Y-104540000D03*
D11*
X82915600Y-151300000D03*
X85455600Y-151300000D03*
X181449526Y-151300000D03*
X183989526Y-151300000D03*
X104812028Y-151300000D03*
X107352028Y-151300000D03*
D15*
X155910599Y-63842000D03*
X155910599Y-62842000D03*
X153910599Y-63842000D03*
X153910599Y-62842000D03*
X154910599Y-64842000D03*
X154910599Y-63842000D03*
X155910599Y-64842000D03*
X154910599Y-62842000D03*
X153910599Y-64842000D03*
D18*
X205875000Y-101793333D03*
X205875000Y-93893333D03*
D12*
X99235600Y-40242000D03*
D13*
X103185600Y-49242000D03*
X95285600Y-49242000D03*
D14*
X227000000Y-160000000D03*
D11*
X73014600Y-103049000D03*
X73014600Y-105589000D03*
X73014600Y-108129000D03*
X73014600Y-110669000D03*
D15*
X137102266Y-62842000D03*
X137102266Y-64842000D03*
X136102266Y-63842000D03*
X135102266Y-64842000D03*
X135102266Y-63842000D03*
X137102266Y-63842000D03*
X136102266Y-64842000D03*
X135102266Y-62842000D03*
X136102266Y-62842000D03*
X191493933Y-62842000D03*
X193493933Y-63842000D03*
X192493933Y-62842000D03*
X191493933Y-63842000D03*
X192493933Y-63842000D03*
X192493933Y-64842000D03*
X193493933Y-64842000D03*
X191493933Y-64842000D03*
X193493933Y-62842000D03*
D12*
X193277265Y-40242000D03*
D13*
X197227265Y-49242000D03*
X189327265Y-49242000D03*
D11*
X73014600Y-85069000D03*
X73014600Y-87609000D03*
X73014600Y-90149000D03*
X73014600Y-92689000D03*
D14*
X64000000Y-39000000D03*
D11*
X93863814Y-151300000D03*
X96403814Y-151300000D03*
X115760242Y-151300000D03*
X118300242Y-151300000D03*
X148604884Y-151300000D03*
X151144884Y-151300000D03*
X159553098Y-151300000D03*
X162093098Y-151300000D03*
D18*
X205957600Y-121200666D03*
X205957600Y-113300666D03*
D11*
X170501312Y-151300000D03*
X173041312Y-151300000D03*
D15*
X173685600Y-62842000D03*
X172685600Y-62842000D03*
X174685600Y-63842000D03*
X174685600Y-62842000D03*
X173685600Y-64842000D03*
X172685600Y-63842000D03*
X172685600Y-64842000D03*
X173685600Y-63842000D03*
X174685600Y-64842000D03*
X118293933Y-64842000D03*
X118293933Y-62842000D03*
X116293933Y-62842000D03*
X117293933Y-62842000D03*
X117293933Y-63842000D03*
X117293933Y-64842000D03*
X116293933Y-64842000D03*
X118293933Y-63842000D03*
X116293933Y-63842000D03*
D11*
X73240790Y-121029000D03*
X73240790Y-123569000D03*
X73240790Y-126109000D03*
X73240790Y-128649000D03*
D12*
X136852266Y-40242000D03*
D13*
X140802266Y-49242000D03*
X132902266Y-49242000D03*
D11*
X203345954Y-151300000D03*
X205885954Y-151300000D03*
M02*
