%TF.GenerationSoftware,KiCad,Pcbnew,6.0.0*%
%TF.CreationDate,2022-01-12T19:51:09-05:00*%
%TF.ProjectId,sensor-board,73656e73-6f72-42d6-926f-6172642e6b69,-1*%
%TF.SameCoordinates,Original*%
%TF.FileFunction,Copper,L3,Inr*%
%TF.FilePolarity,Positive*%
%FSLAX46Y46*%
G04 Gerber Fmt 4.6, Leading zero omitted, Abs format (unit mm)*
G04 Created by KiCad (PCBNEW 6.0.0) date 2022-01-12 19:51:09*
%MOMM*%
%LPD*%
G01*
G04 APERTURE LIST*
G04 Aperture macros list*
%AMRoundRect*
0 Rectangle with rounded corners*
0 $1 Rounding radius*
0 $2 $3 $4 $5 $6 $7 $8 $9 X,Y pos of 4 corners*
0 Add a 4 corners polygon primitive as box body*
4,1,4,$2,$3,$4,$5,$6,$7,$8,$9,$2,$3,0*
0 Add four circle primitives for the rounded corners*
1,1,$1+$1,$2,$3*
1,1,$1+$1,$4,$5*
1,1,$1+$1,$6,$7*
1,1,$1+$1,$8,$9*
0 Add four rect primitives between the rounded corners*
20,1,$1+$1,$2,$3,$4,$5,0*
20,1,$1+$1,$4,$5,$6,$7,0*
20,1,$1+$1,$6,$7,$8,$9,0*
20,1,$1+$1,$8,$9,$2,$3,0*%
G04 Aperture macros list end*
%TA.AperFunction,ComponentPad*%
%ADD10C,2.032000*%
%TD*%
%TA.AperFunction,ComponentPad*%
%ADD11C,4.000000*%
%TD*%
%TA.AperFunction,HeatsinkPad*%
%ADD12C,0.600000*%
%TD*%
%TA.AperFunction,ComponentPad*%
%ADD13R,1.700000X1.700000*%
%TD*%
%TA.AperFunction,ComponentPad*%
%ADD14O,1.700000X1.700000*%
%TD*%
%TA.AperFunction,ComponentPad*%
%ADD15RoundRect,0.625000X-0.625000X1.875000X-0.625000X-1.875000X0.625000X-1.875000X0.625000X1.875000X0*%
%TD*%
%TA.AperFunction,ViaPad*%
%ADD16C,0.400000*%
%TD*%
%TA.AperFunction,Conductor*%
%ADD17C,0.800000*%
%TD*%
%TA.AperFunction,Conductor*%
%ADD18C,0.250000*%
%TD*%
%TA.AperFunction,Conductor*%
%ADD19C,0.300000*%
%TD*%
G04 APERTURE END LIST*
D10*
X126708456Y-151300000D03*
X129248456Y-151300000D03*
D11*
X121993933Y-49242000D03*
X114093933Y-49242000D03*
D10*
X214294172Y-151300000D03*
X216834172Y-151300000D03*
X192397740Y-151300000D03*
X194937740Y-151300000D03*
X72989600Y-67089000D03*
X72989600Y-69629000D03*
X72989600Y-72169000D03*
X72989600Y-74709000D03*
X73014600Y-49109000D03*
X73014600Y-51649000D03*
X73014600Y-54189000D03*
X73014600Y-56729000D03*
X205957600Y-134946000D03*
X205957600Y-132406000D03*
D11*
X216035600Y-49242000D03*
X208135600Y-49242000D03*
D12*
X212302268Y-62842000D03*
X212302268Y-63842000D03*
X210302268Y-62842000D03*
X212302268Y-64842000D03*
X211302268Y-62842000D03*
X211302268Y-63842000D03*
X210302268Y-63842000D03*
X210302268Y-64842000D03*
X211302268Y-64842000D03*
D10*
X205957600Y-82688000D03*
X205957600Y-80148000D03*
D12*
X97485600Y-64842000D03*
X99485600Y-63842000D03*
X97485600Y-63842000D03*
X97485600Y-62842000D03*
X99485600Y-64842000D03*
X99485600Y-62842000D03*
X98485600Y-64842000D03*
X98485600Y-62842000D03*
X98485600Y-63842000D03*
D10*
X73240790Y-139009000D03*
X73240790Y-141549000D03*
X73240790Y-144089000D03*
X73240790Y-146629000D03*
D11*
X178418932Y-49242000D03*
X170518932Y-49242000D03*
X159610599Y-49242000D03*
X151710599Y-49242000D03*
D10*
X137656670Y-151300000D03*
X140196670Y-151300000D03*
D13*
X184600000Y-96920000D03*
D14*
X184600000Y-99460000D03*
X184600000Y-102000000D03*
X184600000Y-104540000D03*
D10*
X82915600Y-151300000D03*
X85455600Y-151300000D03*
X181449526Y-151300000D03*
X183989526Y-151300000D03*
X104812028Y-151300000D03*
X107352028Y-151300000D03*
D12*
X155910599Y-63842000D03*
X155910599Y-62842000D03*
X153910599Y-63842000D03*
X153910599Y-62842000D03*
X154910599Y-64842000D03*
X154910599Y-63842000D03*
X155910599Y-64842000D03*
X154910599Y-62842000D03*
X153910599Y-64842000D03*
D15*
X205875000Y-101793333D03*
X205875000Y-93893333D03*
D11*
X103185600Y-49242000D03*
X95285600Y-49242000D03*
D10*
X73014600Y-103049000D03*
X73014600Y-105589000D03*
X73014600Y-108129000D03*
X73014600Y-110669000D03*
D12*
X137102266Y-62842000D03*
X137102266Y-64842000D03*
X136102266Y-63842000D03*
X135102266Y-64842000D03*
X135102266Y-63842000D03*
X137102266Y-63842000D03*
X136102266Y-64842000D03*
X135102266Y-62842000D03*
X136102266Y-62842000D03*
X191493933Y-62842000D03*
X193493933Y-63842000D03*
X192493933Y-62842000D03*
X191493933Y-63842000D03*
X192493933Y-63842000D03*
X192493933Y-64842000D03*
X193493933Y-64842000D03*
X191493933Y-64842000D03*
X193493933Y-62842000D03*
D11*
X197227265Y-49242000D03*
X189327265Y-49242000D03*
D10*
X73014600Y-85069000D03*
X73014600Y-87609000D03*
X73014600Y-90149000D03*
X73014600Y-92689000D03*
X93863814Y-151300000D03*
X96403814Y-151300000D03*
X115760242Y-151300000D03*
X118300242Y-151300000D03*
X148604884Y-151300000D03*
X151144884Y-151300000D03*
X159553098Y-151300000D03*
X162093098Y-151300000D03*
D15*
X205957600Y-121200666D03*
X205957600Y-113300666D03*
D10*
X170501312Y-151300000D03*
X173041312Y-151300000D03*
D12*
X173685600Y-62842000D03*
X172685600Y-62842000D03*
X174685600Y-63842000D03*
X174685600Y-62842000D03*
X173685600Y-64842000D03*
X172685600Y-63842000D03*
X172685600Y-64842000D03*
X173685600Y-63842000D03*
X174685600Y-64842000D03*
X118293933Y-64842000D03*
X118293933Y-62842000D03*
X116293933Y-62842000D03*
X117293933Y-62842000D03*
X117293933Y-63842000D03*
X117293933Y-64842000D03*
X116293933Y-64842000D03*
X118293933Y-63842000D03*
X116293933Y-63842000D03*
D10*
X73240790Y-121029000D03*
X73240790Y-123569000D03*
X73240790Y-126109000D03*
X73240790Y-128649000D03*
D11*
X140802266Y-49242000D03*
X132902266Y-49242000D03*
D10*
X203345954Y-151300000D03*
X205885954Y-151300000D03*
D16*
X112500000Y-120000000D03*
X195000000Y-105000000D03*
X197500000Y-42500000D03*
X182500000Y-157500000D03*
X174500000Y-56000000D03*
X222500000Y-112500000D03*
X162500000Y-75000000D03*
X190000000Y-139700000D03*
X217500000Y-117500000D03*
X135000000Y-77500000D03*
X191600000Y-135800000D03*
X134710600Y-136951000D03*
X127500000Y-42500000D03*
X127500000Y-110000000D03*
X100000000Y-85000000D03*
X108500000Y-71500000D03*
X195000000Y-130000000D03*
X118000000Y-56000000D03*
X62500000Y-57500000D03*
X80500000Y-80000000D03*
X87500000Y-120000000D03*
X157500000Y-105000000D03*
X155500000Y-56000000D03*
X120735600Y-88542000D03*
X127500000Y-125000000D03*
X69000000Y-43600000D03*
X225000000Y-72500000D03*
X112400000Y-140000000D03*
X114235600Y-148350000D03*
X217500000Y-132500000D03*
X202000000Y-73000000D03*
X152500000Y-80000000D03*
X217500000Y-97500000D03*
X99000000Y-56000000D03*
X77500000Y-157500000D03*
X200000000Y-110000000D03*
X177500000Y-122500000D03*
X127500000Y-105000000D03*
X152500000Y-125000000D03*
X80500000Y-60500000D03*
X225000000Y-67500000D03*
X200000000Y-115000000D03*
X191926600Y-81103000D03*
X217500000Y-102500000D03*
X116735600Y-90142000D03*
X95000000Y-100000000D03*
X77500000Y-42500000D03*
X129500000Y-74000000D03*
X222500000Y-152500000D03*
X193500000Y-56000000D03*
X157500000Y-80000000D03*
X225000000Y-62500000D03*
X220260600Y-148275000D03*
X87500000Y-157500000D03*
X160000000Y-135000000D03*
X102500000Y-157500000D03*
X212500000Y-157500000D03*
X122500000Y-135000000D03*
X62500000Y-77500000D03*
X157500000Y-137500000D03*
X62500000Y-87500000D03*
X217500000Y-87500000D03*
X147500000Y-157500000D03*
X142500000Y-157500000D03*
X142500000Y-75000000D03*
X222500000Y-107500000D03*
X121535600Y-88542000D03*
X190000000Y-95000000D03*
X140000000Y-77500000D03*
X81000000Y-143000000D03*
X62500000Y-112500000D03*
X140000000Y-125000000D03*
X152500000Y-135000000D03*
X162500000Y-157500000D03*
X75500000Y-79500000D03*
X62500000Y-117500000D03*
X167700000Y-139700000D03*
X81435600Y-148350000D03*
X172500000Y-80000000D03*
X127500000Y-135000000D03*
X62500000Y-137500000D03*
X80000000Y-67500000D03*
X202500000Y-56000000D03*
X62500000Y-72500000D03*
X62500000Y-127500000D03*
X83275600Y-134663000D03*
X110000000Y-42500000D03*
X125235600Y-148350000D03*
X221600000Y-46400000D03*
X62500000Y-67500000D03*
X100000000Y-112500000D03*
X197500000Y-157500000D03*
X195000000Y-100000000D03*
X62500000Y-107500000D03*
X119343600Y-101242500D03*
X119300000Y-140000000D03*
X140000000Y-100000000D03*
X177500000Y-100000000D03*
X157500000Y-125000000D03*
X86500000Y-98500000D03*
X212000000Y-56000000D03*
X122500000Y-125000000D03*
X100000000Y-115000000D03*
X92500000Y-115000000D03*
X180000000Y-42500000D03*
X144200000Y-148100000D03*
X177500000Y-80000000D03*
X137500000Y-157500000D03*
X172500000Y-157500000D03*
X122500000Y-130000000D03*
X217500000Y-127500000D03*
X95000000Y-85000000D03*
X152500000Y-90000000D03*
X84000000Y-138000000D03*
X62500000Y-82500000D03*
X94000000Y-95000000D03*
X222500000Y-102500000D03*
X62500000Y-97500000D03*
X200000000Y-100000000D03*
X146500000Y-56000000D03*
X77500000Y-152500000D03*
X142500000Y-80000000D03*
X100000000Y-100000000D03*
X165700000Y-148600000D03*
X95000000Y-80000000D03*
X188802400Y-88159400D03*
X140000000Y-115000000D03*
X152500000Y-110000000D03*
X117535600Y-86142000D03*
X105000000Y-42500000D03*
X117500000Y-135000000D03*
X222500000Y-132500000D03*
X152500000Y-115000000D03*
X157500000Y-115000000D03*
X147500000Y-130000000D03*
X170000000Y-42500000D03*
X165000000Y-56000000D03*
X83000000Y-49500000D03*
X185000000Y-122500000D03*
X133000000Y-148700000D03*
X209210600Y-148275000D03*
X152500000Y-137500000D03*
X202500000Y-157500000D03*
X222500000Y-77500000D03*
X132500000Y-157500000D03*
X165000000Y-42500000D03*
X127500000Y-120000000D03*
X87835600Y-92919000D03*
X200000000Y-105000000D03*
X74000000Y-97500000D03*
X152500000Y-130000000D03*
X132500000Y-42500000D03*
X119935600Y-88542000D03*
X128000000Y-56000000D03*
X172500000Y-95000000D03*
X222500000Y-92500000D03*
X177500000Y-85000000D03*
X117500000Y-125000000D03*
X112500000Y-157500000D03*
X195000000Y-110000000D03*
X182500000Y-75000000D03*
X122200000Y-146500000D03*
X177500000Y-110000000D03*
X62500000Y-62500000D03*
X217500000Y-112500000D03*
X97500000Y-157500000D03*
X103235600Y-148350000D03*
X127500000Y-157500000D03*
X198160600Y-148275000D03*
X111600000Y-147100000D03*
X172500000Y-90000000D03*
X217500000Y-137500000D03*
X222500000Y-147500000D03*
X177500000Y-95000000D03*
X190000000Y-105000000D03*
X222500000Y-117500000D03*
X140000000Y-120000000D03*
X172500000Y-110000000D03*
X222500000Y-142500000D03*
X140000000Y-105000000D03*
X182500000Y-110000000D03*
X172458600Y-131490000D03*
X217500000Y-107500000D03*
X82500000Y-42500000D03*
X157500000Y-157500000D03*
X162500000Y-80000000D03*
X157500000Y-110000000D03*
X147500000Y-80000000D03*
X67500000Y-152500000D03*
X217500000Y-42500000D03*
X92435600Y-148350000D03*
X147500000Y-75000000D03*
X87000000Y-90500000D03*
X217500000Y-157500000D03*
X157500000Y-120000000D03*
X92500000Y-42500000D03*
X80000000Y-72500000D03*
X62500000Y-102500000D03*
X188802400Y-79553600D03*
X93308600Y-136951000D03*
X122500000Y-120000000D03*
X62500000Y-52500000D03*
X147235600Y-148350000D03*
X167500000Y-157500000D03*
X100000000Y-120000000D03*
X163900000Y-144400000D03*
X108500000Y-56000000D03*
X62500000Y-152500000D03*
X112500000Y-135000000D03*
X167500000Y-80000000D03*
X172500000Y-85000000D03*
X142500000Y-125000000D03*
X160800000Y-144100000D03*
X225000000Y-52500000D03*
X207500000Y-157500000D03*
X117500000Y-157500000D03*
X152500000Y-157500000D03*
X128600000Y-140000000D03*
X185000000Y-139700000D03*
X127500000Y-115000000D03*
X195000000Y-88215000D03*
X158035600Y-148350000D03*
X160000000Y-125000000D03*
X146000000Y-70500000D03*
X207500000Y-42500000D03*
X192500000Y-157500000D03*
X87500000Y-115000000D03*
X62500000Y-132500000D03*
X157500000Y-135000000D03*
X152500000Y-105000000D03*
X222500000Y-137500000D03*
X94000000Y-90000000D03*
X217500000Y-122500000D03*
X92500000Y-120000000D03*
X225000000Y-77500000D03*
X147500000Y-120000000D03*
X62500000Y-122500000D03*
X136235600Y-148350000D03*
X190000000Y-100000000D03*
X62500000Y-92500000D03*
X181573600Y-115107000D03*
X187500000Y-157500000D03*
X62500000Y-142500000D03*
X217500000Y-92500000D03*
X222500000Y-87500000D03*
X131400000Y-144800000D03*
X155200000Y-147100000D03*
X112275000Y-113425000D03*
X217500000Y-82500000D03*
X90500000Y-135000000D03*
X107500000Y-157500000D03*
X187210600Y-148275000D03*
X185000000Y-42500000D03*
X222500000Y-97500000D03*
X171100000Y-142900000D03*
X99000000Y-129500000D03*
X127500000Y-130000000D03*
X76000000Y-116000000D03*
X202500000Y-137500000D03*
X112385600Y-82142000D03*
X100000000Y-122500000D03*
X122500000Y-42500000D03*
X140000000Y-95000000D03*
X200000000Y-90000000D03*
X72500000Y-42500000D03*
X100000000Y-80000000D03*
X169106600Y-148279000D03*
X184000000Y-56000000D03*
X90000000Y-146000000D03*
X100000000Y-105000000D03*
X117500000Y-130000000D03*
X147500000Y-125000000D03*
X147500000Y-42500000D03*
X92500000Y-157500000D03*
X195000000Y-95000000D03*
X142500000Y-42500000D03*
X160000000Y-130000000D03*
X222500000Y-122500000D03*
X117500000Y-120000000D03*
X160000000Y-120000000D03*
X160000000Y-42500000D03*
X62500000Y-47500000D03*
X142500000Y-120000000D03*
X225000000Y-47500000D03*
X112500000Y-125000000D03*
X83000000Y-54500000D03*
X222500000Y-82500000D03*
X136500000Y-56000000D03*
X82500000Y-157500000D03*
X87500000Y-42500000D03*
X112500000Y-130000000D03*
X62500000Y-147500000D03*
X202500000Y-42500000D03*
X225000000Y-57500000D03*
X152500000Y-120000000D03*
X177500000Y-157500000D03*
X177500000Y-90000000D03*
X190000000Y-110000000D03*
X200000000Y-95000000D03*
X122500000Y-157500000D03*
X222500000Y-127500000D03*
X157500000Y-90000000D03*
X167500000Y-110000000D03*
X157500000Y-130000000D03*
X72500000Y-152500000D03*
X105335600Y-78117000D03*
X172500000Y-100000000D03*
X196885600Y-64242000D03*
X87835600Y-102226925D03*
X119935600Y-89342000D03*
X119343600Y-96810500D03*
X118467600Y-97940500D03*
X124677600Y-96810500D03*
X123801600Y-97940500D03*
X140485600Y-64242000D03*
X121535600Y-89342000D03*
X120245600Y-97940500D03*
X150635600Y-60142000D03*
X172048600Y-117647000D03*
X215685600Y-64242000D03*
X112231600Y-101382500D03*
X94235600Y-60142000D03*
X120735600Y-89342000D03*
X122899600Y-96810500D03*
X121121600Y-96810500D03*
X131835600Y-60142000D03*
X121685600Y-64242000D03*
X188235600Y-60142000D03*
X117535600Y-86942000D03*
X169435600Y-60142000D03*
X145126600Y-136951000D03*
X122023600Y-97940500D03*
X192876600Y-88199800D03*
X117565600Y-96810500D03*
X102885600Y-64242000D03*
X178085600Y-64242000D03*
X115787600Y-96810500D03*
X181163600Y-131490000D03*
X159285600Y-64242000D03*
X83275600Y-125265000D03*
X119135600Y-89342000D03*
X118962600Y-77481000D03*
X113035600Y-60142000D03*
X116689600Y-97940500D03*
X117535600Y-85342000D03*
X103724600Y-136951000D03*
X180771600Y-136000000D03*
X214294172Y-148279000D03*
X180735600Y-127207000D03*
X203345954Y-148279000D03*
X172735600Y-127207000D03*
X192397740Y-148279000D03*
X172771600Y-135800000D03*
X181449526Y-148279000D03*
X85307600Y-70401000D03*
X82513600Y-69639000D03*
X117535600Y-90142000D03*
X83529600Y-98849000D03*
X88863600Y-103929000D03*
X91657600Y-102913000D03*
X117535600Y-90942000D03*
X96438600Y-133141000D03*
X117535600Y-91742000D03*
X96438400Y-140766800D03*
X118335600Y-92542000D03*
X138035600Y-90542000D03*
X119135600Y-90942000D03*
X217335600Y-69392000D03*
X209672600Y-68242000D03*
X160935600Y-69392000D03*
X153284600Y-68242000D03*
X104535600Y-69392000D03*
X96896600Y-68242000D03*
X198535600Y-69392000D03*
X190876600Y-68242000D03*
X142135600Y-69392000D03*
X134488600Y-68242000D03*
X179735600Y-69392000D03*
X172080600Y-68242000D03*
X115692600Y-68242000D03*
X123335600Y-69392000D03*
X105135600Y-89742000D03*
X116735600Y-88542000D03*
X117535600Y-88542000D03*
X79465600Y-126788800D03*
X115335600Y-94892000D03*
X117535600Y-87742000D03*
X79465600Y-132528800D03*
X118335600Y-88542000D03*
X146664000Y-109600000D03*
X116735600Y-91742000D03*
X118335600Y-89342000D03*
X102178400Y-140766800D03*
X112485600Y-94892000D03*
X113685600Y-89742000D03*
X102178600Y-133141000D03*
X118335600Y-90942000D03*
X116335600Y-94892000D03*
X143549400Y-140766800D03*
X118335600Y-91742000D03*
X143549600Y-133141000D03*
X119135600Y-91742000D03*
X119135600Y-90142000D03*
X142600000Y-109600000D03*
X119935600Y-91742000D03*
X137809600Y-133141000D03*
X137809400Y-140766800D03*
X119935600Y-92542000D03*
X121535600Y-91742000D03*
X121535600Y-92542000D03*
X123935600Y-85342000D03*
X123135600Y-85342000D03*
X114335600Y-64442000D03*
X170735600Y-64442000D03*
X151935600Y-64442000D03*
X121629600Y-75449000D03*
X127090600Y-67321000D03*
X95535600Y-64442000D03*
X127090600Y-65797000D03*
X189535600Y-64442000D03*
X133135600Y-64442000D03*
X208335600Y-64442000D03*
X189535600Y-65042000D03*
X208335600Y-65042000D03*
X121629600Y-79513000D03*
X114335600Y-65042000D03*
X151935600Y-65042000D03*
X95535600Y-65042000D03*
X133135600Y-65042000D03*
X170735600Y-65042000D03*
X172048600Y-115107000D03*
X123935600Y-86142000D03*
X123935600Y-86942000D03*
X172048600Y-118917000D03*
X119935600Y-85342000D03*
X124285600Y-79502000D03*
X119935600Y-86142000D03*
X124296600Y-75449000D03*
X116735600Y-86142000D03*
X116735600Y-86942000D03*
X119935600Y-87742000D03*
X126455600Y-96810500D03*
X127090600Y-88530000D03*
X116735600Y-87742000D03*
X108985600Y-88892000D03*
D17*
X181192600Y-131490000D02*
X181163600Y-131490000D01*
X102175000Y-109925000D02*
X86950000Y-109925000D01*
X86188000Y-109925000D02*
X86061000Y-109925000D01*
X116105100Y-100419900D02*
X115142500Y-101382500D01*
X106192500Y-101382500D02*
X113317500Y-101382500D01*
X215685600Y-64242000D02*
X215685600Y-60842000D01*
D18*
X119135600Y-89342000D02*
X119139600Y-89342000D01*
D19*
X114585600Y-95608500D02*
X115787600Y-96810500D01*
D17*
X102885600Y-60542000D02*
X103285600Y-60142000D01*
D19*
X116135600Y-85342000D02*
X114585600Y-86892000D01*
D18*
X119724600Y-94753000D02*
X119343600Y-95134000D01*
X121502600Y-95515000D02*
X121121600Y-95896000D01*
X121121600Y-95896000D02*
X121121600Y-96810500D01*
D17*
X150635600Y-60142000D02*
X159285600Y-60142000D01*
X121685600Y-60542000D02*
X121285600Y-60142000D01*
X121685600Y-60542000D02*
X122085600Y-60142000D01*
X196051600Y-65076000D02*
X196051600Y-80910000D01*
X192876600Y-84085000D02*
X192876600Y-88199800D01*
D19*
X117535600Y-85342000D02*
X116135600Y-85342000D01*
D17*
X82513600Y-111061400D02*
X82513600Y-111288600D01*
X86569000Y-109544000D02*
X86950000Y-109925000D01*
D18*
X122772600Y-94118000D02*
X122137600Y-94753000D01*
D17*
X159285600Y-60142000D02*
X159285600Y-64242000D01*
X82513600Y-111288600D02*
X82513600Y-124363600D01*
X102485600Y-60142000D02*
X102285600Y-60142000D01*
X103724600Y-128299600D02*
X103724600Y-136951000D01*
X140485600Y-60542000D02*
X140085600Y-60142000D01*
X103285600Y-60142000D02*
X103435600Y-60142000D01*
X192876600Y-88199800D02*
X192876600Y-119806000D01*
X86569000Y-109544000D02*
X86569000Y-109925000D01*
X167984600Y-133141000D02*
X179512600Y-133141000D01*
X215685600Y-60842000D02*
X214985600Y-60142000D01*
X83650000Y-109925000D02*
X82513600Y-111061400D01*
X86061000Y-109925000D02*
X83650000Y-109925000D01*
X86577600Y-103484925D02*
X86577600Y-109771000D01*
X116105100Y-98436000D02*
X116105100Y-100419900D01*
X196885600Y-60542000D02*
X197285600Y-60142000D01*
D18*
X122695600Y-89342000D02*
X124042600Y-90689000D01*
D17*
X118962600Y-66965000D02*
X121685600Y-64242000D01*
X94235600Y-60142000D02*
X102285600Y-60142000D01*
D18*
X117565600Y-94372000D02*
X117565600Y-96810500D01*
D17*
X102885600Y-60542000D02*
X102485600Y-60142000D01*
D18*
X122137600Y-90689000D02*
X122772600Y-91324000D01*
D17*
X167222600Y-133141000D02*
X166968600Y-133141000D01*
X167603600Y-132760000D02*
X167222600Y-133141000D01*
X103435600Y-60142000D02*
X113035600Y-60142000D01*
X86569000Y-109544000D02*
X86188000Y-109925000D01*
X167984600Y-133141000D02*
X167603600Y-132760000D01*
X145126600Y-136951000D02*
X145126600Y-136949000D01*
X196885600Y-60542000D02*
X196485600Y-60142000D01*
X167603600Y-132760000D02*
X167603600Y-133141000D01*
D18*
X120735600Y-89342000D02*
X120735600Y-89414000D01*
D17*
X178085600Y-60142000D02*
X178085600Y-64242000D01*
D18*
X124042600Y-95007000D02*
X122899600Y-96150000D01*
D17*
X196051600Y-80910000D02*
X192876600Y-84085000D01*
D18*
X123407600Y-94499000D02*
X122391600Y-95515000D01*
D17*
X192876600Y-119806000D02*
X181192600Y-131490000D01*
D18*
X121375600Y-90054000D02*
X122391600Y-90054000D01*
D17*
X169635600Y-117647000D02*
X167603600Y-119679000D01*
D18*
X122899600Y-96150000D02*
X122899600Y-96810500D01*
D17*
X113317500Y-101382500D02*
X112231600Y-101382500D01*
X159285600Y-60542000D02*
X159685600Y-60142000D01*
D18*
X120735600Y-89414000D02*
X121375600Y-90054000D01*
X119343600Y-95134000D02*
X119343600Y-96810500D01*
D17*
X102550000Y-109925000D02*
X104200000Y-108275000D01*
X145126600Y-136951000D02*
X145124600Y-136951000D01*
X140485600Y-60142000D02*
X150635600Y-60142000D01*
X102885600Y-60142000D02*
X102885600Y-60542000D01*
X116626100Y-97915000D02*
X116105100Y-98436000D01*
X145124600Y-136951000D02*
X144108600Y-137967000D01*
X102175000Y-109925000D02*
X102550000Y-109925000D01*
X172048600Y-117647000D02*
X169635600Y-117647000D01*
X82513600Y-124363600D02*
X84050000Y-125900000D01*
X167603600Y-119679000D02*
X167603600Y-132760000D01*
D18*
X123407600Y-91070000D02*
X123407600Y-94499000D01*
X120359600Y-94118000D02*
X117819600Y-94118000D01*
D17*
X86950000Y-109925000D02*
X86569000Y-109925000D01*
X121685600Y-60142000D02*
X131835600Y-60142000D01*
X102885600Y-60542000D02*
X102885600Y-64242000D01*
D18*
X120740600Y-90943000D02*
X120740600Y-93737000D01*
X122137600Y-94753000D02*
X119724600Y-94753000D01*
X119139600Y-89342000D02*
X120740600Y-90943000D01*
D17*
X159285600Y-60542000D02*
X158885600Y-60142000D01*
D18*
X119935600Y-89342000D02*
X119935600Y-89376000D01*
X122391600Y-90054000D02*
X123407600Y-91070000D01*
D19*
X114585600Y-86892000D02*
X114585600Y-95608500D01*
X121692600Y-86942000D02*
X124677600Y-89927000D01*
D17*
X113035600Y-60142000D02*
X121685600Y-60142000D01*
X166968600Y-133141000D02*
X167603600Y-133141000D01*
X188235600Y-60142000D02*
X196885600Y-60142000D01*
X101325000Y-125900000D02*
X103724600Y-128299600D01*
X196885600Y-60142000D02*
X207035600Y-60142000D01*
X104200000Y-103375000D02*
X106192500Y-101382500D01*
X144108600Y-137967000D02*
X104738600Y-137967000D01*
X102885600Y-60142000D02*
X103435600Y-60142000D01*
X102535600Y-60142000D02*
X102885600Y-60142000D01*
D19*
X117535600Y-86942000D02*
X121692600Y-86942000D01*
D17*
X167603600Y-133141000D02*
X167984600Y-133141000D01*
X103724600Y-136953000D02*
X104738600Y-137967000D01*
D18*
X122391600Y-95515000D02*
X121502600Y-95515000D01*
D17*
X84050000Y-125900000D02*
X101325000Y-125900000D01*
X178085600Y-60542000D02*
X178485600Y-60142000D01*
D18*
X120740600Y-93737000D02*
X120359600Y-94118000D01*
D17*
X123738100Y-97915000D02*
X116626100Y-97915000D01*
X145126600Y-136949000D02*
X148934600Y-133141000D01*
D18*
X121248600Y-90689000D02*
X122137600Y-90689000D01*
D17*
X207035600Y-60142000D02*
X214985600Y-60142000D01*
X196885600Y-60142000D02*
X196885600Y-64242000D01*
X118962600Y-77481000D02*
X118962600Y-66965000D01*
X115142500Y-101382500D02*
X113317500Y-101382500D01*
X86569000Y-109925000D02*
X86061000Y-109925000D01*
X131835600Y-60142000D02*
X140485600Y-60142000D01*
D19*
X124677600Y-89927000D02*
X124677600Y-96810500D01*
D17*
X159285600Y-60142000D02*
X169435600Y-60142000D01*
X121685600Y-60142000D02*
X121685600Y-64242000D01*
X179512600Y-133141000D02*
X181163600Y-131490000D01*
X196885600Y-64242000D02*
X196051600Y-65076000D01*
X102285600Y-60142000D02*
X102535600Y-60142000D01*
X169435600Y-60142000D02*
X178085600Y-60142000D01*
D18*
X122772600Y-91324000D02*
X122772600Y-94118000D01*
X117819600Y-94118000D02*
X117565600Y-94372000D01*
D17*
X103724600Y-136951000D02*
X103724600Y-136953000D01*
D18*
X119935600Y-89376000D02*
X121248600Y-90689000D01*
D17*
X140485600Y-60142000D02*
X140485600Y-64242000D01*
X148934600Y-133141000D02*
X166968600Y-133141000D01*
X178085600Y-60142000D02*
X188235600Y-60142000D01*
X87835600Y-102226925D02*
X86577600Y-103484925D01*
X104200000Y-108275000D02*
X104200000Y-103375000D01*
D18*
X121535600Y-89342000D02*
X122695600Y-89342000D01*
D17*
X178085600Y-60542000D02*
X177685600Y-60142000D01*
X140485600Y-60542000D02*
X140885600Y-60142000D01*
D18*
X124042600Y-90689000D02*
X124042600Y-95007000D01*
D19*
X116985600Y-89092000D02*
X117535600Y-88542000D01*
X115335600Y-89592000D02*
X115835600Y-89092000D01*
X115835600Y-89092000D02*
X116985600Y-89092000D01*
X115335600Y-94892000D02*
X115335600Y-89592000D01*
X116235600Y-89642000D02*
X116035600Y-89842000D01*
X116035600Y-92992000D02*
X116335600Y-93292000D01*
X118335600Y-90942000D02*
X118335600Y-90192000D01*
X117785600Y-89642000D02*
X116235600Y-89642000D01*
X116335600Y-93292000D02*
X116335600Y-94892000D01*
X118335600Y-90192000D02*
X117785600Y-89642000D01*
X116035600Y-89842000D02*
X116035600Y-92992000D01*
D17*
X84535000Y-142440000D02*
X168591600Y-142440000D01*
X70575600Y-138219000D02*
X71365600Y-139009000D01*
X198337600Y-137332000D02*
X198337600Y-123412400D01*
X197575600Y-138094000D02*
X198337600Y-137332000D01*
X73240790Y-139009000D02*
X81132000Y-139009000D01*
X70575600Y-121455000D02*
X70575600Y-138219000D01*
X168591600Y-142440000D02*
X172937600Y-138094000D01*
X172937600Y-138094000D02*
X197575600Y-138094000D01*
X71083600Y-120947000D02*
X70575600Y-121455000D01*
X81132000Y-139009000D02*
X82825000Y-140702000D01*
X73240790Y-121029000D02*
X73158790Y-120947000D01*
X198337600Y-123412400D02*
X200549334Y-121200666D01*
X200549334Y-121200666D02*
X205957600Y-121200666D01*
X73158790Y-120947000D02*
X71083600Y-120947000D01*
X71365600Y-139009000D02*
X73240790Y-139009000D01*
X82825000Y-140730000D02*
X84535000Y-142440000D01*
X115760242Y-151300000D02*
X115760242Y-155084642D01*
X104865600Y-155112000D02*
X115787600Y-155112000D01*
X177255600Y-154096000D02*
X177255600Y-146222000D01*
X179541600Y-143936000D02*
X213069600Y-143936000D01*
X148604884Y-151300000D02*
X148604884Y-155060716D01*
X66575600Y-85069000D02*
X66511600Y-85133000D01*
X211243333Y-101793333D02*
X205875000Y-101793333D01*
X85561600Y-155112000D02*
X82767600Y-155112000D01*
X214593600Y-142412000D02*
X214593600Y-105143600D01*
X72896600Y-103167000D02*
X66511600Y-103167000D01*
X159221600Y-155112000D02*
X159475600Y-155112000D01*
X148604884Y-155060716D02*
X148553600Y-155112000D01*
X170397600Y-155112000D02*
X176239600Y-155112000D01*
X137656670Y-155086930D02*
X137631600Y-155112000D01*
X126709600Y-155112000D02*
X137631600Y-155112000D01*
X177255600Y-146222000D02*
X179541600Y-143936000D01*
X137631600Y-155112000D02*
X148553600Y-155112000D01*
X159221600Y-155112000D02*
X170397600Y-155112000D01*
X148553600Y-155112000D02*
X159221600Y-155112000D01*
X104812028Y-151300000D02*
X104812028Y-155058428D01*
X159553098Y-155034502D02*
X159475600Y-155112000D01*
X73014600Y-49109000D02*
X67483600Y-49109000D01*
X159553098Y-151300000D02*
X159553098Y-155034502D01*
X93863814Y-155032214D02*
X93943600Y-155112000D01*
X66511600Y-85133000D02*
X66511600Y-103167000D01*
X66511600Y-67099000D02*
X66511600Y-85133000D01*
X126708456Y-151300000D02*
X126708456Y-155110856D01*
X93863814Y-151300000D02*
X93863814Y-155032214D01*
X137656670Y-151300000D02*
X137656670Y-155086930D01*
X170501312Y-155008288D02*
X170397600Y-155112000D01*
X82915600Y-151300000D02*
X82915600Y-154964000D01*
X73014600Y-103049000D02*
X72896600Y-103167000D01*
X104812028Y-155058428D02*
X104865600Y-155112000D01*
X72979600Y-67099000D02*
X66511600Y-67099000D01*
X93943600Y-155112000D02*
X104865600Y-155112000D01*
X176239600Y-155112000D02*
X177255600Y-154096000D01*
X66511600Y-154261600D02*
X66511600Y-103167000D01*
X73014600Y-85069000D02*
X66575600Y-85069000D01*
X115760242Y-155084642D02*
X115787600Y-155112000D01*
X126708456Y-155110856D02*
X126709600Y-155112000D01*
X85561600Y-155112000D02*
X93943600Y-155112000D01*
X82915600Y-154964000D02*
X82767600Y-155112000D01*
X72989600Y-67089000D02*
X72979600Y-67099000D01*
X115787600Y-155112000D02*
X126709600Y-155112000D01*
X213069600Y-143936000D02*
X214593600Y-142412000D01*
X214593600Y-105143600D02*
X211243333Y-101793333D01*
X67483600Y-49109000D02*
X66511600Y-50081000D01*
X67362000Y-155112000D02*
X66511600Y-154261600D01*
X170501312Y-151300000D02*
X170501312Y-155008288D01*
X66511600Y-50081000D02*
X66511600Y-67099000D01*
X82767600Y-155112000D02*
X67362000Y-155112000D01*
D19*
X127090600Y-88530000D02*
X127852600Y-89292000D01*
X127852600Y-94880000D02*
X126455600Y-96277000D01*
X126455600Y-96277000D02*
X126455600Y-96810500D01*
X127852600Y-89292000D02*
X127852600Y-94880000D01*
M02*
