%FSLAX45Y45*%
G04 Gerber Fmt 4.5, Leading zero omitted, Abs format (unit mm)*
G04 Created by KiCad (PCBNEW 6.0.0) date 2022-01-12 19:51:42*
%MOMM*%
%LPD*%
G01*
G04 APERTURE LIST*
%TA.AperFunction,Profile*%
%ADD10C,0.100000*%
%TD*%
%ADD11C,0.200000*%
%ADD12C,0.020000*%
%ADD13C,0.030000*%
%ADD14C,0.100000*%
%ADD15C,0.109220*%
%ADD16C,0.110000*%
%ADD17C,0.150000*%
G04 APERTURE END LIST*
D10*
X22700000Y-16680000D02*
X6400000Y-16680000D01*
X23380000Y-3900000D02*
G75*
G03*
X22700000Y-3220000I-680000J0D01*
G01*
X22700000Y-16680000D02*
G75*
G03*
X23380000Y-16000000I0J680000D01*
G01*
X6400000Y-3220000D02*
G75*
G03*
X5720000Y-3900000I0J-680000D01*
G01*
X5720000Y-16000000D02*
X5720000Y-3900000D01*
X23380000Y-3900000D02*
X23380000Y-16000000D01*
X6400000Y-3220000D02*
X22700000Y-3220000D01*
X5720000Y-16000000D02*
G75*
G03*
X6400000Y-16680000I680000J0D01*
G01*
D11*
D12*
X6240000Y-4740000D02*
X6260000Y-4760000D01*
X6260000Y-4740000D02*
X6240000Y-4760000D01*
X6240000Y-5240000D02*
X6260000Y-5260000D01*
X6260000Y-5240000D02*
X6240000Y-5260000D01*
X6240000Y-5740000D02*
X6260000Y-5760000D01*
X6260000Y-5740000D02*
X6240000Y-5760000D01*
X6240000Y-6240000D02*
X6260000Y-6260000D01*
X6260000Y-6240000D02*
X6240000Y-6260000D01*
X6240000Y-6740000D02*
X6260000Y-6760000D01*
X6260000Y-6740000D02*
X6240000Y-6760000D01*
X6240000Y-7240000D02*
X6260000Y-7260000D01*
X6260000Y-7240000D02*
X6240000Y-7260000D01*
X6240000Y-7740000D02*
X6260000Y-7760000D01*
X6260000Y-7740000D02*
X6240000Y-7760000D01*
X6240000Y-8240000D02*
X6260000Y-8260000D01*
X6260000Y-8240000D02*
X6240000Y-8260000D01*
X6240000Y-8740000D02*
X6260000Y-8760000D01*
X6260000Y-8740000D02*
X6240000Y-8760000D01*
X6240000Y-9240000D02*
X6260000Y-9260000D01*
X6260000Y-9240000D02*
X6240000Y-9260000D01*
X6240000Y-9740000D02*
X6260000Y-9760000D01*
X6260000Y-9740000D02*
X6240000Y-9760000D01*
X6240000Y-10240000D02*
X6260000Y-10260000D01*
X6260000Y-10240000D02*
X6240000Y-10260000D01*
X6240000Y-10740000D02*
X6260000Y-10760000D01*
X6260000Y-10740000D02*
X6240000Y-10760000D01*
X6240000Y-11240000D02*
X6260000Y-11260000D01*
X6260000Y-11240000D02*
X6240000Y-11260000D01*
X6240000Y-11740000D02*
X6260000Y-11760000D01*
X6260000Y-11740000D02*
X6240000Y-11760000D01*
X6240000Y-12240000D02*
X6260000Y-12260000D01*
X6260000Y-12240000D02*
X6240000Y-12260000D01*
X6240000Y-12740000D02*
X6260000Y-12760000D01*
X6260000Y-12740000D02*
X6240000Y-12760000D01*
X6240000Y-13240000D02*
X6260000Y-13260000D01*
X6260000Y-13240000D02*
X6240000Y-13260000D01*
X6240000Y-13740000D02*
X6260000Y-13760000D01*
X6260000Y-13740000D02*
X6240000Y-13760000D01*
X6240000Y-14240000D02*
X6260000Y-14260000D01*
X6260000Y-14240000D02*
X6240000Y-14260000D01*
X6240000Y-14740000D02*
X6260000Y-14760000D01*
X6260000Y-14740000D02*
X6240000Y-14760000D01*
X6240000Y-15240000D02*
X6260000Y-15260000D01*
X6260000Y-15240000D02*
X6240000Y-15260000D01*
X6740000Y-15240000D02*
X6760000Y-15260000D01*
X6760000Y-15240000D02*
X6740000Y-15260000D01*
X6890000Y-4350000D02*
X6910000Y-4370000D01*
X6910000Y-4350000D02*
X6890000Y-4370000D01*
X7240000Y-4240000D02*
X7260000Y-4260000D01*
X7260000Y-4240000D02*
X7240000Y-4260000D01*
X7240000Y-15240000D02*
X7260000Y-15260000D01*
X7260000Y-15240000D02*
X7240000Y-15260000D01*
X7390000Y-9740000D02*
X7410000Y-9760000D01*
X7410000Y-9740000D02*
X7390000Y-9760000D01*
X7540000Y-7940000D02*
X7560000Y-7960000D01*
X7560000Y-7940000D02*
X7540000Y-7960000D01*
X7590000Y-11590000D02*
X7610000Y-11610000D01*
X7610000Y-11590000D02*
X7590000Y-11610000D01*
X7740000Y-4240000D02*
X7760000Y-4260000D01*
X7760000Y-4240000D02*
X7740000Y-4260000D01*
X7740000Y-15240000D02*
X7760000Y-15260000D01*
X7760000Y-15240000D02*
X7740000Y-15260000D01*
X7740000Y-15740000D02*
X7760000Y-15760000D01*
X7760000Y-15740000D02*
X7740000Y-15760000D01*
X7936560Y-12668880D02*
X7956560Y-12688880D01*
X7956560Y-12668880D02*
X7936560Y-12688880D01*
X7936560Y-13242880D02*
X7956560Y-13262880D01*
X7956560Y-13242880D02*
X7936560Y-13262880D01*
X7990000Y-6740000D02*
X8010000Y-6760000D01*
X8010000Y-6740000D02*
X7990000Y-6760000D01*
X7990000Y-7240000D02*
X8010000Y-7260000D01*
X8010000Y-7240000D02*
X7990000Y-7260000D01*
X8040000Y-6040000D02*
X8060000Y-6060000D01*
X8060000Y-6040000D02*
X8040000Y-6060000D01*
X8040000Y-7990000D02*
X8060000Y-8010000D01*
X8060000Y-7990000D02*
X8040000Y-8010000D01*
X8090000Y-14290000D02*
X8110000Y-14310000D01*
X8110000Y-14290000D02*
X8090000Y-14310000D01*
X8133560Y-14825000D02*
X8153560Y-14845000D01*
X8153560Y-14825000D02*
X8133560Y-14845000D01*
X8240000Y-4240000D02*
X8260000Y-4260000D01*
X8260000Y-4240000D02*
X8240000Y-4260000D01*
X8240000Y-15740000D02*
X8260000Y-15760000D01*
X8260000Y-15740000D02*
X8240000Y-15760000D01*
X8241360Y-6953900D02*
X8261360Y-6973900D01*
X8261360Y-6953900D02*
X8241360Y-6973900D01*
X8290000Y-4940000D02*
X8310000Y-4960000D01*
X8310000Y-4940000D02*
X8290000Y-4960000D01*
X8290000Y-5440000D02*
X8310000Y-5460000D01*
X8310000Y-5440000D02*
X8290000Y-5460000D01*
X8317560Y-12516500D02*
X8337560Y-12536500D01*
X8337560Y-12516500D02*
X8317560Y-12536500D01*
X8317560Y-13456300D02*
X8337560Y-13476300D01*
X8337560Y-13456300D02*
X8317560Y-13476300D01*
X8342960Y-9874900D02*
X8362960Y-9894900D01*
X8362960Y-9874900D02*
X8342960Y-9894900D01*
X8390000Y-13790000D02*
X8410000Y-13810000D01*
X8410000Y-13790000D02*
X8390000Y-13810000D01*
X8520760Y-7030100D02*
X8540760Y-7050100D01*
X8540760Y-7030100D02*
X8520760Y-7050100D01*
X8640000Y-9840000D02*
X8660000Y-9860000D01*
X8660000Y-9840000D02*
X8640000Y-9860000D01*
X8690000Y-9040000D02*
X8710000Y-9060000D01*
X8710000Y-9040000D02*
X8690000Y-9060000D01*
X8740000Y-4240000D02*
X8760000Y-4260000D01*
X8760000Y-4240000D02*
X8740000Y-4260000D01*
X8740000Y-11490000D02*
X8760000Y-11510000D01*
X8760000Y-11490000D02*
X8740000Y-11510000D01*
X8740000Y-11990000D02*
X8760000Y-12010000D01*
X8760000Y-11990000D02*
X8740000Y-12010000D01*
X8740000Y-15740000D02*
X8760000Y-15760000D01*
X8760000Y-15740000D02*
X8740000Y-15760000D01*
X8773560Y-9281900D02*
X8793560Y-9301900D01*
X8793560Y-9281900D02*
X8773560Y-9301900D01*
X8773560Y-10212693D02*
X8793560Y-10232693D01*
X8793560Y-10212693D02*
X8773560Y-10232693D01*
X8876360Y-10382900D02*
X8896360Y-10402900D01*
X8896360Y-10382900D02*
X8876360Y-10402900D01*
X8990000Y-14590000D02*
X9010000Y-14610000D01*
X9010000Y-14590000D02*
X8990000Y-14610000D01*
X9040000Y-13490000D02*
X9060000Y-13510000D01*
X9060000Y-13490000D02*
X9040000Y-13510000D01*
X9155760Y-10281300D02*
X9175760Y-10301300D01*
X9175760Y-10281300D02*
X9155760Y-10301300D01*
X9233560Y-14825000D02*
X9253560Y-14845000D01*
X9253560Y-14825000D02*
X9233560Y-14845000D01*
X9240000Y-4240000D02*
X9260000Y-4260000D01*
X9260000Y-4240000D02*
X9240000Y-4260000D01*
X9240000Y-11490000D02*
X9260000Y-11510000D01*
X9260000Y-11490000D02*
X9240000Y-11510000D01*
X9240000Y-11990000D02*
X9260000Y-12010000D01*
X9260000Y-11990000D02*
X9240000Y-12010000D01*
X9240000Y-15740000D02*
X9260000Y-15760000D01*
X9260000Y-15740000D02*
X9240000Y-15760000D01*
X9320860Y-13685100D02*
X9340860Y-13705100D01*
X9340860Y-13685100D02*
X9320860Y-13705100D01*
X9390000Y-8990000D02*
X9410000Y-9010000D01*
X9410000Y-8990000D02*
X9390000Y-9010000D01*
X9390000Y-9490000D02*
X9410000Y-9510000D01*
X9410000Y-9490000D02*
X9390000Y-9510000D01*
X9413560Y-6004200D02*
X9433560Y-6024200D01*
X9433560Y-6004200D02*
X9413560Y-6024200D01*
X9490000Y-7990000D02*
X9510000Y-8010000D01*
X9510000Y-7990000D02*
X9490000Y-8010000D01*
X9490000Y-8490000D02*
X9510000Y-8510000D01*
X9510000Y-8490000D02*
X9490000Y-8510000D01*
X9490000Y-9990000D02*
X9510000Y-10010000D01*
X9510000Y-9990000D02*
X9490000Y-10010000D01*
X9543560Y-6434200D02*
X9563560Y-6454200D01*
X9563560Y-6434200D02*
X9543560Y-6454200D01*
X9543560Y-6494200D02*
X9563560Y-6514200D01*
X9563560Y-6494200D02*
X9543560Y-6514200D01*
X9633840Y-14066680D02*
X9653840Y-14086680D01*
X9653840Y-14066680D02*
X9633840Y-14086680D01*
X9633860Y-13304100D02*
X9653860Y-13324100D01*
X9653860Y-13304100D02*
X9633860Y-13324100D01*
X9679660Y-6814200D02*
X9699660Y-6834200D01*
X9699660Y-6814200D02*
X9679660Y-6834200D01*
X9740000Y-15740000D02*
X9760000Y-15760000D01*
X9760000Y-15740000D02*
X9740000Y-15760000D01*
X9890000Y-5590000D02*
X9910000Y-5610000D01*
X9910000Y-5590000D02*
X9890000Y-5610000D01*
X9890000Y-12940000D02*
X9910000Y-12960000D01*
X9910000Y-12940000D02*
X9890000Y-12960000D01*
X9990000Y-7990000D02*
X10010000Y-8010000D01*
X10010000Y-7990000D02*
X9990000Y-8010000D01*
X9990000Y-8490000D02*
X10010000Y-8510000D01*
X10010000Y-8490000D02*
X9990000Y-8510000D01*
X9990000Y-9990000D02*
X10010000Y-10010000D01*
X10010000Y-9990000D02*
X9990000Y-10010000D01*
X9990000Y-10490000D02*
X10010000Y-10510000D01*
X10010000Y-10490000D02*
X9990000Y-10510000D01*
X9990000Y-11240000D02*
X10010000Y-11260000D01*
X10010000Y-11240000D02*
X9990000Y-11260000D01*
X9990000Y-11490000D02*
X10010000Y-11510000D01*
X10010000Y-11490000D02*
X9990000Y-11510000D01*
X9990000Y-11990000D02*
X10010000Y-12010000D01*
X10010000Y-11990000D02*
X9990000Y-12010000D01*
X9990000Y-12240000D02*
X10010000Y-12260000D01*
X10010000Y-12240000D02*
X9990000Y-12260000D01*
X10207840Y-14066680D02*
X10227840Y-14086680D01*
X10227840Y-14066680D02*
X10207840Y-14086680D01*
X10207860Y-13304100D02*
X10227860Y-13324100D01*
X10227860Y-13304100D02*
X10207860Y-13324100D01*
X10240000Y-15740000D02*
X10260000Y-15760000D01*
X10260000Y-15740000D02*
X10240000Y-15760000D01*
X10278560Y-6414200D02*
X10298560Y-6434200D01*
X10298560Y-6414200D02*
X10278560Y-6434200D01*
X10313560Y-14825000D02*
X10333560Y-14845000D01*
X10333560Y-14825000D02*
X10313560Y-14845000D01*
X10362460Y-13685100D02*
X10382460Y-13705100D01*
X10382460Y-13685100D02*
X10362460Y-13705100D01*
X10443560Y-6929200D02*
X10463560Y-6949200D01*
X10463560Y-6929200D02*
X10443560Y-6949200D01*
X10490000Y-4240000D02*
X10510000Y-4260000D01*
X10510000Y-4240000D02*
X10490000Y-4260000D01*
X10503560Y-8964200D02*
X10523560Y-8984200D01*
X10523560Y-8964200D02*
X10503560Y-8984200D01*
X10523560Y-7801700D02*
X10543560Y-7821700D01*
X10543560Y-7801700D02*
X10523560Y-7821700D01*
X10740000Y-15740000D02*
X10760000Y-15760000D01*
X10760000Y-15740000D02*
X10740000Y-15760000D01*
X10840000Y-5590000D02*
X10860000Y-5610000D01*
X10860000Y-5590000D02*
X10840000Y-5610000D01*
X10840000Y-7140000D02*
X10860000Y-7160000D01*
X10860000Y-7140000D02*
X10840000Y-7160000D01*
X10888560Y-8879200D02*
X10908560Y-8899200D01*
X10908560Y-8879200D02*
X10888560Y-8899200D01*
X10990000Y-4240000D02*
X11010000Y-4260000D01*
X11010000Y-4240000D02*
X10990000Y-4260000D01*
X11150000Y-14700000D02*
X11170000Y-14720000D01*
X11170000Y-14700000D02*
X11150000Y-14720000D01*
X11213160Y-10128250D02*
X11233160Y-10148250D01*
X11233160Y-10128250D02*
X11213160Y-10148250D01*
X11217500Y-11332500D02*
X11237500Y-11352500D01*
X11237500Y-11332500D02*
X11217500Y-11352500D01*
X11228560Y-8204200D02*
X11248560Y-8224200D01*
X11248560Y-8204200D02*
X11228560Y-8224200D01*
X11230000Y-13990000D02*
X11250000Y-14010000D01*
X11250000Y-13990000D02*
X11230000Y-14010000D01*
X11238560Y-9479200D02*
X11258560Y-9499200D01*
X11258560Y-9479200D02*
X11238560Y-9499200D01*
X11240000Y-11990000D02*
X11260000Y-12010000D01*
X11260000Y-11990000D02*
X11240000Y-12010000D01*
X11240000Y-12490000D02*
X11260000Y-12510000D01*
X11260000Y-12490000D02*
X11240000Y-12510000D01*
X11240000Y-12990000D02*
X11260000Y-13010000D01*
X11260000Y-12990000D02*
X11240000Y-13010000D01*
X11240000Y-13490000D02*
X11260000Y-13510000D01*
X11260000Y-13490000D02*
X11240000Y-13510000D01*
X11240000Y-15740000D02*
X11260000Y-15760000D01*
X11260000Y-15740000D02*
X11240000Y-15760000D01*
X11293560Y-6004200D02*
X11313560Y-6024200D01*
X11313560Y-6004200D02*
X11293560Y-6024200D01*
X11358560Y-8964200D02*
X11378560Y-8984200D01*
X11378560Y-8964200D02*
X11358560Y-8984200D01*
X11413560Y-14825000D02*
X11433560Y-14845000D01*
X11433560Y-14825000D02*
X11413560Y-14845000D01*
X11423560Y-6434200D02*
X11443560Y-6454200D01*
X11443560Y-6434200D02*
X11423560Y-6454200D01*
X11423560Y-6494200D02*
X11443560Y-6514200D01*
X11443560Y-6494200D02*
X11423560Y-6514200D01*
X11523560Y-9479200D02*
X11543560Y-9499200D01*
X11543560Y-9479200D02*
X11523560Y-9499200D01*
X11559260Y-6814200D02*
X11579260Y-6834200D01*
X11579260Y-6814200D02*
X11559260Y-6834200D01*
X11568760Y-9671050D02*
X11588760Y-9691050D01*
X11588760Y-9671050D02*
X11568760Y-9691050D01*
X11623560Y-9479200D02*
X11643560Y-9499200D01*
X11643560Y-9479200D02*
X11623560Y-9499200D01*
X11658960Y-9784050D02*
X11678960Y-9804050D01*
X11678960Y-9784050D02*
X11658960Y-9804050D01*
X11663560Y-8604200D02*
X11683560Y-8624200D01*
X11683560Y-8604200D02*
X11663560Y-8624200D01*
X11663560Y-8684200D02*
X11683560Y-8704200D01*
X11683560Y-8684200D02*
X11663560Y-8704200D01*
X11663560Y-8764200D02*
X11683560Y-8784200D01*
X11683560Y-8764200D02*
X11663560Y-8784200D01*
X11663560Y-8844200D02*
X11683560Y-8864200D01*
X11683560Y-8844200D02*
X11663560Y-8864200D01*
X11663560Y-9004200D02*
X11683560Y-9024200D01*
X11683560Y-9004200D02*
X11663560Y-9024200D01*
X11663560Y-9164200D02*
X11683560Y-9184200D01*
X11683560Y-9164200D02*
X11663560Y-9184200D01*
X11740000Y-11990000D02*
X11760000Y-12010000D01*
X11760000Y-11990000D02*
X11740000Y-12010000D01*
X11740000Y-12490000D02*
X11760000Y-12510000D01*
X11760000Y-12490000D02*
X11740000Y-12510000D01*
X11740000Y-12990000D02*
X11760000Y-13010000D01*
X11760000Y-12990000D02*
X11740000Y-13010000D01*
X11740000Y-13490000D02*
X11760000Y-13510000D01*
X11760000Y-13490000D02*
X11740000Y-13510000D01*
X11740000Y-15740000D02*
X11760000Y-15760000D01*
X11760000Y-15740000D02*
X11740000Y-15760000D01*
X11743560Y-8524200D02*
X11763560Y-8544200D01*
X11763560Y-8524200D02*
X11743560Y-8544200D01*
X11743560Y-8604200D02*
X11763560Y-8624200D01*
X11763560Y-8604200D02*
X11743560Y-8624200D01*
X11743560Y-8684200D02*
X11763560Y-8704200D01*
X11763560Y-8684200D02*
X11743560Y-8704200D01*
X11743560Y-8764200D02*
X11763560Y-8784200D01*
X11763560Y-8764200D02*
X11743560Y-8784200D01*
X11743560Y-8844200D02*
X11763560Y-8864200D01*
X11763560Y-8844200D02*
X11743560Y-8864200D01*
X11743560Y-9004200D02*
X11763560Y-9024200D01*
X11763560Y-9004200D02*
X11743560Y-9024200D01*
X11743560Y-9084200D02*
X11763560Y-9104200D01*
X11763560Y-9084200D02*
X11743560Y-9104200D01*
X11743560Y-9164200D02*
X11763560Y-9184200D01*
X11763560Y-9164200D02*
X11743560Y-9184200D01*
X11746560Y-9671050D02*
X11766560Y-9691050D01*
X11766560Y-9671050D02*
X11746560Y-9691050D01*
X11790000Y-5590000D02*
X11810000Y-5610000D01*
X11810000Y-5590000D02*
X11790000Y-5610000D01*
X11823560Y-8844200D02*
X11843560Y-8864200D01*
X11843560Y-8844200D02*
X11823560Y-8864200D01*
X11823560Y-8924200D02*
X11843560Y-8944200D01*
X11843560Y-8924200D02*
X11823560Y-8944200D01*
X11823560Y-9084200D02*
X11843560Y-9104200D01*
X11843560Y-9084200D02*
X11823560Y-9104200D01*
X11823560Y-9164200D02*
X11843560Y-9184200D01*
X11843560Y-9164200D02*
X11823560Y-9184200D01*
X11823560Y-9244200D02*
X11843560Y-9264200D01*
X11843560Y-9244200D02*
X11823560Y-9264200D01*
X11836760Y-9784050D02*
X11856760Y-9804050D01*
X11856760Y-9784050D02*
X11836760Y-9804050D01*
X11886260Y-7738100D02*
X11906260Y-7758100D01*
X11906260Y-7738100D02*
X11886260Y-7758100D01*
X11903560Y-8924200D02*
X11923560Y-8944200D01*
X11923560Y-8924200D02*
X11903560Y-8944200D01*
X11903560Y-9004200D02*
X11923560Y-9024200D01*
X11923560Y-9004200D02*
X11903560Y-9024200D01*
X11903560Y-9084200D02*
X11923560Y-9104200D01*
X11923560Y-9084200D02*
X11903560Y-9104200D01*
X11903560Y-9164200D02*
X11923560Y-9184200D01*
X11923560Y-9164200D02*
X11903560Y-9184200D01*
X11920000Y-13990000D02*
X11940000Y-14010000D01*
X11940000Y-13990000D02*
X11920000Y-14010000D01*
X11924360Y-9671050D02*
X11944360Y-9691050D01*
X11944360Y-9671050D02*
X11924360Y-9691050D01*
X11924360Y-10114250D02*
X11944360Y-10134250D01*
X11944360Y-10114250D02*
X11924360Y-10134250D01*
X11983560Y-8524200D02*
X12003560Y-8544200D01*
X12003560Y-8524200D02*
X11983560Y-8544200D01*
X11983560Y-8604200D02*
X12003560Y-8624200D01*
X12003560Y-8604200D02*
X11983560Y-8624200D01*
X11983560Y-8764200D02*
X12003560Y-8784200D01*
X12003560Y-8764200D02*
X11983560Y-8784200D01*
X11983560Y-8844200D02*
X12003560Y-8864200D01*
X12003560Y-8844200D02*
X11983560Y-8864200D01*
X11983560Y-8924200D02*
X12003560Y-8944200D01*
X12003560Y-8924200D02*
X11983560Y-8944200D01*
X11983560Y-9164200D02*
X12003560Y-9184200D01*
X12003560Y-9164200D02*
X11983560Y-9184200D01*
X11983560Y-9244200D02*
X12003560Y-9264200D01*
X12003560Y-9244200D02*
X11983560Y-9264200D01*
X12014560Y-9784050D02*
X12034560Y-9804050D01*
X12034560Y-9784050D02*
X12014560Y-9804050D01*
X12063560Y-8844200D02*
X12083560Y-8864200D01*
X12083560Y-8844200D02*
X12063560Y-8864200D01*
X12063560Y-8924200D02*
X12083560Y-8944200D01*
X12083560Y-8924200D02*
X12063560Y-8944200D01*
X12102160Y-9671050D02*
X12122160Y-9691050D01*
X12122160Y-9671050D02*
X12102160Y-9691050D01*
X12143560Y-8844200D02*
X12163560Y-8864200D01*
X12163560Y-8844200D02*
X12143560Y-8864200D01*
X12143560Y-8924200D02*
X12163560Y-8944200D01*
X12163560Y-8924200D02*
X12143560Y-8944200D01*
X12143560Y-9164200D02*
X12163560Y-9184200D01*
X12163560Y-9164200D02*
X12143560Y-9184200D01*
X12143560Y-9244200D02*
X12163560Y-9264200D01*
X12163560Y-9244200D02*
X12143560Y-9264200D01*
X12152960Y-7534900D02*
X12172960Y-7554900D01*
X12172960Y-7534900D02*
X12152960Y-7554900D01*
X12152960Y-7941300D02*
X12172960Y-7961300D01*
X12172960Y-7941300D02*
X12152960Y-7961300D01*
X12158560Y-6414200D02*
X12178560Y-6434200D01*
X12178560Y-6414200D02*
X12158560Y-6434200D01*
X12192360Y-9784050D02*
X12212360Y-9804050D01*
X12212360Y-9784050D02*
X12192360Y-9804050D01*
X12210000Y-14640000D02*
X12230000Y-14660000D01*
X12230000Y-14640000D02*
X12210000Y-14660000D01*
X12240000Y-4240000D02*
X12260000Y-4260000D01*
X12260000Y-4240000D02*
X12240000Y-4260000D01*
X12240000Y-11990000D02*
X12260000Y-12010000D01*
X12260000Y-11990000D02*
X12240000Y-12010000D01*
X12240000Y-12490000D02*
X12260000Y-12510000D01*
X12260000Y-12490000D02*
X12240000Y-12510000D01*
X12240000Y-12990000D02*
X12260000Y-13010000D01*
X12260000Y-12990000D02*
X12240000Y-13010000D01*
X12240000Y-13490000D02*
X12260000Y-13510000D01*
X12260000Y-13490000D02*
X12240000Y-13510000D01*
X12240000Y-15740000D02*
X12260000Y-15760000D01*
X12260000Y-15740000D02*
X12240000Y-15760000D01*
X12279960Y-9671050D02*
X12299960Y-9691050D01*
X12299960Y-9671050D02*
X12279960Y-9691050D01*
X12303560Y-8524200D02*
X12323560Y-8544200D01*
X12323560Y-8524200D02*
X12303560Y-8544200D01*
X12323560Y-6929200D02*
X12343560Y-6949200D01*
X12343560Y-6929200D02*
X12323560Y-6949200D01*
X12370160Y-9784050D02*
X12390160Y-9804050D01*
X12390160Y-9784050D02*
X12370160Y-9804050D01*
X12383560Y-8524200D02*
X12403560Y-8544200D01*
X12403560Y-8524200D02*
X12383560Y-8544200D01*
X12383560Y-8604200D02*
X12403560Y-8624200D01*
X12403560Y-8604200D02*
X12383560Y-8624200D01*
X12383560Y-8684200D02*
X12403560Y-8704200D01*
X12403560Y-8684200D02*
X12383560Y-8704200D01*
X12418560Y-7940200D02*
X12438560Y-7960200D01*
X12438560Y-7940200D02*
X12418560Y-7960200D01*
X12419660Y-7534900D02*
X12439660Y-7554900D01*
X12439660Y-7534900D02*
X12419660Y-7554900D01*
X12457760Y-9671050D02*
X12477760Y-9691050D01*
X12477760Y-9671050D02*
X12457760Y-9691050D01*
X12513560Y-14825000D02*
X12533560Y-14845000D01*
X12533560Y-14825000D02*
X12513560Y-14845000D01*
X12635560Y-9671050D02*
X12655560Y-9691050D01*
X12655560Y-9671050D02*
X12635560Y-9691050D01*
X12699060Y-6569700D02*
X12719060Y-6589700D01*
X12719060Y-6569700D02*
X12699060Y-6589700D01*
X12699060Y-6722100D02*
X12719060Y-6742100D01*
X12719060Y-6722100D02*
X12699060Y-6742100D01*
X12699060Y-8843000D02*
X12719060Y-8863000D01*
X12719060Y-8843000D02*
X12699060Y-8863000D01*
X12740000Y-4240000D02*
X12760000Y-4260000D01*
X12760000Y-4240000D02*
X12740000Y-4260000D01*
X12740000Y-10490000D02*
X12760000Y-10510000D01*
X12760000Y-10490000D02*
X12740000Y-10510000D01*
X12740000Y-10990000D02*
X12760000Y-11010000D01*
X12760000Y-10990000D02*
X12740000Y-11010000D01*
X12740000Y-11490000D02*
X12760000Y-11510000D01*
X12760000Y-11490000D02*
X12740000Y-11510000D01*
X12740000Y-11990000D02*
X12760000Y-12010000D01*
X12760000Y-11990000D02*
X12740000Y-12010000D01*
X12740000Y-12490000D02*
X12760000Y-12510000D01*
X12760000Y-12490000D02*
X12740000Y-12510000D01*
X12740000Y-12990000D02*
X12760000Y-13010000D01*
X12760000Y-12990000D02*
X12740000Y-13010000D01*
X12740000Y-13490000D02*
X12760000Y-13510000D01*
X12760000Y-13490000D02*
X12740000Y-13510000D01*
X12740000Y-15740000D02*
X12760000Y-15760000D01*
X12760000Y-15740000D02*
X12740000Y-15760000D01*
X12790000Y-5590000D02*
X12810000Y-5610000D01*
X12810000Y-5590000D02*
X12790000Y-5610000D01*
X12850000Y-13990000D02*
X12870000Y-14010000D01*
X12870000Y-13990000D02*
X12850000Y-14010000D01*
X12940000Y-7390000D02*
X12960000Y-7410000D01*
X12960000Y-7390000D02*
X12940000Y-7410000D01*
X13130000Y-14470000D02*
X13150000Y-14490000D01*
X13150000Y-14470000D02*
X13130000Y-14490000D01*
X13173560Y-6004200D02*
X13193560Y-6024200D01*
X13193560Y-6004200D02*
X13173560Y-6024200D01*
X13240000Y-4240000D02*
X13260000Y-4260000D01*
X13260000Y-4240000D02*
X13240000Y-4260000D01*
X13240000Y-15740000D02*
X13260000Y-15760000D01*
X13260000Y-15740000D02*
X13240000Y-15760000D01*
X13290000Y-14860000D02*
X13310000Y-14880000D01*
X13310000Y-14860000D02*
X13290000Y-14880000D01*
X13303560Y-6434200D02*
X13323560Y-6454200D01*
X13323560Y-6434200D02*
X13303560Y-6454200D01*
X13303560Y-6494200D02*
X13323560Y-6514200D01*
X13323560Y-6494200D02*
X13303560Y-6514200D01*
X13438860Y-6814200D02*
X13458860Y-6834200D01*
X13458860Y-6814200D02*
X13438860Y-6834200D01*
X13461060Y-13685100D02*
X13481060Y-13705100D01*
X13481060Y-13685100D02*
X13461060Y-13705100D01*
X13490000Y-7740000D02*
X13510000Y-7760000D01*
X13510000Y-7740000D02*
X13490000Y-7760000D01*
X13613560Y-14825000D02*
X13633560Y-14845000D01*
X13633560Y-14825000D02*
X13613560Y-14845000D01*
X13640000Y-5590000D02*
X13660000Y-5610000D01*
X13660000Y-5590000D02*
X13640000Y-5610000D01*
X13740000Y-15740000D02*
X13760000Y-15760000D01*
X13760000Y-15740000D02*
X13740000Y-15760000D01*
X13770940Y-14066680D02*
X13790940Y-14086680D01*
X13790940Y-14066680D02*
X13770940Y-14086680D01*
X13770960Y-13304100D02*
X13790960Y-13324100D01*
X13790960Y-13304100D02*
X13770960Y-13324100D01*
X13793560Y-9044200D02*
X13813560Y-9064200D01*
X13813560Y-9044200D02*
X13793560Y-9064200D01*
X13990000Y-7740000D02*
X14010000Y-7760000D01*
X14010000Y-7740000D02*
X13990000Y-7760000D01*
X13990000Y-9490000D02*
X14010000Y-9510000D01*
X14010000Y-9490000D02*
X13990000Y-9510000D01*
X13990000Y-9990000D02*
X14010000Y-10010000D01*
X14010000Y-9990000D02*
X13990000Y-10010000D01*
X13990000Y-10490000D02*
X14010000Y-10510000D01*
X14010000Y-10490000D02*
X13990000Y-10510000D01*
X13990000Y-11490000D02*
X14010000Y-11510000D01*
X14010000Y-11490000D02*
X13990000Y-11510000D01*
X13990000Y-11990000D02*
X14010000Y-12010000D01*
X14010000Y-11990000D02*
X13990000Y-12010000D01*
X13990000Y-12490000D02*
X14010000Y-12510000D01*
X14010000Y-12490000D02*
X13990000Y-12510000D01*
X14038560Y-6414200D02*
X14058560Y-6434200D01*
X14058560Y-6414200D02*
X14038560Y-6434200D01*
X14203560Y-6929200D02*
X14223560Y-6949200D01*
X14223560Y-6929200D02*
X14203560Y-6949200D01*
X14240000Y-4240000D02*
X14260000Y-4260000D01*
X14260000Y-4240000D02*
X14240000Y-4260000D01*
X14240000Y-7490000D02*
X14260000Y-7510000D01*
X14260000Y-7490000D02*
X14240000Y-7510000D01*
X14240000Y-7990000D02*
X14260000Y-8010000D01*
X14260000Y-7990000D02*
X14240000Y-8010000D01*
X14240000Y-11990000D02*
X14260000Y-12010000D01*
X14260000Y-11990000D02*
X14240000Y-12010000D01*
X14240000Y-12490000D02*
X14260000Y-12510000D01*
X14260000Y-12490000D02*
X14240000Y-12510000D01*
X14240000Y-15740000D02*
X14260000Y-15760000D01*
X14260000Y-15740000D02*
X14240000Y-15760000D01*
X14250000Y-10950000D02*
X14270000Y-10970000D01*
X14270000Y-10950000D02*
X14250000Y-10970000D01*
X14344940Y-14066680D02*
X14364940Y-14086680D01*
X14364940Y-14066680D02*
X14344940Y-14086680D01*
X14344960Y-13304100D02*
X14364960Y-13324100D01*
X14364960Y-13304100D02*
X14344960Y-13324100D01*
X14410000Y-14800000D02*
X14430000Y-14820000D01*
X14430000Y-14800000D02*
X14410000Y-14820000D01*
X14502660Y-13685100D02*
X14522660Y-13705100D01*
X14522660Y-13685100D02*
X14502660Y-13705100D01*
X14590000Y-7040000D02*
X14610000Y-7060000D01*
X14610000Y-7040000D02*
X14590000Y-7060000D01*
X14640000Y-5590000D02*
X14660000Y-5610000D01*
X14660000Y-5590000D02*
X14640000Y-5610000D01*
X14656400Y-10950000D02*
X14676400Y-10970000D01*
X14676400Y-10950000D02*
X14656400Y-10970000D01*
X14713560Y-14825000D02*
X14733560Y-14845000D01*
X14733560Y-14825000D02*
X14713560Y-14845000D01*
X14740000Y-4240000D02*
X14760000Y-4260000D01*
X14760000Y-4240000D02*
X14740000Y-4260000D01*
X14740000Y-7490000D02*
X14760000Y-7510000D01*
X14760000Y-7490000D02*
X14740000Y-7510000D01*
X14740000Y-7990000D02*
X14760000Y-8010000D01*
X14760000Y-7990000D02*
X14740000Y-8010000D01*
X14740000Y-11990000D02*
X14760000Y-12010000D01*
X14760000Y-11990000D02*
X14740000Y-12010000D01*
X14740000Y-12490000D02*
X14760000Y-12510000D01*
X14760000Y-12490000D02*
X14740000Y-12510000D01*
X14740000Y-12990000D02*
X14760000Y-13010000D01*
X14760000Y-12990000D02*
X14740000Y-13010000D01*
X14740000Y-15740000D02*
X14760000Y-15760000D01*
X14760000Y-15740000D02*
X14740000Y-15760000D01*
X15053560Y-6004200D02*
X15073560Y-6024200D01*
X15073560Y-6004200D02*
X15053560Y-6024200D01*
X15183560Y-6434200D02*
X15203560Y-6454200D01*
X15203560Y-6434200D02*
X15183560Y-6454200D01*
X15183560Y-6494200D02*
X15203560Y-6514200D01*
X15203560Y-6494200D02*
X15183560Y-6514200D01*
X15240000Y-7990000D02*
X15260000Y-8010000D01*
X15260000Y-7990000D02*
X15240000Y-8010000D01*
X15240000Y-8990000D02*
X15260000Y-9010000D01*
X15260000Y-8990000D02*
X15240000Y-9010000D01*
X15240000Y-10490000D02*
X15260000Y-10510000D01*
X15260000Y-10490000D02*
X15240000Y-10510000D01*
X15240000Y-10990000D02*
X15260000Y-11010000D01*
X15260000Y-10990000D02*
X15240000Y-11010000D01*
X15240000Y-11490000D02*
X15260000Y-11510000D01*
X15260000Y-11490000D02*
X15240000Y-11510000D01*
X15240000Y-11990000D02*
X15260000Y-12010000D01*
X15260000Y-11990000D02*
X15240000Y-12010000D01*
X15240000Y-12490000D02*
X15260000Y-12510000D01*
X15260000Y-12490000D02*
X15240000Y-12510000D01*
X15240000Y-12990000D02*
X15260000Y-13010000D01*
X15260000Y-12990000D02*
X15240000Y-13010000D01*
X15240000Y-13490000D02*
X15260000Y-13510000D01*
X15260000Y-13490000D02*
X15240000Y-13510000D01*
X15240000Y-13740000D02*
X15260000Y-13760000D01*
X15260000Y-13740000D02*
X15240000Y-13760000D01*
X15240000Y-15740000D02*
X15260000Y-15760000D01*
X15260000Y-15740000D02*
X15240000Y-15760000D01*
X15318460Y-6814200D02*
X15338460Y-6834200D01*
X15338460Y-6814200D02*
X15318460Y-6834200D01*
X15510000Y-14700000D02*
X15530000Y-14720000D01*
X15530000Y-14700000D02*
X15510000Y-14720000D01*
X15540000Y-5590000D02*
X15560000Y-5610000D01*
X15560000Y-5590000D02*
X15540000Y-5610000D01*
X15740000Y-7990000D02*
X15760000Y-8010000D01*
X15760000Y-7990000D02*
X15740000Y-8010000D01*
X15740000Y-8990000D02*
X15760000Y-9010000D01*
X15760000Y-8990000D02*
X15740000Y-9010000D01*
X15740000Y-10490000D02*
X15760000Y-10510000D01*
X15760000Y-10490000D02*
X15740000Y-10510000D01*
X15740000Y-10990000D02*
X15760000Y-11010000D01*
X15760000Y-10990000D02*
X15740000Y-11010000D01*
X15740000Y-11490000D02*
X15760000Y-11510000D01*
X15760000Y-11490000D02*
X15740000Y-11510000D01*
X15740000Y-11990000D02*
X15760000Y-12010000D01*
X15760000Y-11990000D02*
X15740000Y-12010000D01*
X15740000Y-12490000D02*
X15760000Y-12510000D01*
X15760000Y-12490000D02*
X15740000Y-12510000D01*
X15740000Y-12990000D02*
X15760000Y-13010000D01*
X15760000Y-12990000D02*
X15740000Y-13010000D01*
X15740000Y-13490000D02*
X15760000Y-13510000D01*
X15760000Y-13490000D02*
X15740000Y-13510000D01*
X15740000Y-13740000D02*
X15760000Y-13760000D01*
X15760000Y-13740000D02*
X15740000Y-13760000D01*
X15740000Y-15740000D02*
X15760000Y-15760000D01*
X15760000Y-15740000D02*
X15740000Y-15760000D01*
X15793560Y-14825000D02*
X15813560Y-14845000D01*
X15813560Y-14825000D02*
X15793560Y-14845000D01*
X15918560Y-6414200D02*
X15938560Y-6434200D01*
X15938560Y-6414200D02*
X15918560Y-6434200D01*
X15990000Y-4240000D02*
X16010000Y-4260000D01*
X16010000Y-4240000D02*
X15990000Y-4260000D01*
X15990000Y-11990000D02*
X16010000Y-12010000D01*
X16010000Y-11990000D02*
X15990000Y-12010000D01*
X15990000Y-12490000D02*
X16010000Y-12510000D01*
X16010000Y-12490000D02*
X15990000Y-12510000D01*
X15990000Y-12990000D02*
X16010000Y-13010000D01*
X16010000Y-12990000D02*
X15990000Y-13010000D01*
X15990000Y-13490000D02*
X16010000Y-13510000D01*
X16010000Y-13490000D02*
X15990000Y-13510000D01*
X16070000Y-14400000D02*
X16090000Y-14420000D01*
X16090000Y-14400000D02*
X16070000Y-14420000D01*
X16083560Y-6929200D02*
X16103560Y-6949200D01*
X16103560Y-6929200D02*
X16083560Y-6949200D01*
X16240000Y-7490000D02*
X16260000Y-7510000D01*
X16260000Y-7490000D02*
X16240000Y-7510000D01*
X16240000Y-7990000D02*
X16260000Y-8010000D01*
X16260000Y-7990000D02*
X16240000Y-8010000D01*
X16240000Y-15740000D02*
X16260000Y-15760000D01*
X16260000Y-15740000D02*
X16240000Y-15760000D01*
X16380000Y-14430000D02*
X16400000Y-14450000D01*
X16400000Y-14430000D02*
X16380000Y-14450000D01*
X16490000Y-4240000D02*
X16510000Y-4260000D01*
X16510000Y-4240000D02*
X16490000Y-4260000D01*
X16490000Y-5590000D02*
X16510000Y-5610000D01*
X16510000Y-5590000D02*
X16490000Y-5610000D01*
X16560000Y-14850000D02*
X16580000Y-14870000D01*
X16580000Y-14850000D02*
X16560000Y-14870000D01*
X16740000Y-7990000D02*
X16760000Y-8010000D01*
X16760000Y-7990000D02*
X16740000Y-8010000D01*
X16740000Y-10990000D02*
X16760000Y-11010000D01*
X16760000Y-10990000D02*
X16740000Y-11010000D01*
X16740000Y-15740000D02*
X16760000Y-15760000D01*
X16760000Y-15740000D02*
X16740000Y-15760000D01*
X16760000Y-13960000D02*
X16780000Y-13980000D01*
X16780000Y-13960000D02*
X16760000Y-13980000D01*
X16900660Y-14817900D02*
X16920660Y-14837900D01*
X16920660Y-14817900D02*
X16900660Y-14837900D01*
X16933560Y-6004200D02*
X16953560Y-6024200D01*
X16953560Y-6004200D02*
X16933560Y-6024200D01*
X16990000Y-4240000D02*
X17010000Y-4260000D01*
X17010000Y-4240000D02*
X16990000Y-4260000D01*
X17063560Y-6434200D02*
X17083560Y-6454200D01*
X17083560Y-6434200D02*
X17063560Y-6454200D01*
X17063560Y-6494200D02*
X17083560Y-6514200D01*
X17083560Y-6494200D02*
X17063560Y-6514200D01*
X17100000Y-14280000D02*
X17120000Y-14300000D01*
X17120000Y-14280000D02*
X17100000Y-14300000D01*
X17194860Y-11500700D02*
X17214860Y-11520700D01*
X17214860Y-11500700D02*
X17194860Y-11520700D01*
X17194860Y-11754700D02*
X17214860Y-11774700D01*
X17214860Y-11754700D02*
X17194860Y-11774700D01*
X17194860Y-11881700D02*
X17214860Y-11901700D01*
X17214860Y-11881700D02*
X17194860Y-11901700D01*
X17198060Y-6814200D02*
X17218060Y-6834200D01*
X17218060Y-6814200D02*
X17198060Y-6834200D01*
X17235860Y-13139000D02*
X17255860Y-13159000D01*
X17255860Y-13139000D02*
X17235860Y-13159000D01*
X17240000Y-7990000D02*
X17260000Y-8010000D01*
X17260000Y-7990000D02*
X17240000Y-8010000D01*
X17240000Y-8490000D02*
X17260000Y-8510000D01*
X17260000Y-8490000D02*
X17240000Y-8510000D01*
X17240000Y-8990000D02*
X17260000Y-9010000D01*
X17260000Y-8990000D02*
X17240000Y-9010000D01*
X17240000Y-9490000D02*
X17260000Y-9510000D01*
X17260000Y-9490000D02*
X17240000Y-9510000D01*
X17240000Y-9990000D02*
X17260000Y-10010000D01*
X17260000Y-9990000D02*
X17240000Y-10010000D01*
X17240000Y-10990000D02*
X17260000Y-11010000D01*
X17260000Y-10990000D02*
X17240000Y-11010000D01*
X17240000Y-15740000D02*
X17260000Y-15760000D01*
X17260000Y-15740000D02*
X17240000Y-15760000D01*
X17263560Y-12710700D02*
X17283560Y-12730700D01*
X17283560Y-12710700D02*
X17263560Y-12730700D01*
X17267160Y-13570000D02*
X17287160Y-13590000D01*
X17287160Y-13570000D02*
X17267160Y-13590000D01*
X17440000Y-5590000D02*
X17460000Y-5610000D01*
X17460000Y-5590000D02*
X17440000Y-5610000D01*
X17740000Y-7990000D02*
X17760000Y-8010000D01*
X17760000Y-7990000D02*
X17740000Y-8010000D01*
X17740000Y-8490000D02*
X17760000Y-8510000D01*
X17760000Y-8490000D02*
X17740000Y-8510000D01*
X17740000Y-8990000D02*
X17760000Y-9010000D01*
X17760000Y-8990000D02*
X17740000Y-9010000D01*
X17740000Y-9490000D02*
X17760000Y-9510000D01*
X17760000Y-9490000D02*
X17740000Y-9510000D01*
X17740000Y-9990000D02*
X17760000Y-10010000D01*
X17760000Y-9990000D02*
X17740000Y-10010000D01*
X17740000Y-10990000D02*
X17760000Y-11010000D01*
X17760000Y-10990000D02*
X17740000Y-11010000D01*
X17740000Y-12240000D02*
X17760000Y-12260000D01*
X17760000Y-12240000D02*
X17740000Y-12260000D01*
X17740000Y-15740000D02*
X17760000Y-15760000D01*
X17760000Y-15740000D02*
X17740000Y-15760000D01*
X17798560Y-6414200D02*
X17818560Y-6434200D01*
X17818560Y-6414200D02*
X17798560Y-6434200D01*
X17963560Y-6929200D02*
X17983560Y-6949200D01*
X17983560Y-6929200D02*
X17963560Y-6949200D01*
X17990000Y-4240000D02*
X18010000Y-4260000D01*
X18010000Y-4240000D02*
X17990000Y-4260000D01*
X18063560Y-12710700D02*
X18083560Y-12730700D01*
X18083560Y-12710700D02*
X18063560Y-12730700D01*
X18067160Y-13590000D02*
X18087160Y-13610000D01*
X18087160Y-13590000D02*
X18067160Y-13610000D01*
X18106360Y-13139000D02*
X18126360Y-13159000D01*
X18126360Y-13139000D02*
X18106360Y-13159000D01*
X18134953Y-14817900D02*
X18154953Y-14837900D01*
X18154953Y-14817900D02*
X18134953Y-14837900D01*
X18147360Y-11500700D02*
X18167360Y-11520700D01*
X18167360Y-11500700D02*
X18147360Y-11520700D01*
X18240000Y-7490000D02*
X18260000Y-7510000D01*
X18260000Y-7490000D02*
X18240000Y-7510000D01*
X18240000Y-10990000D02*
X18260000Y-11010000D01*
X18260000Y-10990000D02*
X18240000Y-11010000D01*
X18240000Y-15740000D02*
X18260000Y-15760000D01*
X18260000Y-15740000D02*
X18240000Y-15760000D01*
X18390000Y-5590000D02*
X18410000Y-5610000D01*
X18410000Y-5590000D02*
X18390000Y-5610000D01*
X18490000Y-4240000D02*
X18510000Y-4260000D01*
X18510000Y-4240000D02*
X18490000Y-4260000D01*
X18490000Y-12240000D02*
X18510000Y-12260000D01*
X18510000Y-12240000D02*
X18490000Y-12260000D01*
X18490000Y-13960000D02*
X18510000Y-13980000D01*
X18510000Y-13960000D02*
X18490000Y-13980000D01*
X18711060Y-14817500D02*
X18731060Y-14837500D01*
X18731060Y-14817500D02*
X18711060Y-14837500D01*
X18740000Y-15740000D02*
X18760000Y-15760000D01*
X18760000Y-15740000D02*
X18740000Y-15760000D01*
X18813560Y-6004200D02*
X18833560Y-6024200D01*
X18833560Y-6004200D02*
X18813560Y-6024200D01*
X18870240Y-7945360D02*
X18890240Y-7965360D01*
X18890240Y-7945360D02*
X18870240Y-7965360D01*
X18870240Y-8805940D02*
X18890240Y-8825940D01*
X18890240Y-8805940D02*
X18870240Y-8825940D01*
X18943560Y-6434200D02*
X18963560Y-6454200D01*
X18963560Y-6434200D02*
X18943560Y-6454200D01*
X18943560Y-6494200D02*
X18963560Y-6514200D01*
X18963560Y-6494200D02*
X18943560Y-6514200D01*
X18990000Y-9490000D02*
X19010000Y-9510000D01*
X19010000Y-9490000D02*
X18990000Y-9510000D01*
X18990000Y-9990000D02*
X19010000Y-10010000D01*
X19010000Y-9990000D02*
X18990000Y-10010000D01*
X18990000Y-10490000D02*
X19010000Y-10510000D01*
X19010000Y-10490000D02*
X18990000Y-10510000D01*
X18990000Y-10990000D02*
X19010000Y-11010000D01*
X19010000Y-10990000D02*
X18990000Y-11010000D01*
X18990000Y-13960000D02*
X19010000Y-13980000D01*
X19010000Y-13960000D02*
X18990000Y-13980000D01*
X19077660Y-6814200D02*
X19097660Y-6834200D01*
X19097660Y-6814200D02*
X19077660Y-6834200D01*
X19150000Y-13570000D02*
X19170000Y-13590000D01*
X19170000Y-13570000D02*
X19150000Y-13590000D01*
X19182660Y-8100300D02*
X19202660Y-8120300D01*
X19202660Y-8100300D02*
X19182660Y-8120300D01*
X19229774Y-14817900D02*
X19249774Y-14837900D01*
X19249774Y-14817900D02*
X19229774Y-14837900D01*
X19240000Y-15740000D02*
X19260000Y-15760000D01*
X19260000Y-15740000D02*
X19240000Y-15760000D01*
X19277660Y-8809980D02*
X19297660Y-8829980D01*
X19297660Y-8809980D02*
X19277660Y-8829980D01*
X19340000Y-5590000D02*
X19360000Y-5610000D01*
X19360000Y-5590000D02*
X19340000Y-5610000D01*
X19490000Y-8811500D02*
X19510000Y-8831500D01*
X19510000Y-8811500D02*
X19490000Y-8831500D01*
X19490000Y-9490000D02*
X19510000Y-9510000D01*
X19510000Y-9490000D02*
X19490000Y-9510000D01*
X19490000Y-9990000D02*
X19510000Y-10010000D01*
X19510000Y-9990000D02*
X19490000Y-10010000D01*
X19490000Y-10490000D02*
X19510000Y-10510000D01*
X19510000Y-10490000D02*
X19490000Y-10510000D01*
X19490000Y-10990000D02*
X19510000Y-11010000D01*
X19510000Y-10990000D02*
X19490000Y-11010000D01*
X19490000Y-12990000D02*
X19510000Y-13010000D01*
X19510000Y-12990000D02*
X19490000Y-13010000D01*
X19678560Y-6414200D02*
X19698560Y-6434200D01*
X19698560Y-6414200D02*
X19678560Y-6434200D01*
X19740000Y-4240000D02*
X19760000Y-4260000D01*
X19760000Y-4240000D02*
X19740000Y-4260000D01*
X19740000Y-15740000D02*
X19760000Y-15760000D01*
X19760000Y-15740000D02*
X19740000Y-15760000D01*
X19806060Y-14817500D02*
X19826060Y-14837500D01*
X19826060Y-14817500D02*
X19806060Y-14837500D01*
X19843560Y-6929200D02*
X19863560Y-6949200D01*
X19863560Y-6929200D02*
X19843560Y-6949200D01*
X19990000Y-8990000D02*
X20010000Y-9010000D01*
X20010000Y-8990000D02*
X19990000Y-9010000D01*
X19990000Y-9490000D02*
X20010000Y-9510000D01*
X20010000Y-9490000D02*
X19990000Y-9510000D01*
X19990000Y-9990000D02*
X20010000Y-10010000D01*
X20010000Y-9990000D02*
X19990000Y-10010000D01*
X19990000Y-10490000D02*
X20010000Y-10510000D01*
X20010000Y-10490000D02*
X19990000Y-10510000D01*
X19990000Y-10990000D02*
X20010000Y-11010000D01*
X20010000Y-10990000D02*
X19990000Y-11010000D01*
X19990000Y-11490000D02*
X20010000Y-11510000D01*
X20010000Y-11490000D02*
X19990000Y-11510000D01*
X20190000Y-7290000D02*
X20210000Y-7310000D01*
X20210000Y-7290000D02*
X20190000Y-7310000D01*
X20240000Y-4240000D02*
X20260000Y-4260000D01*
X20260000Y-4240000D02*
X20240000Y-4260000D01*
X20240000Y-5590000D02*
X20260000Y-5610000D01*
X20260000Y-5590000D02*
X20240000Y-5610000D01*
X20240000Y-13740000D02*
X20260000Y-13760000D01*
X20260000Y-13740000D02*
X20240000Y-13760000D01*
X20240000Y-15740000D02*
X20260000Y-15760000D01*
X20260000Y-15740000D02*
X20240000Y-15760000D01*
X20324595Y-14817900D02*
X20344595Y-14837900D01*
X20344595Y-14817900D02*
X20324595Y-14837900D01*
X20740000Y-4240000D02*
X20760000Y-4260000D01*
X20760000Y-4240000D02*
X20740000Y-4260000D01*
X20740000Y-15740000D02*
X20760000Y-15760000D01*
X20760000Y-15740000D02*
X20740000Y-15760000D01*
X20823560Y-6434200D02*
X20843560Y-6454200D01*
X20843560Y-6434200D02*
X20823560Y-6454200D01*
X20823560Y-6494200D02*
X20843560Y-6514200D01*
X20843560Y-6494200D02*
X20823560Y-6514200D01*
X20911060Y-14817500D02*
X20931060Y-14837500D01*
X20931060Y-14817500D02*
X20911060Y-14837500D01*
X20957260Y-6814200D02*
X20977260Y-6834200D01*
X20977260Y-6814200D02*
X20957260Y-6834200D01*
X21190000Y-5590000D02*
X21210000Y-5610000D01*
X21210000Y-5590000D02*
X21190000Y-5610000D01*
X21240000Y-15740000D02*
X21260000Y-15760000D01*
X21260000Y-15740000D02*
X21240000Y-15760000D01*
X21419417Y-14817900D02*
X21439417Y-14837900D01*
X21439417Y-14817900D02*
X21419417Y-14837900D01*
X21558560Y-6414200D02*
X21578560Y-6434200D01*
X21578560Y-6414200D02*
X21558560Y-6434200D01*
X21723560Y-6929200D02*
X21743560Y-6949200D01*
X21743560Y-6929200D02*
X21723560Y-6949200D01*
X21740000Y-4240000D02*
X21760000Y-4260000D01*
X21760000Y-4240000D02*
X21740000Y-4260000D01*
X21740000Y-8240000D02*
X21760000Y-8260000D01*
X21760000Y-8240000D02*
X21740000Y-8260000D01*
X21740000Y-8740000D02*
X21760000Y-8760000D01*
X21760000Y-8740000D02*
X21740000Y-8760000D01*
X21740000Y-9240000D02*
X21760000Y-9260000D01*
X21760000Y-9240000D02*
X21740000Y-9260000D01*
X21740000Y-9740000D02*
X21760000Y-9760000D01*
X21760000Y-9740000D02*
X21740000Y-9760000D01*
X21740000Y-10240000D02*
X21760000Y-10260000D01*
X21760000Y-10240000D02*
X21740000Y-10260000D01*
X21740000Y-10740000D02*
X21760000Y-10760000D01*
X21760000Y-10740000D02*
X21740000Y-10760000D01*
X21740000Y-11240000D02*
X21760000Y-11260000D01*
X21760000Y-11240000D02*
X21740000Y-11260000D01*
X21740000Y-11740000D02*
X21760000Y-11760000D01*
X21760000Y-11740000D02*
X21740000Y-11760000D01*
X21740000Y-12240000D02*
X21760000Y-12260000D01*
X21760000Y-12240000D02*
X21740000Y-12260000D01*
X21740000Y-12740000D02*
X21760000Y-12760000D01*
X21760000Y-12740000D02*
X21740000Y-12760000D01*
X21740000Y-13240000D02*
X21760000Y-13260000D01*
X21760000Y-13240000D02*
X21740000Y-13260000D01*
X21740000Y-13740000D02*
X21760000Y-13760000D01*
X21760000Y-13740000D02*
X21740000Y-13760000D01*
X21740000Y-15740000D02*
X21760000Y-15760000D01*
X21760000Y-15740000D02*
X21740000Y-15760000D01*
X22016060Y-14817500D02*
X22036060Y-14837500D01*
X22036060Y-14817500D02*
X22016060Y-14837500D01*
X22150000Y-4630000D02*
X22170000Y-4650000D01*
X22170000Y-4630000D02*
X22150000Y-4650000D01*
X22240000Y-7740000D02*
X22260000Y-7760000D01*
X22260000Y-7740000D02*
X22240000Y-7760000D01*
X22240000Y-8240000D02*
X22260000Y-8260000D01*
X22260000Y-8240000D02*
X22240000Y-8260000D01*
X22240000Y-8740000D02*
X22260000Y-8760000D01*
X22260000Y-8740000D02*
X22240000Y-8760000D01*
X22240000Y-9240000D02*
X22260000Y-9260000D01*
X22260000Y-9240000D02*
X22240000Y-9260000D01*
X22240000Y-9740000D02*
X22260000Y-9760000D01*
X22260000Y-9740000D02*
X22240000Y-9760000D01*
X22240000Y-10240000D02*
X22260000Y-10260000D01*
X22260000Y-10240000D02*
X22240000Y-10260000D01*
X22240000Y-10740000D02*
X22260000Y-10760000D01*
X22260000Y-10740000D02*
X22240000Y-10760000D01*
X22240000Y-11240000D02*
X22260000Y-11260000D01*
X22260000Y-11240000D02*
X22240000Y-11260000D01*
X22240000Y-11740000D02*
X22260000Y-11760000D01*
X22260000Y-11740000D02*
X22240000Y-11760000D01*
X22240000Y-12240000D02*
X22260000Y-12260000D01*
X22260000Y-12240000D02*
X22240000Y-12260000D01*
X22240000Y-12740000D02*
X22260000Y-12760000D01*
X22260000Y-12740000D02*
X22240000Y-12760000D01*
X22240000Y-13240000D02*
X22260000Y-13260000D01*
X22260000Y-13240000D02*
X22240000Y-13260000D01*
X22240000Y-13740000D02*
X22260000Y-13760000D01*
X22260000Y-13740000D02*
X22240000Y-13760000D01*
X22240000Y-14240000D02*
X22260000Y-14260000D01*
X22260000Y-14240000D02*
X22240000Y-14260000D01*
X22240000Y-14740000D02*
X22260000Y-14760000D01*
X22260000Y-14740000D02*
X22240000Y-14760000D01*
X22240000Y-15240000D02*
X22260000Y-15260000D01*
X22260000Y-15240000D02*
X22240000Y-15260000D01*
X22490000Y-4740000D02*
X22510000Y-4760000D01*
X22510000Y-4740000D02*
X22490000Y-4760000D01*
X22490000Y-5240000D02*
X22510000Y-5260000D01*
X22510000Y-5240000D02*
X22490000Y-5260000D01*
X22490000Y-5740000D02*
X22510000Y-5760000D01*
X22510000Y-5740000D02*
X22490000Y-5760000D01*
X22490000Y-6240000D02*
X22510000Y-6260000D01*
X22510000Y-6240000D02*
X22490000Y-6260000D01*
X22490000Y-6740000D02*
X22510000Y-6760000D01*
X22510000Y-6740000D02*
X22490000Y-6760000D01*
X22490000Y-7240000D02*
X22510000Y-7260000D01*
X22510000Y-7240000D02*
X22490000Y-7260000D01*
X22490000Y-7740000D02*
X22510000Y-7760000D01*
X22510000Y-7740000D02*
X22490000Y-7760000D01*
D13*
X9763560Y-6284200D02*
G75*
G03*
X9763560Y-6284200I-15000J0D01*
G01*
X9763560Y-6384200D02*
G75*
G03*
X9763560Y-6384200I-15000J0D01*
G01*
X9763560Y-6484200D02*
G75*
G03*
X9763560Y-6484200I-15000J0D01*
G01*
X9863560Y-6284200D02*
G75*
G03*
X9863560Y-6284200I-15000J0D01*
G01*
X9863560Y-6384200D02*
G75*
G03*
X9863560Y-6384200I-15000J0D01*
G01*
X9863560Y-6484200D02*
G75*
G03*
X9863560Y-6484200I-15000J0D01*
G01*
X9963560Y-6284200D02*
G75*
G03*
X9963560Y-6284200I-15000J0D01*
G01*
X9963560Y-6384200D02*
G75*
G03*
X9963560Y-6384200I-15000J0D01*
G01*
X9963560Y-6484200D02*
G75*
G03*
X9963560Y-6484200I-15000J0D01*
G01*
X11644393Y-6284200D02*
G75*
G03*
X11644393Y-6284200I-15000J0D01*
G01*
X11644393Y-6384200D02*
G75*
G03*
X11644393Y-6384200I-15000J0D01*
G01*
X11644393Y-6484200D02*
G75*
G03*
X11644393Y-6484200I-15000J0D01*
G01*
X11744393Y-6284200D02*
G75*
G03*
X11744393Y-6284200I-15000J0D01*
G01*
X11744393Y-6384200D02*
G75*
G03*
X11744393Y-6384200I-15000J0D01*
G01*
X11744393Y-6484200D02*
G75*
G03*
X11744393Y-6484200I-15000J0D01*
G01*
X11844393Y-6284200D02*
G75*
G03*
X11844393Y-6284200I-15000J0D01*
G01*
X11844393Y-6384200D02*
G75*
G03*
X11844393Y-6384200I-15000J0D01*
G01*
X11844393Y-6484200D02*
G75*
G03*
X11844393Y-6484200I-15000J0D01*
G01*
X13525227Y-6284200D02*
G75*
G03*
X13525227Y-6284200I-15000J0D01*
G01*
X13525227Y-6384200D02*
G75*
G03*
X13525227Y-6384200I-15000J0D01*
G01*
X13525227Y-6484200D02*
G75*
G03*
X13525227Y-6484200I-15000J0D01*
G01*
X13625227Y-6284200D02*
G75*
G03*
X13625227Y-6284200I-15000J0D01*
G01*
X13625227Y-6384200D02*
G75*
G03*
X13625227Y-6384200I-15000J0D01*
G01*
X13625227Y-6484200D02*
G75*
G03*
X13625227Y-6484200I-15000J0D01*
G01*
X13725227Y-6284200D02*
G75*
G03*
X13725227Y-6284200I-15000J0D01*
G01*
X13725227Y-6384200D02*
G75*
G03*
X13725227Y-6384200I-15000J0D01*
G01*
X13725227Y-6484200D02*
G75*
G03*
X13725227Y-6484200I-15000J0D01*
G01*
X15406060Y-6284200D02*
G75*
G03*
X15406060Y-6284200I-15000J0D01*
G01*
X15406060Y-6384200D02*
G75*
G03*
X15406060Y-6384200I-15000J0D01*
G01*
X15406060Y-6484200D02*
G75*
G03*
X15406060Y-6484200I-15000J0D01*
G01*
X15506060Y-6284200D02*
G75*
G03*
X15506060Y-6284200I-15000J0D01*
G01*
X15506060Y-6384200D02*
G75*
G03*
X15506060Y-6384200I-15000J0D01*
G01*
X15506060Y-6484200D02*
G75*
G03*
X15506060Y-6484200I-15000J0D01*
G01*
X15606060Y-6284200D02*
G75*
G03*
X15606060Y-6284200I-15000J0D01*
G01*
X15606060Y-6384200D02*
G75*
G03*
X15606060Y-6384200I-15000J0D01*
G01*
X15606060Y-6484200D02*
G75*
G03*
X15606060Y-6484200I-15000J0D01*
G01*
X17283560Y-6284200D02*
G75*
G03*
X17283560Y-6284200I-15000J0D01*
G01*
X17283560Y-6384200D02*
G75*
G03*
X17283560Y-6384200I-15000J0D01*
G01*
X17283560Y-6484200D02*
G75*
G03*
X17283560Y-6484200I-15000J0D01*
G01*
X17383560Y-6284200D02*
G75*
G03*
X17383560Y-6284200I-15000J0D01*
G01*
X17383560Y-6384200D02*
G75*
G03*
X17383560Y-6384200I-15000J0D01*
G01*
X17383560Y-6484200D02*
G75*
G03*
X17383560Y-6484200I-15000J0D01*
G01*
X17483560Y-6284200D02*
G75*
G03*
X17483560Y-6284200I-15000J0D01*
G01*
X17483560Y-6384200D02*
G75*
G03*
X17483560Y-6384200I-15000J0D01*
G01*
X17483560Y-6484200D02*
G75*
G03*
X17483560Y-6484200I-15000J0D01*
G01*
X19164393Y-6284200D02*
G75*
G03*
X19164393Y-6284200I-15000J0D01*
G01*
X19164393Y-6384200D02*
G75*
G03*
X19164393Y-6384200I-15000J0D01*
G01*
X19164393Y-6484200D02*
G75*
G03*
X19164393Y-6484200I-15000J0D01*
G01*
X19264393Y-6284200D02*
G75*
G03*
X19264393Y-6284200I-15000J0D01*
G01*
X19264393Y-6384200D02*
G75*
G03*
X19264393Y-6384200I-15000J0D01*
G01*
X19264393Y-6484200D02*
G75*
G03*
X19264393Y-6484200I-15000J0D01*
G01*
X19364393Y-6284200D02*
G75*
G03*
X19364393Y-6284200I-15000J0D01*
G01*
X19364393Y-6384200D02*
G75*
G03*
X19364393Y-6384200I-15000J0D01*
G01*
X19364393Y-6484200D02*
G75*
G03*
X19364393Y-6484200I-15000J0D01*
G01*
X21045227Y-6284200D02*
G75*
G03*
X21045227Y-6284200I-15000J0D01*
G01*
X21045227Y-6384200D02*
G75*
G03*
X21045227Y-6384200I-15000J0D01*
G01*
X21045227Y-6484200D02*
G75*
G03*
X21045227Y-6484200I-15000J0D01*
G01*
X21145227Y-6284200D02*
G75*
G03*
X21145227Y-6284200I-15000J0D01*
G01*
X21145227Y-6384200D02*
G75*
G03*
X21145227Y-6384200I-15000J0D01*
G01*
X21145227Y-6484200D02*
G75*
G03*
X21145227Y-6484200I-15000J0D01*
G01*
X21245227Y-6284200D02*
G75*
G03*
X21245227Y-6284200I-15000J0D01*
G01*
X21245227Y-6384200D02*
G75*
G03*
X21245227Y-6384200I-15000J0D01*
G01*
X21245227Y-6484200D02*
G75*
G03*
X21245227Y-6484200I-15000J0D01*
G01*
D14*
X18460000Y-9642000D02*
X18460000Y-9742000D01*
X18410000Y-9692000D02*
X18510000Y-9692000D01*
X18460000Y-9896000D02*
X18460000Y-9996000D01*
X18410000Y-9946000D02*
X18510000Y-9946000D01*
X18460000Y-10150000D02*
X18460000Y-10250000D01*
X18410000Y-10200000D02*
X18510000Y-10200000D01*
X18460000Y-10404000D02*
X18460000Y-10504000D01*
X18410000Y-10454000D02*
X18510000Y-10454000D01*
D15*
X7337575Y-6747515D02*
X7337575Y-6670284D01*
X7260344Y-6670284D01*
X7260344Y-6747515D01*
X7337575Y-6747515D01*
X7337575Y-7001515D02*
X7337575Y-6924284D01*
X7260344Y-6924284D01*
X7260344Y-7001515D01*
X7337575Y-7001515D01*
X7337575Y-7255515D02*
X7337575Y-7178284D01*
X7260344Y-7178284D01*
X7260344Y-7255515D01*
X7337575Y-7255515D01*
X7337575Y-7509515D02*
X7337575Y-7432284D01*
X7260344Y-7432284D01*
X7260344Y-7509515D01*
X7337575Y-7509515D01*
X7340075Y-4949516D02*
X7340075Y-4872285D01*
X7262844Y-4872285D01*
X7262844Y-4949516D01*
X7340075Y-4949516D01*
X7340075Y-5203516D02*
X7340075Y-5126285D01*
X7262844Y-5126285D01*
X7262844Y-5203516D01*
X7340075Y-5203516D01*
X7340075Y-5457516D02*
X7340075Y-5380285D01*
X7262844Y-5380285D01*
X7262844Y-5457516D01*
X7340075Y-5457516D01*
X7340075Y-5711515D02*
X7340075Y-5634284D01*
X7262844Y-5634284D01*
X7262844Y-5711515D01*
X7340075Y-5711515D01*
X7340075Y-8545516D02*
X7340075Y-8468285D01*
X7262844Y-8468285D01*
X7262844Y-8545516D01*
X7340075Y-8545516D01*
X7340075Y-8799516D02*
X7340075Y-8722285D01*
X7262844Y-8722285D01*
X7262844Y-8799516D01*
X7340075Y-8799516D01*
X7340075Y-9053516D02*
X7340075Y-8976285D01*
X7262844Y-8976285D01*
X7262844Y-9053516D01*
X7340075Y-9053516D01*
X7340075Y-9307516D02*
X7340075Y-9230285D01*
X7262844Y-9230285D01*
X7262844Y-9307516D01*
X7340075Y-9307516D01*
X7340075Y-10343516D02*
X7340075Y-10266285D01*
X7262844Y-10266285D01*
X7262844Y-10343516D01*
X7340075Y-10343516D01*
X7340075Y-10597516D02*
X7340075Y-10520285D01*
X7262844Y-10520285D01*
X7262844Y-10597516D01*
X7340075Y-10597516D01*
X7340075Y-10851516D02*
X7340075Y-10774285D01*
X7262844Y-10774285D01*
X7262844Y-10851516D01*
X7340075Y-10851516D01*
X7340075Y-11105516D02*
X7340075Y-11028285D01*
X7262844Y-11028285D01*
X7262844Y-11105516D01*
X7340075Y-11105516D01*
X7362694Y-12141515D02*
X7362694Y-12064284D01*
X7285463Y-12064284D01*
X7285463Y-12141515D01*
X7362694Y-12141515D01*
X7362694Y-12395515D02*
X7362694Y-12318284D01*
X7285463Y-12318284D01*
X7285463Y-12395515D01*
X7362694Y-12395515D01*
X7362694Y-12649515D02*
X7362694Y-12572284D01*
X7285463Y-12572284D01*
X7285463Y-12649515D01*
X7362694Y-12649515D01*
X7362694Y-12903515D02*
X7362694Y-12826284D01*
X7285463Y-12826284D01*
X7285463Y-12903515D01*
X7362694Y-12903515D01*
X7362694Y-13939515D02*
X7362694Y-13862284D01*
X7285463Y-13862284D01*
X7285463Y-13939515D01*
X7362694Y-13939515D01*
X7362694Y-14193515D02*
X7362694Y-14116284D01*
X7285463Y-14116284D01*
X7285463Y-14193515D01*
X7362694Y-14193515D01*
X7362694Y-14447515D02*
X7362694Y-14370284D01*
X7285463Y-14370284D01*
X7285463Y-14447515D01*
X7362694Y-14447515D01*
X7362694Y-14701515D02*
X7362694Y-14624284D01*
X7285463Y-14624284D01*
X7285463Y-14701515D01*
X7362694Y-14701515D01*
X8330175Y-15168615D02*
X8330175Y-15091384D01*
X8252944Y-15091384D01*
X8252944Y-15168615D01*
X8330175Y-15168615D01*
X8584176Y-15168615D02*
X8584176Y-15091384D01*
X8506945Y-15091384D01*
X8506945Y-15168615D01*
X8584176Y-15168615D01*
X9424997Y-15168615D02*
X9424997Y-15091384D01*
X9347766Y-15091384D01*
X9347766Y-15168615D01*
X9424997Y-15168615D01*
X9678997Y-15168615D02*
X9678997Y-15091384D01*
X9601766Y-15091384D01*
X9601766Y-15168615D01*
X9678997Y-15168615D01*
X10519818Y-15168615D02*
X10519818Y-15091384D01*
X10442587Y-15091384D01*
X10442587Y-15168615D01*
X10519818Y-15168615D01*
X10773818Y-15168615D02*
X10773818Y-15091384D01*
X10696587Y-15091384D01*
X10696587Y-15168615D01*
X10773818Y-15168615D01*
X11614640Y-15168615D02*
X11614640Y-15091384D01*
X11537409Y-15091384D01*
X11537409Y-15168615D01*
X11614640Y-15168615D01*
X11868640Y-15168615D02*
X11868640Y-15091384D01*
X11791409Y-15091384D01*
X11791409Y-15168615D01*
X11868640Y-15168615D01*
X12709461Y-15168615D02*
X12709461Y-15091384D01*
X12632230Y-15091384D01*
X12632230Y-15168615D01*
X12709461Y-15168615D01*
X12963461Y-15168615D02*
X12963461Y-15091384D01*
X12886230Y-15091384D01*
X12886230Y-15168615D01*
X12963461Y-15168615D01*
X13804282Y-15168615D02*
X13804282Y-15091384D01*
X13727051Y-15091384D01*
X13727051Y-15168615D01*
X13804282Y-15168615D01*
X14058282Y-15168615D02*
X14058282Y-15091384D01*
X13981051Y-15091384D01*
X13981051Y-15168615D01*
X14058282Y-15168615D01*
X14899104Y-15168615D02*
X14899104Y-15091384D01*
X14821873Y-15091384D01*
X14821873Y-15168615D01*
X14899104Y-15168615D01*
X15153104Y-15168615D02*
X15153104Y-15091384D01*
X15075873Y-15091384D01*
X15075873Y-15168615D01*
X15153104Y-15168615D01*
X15993925Y-15168615D02*
X15993925Y-15091384D01*
X15916694Y-15091384D01*
X15916694Y-15168615D01*
X15993925Y-15168615D01*
X16247925Y-15168615D02*
X16247925Y-15091384D01*
X16170694Y-15091384D01*
X16170694Y-15168615D01*
X16247925Y-15168615D01*
X17088747Y-15168615D02*
X17088747Y-15091384D01*
X17011516Y-15091384D01*
X17011516Y-15168615D01*
X17088747Y-15168615D01*
X17342747Y-15168615D02*
X17342747Y-15091384D01*
X17265516Y-15091384D01*
X17265516Y-15168615D01*
X17342747Y-15168615D01*
X18183568Y-15168615D02*
X18183568Y-15091384D01*
X18106337Y-15091384D01*
X18106337Y-15168615D01*
X18183568Y-15168615D01*
X18437568Y-15168615D02*
X18437568Y-15091384D01*
X18360337Y-15091384D01*
X18360337Y-15168615D01*
X18437568Y-15168615D01*
X19278390Y-15168615D02*
X19278390Y-15091384D01*
X19201159Y-15091384D01*
X19201159Y-15168615D01*
X19278390Y-15168615D01*
X19532390Y-15168615D02*
X19532390Y-15091384D01*
X19455159Y-15091384D01*
X19455159Y-15168615D01*
X19532390Y-15168615D01*
X20373211Y-15168615D02*
X20373211Y-15091384D01*
X20295980Y-15091384D01*
X20295980Y-15168615D01*
X20373211Y-15168615D01*
X20627211Y-15168615D02*
X20627211Y-15091384D01*
X20549980Y-15091384D01*
X20549980Y-15168615D01*
X20627211Y-15168615D01*
X20634376Y-8053415D02*
X20634376Y-7976184D01*
X20557145Y-7976184D01*
X20557145Y-8053415D01*
X20634376Y-8053415D01*
X20634376Y-8307415D02*
X20634376Y-8230184D01*
X20557145Y-8230184D01*
X20557145Y-8307415D01*
X20634376Y-8307415D01*
X20634376Y-13279215D02*
X20634376Y-13201984D01*
X20557145Y-13201984D01*
X20557145Y-13279215D01*
X20634376Y-13279215D01*
X20634376Y-13533215D02*
X20634376Y-13455984D01*
X20557145Y-13455984D01*
X20557145Y-13533215D01*
X20634376Y-13533215D01*
X21468033Y-15168615D02*
X21468033Y-15091384D01*
X21390802Y-15091384D01*
X21390802Y-15168615D01*
X21468033Y-15168615D01*
X21722033Y-15168615D02*
X21722033Y-15091384D01*
X21644802Y-15091384D01*
X21644802Y-15168615D01*
X21722033Y-15168615D01*
D16*
X9528560Y-4979200D02*
X9583560Y-4924200D01*
X9528560Y-4869200D01*
X9473560Y-4924200D01*
X9528560Y-4979200D01*
X10318560Y-4979200D02*
X10373560Y-4924200D01*
X10318560Y-4869200D01*
X10263560Y-4924200D01*
X10318560Y-4979200D01*
X11409393Y-4979200D02*
X11464393Y-4924200D01*
X11409393Y-4869200D01*
X11354393Y-4924200D01*
X11409393Y-4979200D01*
X12199393Y-4979200D02*
X12254393Y-4924200D01*
X12199393Y-4869200D01*
X12144393Y-4924200D01*
X12199393Y-4979200D01*
X13290227Y-4979200D02*
X13345227Y-4924200D01*
X13290227Y-4869200D01*
X13235227Y-4924200D01*
X13290227Y-4979200D01*
X14080227Y-4979200D02*
X14135227Y-4924200D01*
X14080227Y-4869200D01*
X14025227Y-4924200D01*
X14080227Y-4979200D01*
X15171060Y-4979200D02*
X15226060Y-4924200D01*
X15171060Y-4869200D01*
X15116060Y-4924200D01*
X15171060Y-4979200D01*
X15961060Y-4979200D02*
X16016060Y-4924200D01*
X15961060Y-4869200D01*
X15906060Y-4924200D01*
X15961060Y-4979200D01*
X17051893Y-4979200D02*
X17106893Y-4924200D01*
X17051893Y-4869200D01*
X16996893Y-4924200D01*
X17051893Y-4979200D01*
X17841893Y-4979200D02*
X17896893Y-4924200D01*
X17841893Y-4869200D01*
X17786893Y-4924200D01*
X17841893Y-4979200D01*
X18932727Y-4979200D02*
X18987727Y-4924200D01*
X18932727Y-4869200D01*
X18877727Y-4924200D01*
X18932727Y-4979200D01*
X19722727Y-4979200D02*
X19777727Y-4924200D01*
X19722727Y-4869200D01*
X19667727Y-4924200D01*
X19722727Y-4979200D01*
X20813560Y-4979200D02*
X20868560Y-4924200D01*
X20813560Y-4869200D01*
X20758560Y-4924200D01*
X20813560Y-4979200D01*
X21603560Y-4979200D02*
X21658560Y-4924200D01*
X21603560Y-4869200D01*
X21548560Y-4924200D01*
X21603560Y-4979200D01*
D17*
X20512500Y-9314333D02*
X20662500Y-9464333D01*
X20662500Y-9314333D02*
X20512500Y-9464333D01*
X20662500Y-9389333D02*
G75*
G03*
X20662500Y-9389333I-75000J0D01*
G01*
D11*
X20522500Y-9264333D02*
X20522500Y-9514333D01*
X20652500Y-9264333D02*
X20652500Y-9514333D01*
X20522500Y-9514333D02*
G75*
G03*
X20652500Y-9514333I65000J0D01*
G01*
X20652500Y-9264333D02*
G75*
G03*
X20522500Y-9264333I-65000J0D01*
G01*
D17*
X20512500Y-10104333D02*
X20662500Y-10254333D01*
X20662500Y-10104333D02*
X20512500Y-10254333D01*
X20662500Y-10179333D02*
G75*
G03*
X20662500Y-10179333I-75000J0D01*
G01*
D11*
X20522500Y-10054333D02*
X20522500Y-10304333D01*
X20652500Y-10054333D02*
X20652500Y-10304333D01*
X20522500Y-10304333D02*
G75*
G03*
X20652500Y-10304333I65000J0D01*
G01*
X20652500Y-10054333D02*
G75*
G03*
X20522500Y-10054333I-65000J0D01*
G01*
D17*
X20520760Y-11255067D02*
X20670760Y-11405067D01*
X20670760Y-11255067D02*
X20520760Y-11405067D01*
X20670760Y-11330067D02*
G75*
G03*
X20670760Y-11330067I-75000J0D01*
G01*
D11*
X20530760Y-11205067D02*
X20530760Y-11455067D01*
X20660760Y-11205067D02*
X20660760Y-11455067D01*
X20530760Y-11455067D02*
G75*
G03*
X20660760Y-11455067I65000J0D01*
G01*
X20660760Y-11205067D02*
G75*
G03*
X20530760Y-11205067I-65000J0D01*
G01*
D17*
X20520760Y-12045067D02*
X20670760Y-12195067D01*
X20670760Y-12045067D02*
X20520760Y-12195067D01*
X20670760Y-12120067D02*
G75*
G03*
X20670760Y-12120067I-75000J0D01*
G01*
D11*
X20530760Y-11995067D02*
X20530760Y-12245067D01*
X20660760Y-11995067D02*
X20660760Y-12245067D01*
X20530760Y-12245067D02*
G75*
G03*
X20660760Y-12245067I65000J0D01*
G01*
X20660760Y-11995067D02*
G75*
G03*
X20530760Y-11995067I-65000J0D01*
G01*
X5972619Y-16995476D02*
X5972619Y-16795476D01*
X6020238Y-16795476D01*
X6048809Y-16805000D01*
X6067857Y-16824048D01*
X6077381Y-16843095D01*
X6086905Y-16881190D01*
X6086905Y-16909762D01*
X6077381Y-16947857D01*
X6067857Y-16966905D01*
X6048809Y-16985952D01*
X6020238Y-16995476D01*
X5972619Y-16995476D01*
X6172619Y-16995476D02*
X6172619Y-16862143D01*
X6172619Y-16900238D02*
X6182143Y-16881190D01*
X6191667Y-16871667D01*
X6210714Y-16862143D01*
X6229762Y-16862143D01*
X6296428Y-16995476D02*
X6296428Y-16862143D01*
X6296428Y-16795476D02*
X6286905Y-16805000D01*
X6296428Y-16814524D01*
X6305952Y-16805000D01*
X6296428Y-16795476D01*
X6296428Y-16814524D01*
X6420238Y-16995476D02*
X6401190Y-16985952D01*
X6391667Y-16966905D01*
X6391667Y-16795476D01*
X6525000Y-16995476D02*
X6505952Y-16985952D01*
X6496428Y-16966905D01*
X6496428Y-16795476D01*
X6753571Y-16995476D02*
X6753571Y-16795476D01*
X6820238Y-16938333D01*
X6886905Y-16795476D01*
X6886905Y-16995476D01*
X7067857Y-16995476D02*
X7067857Y-16890714D01*
X7058333Y-16871667D01*
X7039286Y-16862143D01*
X7001190Y-16862143D01*
X6982143Y-16871667D01*
X7067857Y-16985952D02*
X7048809Y-16995476D01*
X7001190Y-16995476D01*
X6982143Y-16985952D01*
X6972619Y-16966905D01*
X6972619Y-16947857D01*
X6982143Y-16928810D01*
X7001190Y-16919286D01*
X7048809Y-16919286D01*
X7067857Y-16909762D01*
X7163095Y-16862143D02*
X7163095Y-17062143D01*
X7163095Y-16871667D02*
X7182143Y-16862143D01*
X7220238Y-16862143D01*
X7239286Y-16871667D01*
X7248809Y-16881190D01*
X7258333Y-16900238D01*
X7258333Y-16957381D01*
X7248809Y-16976429D01*
X7239286Y-16985952D01*
X7220238Y-16995476D01*
X7182143Y-16995476D01*
X7163095Y-16985952D01*
X7344048Y-16976429D02*
X7353571Y-16985952D01*
X7344048Y-16995476D01*
X7334524Y-16985952D01*
X7344048Y-16976429D01*
X7344048Y-16995476D01*
X7344048Y-16871667D02*
X7353571Y-16881190D01*
X7344048Y-16890714D01*
X7334524Y-16881190D01*
X7344048Y-16871667D01*
X7344048Y-16890714D01*
D12*
X5695000Y-17315000D02*
X5715000Y-17335000D01*
X5715000Y-17315000D02*
X5695000Y-17335000D01*
D11*
X6010714Y-17215476D02*
X6029762Y-17215476D01*
X6048809Y-17225000D01*
X6058333Y-17234524D01*
X6067857Y-17253571D01*
X6077381Y-17291667D01*
X6077381Y-17339286D01*
X6067857Y-17377381D01*
X6058333Y-17396429D01*
X6048809Y-17405952D01*
X6029762Y-17415476D01*
X6010714Y-17415476D01*
X5991667Y-17405952D01*
X5982143Y-17396429D01*
X5972619Y-17377381D01*
X5963095Y-17339286D01*
X5963095Y-17291667D01*
X5972619Y-17253571D01*
X5982143Y-17234524D01*
X5991667Y-17225000D01*
X6010714Y-17215476D01*
X6163095Y-17396429D02*
X6172619Y-17405952D01*
X6163095Y-17415476D01*
X6153571Y-17405952D01*
X6163095Y-17396429D01*
X6163095Y-17415476D01*
X6248809Y-17234524D02*
X6258333Y-17225000D01*
X6277381Y-17215476D01*
X6325000Y-17215476D01*
X6344048Y-17225000D01*
X6353571Y-17234524D01*
X6363095Y-17253571D01*
X6363095Y-17272619D01*
X6353571Y-17301190D01*
X6239286Y-17415476D01*
X6363095Y-17415476D01*
X6486905Y-17215476D02*
X6505952Y-17215476D01*
X6525000Y-17225000D01*
X6534524Y-17234524D01*
X6544048Y-17253571D01*
X6553571Y-17291667D01*
X6553571Y-17339286D01*
X6544048Y-17377381D01*
X6534524Y-17396429D01*
X6525000Y-17405952D01*
X6505952Y-17415476D01*
X6486905Y-17415476D01*
X6467857Y-17405952D01*
X6458333Y-17396429D01*
X6448809Y-17377381D01*
X6439286Y-17339286D01*
X6439286Y-17291667D01*
X6448809Y-17253571D01*
X6458333Y-17234524D01*
X6467857Y-17225000D01*
X6486905Y-17215476D01*
X6677381Y-17215476D02*
X6696428Y-17215476D01*
X6715476Y-17225000D01*
X6725000Y-17234524D01*
X6734524Y-17253571D01*
X6744048Y-17291667D01*
X6744048Y-17339286D01*
X6734524Y-17377381D01*
X6725000Y-17396429D01*
X6715476Y-17405952D01*
X6696428Y-17415476D01*
X6677381Y-17415476D01*
X6658333Y-17405952D01*
X6648809Y-17396429D01*
X6639286Y-17377381D01*
X6629762Y-17339286D01*
X6629762Y-17291667D01*
X6639286Y-17253571D01*
X6648809Y-17234524D01*
X6658333Y-17225000D01*
X6677381Y-17215476D01*
X6829762Y-17415476D02*
X6829762Y-17282143D01*
X6829762Y-17301190D02*
X6839286Y-17291667D01*
X6858333Y-17282143D01*
X6886905Y-17282143D01*
X6905952Y-17291667D01*
X6915476Y-17310714D01*
X6915476Y-17415476D01*
X6915476Y-17310714D02*
X6925000Y-17291667D01*
X6944048Y-17282143D01*
X6972619Y-17282143D01*
X6991667Y-17291667D01*
X7001190Y-17310714D01*
X7001190Y-17415476D01*
X7096428Y-17415476D02*
X7096428Y-17282143D01*
X7096428Y-17301190D02*
X7105952Y-17291667D01*
X7125000Y-17282143D01*
X7153571Y-17282143D01*
X7172619Y-17291667D01*
X7182143Y-17310714D01*
X7182143Y-17415476D01*
X7182143Y-17310714D02*
X7191667Y-17291667D01*
X7210714Y-17282143D01*
X7239286Y-17282143D01*
X7258333Y-17291667D01*
X7267857Y-17310714D01*
X7267857Y-17415476D01*
X7658333Y-17205952D02*
X7486905Y-17463095D01*
X7915476Y-17215476D02*
X7934524Y-17215476D01*
X7953571Y-17225000D01*
X7963095Y-17234524D01*
X7972619Y-17253571D01*
X7982143Y-17291667D01*
X7982143Y-17339286D01*
X7972619Y-17377381D01*
X7963095Y-17396429D01*
X7953571Y-17405952D01*
X7934524Y-17415476D01*
X7915476Y-17415476D01*
X7896428Y-17405952D01*
X7886905Y-17396429D01*
X7877381Y-17377381D01*
X7867857Y-17339286D01*
X7867857Y-17291667D01*
X7877381Y-17253571D01*
X7886905Y-17234524D01*
X7896428Y-17225000D01*
X7915476Y-17215476D01*
X8067857Y-17396429D02*
X8077381Y-17405952D01*
X8067857Y-17415476D01*
X8058333Y-17405952D01*
X8067857Y-17396429D01*
X8067857Y-17415476D01*
X8201190Y-17215476D02*
X8220238Y-17215476D01*
X8239286Y-17225000D01*
X8248809Y-17234524D01*
X8258333Y-17253571D01*
X8267857Y-17291667D01*
X8267857Y-17339286D01*
X8258333Y-17377381D01*
X8248809Y-17396429D01*
X8239286Y-17405952D01*
X8220238Y-17415476D01*
X8201190Y-17415476D01*
X8182143Y-17405952D01*
X8172619Y-17396429D01*
X8163095Y-17377381D01*
X8153571Y-17339286D01*
X8153571Y-17291667D01*
X8163095Y-17253571D01*
X8172619Y-17234524D01*
X8182143Y-17225000D01*
X8201190Y-17215476D01*
X8391667Y-17215476D02*
X8410714Y-17215476D01*
X8429762Y-17225000D01*
X8439286Y-17234524D01*
X8448810Y-17253571D01*
X8458333Y-17291667D01*
X8458333Y-17339286D01*
X8448810Y-17377381D01*
X8439286Y-17396429D01*
X8429762Y-17405952D01*
X8410714Y-17415476D01*
X8391667Y-17415476D01*
X8372619Y-17405952D01*
X8363095Y-17396429D01*
X8353571Y-17377381D01*
X8344048Y-17339286D01*
X8344048Y-17291667D01*
X8353571Y-17253571D01*
X8363095Y-17234524D01*
X8372619Y-17225000D01*
X8391667Y-17215476D01*
X8525000Y-17215476D02*
X8658333Y-17215476D01*
X8572619Y-17415476D01*
X8744048Y-17415476D02*
X8782143Y-17415476D01*
X8801190Y-17405952D01*
X8810714Y-17396429D01*
X8829762Y-17367857D01*
X8839286Y-17329762D01*
X8839286Y-17253571D01*
X8829762Y-17234524D01*
X8820238Y-17225000D01*
X8801190Y-17215476D01*
X8763095Y-17215476D01*
X8744048Y-17225000D01*
X8734524Y-17234524D01*
X8725000Y-17253571D01*
X8725000Y-17301190D01*
X8734524Y-17320238D01*
X8744048Y-17329762D01*
X8763095Y-17339286D01*
X8801190Y-17339286D01*
X8820238Y-17329762D01*
X8829762Y-17320238D01*
X8839286Y-17301190D01*
X8915476Y-17215476D02*
X8915476Y-17253571D01*
X8991667Y-17215476D02*
X8991667Y-17253571D01*
X9286905Y-17491667D02*
X9277381Y-17482143D01*
X9258333Y-17453571D01*
X9248810Y-17434524D01*
X9239286Y-17405952D01*
X9229762Y-17358333D01*
X9229762Y-17320238D01*
X9239286Y-17272619D01*
X9248810Y-17244048D01*
X9258333Y-17225000D01*
X9277381Y-17196429D01*
X9286905Y-17186905D01*
X9448810Y-17282143D02*
X9448810Y-17415476D01*
X9401190Y-17205952D02*
X9353571Y-17348810D01*
X9477381Y-17348810D01*
X9639286Y-17282143D02*
X9639286Y-17415476D01*
X9591667Y-17205952D02*
X9544048Y-17348810D01*
X9667857Y-17348810D01*
X9839286Y-17215476D02*
X9744048Y-17215476D01*
X9734524Y-17310714D01*
X9744048Y-17301190D01*
X9763095Y-17291667D01*
X9810714Y-17291667D01*
X9829762Y-17301190D01*
X9839286Y-17310714D01*
X9848810Y-17329762D01*
X9848810Y-17377381D01*
X9839286Y-17396429D01*
X9829762Y-17405952D01*
X9810714Y-17415476D01*
X9763095Y-17415476D01*
X9744048Y-17405952D01*
X9734524Y-17396429D01*
X10086905Y-17415476D02*
X10086905Y-17215476D01*
X10172619Y-17415476D02*
X10172619Y-17310714D01*
X10163095Y-17291667D01*
X10144048Y-17282143D01*
X10115476Y-17282143D01*
X10096429Y-17291667D01*
X10086905Y-17301190D01*
X10296429Y-17415476D02*
X10277381Y-17405952D01*
X10267857Y-17396429D01*
X10258333Y-17377381D01*
X10258333Y-17320238D01*
X10267857Y-17301190D01*
X10277381Y-17291667D01*
X10296429Y-17282143D01*
X10325000Y-17282143D01*
X10344048Y-17291667D01*
X10353571Y-17301190D01*
X10363095Y-17320238D01*
X10363095Y-17377381D01*
X10353571Y-17396429D01*
X10344048Y-17405952D01*
X10325000Y-17415476D01*
X10296429Y-17415476D01*
X10477381Y-17415476D02*
X10458333Y-17405952D01*
X10448810Y-17386905D01*
X10448810Y-17215476D01*
X10629762Y-17405952D02*
X10610714Y-17415476D01*
X10572619Y-17415476D01*
X10553571Y-17405952D01*
X10544048Y-17386905D01*
X10544048Y-17310714D01*
X10553571Y-17291667D01*
X10572619Y-17282143D01*
X10610714Y-17282143D01*
X10629762Y-17291667D01*
X10639286Y-17310714D01*
X10639286Y-17329762D01*
X10544048Y-17348810D01*
X10715476Y-17405952D02*
X10734524Y-17415476D01*
X10772619Y-17415476D01*
X10791667Y-17405952D01*
X10801190Y-17386905D01*
X10801190Y-17377381D01*
X10791667Y-17358333D01*
X10772619Y-17348810D01*
X10744048Y-17348810D01*
X10725000Y-17339286D01*
X10715476Y-17320238D01*
X10715476Y-17310714D01*
X10725000Y-17291667D01*
X10744048Y-17282143D01*
X10772619Y-17282143D01*
X10791667Y-17291667D01*
X10867857Y-17491667D02*
X10877381Y-17482143D01*
X10896429Y-17453571D01*
X10905952Y-17434524D01*
X10915476Y-17405952D01*
X10925000Y-17358333D01*
X10925000Y-17320238D01*
X10915476Y-17272619D01*
X10905952Y-17244048D01*
X10896429Y-17225000D01*
X10877381Y-17196429D01*
X10867857Y-17186905D01*
D13*
X5715000Y-17589000D02*
G75*
G03*
X5715000Y-17589000I-15000J0D01*
G01*
D11*
X6010714Y-17479476D02*
X6029762Y-17479476D01*
X6048809Y-17489000D01*
X6058333Y-17498524D01*
X6067857Y-17517571D01*
X6077381Y-17555667D01*
X6077381Y-17603286D01*
X6067857Y-17641381D01*
X6058333Y-17660429D01*
X6048809Y-17669952D01*
X6029762Y-17679476D01*
X6010714Y-17679476D01*
X5991667Y-17669952D01*
X5982143Y-17660429D01*
X5972619Y-17641381D01*
X5963095Y-17603286D01*
X5963095Y-17555667D01*
X5972619Y-17517571D01*
X5982143Y-17498524D01*
X5991667Y-17489000D01*
X6010714Y-17479476D01*
X6163095Y-17660429D02*
X6172619Y-17669952D01*
X6163095Y-17679476D01*
X6153571Y-17669952D01*
X6163095Y-17660429D01*
X6163095Y-17679476D01*
X6239286Y-17479476D02*
X6363095Y-17479476D01*
X6296428Y-17555667D01*
X6325000Y-17555667D01*
X6344048Y-17565190D01*
X6353571Y-17574714D01*
X6363095Y-17593762D01*
X6363095Y-17641381D01*
X6353571Y-17660429D01*
X6344048Y-17669952D01*
X6325000Y-17679476D01*
X6267857Y-17679476D01*
X6248809Y-17669952D01*
X6239286Y-17660429D01*
X6486905Y-17479476D02*
X6505952Y-17479476D01*
X6525000Y-17489000D01*
X6534524Y-17498524D01*
X6544048Y-17517571D01*
X6553571Y-17555667D01*
X6553571Y-17603286D01*
X6544048Y-17641381D01*
X6534524Y-17660429D01*
X6525000Y-17669952D01*
X6505952Y-17679476D01*
X6486905Y-17679476D01*
X6467857Y-17669952D01*
X6458333Y-17660429D01*
X6448809Y-17641381D01*
X6439286Y-17603286D01*
X6439286Y-17555667D01*
X6448809Y-17517571D01*
X6458333Y-17498524D01*
X6467857Y-17489000D01*
X6486905Y-17479476D01*
X6677381Y-17479476D02*
X6696428Y-17479476D01*
X6715476Y-17489000D01*
X6725000Y-17498524D01*
X6734524Y-17517571D01*
X6744048Y-17555667D01*
X6744048Y-17603286D01*
X6734524Y-17641381D01*
X6725000Y-17660429D01*
X6715476Y-17669952D01*
X6696428Y-17679476D01*
X6677381Y-17679476D01*
X6658333Y-17669952D01*
X6648809Y-17660429D01*
X6639286Y-17641381D01*
X6629762Y-17603286D01*
X6629762Y-17555667D01*
X6639286Y-17517571D01*
X6648809Y-17498524D01*
X6658333Y-17489000D01*
X6677381Y-17479476D01*
X6829762Y-17679476D02*
X6829762Y-17546143D01*
X6829762Y-17565190D02*
X6839286Y-17555667D01*
X6858333Y-17546143D01*
X6886905Y-17546143D01*
X6905952Y-17555667D01*
X6915476Y-17574714D01*
X6915476Y-17679476D01*
X6915476Y-17574714D02*
X6925000Y-17555667D01*
X6944048Y-17546143D01*
X6972619Y-17546143D01*
X6991667Y-17555667D01*
X7001190Y-17574714D01*
X7001190Y-17679476D01*
X7096428Y-17679476D02*
X7096428Y-17546143D01*
X7096428Y-17565190D02*
X7105952Y-17555667D01*
X7125000Y-17546143D01*
X7153571Y-17546143D01*
X7172619Y-17555667D01*
X7182143Y-17574714D01*
X7182143Y-17679476D01*
X7182143Y-17574714D02*
X7191667Y-17555667D01*
X7210714Y-17546143D01*
X7239286Y-17546143D01*
X7258333Y-17555667D01*
X7267857Y-17574714D01*
X7267857Y-17679476D01*
X7658333Y-17469952D02*
X7486905Y-17727095D01*
X7915476Y-17479476D02*
X7934524Y-17479476D01*
X7953571Y-17489000D01*
X7963095Y-17498524D01*
X7972619Y-17517571D01*
X7982143Y-17555667D01*
X7982143Y-17603286D01*
X7972619Y-17641381D01*
X7963095Y-17660429D01*
X7953571Y-17669952D01*
X7934524Y-17679476D01*
X7915476Y-17679476D01*
X7896428Y-17669952D01*
X7886905Y-17660429D01*
X7877381Y-17641381D01*
X7867857Y-17603286D01*
X7867857Y-17555667D01*
X7877381Y-17517571D01*
X7886905Y-17498524D01*
X7896428Y-17489000D01*
X7915476Y-17479476D01*
X8067857Y-17660429D02*
X8077381Y-17669952D01*
X8067857Y-17679476D01*
X8058333Y-17669952D01*
X8067857Y-17660429D01*
X8067857Y-17679476D01*
X8201190Y-17479476D02*
X8220238Y-17479476D01*
X8239286Y-17489000D01*
X8248809Y-17498524D01*
X8258333Y-17517571D01*
X8267857Y-17555667D01*
X8267857Y-17603286D01*
X8258333Y-17641381D01*
X8248809Y-17660429D01*
X8239286Y-17669952D01*
X8220238Y-17679476D01*
X8201190Y-17679476D01*
X8182143Y-17669952D01*
X8172619Y-17660429D01*
X8163095Y-17641381D01*
X8153571Y-17603286D01*
X8153571Y-17555667D01*
X8163095Y-17517571D01*
X8172619Y-17498524D01*
X8182143Y-17489000D01*
X8201190Y-17479476D01*
X8458333Y-17679476D02*
X8344048Y-17679476D01*
X8401190Y-17679476D02*
X8401190Y-17479476D01*
X8382143Y-17508048D01*
X8363095Y-17527095D01*
X8344048Y-17536619D01*
X8648810Y-17679476D02*
X8534524Y-17679476D01*
X8591667Y-17679476D02*
X8591667Y-17479476D01*
X8572619Y-17508048D01*
X8553571Y-17527095D01*
X8534524Y-17536619D01*
X8763095Y-17565190D02*
X8744048Y-17555667D01*
X8734524Y-17546143D01*
X8725000Y-17527095D01*
X8725000Y-17517571D01*
X8734524Y-17498524D01*
X8744048Y-17489000D01*
X8763095Y-17479476D01*
X8801190Y-17479476D01*
X8820238Y-17489000D01*
X8829762Y-17498524D01*
X8839286Y-17517571D01*
X8839286Y-17527095D01*
X8829762Y-17546143D01*
X8820238Y-17555667D01*
X8801190Y-17565190D01*
X8763095Y-17565190D01*
X8744048Y-17574714D01*
X8734524Y-17584238D01*
X8725000Y-17603286D01*
X8725000Y-17641381D01*
X8734524Y-17660429D01*
X8744048Y-17669952D01*
X8763095Y-17679476D01*
X8801190Y-17679476D01*
X8820238Y-17669952D01*
X8829762Y-17660429D01*
X8839286Y-17641381D01*
X8839286Y-17603286D01*
X8829762Y-17584238D01*
X8820238Y-17574714D01*
X8801190Y-17565190D01*
X8915476Y-17479476D02*
X8915476Y-17517571D01*
X8991667Y-17479476D02*
X8991667Y-17517571D01*
X9286905Y-17755667D02*
X9277381Y-17746143D01*
X9258333Y-17717571D01*
X9248810Y-17698524D01*
X9239286Y-17669952D01*
X9229762Y-17622333D01*
X9229762Y-17584238D01*
X9239286Y-17536619D01*
X9248810Y-17508048D01*
X9258333Y-17489000D01*
X9277381Y-17460429D01*
X9286905Y-17450905D01*
X9448810Y-17479476D02*
X9410714Y-17479476D01*
X9391667Y-17489000D01*
X9382143Y-17498524D01*
X9363095Y-17527095D01*
X9353571Y-17565190D01*
X9353571Y-17641381D01*
X9363095Y-17660429D01*
X9372619Y-17669952D01*
X9391667Y-17679476D01*
X9429762Y-17679476D01*
X9448810Y-17669952D01*
X9458333Y-17660429D01*
X9467857Y-17641381D01*
X9467857Y-17593762D01*
X9458333Y-17574714D01*
X9448810Y-17565190D01*
X9429762Y-17555667D01*
X9391667Y-17555667D01*
X9372619Y-17565190D01*
X9363095Y-17574714D01*
X9353571Y-17593762D01*
X9534524Y-17479476D02*
X9658333Y-17479476D01*
X9591667Y-17555667D01*
X9620238Y-17555667D01*
X9639286Y-17565190D01*
X9648810Y-17574714D01*
X9658333Y-17593762D01*
X9658333Y-17641381D01*
X9648810Y-17660429D01*
X9639286Y-17669952D01*
X9620238Y-17679476D01*
X9563095Y-17679476D01*
X9544048Y-17669952D01*
X9534524Y-17660429D01*
X9896429Y-17679476D02*
X9896429Y-17479476D01*
X9982143Y-17679476D02*
X9982143Y-17574714D01*
X9972619Y-17555667D01*
X9953571Y-17546143D01*
X9925000Y-17546143D01*
X9905952Y-17555667D01*
X9896429Y-17565190D01*
X10105952Y-17679476D02*
X10086905Y-17669952D01*
X10077381Y-17660429D01*
X10067857Y-17641381D01*
X10067857Y-17584238D01*
X10077381Y-17565190D01*
X10086905Y-17555667D01*
X10105952Y-17546143D01*
X10134524Y-17546143D01*
X10153571Y-17555667D01*
X10163095Y-17565190D01*
X10172619Y-17584238D01*
X10172619Y-17641381D01*
X10163095Y-17660429D01*
X10153571Y-17669952D01*
X10134524Y-17679476D01*
X10105952Y-17679476D01*
X10286905Y-17679476D02*
X10267857Y-17669952D01*
X10258333Y-17650905D01*
X10258333Y-17479476D01*
X10439286Y-17669952D02*
X10420238Y-17679476D01*
X10382143Y-17679476D01*
X10363095Y-17669952D01*
X10353571Y-17650905D01*
X10353571Y-17574714D01*
X10363095Y-17555667D01*
X10382143Y-17546143D01*
X10420238Y-17546143D01*
X10439286Y-17555667D01*
X10448810Y-17574714D01*
X10448810Y-17593762D01*
X10353571Y-17612810D01*
X10525000Y-17669952D02*
X10544048Y-17679476D01*
X10582143Y-17679476D01*
X10601190Y-17669952D01*
X10610714Y-17650905D01*
X10610714Y-17641381D01*
X10601190Y-17622333D01*
X10582143Y-17612810D01*
X10553571Y-17612810D01*
X10534524Y-17603286D01*
X10525000Y-17584238D01*
X10525000Y-17574714D01*
X10534524Y-17555667D01*
X10553571Y-17546143D01*
X10582143Y-17546143D01*
X10601190Y-17555667D01*
X10677381Y-17755667D02*
X10686905Y-17746143D01*
X10705952Y-17717571D01*
X10715476Y-17698524D01*
X10725000Y-17669952D01*
X10734524Y-17622333D01*
X10734524Y-17584238D01*
X10725000Y-17536619D01*
X10715476Y-17508048D01*
X10705952Y-17489000D01*
X10686905Y-17460429D01*
X10677381Y-17450905D01*
D14*
X5665000Y-17803000D02*
X5665000Y-17903000D01*
X5615000Y-17853000D02*
X5715000Y-17853000D01*
D11*
X6077381Y-17943476D02*
X5963095Y-17943476D01*
X6020238Y-17943476D02*
X6020238Y-17743476D01*
X6001190Y-17772048D01*
X5982143Y-17791095D01*
X5963095Y-17800619D01*
X6163095Y-17924429D02*
X6172619Y-17933952D01*
X6163095Y-17943476D01*
X6153571Y-17933952D01*
X6163095Y-17924429D01*
X6163095Y-17943476D01*
X6296428Y-17743476D02*
X6315476Y-17743476D01*
X6334524Y-17753000D01*
X6344048Y-17762524D01*
X6353571Y-17781571D01*
X6363095Y-17819667D01*
X6363095Y-17867286D01*
X6353571Y-17905381D01*
X6344048Y-17924429D01*
X6334524Y-17933952D01*
X6315476Y-17943476D01*
X6296428Y-17943476D01*
X6277381Y-17933952D01*
X6267857Y-17924429D01*
X6258333Y-17905381D01*
X6248809Y-17867286D01*
X6248809Y-17819667D01*
X6258333Y-17781571D01*
X6267857Y-17762524D01*
X6277381Y-17753000D01*
X6296428Y-17743476D01*
X6486905Y-17743476D02*
X6505952Y-17743476D01*
X6525000Y-17753000D01*
X6534524Y-17762524D01*
X6544048Y-17781571D01*
X6553571Y-17819667D01*
X6553571Y-17867286D01*
X6544048Y-17905381D01*
X6534524Y-17924429D01*
X6525000Y-17933952D01*
X6505952Y-17943476D01*
X6486905Y-17943476D01*
X6467857Y-17933952D01*
X6458333Y-17924429D01*
X6448809Y-17905381D01*
X6439286Y-17867286D01*
X6439286Y-17819667D01*
X6448809Y-17781571D01*
X6458333Y-17762524D01*
X6467857Y-17753000D01*
X6486905Y-17743476D01*
X6677381Y-17743476D02*
X6696428Y-17743476D01*
X6715476Y-17753000D01*
X6725000Y-17762524D01*
X6734524Y-17781571D01*
X6744048Y-17819667D01*
X6744048Y-17867286D01*
X6734524Y-17905381D01*
X6725000Y-17924429D01*
X6715476Y-17933952D01*
X6696428Y-17943476D01*
X6677381Y-17943476D01*
X6658333Y-17933952D01*
X6648809Y-17924429D01*
X6639286Y-17905381D01*
X6629762Y-17867286D01*
X6629762Y-17819667D01*
X6639286Y-17781571D01*
X6648809Y-17762524D01*
X6658333Y-17753000D01*
X6677381Y-17743476D01*
X6829762Y-17943476D02*
X6829762Y-17810143D01*
X6829762Y-17829190D02*
X6839286Y-17819667D01*
X6858333Y-17810143D01*
X6886905Y-17810143D01*
X6905952Y-17819667D01*
X6915476Y-17838714D01*
X6915476Y-17943476D01*
X6915476Y-17838714D02*
X6925000Y-17819667D01*
X6944048Y-17810143D01*
X6972619Y-17810143D01*
X6991667Y-17819667D01*
X7001190Y-17838714D01*
X7001190Y-17943476D01*
X7096428Y-17943476D02*
X7096428Y-17810143D01*
X7096428Y-17829190D02*
X7105952Y-17819667D01*
X7125000Y-17810143D01*
X7153571Y-17810143D01*
X7172619Y-17819667D01*
X7182143Y-17838714D01*
X7182143Y-17943476D01*
X7182143Y-17838714D02*
X7191667Y-17819667D01*
X7210714Y-17810143D01*
X7239286Y-17810143D01*
X7258333Y-17819667D01*
X7267857Y-17838714D01*
X7267857Y-17943476D01*
X7658333Y-17733952D02*
X7486905Y-17991095D01*
X7915476Y-17743476D02*
X7934524Y-17743476D01*
X7953571Y-17753000D01*
X7963095Y-17762524D01*
X7972619Y-17781571D01*
X7982143Y-17819667D01*
X7982143Y-17867286D01*
X7972619Y-17905381D01*
X7963095Y-17924429D01*
X7953571Y-17933952D01*
X7934524Y-17943476D01*
X7915476Y-17943476D01*
X7896428Y-17933952D01*
X7886905Y-17924429D01*
X7877381Y-17905381D01*
X7867857Y-17867286D01*
X7867857Y-17819667D01*
X7877381Y-17781571D01*
X7886905Y-17762524D01*
X7896428Y-17753000D01*
X7915476Y-17743476D01*
X8067857Y-17924429D02*
X8077381Y-17933952D01*
X8067857Y-17943476D01*
X8058333Y-17933952D01*
X8067857Y-17924429D01*
X8067857Y-17943476D01*
X8201190Y-17743476D02*
X8220238Y-17743476D01*
X8239286Y-17753000D01*
X8248809Y-17762524D01*
X8258333Y-17781571D01*
X8267857Y-17819667D01*
X8267857Y-17867286D01*
X8258333Y-17905381D01*
X8248809Y-17924429D01*
X8239286Y-17933952D01*
X8220238Y-17943476D01*
X8201190Y-17943476D01*
X8182143Y-17933952D01*
X8172619Y-17924429D01*
X8163095Y-17905381D01*
X8153571Y-17867286D01*
X8153571Y-17819667D01*
X8163095Y-17781571D01*
X8172619Y-17762524D01*
X8182143Y-17753000D01*
X8201190Y-17743476D01*
X8334524Y-17743476D02*
X8458333Y-17743476D01*
X8391667Y-17819667D01*
X8420238Y-17819667D01*
X8439286Y-17829190D01*
X8448810Y-17838714D01*
X8458333Y-17857762D01*
X8458333Y-17905381D01*
X8448810Y-17924429D01*
X8439286Y-17933952D01*
X8420238Y-17943476D01*
X8363095Y-17943476D01*
X8344048Y-17933952D01*
X8334524Y-17924429D01*
X8553571Y-17943476D02*
X8591667Y-17943476D01*
X8610714Y-17933952D01*
X8620238Y-17924429D01*
X8639286Y-17895857D01*
X8648810Y-17857762D01*
X8648810Y-17781571D01*
X8639286Y-17762524D01*
X8629762Y-17753000D01*
X8610714Y-17743476D01*
X8572619Y-17743476D01*
X8553571Y-17753000D01*
X8544048Y-17762524D01*
X8534524Y-17781571D01*
X8534524Y-17829190D01*
X8544048Y-17848238D01*
X8553571Y-17857762D01*
X8572619Y-17867286D01*
X8610714Y-17867286D01*
X8629762Y-17857762D01*
X8639286Y-17848238D01*
X8648810Y-17829190D01*
X8820238Y-17810143D02*
X8820238Y-17943476D01*
X8772619Y-17733952D02*
X8725000Y-17876810D01*
X8848810Y-17876810D01*
X8915476Y-17743476D02*
X8915476Y-17781571D01*
X8991667Y-17743476D02*
X8991667Y-17781571D01*
X9286905Y-18019667D02*
X9277381Y-18010143D01*
X9258333Y-17981571D01*
X9248810Y-17962524D01*
X9239286Y-17933952D01*
X9229762Y-17886333D01*
X9229762Y-17848238D01*
X9239286Y-17800619D01*
X9248810Y-17772048D01*
X9258333Y-17753000D01*
X9277381Y-17724429D01*
X9286905Y-17714905D01*
X9448810Y-17810143D02*
X9448810Y-17943476D01*
X9401190Y-17733952D02*
X9353571Y-17876810D01*
X9477381Y-17876810D01*
X9705952Y-17943476D02*
X9705952Y-17743476D01*
X9791667Y-17943476D02*
X9791667Y-17838714D01*
X9782143Y-17819667D01*
X9763095Y-17810143D01*
X9734524Y-17810143D01*
X9715476Y-17819667D01*
X9705952Y-17829190D01*
X9915476Y-17943476D02*
X9896429Y-17933952D01*
X9886905Y-17924429D01*
X9877381Y-17905381D01*
X9877381Y-17848238D01*
X9886905Y-17829190D01*
X9896429Y-17819667D01*
X9915476Y-17810143D01*
X9944048Y-17810143D01*
X9963095Y-17819667D01*
X9972619Y-17829190D01*
X9982143Y-17848238D01*
X9982143Y-17905381D01*
X9972619Y-17924429D01*
X9963095Y-17933952D01*
X9944048Y-17943476D01*
X9915476Y-17943476D01*
X10096429Y-17943476D02*
X10077381Y-17933952D01*
X10067857Y-17914905D01*
X10067857Y-17743476D01*
X10248810Y-17933952D02*
X10229762Y-17943476D01*
X10191667Y-17943476D01*
X10172619Y-17933952D01*
X10163095Y-17914905D01*
X10163095Y-17838714D01*
X10172619Y-17819667D01*
X10191667Y-17810143D01*
X10229762Y-17810143D01*
X10248810Y-17819667D01*
X10258333Y-17838714D01*
X10258333Y-17857762D01*
X10163095Y-17876810D01*
X10334524Y-17933952D02*
X10353571Y-17943476D01*
X10391667Y-17943476D01*
X10410714Y-17933952D01*
X10420238Y-17914905D01*
X10420238Y-17905381D01*
X10410714Y-17886333D01*
X10391667Y-17876810D01*
X10363095Y-17876810D01*
X10344048Y-17867286D01*
X10334524Y-17848238D01*
X10334524Y-17838714D01*
X10344048Y-17819667D01*
X10363095Y-17810143D01*
X10391667Y-17810143D01*
X10410714Y-17819667D01*
X10486905Y-18019667D02*
X10496429Y-18010143D01*
X10515476Y-17981571D01*
X10525000Y-17962524D01*
X10534524Y-17933952D01*
X10544048Y-17886333D01*
X10544048Y-17848238D01*
X10534524Y-17800619D01*
X10525000Y-17772048D01*
X10515476Y-17753000D01*
X10496429Y-17724429D01*
X10486905Y-17714905D01*
D15*
X5699005Y-18155616D02*
X5699005Y-18078385D01*
X5621774Y-18078385D01*
X5621774Y-18155616D01*
X5699005Y-18155616D01*
D11*
X6077381Y-18207476D02*
X5963095Y-18207476D01*
X6020238Y-18207476D02*
X6020238Y-18007476D01*
X6001190Y-18036048D01*
X5982143Y-18055095D01*
X5963095Y-18064619D01*
X6163095Y-18188429D02*
X6172619Y-18197952D01*
X6163095Y-18207476D01*
X6153571Y-18197952D01*
X6163095Y-18188429D01*
X6163095Y-18207476D01*
X6296428Y-18007476D02*
X6315476Y-18007476D01*
X6334524Y-18017000D01*
X6344048Y-18026524D01*
X6353571Y-18045571D01*
X6363095Y-18083667D01*
X6363095Y-18131286D01*
X6353571Y-18169381D01*
X6344048Y-18188429D01*
X6334524Y-18197952D01*
X6315476Y-18207476D01*
X6296428Y-18207476D01*
X6277381Y-18197952D01*
X6267857Y-18188429D01*
X6258333Y-18169381D01*
X6248809Y-18131286D01*
X6248809Y-18083667D01*
X6258333Y-18045571D01*
X6267857Y-18026524D01*
X6277381Y-18017000D01*
X6296428Y-18007476D01*
X6458333Y-18207476D02*
X6496428Y-18207476D01*
X6515476Y-18197952D01*
X6525000Y-18188429D01*
X6544048Y-18159857D01*
X6553571Y-18121762D01*
X6553571Y-18045571D01*
X6544048Y-18026524D01*
X6534524Y-18017000D01*
X6515476Y-18007476D01*
X6477381Y-18007476D01*
X6458333Y-18017000D01*
X6448809Y-18026524D01*
X6439286Y-18045571D01*
X6439286Y-18093190D01*
X6448809Y-18112238D01*
X6458333Y-18121762D01*
X6477381Y-18131286D01*
X6515476Y-18131286D01*
X6534524Y-18121762D01*
X6544048Y-18112238D01*
X6553571Y-18093190D01*
X6629762Y-18026524D02*
X6639286Y-18017000D01*
X6658333Y-18007476D01*
X6705952Y-18007476D01*
X6725000Y-18017000D01*
X6734524Y-18026524D01*
X6744048Y-18045571D01*
X6744048Y-18064619D01*
X6734524Y-18093190D01*
X6620238Y-18207476D01*
X6744048Y-18207476D01*
X6829762Y-18207476D02*
X6829762Y-18074143D01*
X6829762Y-18093190D02*
X6839286Y-18083667D01*
X6858333Y-18074143D01*
X6886905Y-18074143D01*
X6905952Y-18083667D01*
X6915476Y-18102714D01*
X6915476Y-18207476D01*
X6915476Y-18102714D02*
X6925000Y-18083667D01*
X6944048Y-18074143D01*
X6972619Y-18074143D01*
X6991667Y-18083667D01*
X7001190Y-18102714D01*
X7001190Y-18207476D01*
X7096428Y-18207476D02*
X7096428Y-18074143D01*
X7096428Y-18093190D02*
X7105952Y-18083667D01*
X7125000Y-18074143D01*
X7153571Y-18074143D01*
X7172619Y-18083667D01*
X7182143Y-18102714D01*
X7182143Y-18207476D01*
X7182143Y-18102714D02*
X7191667Y-18083667D01*
X7210714Y-18074143D01*
X7239286Y-18074143D01*
X7258333Y-18083667D01*
X7267857Y-18102714D01*
X7267857Y-18207476D01*
X7658333Y-17997952D02*
X7486905Y-18255095D01*
X7915476Y-18007476D02*
X7934524Y-18007476D01*
X7953571Y-18017000D01*
X7963095Y-18026524D01*
X7972619Y-18045571D01*
X7982143Y-18083667D01*
X7982143Y-18131286D01*
X7972619Y-18169381D01*
X7963095Y-18188429D01*
X7953571Y-18197952D01*
X7934524Y-18207476D01*
X7915476Y-18207476D01*
X7896428Y-18197952D01*
X7886905Y-18188429D01*
X7877381Y-18169381D01*
X7867857Y-18131286D01*
X7867857Y-18083667D01*
X7877381Y-18045571D01*
X7886905Y-18026524D01*
X7896428Y-18017000D01*
X7915476Y-18007476D01*
X8067857Y-18188429D02*
X8077381Y-18197952D01*
X8067857Y-18207476D01*
X8058333Y-18197952D01*
X8067857Y-18188429D01*
X8067857Y-18207476D01*
X8201190Y-18007476D02*
X8220238Y-18007476D01*
X8239286Y-18017000D01*
X8248809Y-18026524D01*
X8258333Y-18045571D01*
X8267857Y-18083667D01*
X8267857Y-18131286D01*
X8258333Y-18169381D01*
X8248809Y-18188429D01*
X8239286Y-18197952D01*
X8220238Y-18207476D01*
X8201190Y-18207476D01*
X8182143Y-18197952D01*
X8172619Y-18188429D01*
X8163095Y-18169381D01*
X8153571Y-18131286D01*
X8153571Y-18083667D01*
X8163095Y-18045571D01*
X8172619Y-18026524D01*
X8182143Y-18017000D01*
X8201190Y-18007476D01*
X8439286Y-18074143D02*
X8439286Y-18207476D01*
X8391667Y-17997952D02*
X8344048Y-18140810D01*
X8467857Y-18140810D01*
X8525000Y-18007476D02*
X8648810Y-18007476D01*
X8582143Y-18083667D01*
X8610714Y-18083667D01*
X8629762Y-18093190D01*
X8639286Y-18102714D01*
X8648810Y-18121762D01*
X8648810Y-18169381D01*
X8639286Y-18188429D01*
X8629762Y-18197952D01*
X8610714Y-18207476D01*
X8553571Y-18207476D01*
X8534524Y-18197952D01*
X8525000Y-18188429D01*
X8772619Y-18007476D02*
X8791667Y-18007476D01*
X8810714Y-18017000D01*
X8820238Y-18026524D01*
X8829762Y-18045571D01*
X8839286Y-18083667D01*
X8839286Y-18131286D01*
X8829762Y-18169381D01*
X8820238Y-18188429D01*
X8810714Y-18197952D01*
X8791667Y-18207476D01*
X8772619Y-18207476D01*
X8753571Y-18197952D01*
X8744048Y-18188429D01*
X8734524Y-18169381D01*
X8725000Y-18131286D01*
X8725000Y-18083667D01*
X8734524Y-18045571D01*
X8744048Y-18026524D01*
X8753571Y-18017000D01*
X8772619Y-18007476D01*
X8915476Y-18007476D02*
X8915476Y-18045571D01*
X8991667Y-18007476D02*
X8991667Y-18045571D01*
X9286905Y-18283667D02*
X9277381Y-18274143D01*
X9258333Y-18245571D01*
X9248810Y-18226524D01*
X9239286Y-18197952D01*
X9229762Y-18150333D01*
X9229762Y-18112238D01*
X9239286Y-18064619D01*
X9248810Y-18036048D01*
X9258333Y-18017000D01*
X9277381Y-17988429D01*
X9286905Y-17978905D01*
X9458333Y-18007476D02*
X9363095Y-18007476D01*
X9353571Y-18102714D01*
X9363095Y-18093190D01*
X9382143Y-18083667D01*
X9429762Y-18083667D01*
X9448810Y-18093190D01*
X9458333Y-18102714D01*
X9467857Y-18121762D01*
X9467857Y-18169381D01*
X9458333Y-18188429D01*
X9448810Y-18197952D01*
X9429762Y-18207476D01*
X9382143Y-18207476D01*
X9363095Y-18197952D01*
X9353571Y-18188429D01*
X9639286Y-18074143D02*
X9639286Y-18207476D01*
X9591667Y-17997952D02*
X9544048Y-18140810D01*
X9667857Y-18140810D01*
X9896429Y-18207476D02*
X9896429Y-18007476D01*
X9982143Y-18207476D02*
X9982143Y-18102714D01*
X9972619Y-18083667D01*
X9953571Y-18074143D01*
X9925000Y-18074143D01*
X9905952Y-18083667D01*
X9896429Y-18093190D01*
X10105952Y-18207476D02*
X10086905Y-18197952D01*
X10077381Y-18188429D01*
X10067857Y-18169381D01*
X10067857Y-18112238D01*
X10077381Y-18093190D01*
X10086905Y-18083667D01*
X10105952Y-18074143D01*
X10134524Y-18074143D01*
X10153571Y-18083667D01*
X10163095Y-18093190D01*
X10172619Y-18112238D01*
X10172619Y-18169381D01*
X10163095Y-18188429D01*
X10153571Y-18197952D01*
X10134524Y-18207476D01*
X10105952Y-18207476D01*
X10286905Y-18207476D02*
X10267857Y-18197952D01*
X10258333Y-18178905D01*
X10258333Y-18007476D01*
X10439286Y-18197952D02*
X10420238Y-18207476D01*
X10382143Y-18207476D01*
X10363095Y-18197952D01*
X10353571Y-18178905D01*
X10353571Y-18102714D01*
X10363095Y-18083667D01*
X10382143Y-18074143D01*
X10420238Y-18074143D01*
X10439286Y-18083667D01*
X10448810Y-18102714D01*
X10448810Y-18121762D01*
X10353571Y-18140810D01*
X10525000Y-18197952D02*
X10544048Y-18207476D01*
X10582143Y-18207476D01*
X10601190Y-18197952D01*
X10610714Y-18178905D01*
X10610714Y-18169381D01*
X10601190Y-18150333D01*
X10582143Y-18140810D01*
X10553571Y-18140810D01*
X10534524Y-18131286D01*
X10525000Y-18112238D01*
X10525000Y-18102714D01*
X10534524Y-18083667D01*
X10553571Y-18074143D01*
X10582143Y-18074143D01*
X10601190Y-18083667D01*
X10677381Y-18283667D02*
X10686905Y-18274143D01*
X10705952Y-18245571D01*
X10715476Y-18226524D01*
X10725000Y-18197952D01*
X10734524Y-18150333D01*
X10734524Y-18112238D01*
X10725000Y-18064619D01*
X10715476Y-18036048D01*
X10705952Y-18017000D01*
X10686905Y-17988429D01*
X10677381Y-17978905D01*
D16*
X5660000Y-18436000D02*
X5715000Y-18381000D01*
X5660000Y-18326000D01*
X5605000Y-18381000D01*
X5660000Y-18436000D01*
D11*
X6077381Y-18471476D02*
X5963095Y-18471476D01*
X6020238Y-18471476D02*
X6020238Y-18271476D01*
X6001190Y-18300048D01*
X5982143Y-18319095D01*
X5963095Y-18328619D01*
X6163095Y-18452429D02*
X6172619Y-18461952D01*
X6163095Y-18471476D01*
X6153571Y-18461952D01*
X6163095Y-18452429D01*
X6163095Y-18471476D01*
X6363095Y-18471476D02*
X6248809Y-18471476D01*
X6305952Y-18471476D02*
X6305952Y-18271476D01*
X6286905Y-18300048D01*
X6267857Y-18319095D01*
X6248809Y-18328619D01*
X6486905Y-18271476D02*
X6505952Y-18271476D01*
X6525000Y-18281000D01*
X6534524Y-18290524D01*
X6544048Y-18309571D01*
X6553571Y-18347667D01*
X6553571Y-18395286D01*
X6544048Y-18433381D01*
X6534524Y-18452429D01*
X6525000Y-18461952D01*
X6505952Y-18471476D01*
X6486905Y-18471476D01*
X6467857Y-18461952D01*
X6458333Y-18452429D01*
X6448809Y-18433381D01*
X6439286Y-18395286D01*
X6439286Y-18347667D01*
X6448809Y-18309571D01*
X6458333Y-18290524D01*
X6467857Y-18281000D01*
X6486905Y-18271476D01*
X6677381Y-18271476D02*
X6696428Y-18271476D01*
X6715476Y-18281000D01*
X6725000Y-18290524D01*
X6734524Y-18309571D01*
X6744048Y-18347667D01*
X6744048Y-18395286D01*
X6734524Y-18433381D01*
X6725000Y-18452429D01*
X6715476Y-18461952D01*
X6696428Y-18471476D01*
X6677381Y-18471476D01*
X6658333Y-18461952D01*
X6648809Y-18452429D01*
X6639286Y-18433381D01*
X6629762Y-18395286D01*
X6629762Y-18347667D01*
X6639286Y-18309571D01*
X6648809Y-18290524D01*
X6658333Y-18281000D01*
X6677381Y-18271476D01*
X6829762Y-18471476D02*
X6829762Y-18338143D01*
X6829762Y-18357190D02*
X6839286Y-18347667D01*
X6858333Y-18338143D01*
X6886905Y-18338143D01*
X6905952Y-18347667D01*
X6915476Y-18366714D01*
X6915476Y-18471476D01*
X6915476Y-18366714D02*
X6925000Y-18347667D01*
X6944048Y-18338143D01*
X6972619Y-18338143D01*
X6991667Y-18347667D01*
X7001190Y-18366714D01*
X7001190Y-18471476D01*
X7096428Y-18471476D02*
X7096428Y-18338143D01*
X7096428Y-18357190D02*
X7105952Y-18347667D01*
X7125000Y-18338143D01*
X7153571Y-18338143D01*
X7172619Y-18347667D01*
X7182143Y-18366714D01*
X7182143Y-18471476D01*
X7182143Y-18366714D02*
X7191667Y-18347667D01*
X7210714Y-18338143D01*
X7239286Y-18338143D01*
X7258333Y-18347667D01*
X7267857Y-18366714D01*
X7267857Y-18471476D01*
X7658333Y-18261952D02*
X7486905Y-18519095D01*
X7915476Y-18271476D02*
X7934524Y-18271476D01*
X7953571Y-18281000D01*
X7963095Y-18290524D01*
X7972619Y-18309571D01*
X7982143Y-18347667D01*
X7982143Y-18395286D01*
X7972619Y-18433381D01*
X7963095Y-18452429D01*
X7953571Y-18461952D01*
X7934524Y-18471476D01*
X7915476Y-18471476D01*
X7896428Y-18461952D01*
X7886905Y-18452429D01*
X7877381Y-18433381D01*
X7867857Y-18395286D01*
X7867857Y-18347667D01*
X7877381Y-18309571D01*
X7886905Y-18290524D01*
X7896428Y-18281000D01*
X7915476Y-18271476D01*
X8067857Y-18452429D02*
X8077381Y-18461952D01*
X8067857Y-18471476D01*
X8058333Y-18461952D01*
X8067857Y-18452429D01*
X8067857Y-18471476D01*
X8201190Y-18271476D02*
X8220238Y-18271476D01*
X8239286Y-18281000D01*
X8248809Y-18290524D01*
X8258333Y-18309571D01*
X8267857Y-18347667D01*
X8267857Y-18395286D01*
X8258333Y-18433381D01*
X8248809Y-18452429D01*
X8239286Y-18461952D01*
X8220238Y-18471476D01*
X8201190Y-18471476D01*
X8182143Y-18461952D01*
X8172619Y-18452429D01*
X8163095Y-18433381D01*
X8153571Y-18395286D01*
X8153571Y-18347667D01*
X8163095Y-18309571D01*
X8172619Y-18290524D01*
X8182143Y-18281000D01*
X8201190Y-18271476D01*
X8439286Y-18338143D02*
X8439286Y-18471476D01*
X8391667Y-18261952D02*
X8344048Y-18404810D01*
X8467857Y-18404810D01*
X8525000Y-18271476D02*
X8648810Y-18271476D01*
X8582143Y-18347667D01*
X8610714Y-18347667D01*
X8629762Y-18357190D01*
X8639286Y-18366714D01*
X8648810Y-18385762D01*
X8648810Y-18433381D01*
X8639286Y-18452429D01*
X8629762Y-18461952D01*
X8610714Y-18471476D01*
X8553571Y-18471476D01*
X8534524Y-18461952D01*
X8525000Y-18452429D01*
X8715476Y-18271476D02*
X8839286Y-18271476D01*
X8772619Y-18347667D01*
X8801190Y-18347667D01*
X8820238Y-18357190D01*
X8829762Y-18366714D01*
X8839286Y-18385762D01*
X8839286Y-18433381D01*
X8829762Y-18452429D01*
X8820238Y-18461952D01*
X8801190Y-18471476D01*
X8744048Y-18471476D01*
X8725000Y-18461952D01*
X8715476Y-18452429D01*
X8915476Y-18271476D02*
X8915476Y-18309571D01*
X8991667Y-18271476D02*
X8991667Y-18309571D01*
X9286905Y-18547667D02*
X9277381Y-18538143D01*
X9258333Y-18509571D01*
X9248810Y-18490524D01*
X9239286Y-18461952D01*
X9229762Y-18414333D01*
X9229762Y-18376238D01*
X9239286Y-18328619D01*
X9248810Y-18300048D01*
X9258333Y-18281000D01*
X9277381Y-18252429D01*
X9286905Y-18242905D01*
X9467857Y-18471476D02*
X9353571Y-18471476D01*
X9410714Y-18471476D02*
X9410714Y-18271476D01*
X9391667Y-18300048D01*
X9372619Y-18319095D01*
X9353571Y-18328619D01*
X9639286Y-18338143D02*
X9639286Y-18471476D01*
X9591667Y-18261952D02*
X9544048Y-18404810D01*
X9667857Y-18404810D01*
X9896429Y-18471476D02*
X9896429Y-18271476D01*
X9982143Y-18471476D02*
X9982143Y-18366714D01*
X9972619Y-18347667D01*
X9953571Y-18338143D01*
X9925000Y-18338143D01*
X9905952Y-18347667D01*
X9896429Y-18357190D01*
X10105952Y-18471476D02*
X10086905Y-18461952D01*
X10077381Y-18452429D01*
X10067857Y-18433381D01*
X10067857Y-18376238D01*
X10077381Y-18357190D01*
X10086905Y-18347667D01*
X10105952Y-18338143D01*
X10134524Y-18338143D01*
X10153571Y-18347667D01*
X10163095Y-18357190D01*
X10172619Y-18376238D01*
X10172619Y-18433381D01*
X10163095Y-18452429D01*
X10153571Y-18461952D01*
X10134524Y-18471476D01*
X10105952Y-18471476D01*
X10286905Y-18471476D02*
X10267857Y-18461952D01*
X10258333Y-18442905D01*
X10258333Y-18271476D01*
X10439286Y-18461952D02*
X10420238Y-18471476D01*
X10382143Y-18471476D01*
X10363095Y-18461952D01*
X10353571Y-18442905D01*
X10353571Y-18366714D01*
X10363095Y-18347667D01*
X10382143Y-18338143D01*
X10420238Y-18338143D01*
X10439286Y-18347667D01*
X10448810Y-18366714D01*
X10448810Y-18385762D01*
X10353571Y-18404810D01*
X10525000Y-18461952D02*
X10544048Y-18471476D01*
X10582143Y-18471476D01*
X10601190Y-18461952D01*
X10610714Y-18442905D01*
X10610714Y-18433381D01*
X10601190Y-18414333D01*
X10582143Y-18404810D01*
X10553571Y-18404810D01*
X10534524Y-18395286D01*
X10525000Y-18376238D01*
X10525000Y-18366714D01*
X10534524Y-18347667D01*
X10553571Y-18338143D01*
X10582143Y-18338143D01*
X10601190Y-18347667D01*
X10677381Y-18547667D02*
X10686905Y-18538143D01*
X10705952Y-18509571D01*
X10715476Y-18490524D01*
X10725000Y-18461952D01*
X10734524Y-18414333D01*
X10734524Y-18376238D01*
X10725000Y-18328619D01*
X10715476Y-18300048D01*
X10705952Y-18281000D01*
X10686905Y-18252429D01*
X10677381Y-18242905D01*
D17*
X5565000Y-18570000D02*
X5715000Y-18720000D01*
X5715000Y-18570000D02*
X5565000Y-18720000D01*
X5715000Y-18645000D02*
G75*
G03*
X5715000Y-18645000I-75000J0D01*
G01*
D11*
X6077381Y-18735476D02*
X5963095Y-18735476D01*
X6020238Y-18735476D02*
X6020238Y-18535476D01*
X6001190Y-18564048D01*
X5982143Y-18583095D01*
X5963095Y-18592619D01*
X6163095Y-18716429D02*
X6172619Y-18725952D01*
X6163095Y-18735476D01*
X6153571Y-18725952D01*
X6163095Y-18716429D01*
X6163095Y-18735476D01*
X6353571Y-18535476D02*
X6258333Y-18535476D01*
X6248809Y-18630714D01*
X6258333Y-18621190D01*
X6277381Y-18611667D01*
X6325000Y-18611667D01*
X6344048Y-18621190D01*
X6353571Y-18630714D01*
X6363095Y-18649762D01*
X6363095Y-18697381D01*
X6353571Y-18716429D01*
X6344048Y-18725952D01*
X6325000Y-18735476D01*
X6277381Y-18735476D01*
X6258333Y-18725952D01*
X6248809Y-18716429D01*
X6486905Y-18535476D02*
X6505952Y-18535476D01*
X6525000Y-18545000D01*
X6534524Y-18554524D01*
X6544048Y-18573571D01*
X6553571Y-18611667D01*
X6553571Y-18659286D01*
X6544048Y-18697381D01*
X6534524Y-18716429D01*
X6525000Y-18725952D01*
X6505952Y-18735476D01*
X6486905Y-18735476D01*
X6467857Y-18725952D01*
X6458333Y-18716429D01*
X6448809Y-18697381D01*
X6439286Y-18659286D01*
X6439286Y-18611667D01*
X6448809Y-18573571D01*
X6458333Y-18554524D01*
X6467857Y-18545000D01*
X6486905Y-18535476D01*
X6677381Y-18535476D02*
X6696428Y-18535476D01*
X6715476Y-18545000D01*
X6725000Y-18554524D01*
X6734524Y-18573571D01*
X6744048Y-18611667D01*
X6744048Y-18659286D01*
X6734524Y-18697381D01*
X6725000Y-18716429D01*
X6715476Y-18725952D01*
X6696428Y-18735476D01*
X6677381Y-18735476D01*
X6658333Y-18725952D01*
X6648809Y-18716429D01*
X6639286Y-18697381D01*
X6629762Y-18659286D01*
X6629762Y-18611667D01*
X6639286Y-18573571D01*
X6648809Y-18554524D01*
X6658333Y-18545000D01*
X6677381Y-18535476D01*
X6829762Y-18735476D02*
X6829762Y-18602143D01*
X6829762Y-18621190D02*
X6839286Y-18611667D01*
X6858333Y-18602143D01*
X6886905Y-18602143D01*
X6905952Y-18611667D01*
X6915476Y-18630714D01*
X6915476Y-18735476D01*
X6915476Y-18630714D02*
X6925000Y-18611667D01*
X6944048Y-18602143D01*
X6972619Y-18602143D01*
X6991667Y-18611667D01*
X7001190Y-18630714D01*
X7001190Y-18735476D01*
X7096428Y-18735476D02*
X7096428Y-18602143D01*
X7096428Y-18621190D02*
X7105952Y-18611667D01*
X7125000Y-18602143D01*
X7153571Y-18602143D01*
X7172619Y-18611667D01*
X7182143Y-18630714D01*
X7182143Y-18735476D01*
X7182143Y-18630714D02*
X7191667Y-18611667D01*
X7210714Y-18602143D01*
X7239286Y-18602143D01*
X7258333Y-18611667D01*
X7267857Y-18630714D01*
X7267857Y-18735476D01*
X7658333Y-18525952D02*
X7486905Y-18783095D01*
X7915476Y-18535476D02*
X7934524Y-18535476D01*
X7953571Y-18545000D01*
X7963095Y-18554524D01*
X7972619Y-18573571D01*
X7982143Y-18611667D01*
X7982143Y-18659286D01*
X7972619Y-18697381D01*
X7963095Y-18716429D01*
X7953571Y-18725952D01*
X7934524Y-18735476D01*
X7915476Y-18735476D01*
X7896428Y-18725952D01*
X7886905Y-18716429D01*
X7877381Y-18697381D01*
X7867857Y-18659286D01*
X7867857Y-18611667D01*
X7877381Y-18573571D01*
X7886905Y-18554524D01*
X7896428Y-18545000D01*
X7915476Y-18535476D01*
X8067857Y-18716429D02*
X8077381Y-18725952D01*
X8067857Y-18735476D01*
X8058333Y-18725952D01*
X8067857Y-18716429D01*
X8067857Y-18735476D01*
X8201190Y-18535476D02*
X8220238Y-18535476D01*
X8239286Y-18545000D01*
X8248809Y-18554524D01*
X8258333Y-18573571D01*
X8267857Y-18611667D01*
X8267857Y-18659286D01*
X8258333Y-18697381D01*
X8248809Y-18716429D01*
X8239286Y-18725952D01*
X8220238Y-18735476D01*
X8201190Y-18735476D01*
X8182143Y-18725952D01*
X8172619Y-18716429D01*
X8163095Y-18697381D01*
X8153571Y-18659286D01*
X8153571Y-18611667D01*
X8163095Y-18573571D01*
X8172619Y-18554524D01*
X8182143Y-18545000D01*
X8201190Y-18535476D01*
X8448810Y-18535476D02*
X8353571Y-18535476D01*
X8344048Y-18630714D01*
X8353571Y-18621190D01*
X8372619Y-18611667D01*
X8420238Y-18611667D01*
X8439286Y-18621190D01*
X8448810Y-18630714D01*
X8458333Y-18649762D01*
X8458333Y-18697381D01*
X8448810Y-18716429D01*
X8439286Y-18725952D01*
X8420238Y-18735476D01*
X8372619Y-18735476D01*
X8353571Y-18725952D01*
X8344048Y-18716429D01*
X8553571Y-18735476D02*
X8591667Y-18735476D01*
X8610714Y-18725952D01*
X8620238Y-18716429D01*
X8639286Y-18687857D01*
X8648810Y-18649762D01*
X8648810Y-18573571D01*
X8639286Y-18554524D01*
X8629762Y-18545000D01*
X8610714Y-18535476D01*
X8572619Y-18535476D01*
X8553571Y-18545000D01*
X8544048Y-18554524D01*
X8534524Y-18573571D01*
X8534524Y-18621190D01*
X8544048Y-18640238D01*
X8553571Y-18649762D01*
X8572619Y-18659286D01*
X8610714Y-18659286D01*
X8629762Y-18649762D01*
X8639286Y-18640238D01*
X8648810Y-18621190D01*
X8839286Y-18735476D02*
X8725000Y-18735476D01*
X8782143Y-18735476D02*
X8782143Y-18535476D01*
X8763095Y-18564048D01*
X8744048Y-18583095D01*
X8725000Y-18592619D01*
X8915476Y-18535476D02*
X8915476Y-18573571D01*
X8991667Y-18535476D02*
X8991667Y-18573571D01*
X9286905Y-18811667D02*
X9277381Y-18802143D01*
X9258333Y-18773571D01*
X9248810Y-18754524D01*
X9239286Y-18725952D01*
X9229762Y-18678333D01*
X9229762Y-18640238D01*
X9239286Y-18592619D01*
X9248810Y-18564048D01*
X9258333Y-18545000D01*
X9277381Y-18516429D01*
X9286905Y-18506905D01*
X9401190Y-18535476D02*
X9420238Y-18535476D01*
X9439286Y-18545000D01*
X9448810Y-18554524D01*
X9458333Y-18573571D01*
X9467857Y-18611667D01*
X9467857Y-18659286D01*
X9458333Y-18697381D01*
X9448810Y-18716429D01*
X9439286Y-18725952D01*
X9420238Y-18735476D01*
X9401190Y-18735476D01*
X9382143Y-18725952D01*
X9372619Y-18716429D01*
X9363095Y-18697381D01*
X9353571Y-18659286D01*
X9353571Y-18611667D01*
X9363095Y-18573571D01*
X9372619Y-18554524D01*
X9382143Y-18545000D01*
X9401190Y-18535476D01*
X9705952Y-18735476D02*
X9705952Y-18535476D01*
X9791667Y-18735476D02*
X9791667Y-18630714D01*
X9782143Y-18611667D01*
X9763095Y-18602143D01*
X9734524Y-18602143D01*
X9715476Y-18611667D01*
X9705952Y-18621190D01*
X9915476Y-18735476D02*
X9896429Y-18725952D01*
X9886905Y-18716429D01*
X9877381Y-18697381D01*
X9877381Y-18640238D01*
X9886905Y-18621190D01*
X9896429Y-18611667D01*
X9915476Y-18602143D01*
X9944048Y-18602143D01*
X9963095Y-18611667D01*
X9972619Y-18621190D01*
X9982143Y-18640238D01*
X9982143Y-18697381D01*
X9972619Y-18716429D01*
X9963095Y-18725952D01*
X9944048Y-18735476D01*
X9915476Y-18735476D01*
X10096429Y-18735476D02*
X10077381Y-18725952D01*
X10067857Y-18706905D01*
X10067857Y-18535476D01*
X10248810Y-18725952D02*
X10229762Y-18735476D01*
X10191667Y-18735476D01*
X10172619Y-18725952D01*
X10163095Y-18706905D01*
X10163095Y-18630714D01*
X10172619Y-18611667D01*
X10191667Y-18602143D01*
X10229762Y-18602143D01*
X10248810Y-18611667D01*
X10258333Y-18630714D01*
X10258333Y-18649762D01*
X10163095Y-18668810D01*
X10334524Y-18725952D02*
X10353571Y-18735476D01*
X10391667Y-18735476D01*
X10410714Y-18725952D01*
X10420238Y-18706905D01*
X10420238Y-18697381D01*
X10410714Y-18678333D01*
X10391667Y-18668810D01*
X10363095Y-18668810D01*
X10344048Y-18659286D01*
X10334524Y-18640238D01*
X10334524Y-18630714D01*
X10344048Y-18611667D01*
X10363095Y-18602143D01*
X10391667Y-18602143D01*
X10410714Y-18611667D01*
X10658333Y-18659286D02*
X10810714Y-18659286D01*
X10734524Y-18735476D02*
X10734524Y-18583095D01*
X11144048Y-18602143D02*
X11144048Y-18735476D01*
X11096429Y-18525952D02*
X11048810Y-18668810D01*
X11172619Y-18668810D01*
X11391667Y-18725952D02*
X11410714Y-18735476D01*
X11448809Y-18735476D01*
X11467857Y-18725952D01*
X11477381Y-18706905D01*
X11477381Y-18697381D01*
X11467857Y-18678333D01*
X11448809Y-18668810D01*
X11420238Y-18668810D01*
X11401190Y-18659286D01*
X11391667Y-18640238D01*
X11391667Y-18630714D01*
X11401190Y-18611667D01*
X11420238Y-18602143D01*
X11448809Y-18602143D01*
X11467857Y-18611667D01*
X11591667Y-18735476D02*
X11572619Y-18725952D01*
X11563095Y-18706905D01*
X11563095Y-18535476D01*
X11696428Y-18735476D02*
X11677381Y-18725952D01*
X11667857Y-18716429D01*
X11658333Y-18697381D01*
X11658333Y-18640238D01*
X11667857Y-18621190D01*
X11677381Y-18611667D01*
X11696428Y-18602143D01*
X11725000Y-18602143D01*
X11744048Y-18611667D01*
X11753571Y-18621190D01*
X11763095Y-18640238D01*
X11763095Y-18697381D01*
X11753571Y-18716429D01*
X11744048Y-18725952D01*
X11725000Y-18735476D01*
X11696428Y-18735476D01*
X11820238Y-18602143D02*
X11896428Y-18602143D01*
X11848809Y-18535476D02*
X11848809Y-18706905D01*
X11858333Y-18725952D01*
X11877381Y-18735476D01*
X11896428Y-18735476D01*
X11953571Y-18725952D02*
X11972619Y-18735476D01*
X12010714Y-18735476D01*
X12029762Y-18725952D01*
X12039286Y-18706905D01*
X12039286Y-18697381D01*
X12029762Y-18678333D01*
X12010714Y-18668810D01*
X11982143Y-18668810D01*
X11963095Y-18659286D01*
X11953571Y-18640238D01*
X11953571Y-18630714D01*
X11963095Y-18611667D01*
X11982143Y-18602143D01*
X12010714Y-18602143D01*
X12029762Y-18611667D01*
X12105952Y-18811667D02*
X12115476Y-18802143D01*
X12134524Y-18773571D01*
X12144048Y-18754524D01*
X12153571Y-18725952D01*
X12163095Y-18678333D01*
X12163095Y-18640238D01*
X12153571Y-18592619D01*
X12144048Y-18564048D01*
X12134524Y-18545000D01*
X12115476Y-18516429D01*
X12105952Y-18506905D01*
M02*
