%FSLAX45Y45*%
G04 Gerber Fmt 4.5, Leading zero omitted, Abs format (unit mm)*
G04 Created by KiCad (PCBNEW 6.0.0) date 2022-01-12 19:51:42*
%MOMM*%
%LPD*%
G01*
G04 APERTURE LIST*
%TA.AperFunction,Profile*%
%ADD10C,0.100000*%
%TD*%
%ADD11C,0.200000*%
%ADD12C,0.270000*%
%ADD13C,0.300000*%
G04 APERTURE END LIST*
D10*
X22700000Y-16680000D02*
X6400000Y-16680000D01*
X23380000Y-3900000D02*
G75*
G03*
X22700000Y-3220000I-680000J0D01*
G01*
X22700000Y-16680000D02*
G75*
G03*
X23380000Y-16000000I0J680000D01*
G01*
X6400000Y-3220000D02*
G75*
G03*
X5720000Y-3900000I0J-680000D01*
G01*
X5720000Y-16000000D02*
X5720000Y-3900000D01*
X23380000Y-3900000D02*
X23380000Y-16000000D01*
X6400000Y-3220000D02*
X22700000Y-3220000D01*
X5720000Y-16000000D02*
G75*
G03*
X6400000Y-16680000I680000J0D01*
G01*
D11*
D12*
X9788560Y-3889200D02*
X10058560Y-4159200D01*
X10058560Y-3889200D02*
X9788560Y-4159200D01*
X11669393Y-3889200D02*
X11939393Y-4159200D01*
X11939393Y-3889200D02*
X11669393Y-4159200D01*
X13550227Y-3889200D02*
X13820227Y-4159200D01*
X13820227Y-3889200D02*
X13550227Y-4159200D01*
X15431060Y-3889200D02*
X15701060Y-4159200D01*
X15701060Y-3889200D02*
X15431060Y-4159200D01*
X17311893Y-3889200D02*
X17581893Y-4159200D01*
X17581893Y-3889200D02*
X17311893Y-4159200D01*
X19192727Y-3889200D02*
X19462727Y-4159200D01*
X19462727Y-3889200D02*
X19192727Y-4159200D01*
X21073560Y-3889200D02*
X21343560Y-4159200D01*
X21343560Y-3889200D02*
X21073560Y-4159200D01*
D13*
X6550000Y-3900000D02*
G75*
G03*
X6550000Y-3900000I-150000J0D01*
G01*
X6550000Y-16000000D02*
G75*
G03*
X6550000Y-16000000I-150000J0D01*
G01*
X15700000Y-9950000D02*
G75*
G03*
X15700000Y-9950000I-150000J0D01*
G01*
X22850000Y-3900000D02*
G75*
G03*
X22850000Y-3900000I-150000J0D01*
G01*
X22850000Y-16000000D02*
G75*
G03*
X22850000Y-16000000I-150000J0D01*
G01*
D11*
X5972619Y-16995476D02*
X5972619Y-16795476D01*
X6020238Y-16795476D01*
X6048809Y-16805000D01*
X6067857Y-16824048D01*
X6077381Y-16843095D01*
X6086905Y-16881190D01*
X6086905Y-16909762D01*
X6077381Y-16947857D01*
X6067857Y-16966905D01*
X6048809Y-16985952D01*
X6020238Y-16995476D01*
X5972619Y-16995476D01*
X6172619Y-16995476D02*
X6172619Y-16862143D01*
X6172619Y-16900238D02*
X6182143Y-16881190D01*
X6191667Y-16871667D01*
X6210714Y-16862143D01*
X6229762Y-16862143D01*
X6296428Y-16995476D02*
X6296428Y-16862143D01*
X6296428Y-16795476D02*
X6286905Y-16805000D01*
X6296428Y-16814524D01*
X6305952Y-16805000D01*
X6296428Y-16795476D01*
X6296428Y-16814524D01*
X6420238Y-16995476D02*
X6401190Y-16985952D01*
X6391667Y-16966905D01*
X6391667Y-16795476D01*
X6525000Y-16995476D02*
X6505952Y-16985952D01*
X6496428Y-16966905D01*
X6496428Y-16795476D01*
X6753571Y-16995476D02*
X6753571Y-16795476D01*
X6820238Y-16938333D01*
X6886905Y-16795476D01*
X6886905Y-16995476D01*
X7067857Y-16995476D02*
X7067857Y-16890714D01*
X7058333Y-16871667D01*
X7039286Y-16862143D01*
X7001190Y-16862143D01*
X6982143Y-16871667D01*
X7067857Y-16985952D02*
X7048809Y-16995476D01*
X7001190Y-16995476D01*
X6982143Y-16985952D01*
X6972619Y-16966905D01*
X6972619Y-16947857D01*
X6982143Y-16928810D01*
X7001190Y-16919286D01*
X7048809Y-16919286D01*
X7067857Y-16909762D01*
X7163095Y-16862143D02*
X7163095Y-17062143D01*
X7163095Y-16871667D02*
X7182143Y-16862143D01*
X7220238Y-16862143D01*
X7239286Y-16871667D01*
X7248809Y-16881190D01*
X7258333Y-16900238D01*
X7258333Y-16957381D01*
X7248809Y-16976429D01*
X7239286Y-16985952D01*
X7220238Y-16995476D01*
X7182143Y-16995476D01*
X7163095Y-16985952D01*
X7344048Y-16976429D02*
X7353571Y-16985952D01*
X7344048Y-16995476D01*
X7334524Y-16985952D01*
X7344048Y-16976429D01*
X7344048Y-16995476D01*
X7344048Y-16871667D02*
X7353571Y-16881190D01*
X7344048Y-16890714D01*
X7334524Y-16881190D01*
X7344048Y-16871667D01*
X7344048Y-16890714D01*
X5515000Y-17225000D02*
X5715000Y-17425000D01*
X5715000Y-17225000D02*
X5515000Y-17425000D01*
X5963095Y-17234524D02*
X5972619Y-17225000D01*
X5991667Y-17215476D01*
X6039286Y-17215476D01*
X6058333Y-17225000D01*
X6067857Y-17234524D01*
X6077381Y-17253571D01*
X6077381Y-17272619D01*
X6067857Y-17301190D01*
X5953571Y-17415476D01*
X6077381Y-17415476D01*
X6163095Y-17396429D02*
X6172619Y-17405952D01*
X6163095Y-17415476D01*
X6153571Y-17405952D01*
X6163095Y-17396429D01*
X6163095Y-17415476D01*
X6239286Y-17215476D02*
X6372619Y-17215476D01*
X6286905Y-17415476D01*
X6486905Y-17215476D02*
X6505952Y-17215476D01*
X6525000Y-17225000D01*
X6534524Y-17234524D01*
X6544048Y-17253571D01*
X6553571Y-17291667D01*
X6553571Y-17339286D01*
X6544048Y-17377381D01*
X6534524Y-17396429D01*
X6525000Y-17405952D01*
X6505952Y-17415476D01*
X6486905Y-17415476D01*
X6467857Y-17405952D01*
X6458333Y-17396429D01*
X6448809Y-17377381D01*
X6439286Y-17339286D01*
X6439286Y-17291667D01*
X6448809Y-17253571D01*
X6458333Y-17234524D01*
X6467857Y-17225000D01*
X6486905Y-17215476D01*
X6677381Y-17215476D02*
X6696428Y-17215476D01*
X6715476Y-17225000D01*
X6725000Y-17234524D01*
X6734524Y-17253571D01*
X6744048Y-17291667D01*
X6744048Y-17339286D01*
X6734524Y-17377381D01*
X6725000Y-17396429D01*
X6715476Y-17405952D01*
X6696428Y-17415476D01*
X6677381Y-17415476D01*
X6658333Y-17405952D01*
X6648809Y-17396429D01*
X6639286Y-17377381D01*
X6629762Y-17339286D01*
X6629762Y-17291667D01*
X6639286Y-17253571D01*
X6648809Y-17234524D01*
X6658333Y-17225000D01*
X6677381Y-17215476D01*
X6829762Y-17415476D02*
X6829762Y-17282143D01*
X6829762Y-17301190D02*
X6839286Y-17291667D01*
X6858333Y-17282143D01*
X6886905Y-17282143D01*
X6905952Y-17291667D01*
X6915476Y-17310714D01*
X6915476Y-17415476D01*
X6915476Y-17310714D02*
X6925000Y-17291667D01*
X6944048Y-17282143D01*
X6972619Y-17282143D01*
X6991667Y-17291667D01*
X7001190Y-17310714D01*
X7001190Y-17415476D01*
X7096428Y-17415476D02*
X7096428Y-17282143D01*
X7096428Y-17301190D02*
X7105952Y-17291667D01*
X7125000Y-17282143D01*
X7153571Y-17282143D01*
X7172619Y-17291667D01*
X7182143Y-17310714D01*
X7182143Y-17415476D01*
X7182143Y-17310714D02*
X7191667Y-17291667D01*
X7210714Y-17282143D01*
X7239286Y-17282143D01*
X7258333Y-17291667D01*
X7267857Y-17310714D01*
X7267857Y-17415476D01*
X7658333Y-17205952D02*
X7486905Y-17463095D01*
X7915476Y-17215476D02*
X7934524Y-17215476D01*
X7953571Y-17225000D01*
X7963095Y-17234524D01*
X7972619Y-17253571D01*
X7982143Y-17291667D01*
X7982143Y-17339286D01*
X7972619Y-17377381D01*
X7963095Y-17396429D01*
X7953571Y-17405952D01*
X7934524Y-17415476D01*
X7915476Y-17415476D01*
X7896428Y-17405952D01*
X7886905Y-17396429D01*
X7877381Y-17377381D01*
X7867857Y-17339286D01*
X7867857Y-17291667D01*
X7877381Y-17253571D01*
X7886905Y-17234524D01*
X7896428Y-17225000D01*
X7915476Y-17215476D01*
X8067857Y-17396429D02*
X8077381Y-17405952D01*
X8067857Y-17415476D01*
X8058333Y-17405952D01*
X8067857Y-17396429D01*
X8067857Y-17415476D01*
X8267857Y-17415476D02*
X8153571Y-17415476D01*
X8210714Y-17415476D02*
X8210714Y-17215476D01*
X8191667Y-17244048D01*
X8172619Y-17263095D01*
X8153571Y-17272619D01*
X8391667Y-17215476D02*
X8410714Y-17215476D01*
X8429762Y-17225000D01*
X8439286Y-17234524D01*
X8448810Y-17253571D01*
X8458333Y-17291667D01*
X8458333Y-17339286D01*
X8448810Y-17377381D01*
X8439286Y-17396429D01*
X8429762Y-17405952D01*
X8410714Y-17415476D01*
X8391667Y-17415476D01*
X8372619Y-17405952D01*
X8363095Y-17396429D01*
X8353571Y-17377381D01*
X8344048Y-17339286D01*
X8344048Y-17291667D01*
X8353571Y-17253571D01*
X8363095Y-17234524D01*
X8372619Y-17225000D01*
X8391667Y-17215476D01*
X8629762Y-17215476D02*
X8591667Y-17215476D01*
X8572619Y-17225000D01*
X8563095Y-17234524D01*
X8544048Y-17263095D01*
X8534524Y-17301190D01*
X8534524Y-17377381D01*
X8544048Y-17396429D01*
X8553571Y-17405952D01*
X8572619Y-17415476D01*
X8610714Y-17415476D01*
X8629762Y-17405952D01*
X8639286Y-17396429D01*
X8648810Y-17377381D01*
X8648810Y-17329762D01*
X8639286Y-17310714D01*
X8629762Y-17301190D01*
X8610714Y-17291667D01*
X8572619Y-17291667D01*
X8553571Y-17301190D01*
X8544048Y-17310714D01*
X8534524Y-17329762D01*
X8715476Y-17215476D02*
X8839286Y-17215476D01*
X8772619Y-17291667D01*
X8801190Y-17291667D01*
X8820238Y-17301190D01*
X8829762Y-17310714D01*
X8839286Y-17329762D01*
X8839286Y-17377381D01*
X8829762Y-17396429D01*
X8820238Y-17405952D01*
X8801190Y-17415476D01*
X8744048Y-17415476D01*
X8725000Y-17405952D01*
X8715476Y-17396429D01*
X8915476Y-17215476D02*
X8915476Y-17253571D01*
X8991667Y-17215476D02*
X8991667Y-17253571D01*
X9286905Y-17491667D02*
X9277381Y-17482143D01*
X9258333Y-17453571D01*
X9248810Y-17434524D01*
X9239286Y-17405952D01*
X9229762Y-17358333D01*
X9229762Y-17320238D01*
X9239286Y-17272619D01*
X9248810Y-17244048D01*
X9258333Y-17225000D01*
X9277381Y-17196429D01*
X9286905Y-17186905D01*
X9344048Y-17215476D02*
X9477381Y-17215476D01*
X9391667Y-17415476D01*
X9705952Y-17415476D02*
X9705952Y-17215476D01*
X9791667Y-17415476D02*
X9791667Y-17310714D01*
X9782143Y-17291667D01*
X9763095Y-17282143D01*
X9734524Y-17282143D01*
X9715476Y-17291667D01*
X9705952Y-17301190D01*
X9915476Y-17415476D02*
X9896429Y-17405952D01*
X9886905Y-17396429D01*
X9877381Y-17377381D01*
X9877381Y-17320238D01*
X9886905Y-17301190D01*
X9896429Y-17291667D01*
X9915476Y-17282143D01*
X9944048Y-17282143D01*
X9963095Y-17291667D01*
X9972619Y-17301190D01*
X9982143Y-17320238D01*
X9982143Y-17377381D01*
X9972619Y-17396429D01*
X9963095Y-17405952D01*
X9944048Y-17415476D01*
X9915476Y-17415476D01*
X10096429Y-17415476D02*
X10077381Y-17405952D01*
X10067857Y-17386905D01*
X10067857Y-17215476D01*
X10248810Y-17405952D02*
X10229762Y-17415476D01*
X10191667Y-17415476D01*
X10172619Y-17405952D01*
X10163095Y-17386905D01*
X10163095Y-17310714D01*
X10172619Y-17291667D01*
X10191667Y-17282143D01*
X10229762Y-17282143D01*
X10248810Y-17291667D01*
X10258333Y-17310714D01*
X10258333Y-17329762D01*
X10163095Y-17348810D01*
X10334524Y-17405952D02*
X10353571Y-17415476D01*
X10391667Y-17415476D01*
X10410714Y-17405952D01*
X10420238Y-17386905D01*
X10420238Y-17377381D01*
X10410714Y-17358333D01*
X10391667Y-17348810D01*
X10363095Y-17348810D01*
X10344048Y-17339286D01*
X10334524Y-17320238D01*
X10334524Y-17310714D01*
X10344048Y-17291667D01*
X10363095Y-17282143D01*
X10391667Y-17282143D01*
X10410714Y-17291667D01*
X10486905Y-17491667D02*
X10496429Y-17482143D01*
X10515476Y-17453571D01*
X10525000Y-17434524D01*
X10534524Y-17405952D01*
X10544048Y-17358333D01*
X10544048Y-17320238D01*
X10534524Y-17272619D01*
X10525000Y-17244048D01*
X10515476Y-17225000D01*
X10496429Y-17196429D01*
X10486905Y-17186905D01*
X10848810Y-17491667D02*
X10839286Y-17482143D01*
X10820238Y-17453571D01*
X10810714Y-17434524D01*
X10801190Y-17405952D01*
X10791667Y-17358333D01*
X10791667Y-17320238D01*
X10801190Y-17272619D01*
X10810714Y-17244048D01*
X10820238Y-17225000D01*
X10839286Y-17196429D01*
X10848810Y-17186905D01*
X10925000Y-17282143D02*
X10925000Y-17415476D01*
X10925000Y-17301190D02*
X10934524Y-17291667D01*
X10953571Y-17282143D01*
X10982143Y-17282143D01*
X11001190Y-17291667D01*
X11010714Y-17310714D01*
X11010714Y-17415476D01*
X11134524Y-17415476D02*
X11115476Y-17405952D01*
X11105952Y-17396429D01*
X11096429Y-17377381D01*
X11096429Y-17320238D01*
X11105952Y-17301190D01*
X11115476Y-17291667D01*
X11134524Y-17282143D01*
X11163095Y-17282143D01*
X11182143Y-17291667D01*
X11191667Y-17301190D01*
X11201190Y-17320238D01*
X11201190Y-17377381D01*
X11191667Y-17396429D01*
X11182143Y-17405952D01*
X11163095Y-17415476D01*
X11134524Y-17415476D01*
X11258333Y-17282143D02*
X11334524Y-17282143D01*
X11286905Y-17215476D02*
X11286905Y-17386905D01*
X11296428Y-17405952D01*
X11315476Y-17415476D01*
X11334524Y-17415476D01*
X11553571Y-17282143D02*
X11553571Y-17482143D01*
X11553571Y-17291667D02*
X11572619Y-17282143D01*
X11610714Y-17282143D01*
X11629762Y-17291667D01*
X11639286Y-17301190D01*
X11648809Y-17320238D01*
X11648809Y-17377381D01*
X11639286Y-17396429D01*
X11629762Y-17405952D01*
X11610714Y-17415476D01*
X11572619Y-17415476D01*
X11553571Y-17405952D01*
X11763095Y-17415476D02*
X11744048Y-17405952D01*
X11734524Y-17386905D01*
X11734524Y-17215476D01*
X11925000Y-17415476D02*
X11925000Y-17310714D01*
X11915476Y-17291667D01*
X11896428Y-17282143D01*
X11858333Y-17282143D01*
X11839286Y-17291667D01*
X11925000Y-17405952D02*
X11905952Y-17415476D01*
X11858333Y-17415476D01*
X11839286Y-17405952D01*
X11829762Y-17386905D01*
X11829762Y-17367857D01*
X11839286Y-17348810D01*
X11858333Y-17339286D01*
X11905952Y-17339286D01*
X11925000Y-17329762D01*
X11991667Y-17282143D02*
X12067857Y-17282143D01*
X12020238Y-17215476D02*
X12020238Y-17386905D01*
X12029762Y-17405952D01*
X12048809Y-17415476D01*
X12067857Y-17415476D01*
X12210714Y-17405952D02*
X12191667Y-17415476D01*
X12153571Y-17415476D01*
X12134524Y-17405952D01*
X12125000Y-17386905D01*
X12125000Y-17310714D01*
X12134524Y-17291667D01*
X12153571Y-17282143D01*
X12191667Y-17282143D01*
X12210714Y-17291667D01*
X12220238Y-17310714D01*
X12220238Y-17329762D01*
X12125000Y-17348810D01*
X12391667Y-17415476D02*
X12391667Y-17215476D01*
X12391667Y-17405952D02*
X12372619Y-17415476D01*
X12334524Y-17415476D01*
X12315476Y-17405952D01*
X12305952Y-17396429D01*
X12296428Y-17377381D01*
X12296428Y-17320238D01*
X12305952Y-17301190D01*
X12315476Y-17291667D01*
X12334524Y-17282143D01*
X12372619Y-17282143D01*
X12391667Y-17291667D01*
X12467857Y-17491667D02*
X12477381Y-17482143D01*
X12496428Y-17453571D01*
X12505952Y-17434524D01*
X12515476Y-17405952D01*
X12525000Y-17358333D01*
X12525000Y-17320238D01*
X12515476Y-17272619D01*
X12505952Y-17244048D01*
X12496428Y-17225000D01*
X12477381Y-17196429D01*
X12467857Y-17186905D01*
X5715000Y-17645000D02*
G75*
G03*
X5715000Y-17645000I-100000J0D01*
G01*
X5953571Y-17535476D02*
X6077381Y-17535476D01*
X6010714Y-17611667D01*
X6039286Y-17611667D01*
X6058333Y-17621190D01*
X6067857Y-17630714D01*
X6077381Y-17649762D01*
X6077381Y-17697381D01*
X6067857Y-17716429D01*
X6058333Y-17725952D01*
X6039286Y-17735476D01*
X5982143Y-17735476D01*
X5963095Y-17725952D01*
X5953571Y-17716429D01*
X6163095Y-17716429D02*
X6172619Y-17725952D01*
X6163095Y-17735476D01*
X6153571Y-17725952D01*
X6163095Y-17716429D01*
X6163095Y-17735476D01*
X6296428Y-17535476D02*
X6315476Y-17535476D01*
X6334524Y-17545000D01*
X6344048Y-17554524D01*
X6353571Y-17573571D01*
X6363095Y-17611667D01*
X6363095Y-17659286D01*
X6353571Y-17697381D01*
X6344048Y-17716429D01*
X6334524Y-17725952D01*
X6315476Y-17735476D01*
X6296428Y-17735476D01*
X6277381Y-17725952D01*
X6267857Y-17716429D01*
X6258333Y-17697381D01*
X6248809Y-17659286D01*
X6248809Y-17611667D01*
X6258333Y-17573571D01*
X6267857Y-17554524D01*
X6277381Y-17545000D01*
X6296428Y-17535476D01*
X6486905Y-17535476D02*
X6505952Y-17535476D01*
X6525000Y-17545000D01*
X6534524Y-17554524D01*
X6544048Y-17573571D01*
X6553571Y-17611667D01*
X6553571Y-17659286D01*
X6544048Y-17697381D01*
X6534524Y-17716429D01*
X6525000Y-17725952D01*
X6505952Y-17735476D01*
X6486905Y-17735476D01*
X6467857Y-17725952D01*
X6458333Y-17716429D01*
X6448809Y-17697381D01*
X6439286Y-17659286D01*
X6439286Y-17611667D01*
X6448809Y-17573571D01*
X6458333Y-17554524D01*
X6467857Y-17545000D01*
X6486905Y-17535476D01*
X6677381Y-17535476D02*
X6696428Y-17535476D01*
X6715476Y-17545000D01*
X6725000Y-17554524D01*
X6734524Y-17573571D01*
X6744048Y-17611667D01*
X6744048Y-17659286D01*
X6734524Y-17697381D01*
X6725000Y-17716429D01*
X6715476Y-17725952D01*
X6696428Y-17735476D01*
X6677381Y-17735476D01*
X6658333Y-17725952D01*
X6648809Y-17716429D01*
X6639286Y-17697381D01*
X6629762Y-17659286D01*
X6629762Y-17611667D01*
X6639286Y-17573571D01*
X6648809Y-17554524D01*
X6658333Y-17545000D01*
X6677381Y-17535476D01*
X6829762Y-17735476D02*
X6829762Y-17602143D01*
X6829762Y-17621190D02*
X6839286Y-17611667D01*
X6858333Y-17602143D01*
X6886905Y-17602143D01*
X6905952Y-17611667D01*
X6915476Y-17630714D01*
X6915476Y-17735476D01*
X6915476Y-17630714D02*
X6925000Y-17611667D01*
X6944048Y-17602143D01*
X6972619Y-17602143D01*
X6991667Y-17611667D01*
X7001190Y-17630714D01*
X7001190Y-17735476D01*
X7096428Y-17735476D02*
X7096428Y-17602143D01*
X7096428Y-17621190D02*
X7105952Y-17611667D01*
X7125000Y-17602143D01*
X7153571Y-17602143D01*
X7172619Y-17611667D01*
X7182143Y-17630714D01*
X7182143Y-17735476D01*
X7182143Y-17630714D02*
X7191667Y-17611667D01*
X7210714Y-17602143D01*
X7239286Y-17602143D01*
X7258333Y-17611667D01*
X7267857Y-17630714D01*
X7267857Y-17735476D01*
X7658333Y-17525952D02*
X7486905Y-17783095D01*
X7915476Y-17535476D02*
X7934524Y-17535476D01*
X7953571Y-17545000D01*
X7963095Y-17554524D01*
X7972619Y-17573571D01*
X7982143Y-17611667D01*
X7982143Y-17659286D01*
X7972619Y-17697381D01*
X7963095Y-17716429D01*
X7953571Y-17725952D01*
X7934524Y-17735476D01*
X7915476Y-17735476D01*
X7896428Y-17725952D01*
X7886905Y-17716429D01*
X7877381Y-17697381D01*
X7867857Y-17659286D01*
X7867857Y-17611667D01*
X7877381Y-17573571D01*
X7886905Y-17554524D01*
X7896428Y-17545000D01*
X7915476Y-17535476D01*
X8067857Y-17716429D02*
X8077381Y-17725952D01*
X8067857Y-17735476D01*
X8058333Y-17725952D01*
X8067857Y-17716429D01*
X8067857Y-17735476D01*
X8267857Y-17735476D02*
X8153571Y-17735476D01*
X8210714Y-17735476D02*
X8210714Y-17535476D01*
X8191667Y-17564048D01*
X8172619Y-17583095D01*
X8153571Y-17592619D01*
X8458333Y-17735476D02*
X8344048Y-17735476D01*
X8401190Y-17735476D02*
X8401190Y-17535476D01*
X8382143Y-17564048D01*
X8363095Y-17583095D01*
X8344048Y-17592619D01*
X8572619Y-17621190D02*
X8553571Y-17611667D01*
X8544048Y-17602143D01*
X8534524Y-17583095D01*
X8534524Y-17573571D01*
X8544048Y-17554524D01*
X8553571Y-17545000D01*
X8572619Y-17535476D01*
X8610714Y-17535476D01*
X8629762Y-17545000D01*
X8639286Y-17554524D01*
X8648810Y-17573571D01*
X8648810Y-17583095D01*
X8639286Y-17602143D01*
X8629762Y-17611667D01*
X8610714Y-17621190D01*
X8572619Y-17621190D01*
X8553571Y-17630714D01*
X8544048Y-17640238D01*
X8534524Y-17659286D01*
X8534524Y-17697381D01*
X8544048Y-17716429D01*
X8553571Y-17725952D01*
X8572619Y-17735476D01*
X8610714Y-17735476D01*
X8629762Y-17725952D01*
X8639286Y-17716429D01*
X8648810Y-17697381D01*
X8648810Y-17659286D01*
X8639286Y-17640238D01*
X8629762Y-17630714D01*
X8610714Y-17621190D01*
X8839286Y-17735476D02*
X8725000Y-17735476D01*
X8782143Y-17735476D02*
X8782143Y-17535476D01*
X8763095Y-17564048D01*
X8744048Y-17583095D01*
X8725000Y-17592619D01*
X8915476Y-17535476D02*
X8915476Y-17573571D01*
X8991667Y-17535476D02*
X8991667Y-17573571D01*
X9286905Y-17811667D02*
X9277381Y-17802143D01*
X9258333Y-17773571D01*
X9248810Y-17754524D01*
X9239286Y-17725952D01*
X9229762Y-17678333D01*
X9229762Y-17640238D01*
X9239286Y-17592619D01*
X9248810Y-17564048D01*
X9258333Y-17545000D01*
X9277381Y-17516429D01*
X9286905Y-17506905D01*
X9458333Y-17535476D02*
X9363095Y-17535476D01*
X9353571Y-17630714D01*
X9363095Y-17621190D01*
X9382143Y-17611667D01*
X9429762Y-17611667D01*
X9448810Y-17621190D01*
X9458333Y-17630714D01*
X9467857Y-17649762D01*
X9467857Y-17697381D01*
X9458333Y-17716429D01*
X9448810Y-17725952D01*
X9429762Y-17735476D01*
X9382143Y-17735476D01*
X9363095Y-17725952D01*
X9353571Y-17716429D01*
X9705952Y-17735476D02*
X9705952Y-17535476D01*
X9791667Y-17735476D02*
X9791667Y-17630714D01*
X9782143Y-17611667D01*
X9763095Y-17602143D01*
X9734524Y-17602143D01*
X9715476Y-17611667D01*
X9705952Y-17621190D01*
X9915476Y-17735476D02*
X9896429Y-17725952D01*
X9886905Y-17716429D01*
X9877381Y-17697381D01*
X9877381Y-17640238D01*
X9886905Y-17621190D01*
X9896429Y-17611667D01*
X9915476Y-17602143D01*
X9944048Y-17602143D01*
X9963095Y-17611667D01*
X9972619Y-17621190D01*
X9982143Y-17640238D01*
X9982143Y-17697381D01*
X9972619Y-17716429D01*
X9963095Y-17725952D01*
X9944048Y-17735476D01*
X9915476Y-17735476D01*
X10096429Y-17735476D02*
X10077381Y-17725952D01*
X10067857Y-17706905D01*
X10067857Y-17535476D01*
X10248810Y-17725952D02*
X10229762Y-17735476D01*
X10191667Y-17735476D01*
X10172619Y-17725952D01*
X10163095Y-17706905D01*
X10163095Y-17630714D01*
X10172619Y-17611667D01*
X10191667Y-17602143D01*
X10229762Y-17602143D01*
X10248810Y-17611667D01*
X10258333Y-17630714D01*
X10258333Y-17649762D01*
X10163095Y-17668810D01*
X10334524Y-17725952D02*
X10353571Y-17735476D01*
X10391667Y-17735476D01*
X10410714Y-17725952D01*
X10420238Y-17706905D01*
X10420238Y-17697381D01*
X10410714Y-17678333D01*
X10391667Y-17668810D01*
X10363095Y-17668810D01*
X10344048Y-17659286D01*
X10334524Y-17640238D01*
X10334524Y-17630714D01*
X10344048Y-17611667D01*
X10363095Y-17602143D01*
X10391667Y-17602143D01*
X10410714Y-17611667D01*
X10486905Y-17811667D02*
X10496429Y-17802143D01*
X10515476Y-17773571D01*
X10525000Y-17754524D01*
X10534524Y-17725952D01*
X10544048Y-17678333D01*
X10544048Y-17640238D01*
X10534524Y-17592619D01*
X10525000Y-17564048D01*
X10515476Y-17545000D01*
X10496429Y-17516429D01*
X10486905Y-17506905D01*
X10848810Y-17811667D02*
X10839286Y-17802143D01*
X10820238Y-17773571D01*
X10810714Y-17754524D01*
X10801190Y-17725952D01*
X10791667Y-17678333D01*
X10791667Y-17640238D01*
X10801190Y-17592619D01*
X10810714Y-17564048D01*
X10820238Y-17545000D01*
X10839286Y-17516429D01*
X10848810Y-17506905D01*
X10925000Y-17602143D02*
X10925000Y-17735476D01*
X10925000Y-17621190D02*
X10934524Y-17611667D01*
X10953571Y-17602143D01*
X10982143Y-17602143D01*
X11001190Y-17611667D01*
X11010714Y-17630714D01*
X11010714Y-17735476D01*
X11134524Y-17735476D02*
X11115476Y-17725952D01*
X11105952Y-17716429D01*
X11096429Y-17697381D01*
X11096429Y-17640238D01*
X11105952Y-17621190D01*
X11115476Y-17611667D01*
X11134524Y-17602143D01*
X11163095Y-17602143D01*
X11182143Y-17611667D01*
X11191667Y-17621190D01*
X11201190Y-17640238D01*
X11201190Y-17697381D01*
X11191667Y-17716429D01*
X11182143Y-17725952D01*
X11163095Y-17735476D01*
X11134524Y-17735476D01*
X11258333Y-17602143D02*
X11334524Y-17602143D01*
X11286905Y-17535476D02*
X11286905Y-17706905D01*
X11296428Y-17725952D01*
X11315476Y-17735476D01*
X11334524Y-17735476D01*
X11553571Y-17602143D02*
X11553571Y-17802143D01*
X11553571Y-17611667D02*
X11572619Y-17602143D01*
X11610714Y-17602143D01*
X11629762Y-17611667D01*
X11639286Y-17621190D01*
X11648809Y-17640238D01*
X11648809Y-17697381D01*
X11639286Y-17716429D01*
X11629762Y-17725952D01*
X11610714Y-17735476D01*
X11572619Y-17735476D01*
X11553571Y-17725952D01*
X11763095Y-17735476D02*
X11744048Y-17725952D01*
X11734524Y-17706905D01*
X11734524Y-17535476D01*
X11925000Y-17735476D02*
X11925000Y-17630714D01*
X11915476Y-17611667D01*
X11896428Y-17602143D01*
X11858333Y-17602143D01*
X11839286Y-17611667D01*
X11925000Y-17725952D02*
X11905952Y-17735476D01*
X11858333Y-17735476D01*
X11839286Y-17725952D01*
X11829762Y-17706905D01*
X11829762Y-17687857D01*
X11839286Y-17668810D01*
X11858333Y-17659286D01*
X11905952Y-17659286D01*
X11925000Y-17649762D01*
X11991667Y-17602143D02*
X12067857Y-17602143D01*
X12020238Y-17535476D02*
X12020238Y-17706905D01*
X12029762Y-17725952D01*
X12048809Y-17735476D01*
X12067857Y-17735476D01*
X12210714Y-17725952D02*
X12191667Y-17735476D01*
X12153571Y-17735476D01*
X12134524Y-17725952D01*
X12125000Y-17706905D01*
X12125000Y-17630714D01*
X12134524Y-17611667D01*
X12153571Y-17602143D01*
X12191667Y-17602143D01*
X12210714Y-17611667D01*
X12220238Y-17630714D01*
X12220238Y-17649762D01*
X12125000Y-17668810D01*
X12391667Y-17735476D02*
X12391667Y-17535476D01*
X12391667Y-17725952D02*
X12372619Y-17735476D01*
X12334524Y-17735476D01*
X12315476Y-17725952D01*
X12305952Y-17716429D01*
X12296428Y-17697381D01*
X12296428Y-17640238D01*
X12305952Y-17621190D01*
X12315476Y-17611667D01*
X12334524Y-17602143D01*
X12372619Y-17602143D01*
X12391667Y-17611667D01*
X12467857Y-17811667D02*
X12477381Y-17802143D01*
X12496428Y-17773571D01*
X12505952Y-17754524D01*
X12515476Y-17725952D01*
X12525000Y-17678333D01*
X12525000Y-17640238D01*
X12515476Y-17592619D01*
X12505952Y-17564048D01*
X12496428Y-17545000D01*
X12477381Y-17516429D01*
X12467857Y-17506905D01*
M02*
